<svg width="36" height="37" fill="none" xmlns="http://www.w3.org/2000/svg"><path d="M35.76 19.155c.05-.114.089-.24.115-.376.026-.137.043-.266.05-.388.009-.121 0-.244-.024-.37a2.22 2.22 0 00-.28-.72 1.82 1.82 0 00-.24-.31 2.634 2.634 0 00-.293-.265 1.667 1.667 0 00-.353-.207l-3.117-1.372c1.254-.472 2.15-1.318 2.687-2.539a4.221 4.221 0 00.378-1.711c0-.57-.196-1.145-.589-1.727-.392-.583-.989-1.05-1.79-1.403a5.488 5.488 0 00-1.03-.334 5.097 5.097 0 00-1.09-.121c-.365 0-.73.015-1.097.047a7.584 7.584 0 00-1.104.18c-.368.088-.73.185-1.084.291a9.522 9.522 0 00-1.058.388c-.352.152-.685.302-1 .448-.314.146-.628.303-.942.473-.313.17-.592.325-.837.468a8.525 8.525 0 00-.719.469 21.261 21.261 0 00-.527-2.332 20.933 20.933 0 00-.921-2.522 9.564 9.564 0 00-1.542-2.471c-.633-.734-1.34-1.273-2.122-1.617-.801-.352-1.549-.477-2.244-.372-.694.104-1.251.348-1.67.732-.42.385-.756.863-1.008 1.435-.536 1.22-.55 2.466-.04 3.738L9.094 5.27a1.933 1.933 0 00-1.534-.044 1.933 1.933 0 00-1.102 1.069l-2.404 5.463 1.86.818-5.25 11.928a1.948 1.948 0 00-.037 1.52c.194.517.548.89 1.063 1.116l21.938 9.654a1.907 1.907 0 001.54.03 1.948 1.948 0 001.097-1.055l5.248-11.928 1.83.806 2.417-5.492zM31.5 9.598c1.087.478 1.412 1.213.976 2.205a2.69 2.69 0 01-1.407 1.412 4.254 4.254 0 01-2.117.349 6.945 6.945 0 01-2.253-.582l-3.09-1.36a20.114 20.114 0 011.833-1.02c.623-.306 1.3-.588 2.029-.848a7.701 7.701 0 012.16-.45c.712-.039 1.335.059 1.869.294zM16.425 2.965c1.03.453 1.868 1.38 2.515 2.78a18.725 18.725 0 011.408 4.443l-3.09-1.36c-1.162-.511-2.076-1.255-2.74-2.23-.663-.974-.785-1.939-.365-2.892.402-.915 1.098-1.178 2.088-.788a.59.59 0 01.184.047zM32.319 22.01l-11.9-5.236 1.612-3.661L33.93 18.35l-1.611 3.66zM8.3 7.07l11.9 5.237-1.612 3.661L6.69 10.733l1.611-3.661zm-.557 6.31l10.04 4.419-5.249 11.927-10.04-4.418 5.249-11.927zm16.69 21.582l-10.068-4.43 5.248-11.928 10.069 4.43-5.25 11.928z" fill="#FF9D2B" fill-opacity=".6"/></svg>