<svg width="72" height="12" fill="none" xmlns="http://www.w3.org/2000/svg"><g clip-path="url(#clip0)"><path fill="#FFE563" d="M0 0h72v12H0z"/><path transform="matrix(.59077 -.80684 .793 .60921 1 14)" stroke="#FFC34F" stroke-width="3" stroke-linecap="round" stroke-linejoin="round" d="M1.5-1.5h15.591"/><path transform="matrix(.59077 -.80684 .793 .60921 11 14)" stroke="#FFC34F" stroke-width="3" stroke-linecap="round" stroke-linejoin="round" d="M1.5-1.5h15.591"/><path transform="matrix(.59077 -.80684 .793 .60921 21 14)" stroke="#FFC34F" stroke-width="3" stroke-linecap="round" stroke-linejoin="round" d="M1.5-1.5h15.591"/><path transform="matrix(.59077 -.80684 .793 .60921 31 14)" stroke="#FFC34F" stroke-width="3" stroke-linecap="round" stroke-linejoin="round" d="M1.5-1.5h15.591"/><path transform="matrix(.59077 -.80684 .793 .60921 41 14)" stroke="#FFC34F" stroke-width="3" stroke-linecap="round" stroke-linejoin="round" d="M1.5-1.5h15.591"/><path transform="matrix(.59077 -.80684 .793 .60921 51 14)" stroke="#FFC34F" stroke-width="3" stroke-linecap="round" stroke-linejoin="round" d="M1.5-1.5h15.591"/><path transform="matrix(.59077 -.80684 .793 .60921 61 14)" stroke="#FFC34F" stroke-width="3" stroke-linecap="round" stroke-linejoin="round" d="M1.5-1.5h15.591"/></g><defs><clipPath id="clip0"><path fill="#fff" d="M0 0h72v12H0z"/></clipPath></defs></svg>