<svg width="58" height="35" fill="none" xmlns="http://www.w3.org/2000/svg"><rect y=".403" width="58" height="33.67" rx="15" fill="#F4F3F4"/><g clip-path="url(#clip0)"><path d="M14.183 17.632l9.375 8.345a.68.68 0 00.884 0 .514.514 0 000-.787l-8.308-7.395h27.241c.345 0 .625-.25.625-.557 0-.307-.28-.556-.625-.556H16.134l8.308-7.395a.514.514 0 000-.787.665.665 0 00-.442-.163c-.16 0-.32.054-.442.163l-9.375 8.345a.514.514 0 000 .787z" fill="#5A78C3"/></g><defs><clipPath id="clip0"><rect x="44" y="30.59" width="30" height="26.704" rx="13.352" transform="rotate(-180 44 30.59)" fill="#fff"/></clipPath></defs></svg>