<svg width="16" height="17" fill="none" xmlns="http://www.w3.org/2000/svg"><path d="M15.457 13.246l-2.373-2.374a1.706 1.706 0 00-2.413 0l-.371.372a2.22 2.22 0 00-.6 1.087c-.804.015-1.714-.122-2.492-.627a12.212 12.212 0 01-2.35-2.295c-.606-.815-.766-1.804-.75-2.67.412-.093.79-.3 1.087-.6l.372-.37a1.706 1.706 0 000-2.414L3.193.982a1.137 1.137 0 00-1.609 0l-.407.407a2.739 2.739 0 00-.804 1.888c-.134 1.444.143 3.034.8 4.598a13.343 13.343 0 001.756 2.979l.027.036a14.666 14.666 0 002.598 2.587l-.005.007c.082.062.166.122.25.18 2.072 1.531 4.412 2.392 6.59 2.391.127 0 .254-.003.38-.009.811.1 1.658-.161 2.281-.784l.408-.407a1.137 1.137 0 000-1.609z" fill="url(#paint0_linear)"/><defs><linearGradient id="paint0_linear" x1="-.936" y1="16.067" x2="12.502" y2="16.836" gradientUnits="userSpaceOnUse"><stop stop-color="#F9EF98"/><stop offset="1" stop-color="#FDB776"/></linearGradient></defs></svg>