<svg width="47" height="46" fill="none" xmlns="http://www.w3.org/2000/svg"><g clip-path="url(#clip0)" filter="url(#filter0_d)"><path d="M23.588 38.608c9.096 0 16.47-7.12 16.47-15.903 0-8.783-7.374-15.903-16.47-15.903-9.097 0-16.471 7.12-16.471 15.903 0 8.783 7.374 15.903 16.47 15.903z" fill="#4D76A1"/><path d="M34.281 27.572a1.338 1.338 0 00-.07-.13c-.36-.62-1.05-1.382-2.067-2.285l-.021-.02-.01-.011-.012-.01h-.01c-.462-.421-.755-.704-.877-.849-.224-.276-.274-.555-.151-.838.086-.213.41-.665.973-1.354.296-.366.53-.659.703-.88 1.248-1.586 1.79-2.6 1.623-3.04l-.064-.104c-.044-.062-.155-.118-.335-.17-.181-.052-.412-.06-.693-.026l-3.116.02a.421.421 0 00-.216.006l-.141.03-.054.027-.043.03a.477.477 0 00-.12.11.714.714 0 00-.107.18c-.34.835-.725 1.61-1.158 2.327-.267.428-.512.799-.736 1.112a5.395 5.395 0 01-.562.693 3.852 3.852 0 01-.412.357c-.122.09-.216.128-.28.114a7.707 7.707 0 01-.185-.041.702.702 0 01-.243-.254 1.1 1.1 0 01-.125-.403 4.255 4.255 0 01-.037-.42 8.273 8.273 0 01.005-.496c.007-.213.01-.358.01-.434 0-.262.006-.547.017-.854.01-.306.02-.55.027-.729.007-.179.01-.369.01-.569 0-.2-.012-.356-.037-.47a1.557 1.557 0 00-.113-.331.565.565 0 00-.222-.248 1.284 1.284 0 00-.363-.14c-.382-.083-.869-.128-1.46-.135-1.342-.013-2.204.07-2.586.249a1.437 1.437 0 00-.411.31c-.13.152-.148.235-.054.248.432.062.739.21.92.445l.064.124c.05.09.101.248.152.476.05.227.083.48.097.755a7.7 7.7 0 010 1.293c-.036.358-.07.638-.103.838a1.62 1.62 0 01-.146.486c-.065.124-.108.2-.13.227a.18.18 0 01-.054.052.841.841 0 01-.292.052c-.101 0-.223-.049-.368-.145a2.551 2.551 0 01-.449-.398 5.329 5.329 0 01-.525-.709 12.165 12.165 0 01-.605-1.076l-.174-.3a25.684 25.684 0 01-.443-.842 15.837 15.837 0 01-.498-1.071.686.686 0 00-.26-.331l-.053-.031a.742.742 0 00-.174-.088 1.19 1.19 0 00-.248-.067l-2.965.02c-.303 0-.508.066-.617.197l-.043.062a.323.323 0 00-.032.165c0 .076.021.17.065.28.432.972.903 1.91 1.411 2.813.509.903.95 1.631 1.326 2.182.375.552.757 1.073 1.146 1.562.39.49.648.804.774.942.126.138.226.24.298.31l.27.248c.173.166.427.364.763.595.335.23.707.458 1.114.683.408.223.882.406 1.423.547a5.103 5.103 0 001.58.171h1.244c.252-.02.444-.096.573-.227l.043-.052a.671.671 0 00.082-.191 1.01 1.01 0 00.037-.285 3.254 3.254 0 01.07-.801c.055-.238.116-.417.185-.538a1.328 1.328 0 01.416-.455.723.723 0 01.087-.036c.173-.055.377-.002.611.16.235.162.455.363.66.6.206.238.453.505.741.802.289.296.541.517.758.662l.216.124c.144.083.332.159.563.228.23.068.432.086.605.051l2.77-.041c.274 0 .487-.043.638-.13.152-.086.242-.18.27-.284a.765.765 0 00.006-.352 1.247 1.247 0 00-.076-.274z" fill="#fff"/></g><defs><clipPath id="clip0"><path fill="#fff" transform="translate(7 6)" d="M0 0h33.059v33.059H0z"/></clipPath><filter id="filter0_d" x=".423" y="-.577" width="46.212" height="46.212" filterUnits="userSpaceOnUse" color-interpolation-filters="sRGB"><feFlood flood-opacity="0" result="BackgroundImageFix"/><feColorMatrix in="SourceAlpha" values="0 0 0 0 0 0 0 0 0 0 0 0 0 0 0 0 0 0 127 0"/><feOffset/><feGaussianBlur stdDeviation="3.288"/><feColorMatrix values="0 0 0 0 0 0 0 0 0 0 0 0 0 0 0 0 0 0 0.5 0"/><feBlend in2="BackgroundImageFix" result="effect1_dropShadow"/><feBlend in="SourceGraphic" in2="effect1_dropShadow" result="shape"/></filter></defs></svg>