<svg width="42" height="41" fill="none" xmlns="http://www.w3.org/2000/svg"><path d="M20.346 39.588h-.017a.125.125 0 00-.09.037l.107-.037zm0 0a.127.127 0 01.113.124.126.126 0 01-.126.124h-.002a.127.127 0 01-.127-.123.12.12 0 01.036-.088l.106-.037zm-19.5-23.99v.001a19.764 19.764 0 00-.514 4.486c0 2.451.446 4.842 1.325 7.108A19.672 19.672 0 005.3 33.155a19.878 19.878 0 0012.285 6.513.128.128 0 00.126-.11.126.126 0 00-.11-.139h0C7.902 38.146.585 29.835.587 20.085l.26-4.486zm0 0c.332-1.42.825-2.807 1.466-4.121h0M.846 15.599l1.466-4.122m0 0a19.746 19.746 0 012.302-3.645h0m-2.302 3.645L4.614 7.83m0 0a19.924 19.924 0 013.022-3.05v0M4.614 7.83l3.022-3.05m0 0a.128.128 0 01.179.017h0m-.179-.017l.179.017m0 0l.001.002m-.001-.002l.001.002m0 0c.019.022.028.05.028.076h0M7.816 4.8l.028.077m0 0c0 .04-.017.074-.046.097m.046-.097l-.046.097m4.793-2.51l-.13-.306a.126.126 0 01-.051.01.128.128 0 01-.117-.076.123.123 0 01.065-.162h0A19.82 19.82 0 0116.135.744h0a20.11 20.11 0 014.059-.413h0c1.35 0 2.697.135 4.004.401h0c1.275.26 2.53.647 3.728 1.151h0a19.89 19.89 0 016.314 4.234h0a19.88 19.88 0 012.425 2.924 19.716 19.716 0 011.831 3.355h0a19.536 19.536 0 011.56 7.688c0 1.112-.094 2.232-.282 3.33a.132.132 0 01-.061.088.137.137 0 01-.11.009 1.707 1.707 0 00-.591-.108h0a1.71 1.71 0 00-1.709 1.701c-.001.833.6 1.538 1.423 1.676h.001c.035.006.07.03.088.06a.133.133 0 01.01.106 19.813 19.813 0 01-6.072 8.441 19.852 19.852 0 01-9.66 4.24h0l-.005.001a.129.129 0 01-.139-.103.128.128 0 01.103-.144.335.335 0 00.026-.004c6.872-1.006 12.743-5.624 15.33-12.056l.12-.3-.297-.129a1.949 1.949 0 01-1.182-1.788c0-.52.203-1.01.574-1.378a1.954 1.954 0 011.613-.56l.318.035.046-.316a19.6 19.6 0 00.202-2.801c0-5.21-2.04-10.108-5.743-13.792h0A19.544 19.544 0 0020.194.581c-2.684 0-5.287.53-7.734 1.576l.13.305zm0 0a.46.46 0 01-.603-.24m.603.24a19.234 19.234 0 017.603-1.55l-8.206 1.31m0 0a.455.455 0 01-.005-.35l.005.35zm-4.19 2.75l.21.257m-.21-.257l.21.257m0 0l-.21-.257C3.216 8.696.587 14.205.587 20.085L8.008 5.23zm2.064-1.999h0c.018.03.023.062.015.094v.002a.118.118 0 01-.046.068l-.014.008a.126.126 0 01-.173-.043.124.124 0 01.109-.188c.049 0 .087.023.109.06z" stroke="url(#paint0_linear_162:3683)" stroke-width=".664"/><path d="M23.395 34.94l.116.215a1.965 1.965 0 001.732 1.031c.525 0 1.017-.203 1.388-.572a1.93 1.93 0 00.438-2.09h0a.125.125 0 00-.12-.08.123.123 0 00-.045.01h-.003 0a.119.119 0 00-.068.065.122.122 0 00-.002.095h0c.08.2.12.41.12.622v0a1.711 1.711 0 01-1.708 1.7h0-.002a1.7 1.7 0 01-1.626-1.184l.316-.101m-.536.29l.099-.277c.055 0 .103.035.12.089l.317-.102m-.536.29l-.24.046c-.97.19-1.967.286-2.961.286a15.255 15.255 0 01-10.8-4.449 15.184 15.184 0 01-3.272-4.828 15.026 15.026 0 01-1.2-5.911 15.079 15.079 0 011.403-6.367h0c.446-.96.996-1.877 1.635-2.726M23.395 34.94L7.96 10.992M23.93 34.65a.457.457 0 00-.536-.308l3.135-.957a.453.453 0 00-.006.35c.064.162.096.33.096.5a1.38 1.38 0 01-1.377 1.369h0a1.37 1.37 0 01-1.311-.954zM9.898 8.424a15.632 15.632 0 00-2.202 2.368l2.202-2.368zm0 0a.459.459 0 01.302-.113m-.302.113l.302-.113M7.96 10.99a15.296 15.296 0 012.155-2.317h0a.129.129 0 01.18.012L7.96 10.992zm14.988-5.97c0 .08-.009.162-.025.252a.46.46 0 00.355.53l.07-.325s0 0 0 0m-.4-.456l12.264 15.063c.001-7.004-4.989-13.146-11.864-14.607m-.4-.456a1.378 1.378 0 00-1.377-1.37m1.377 1.37l-1.377-1.37m1.777 1.826a.129.129 0 01-.1-.144l.001-.001a1.7 1.7 0 00.03-.311V5.02a1.71 1.71 0 00-1.708-1.7h0a1.712 1.712 0 00-1.709 1.69h0v.013a.117.117 0 01-.032.088l-.001.001a.126.126 0 01-.09.04m3.609.325l-3.61-.324m0 0a15.029 15.029 0 00-4.795.931l.014.04a.096.096 0 00-.003-.004l-.013-.034a.13.13 0 01-.163-.074h0V6.01a.119.119 0 01-.008-.044c0-.047.032-.096.082-.115a15.312 15.312 0 014.483-.93l.26-.015.048-.254a1.961 1.961 0 011.928-1.582c.522 0 1.012.201 1.382.566l.232-.234-.232.234c.37.365.575.849.58 1.364l.003.26.252.06a15.305 15.305 0 018.351 5.3l-12.4-5.467zm1.833-1.502a1.38 1.38 0 00-1.377 1.362m1.377-1.362l-1.377 1.362m0 0a.45.45 0 01-.124.327l.124-.327zm11.591 24.959h0a15.065 15.065 0 003.68-9.887 15.074 15.074 0 00-3.325-9.465l-.355 19.352zm0 0a15.314 15.314 0 01-2.577 2.372.13.13 0 01-.077.026.13.13 0 01-.103-.052m2.757-2.346l-2.757 2.346m0 0a.124.124 0 01.027-.173s0 0 0 0l-.195-.269.168.442zM10.198 8.31a.46.46 0 01.346.155l-.345-.155zm9.996 26.713c1.1 0 2.2-.12 3.271-.357l-13.17-25.98a.123.123 0 01-.01.174h0a14.918 14.918 0 00-5.11 11.225 14.81 14.81 0 004.4 10.564h0a14.97 14.97 0 0010.619 4.375zM12.31 7.218h0a.124.124 0 01.043-.17.13.13 0 01.176.043v.002a.119.119 0 01.013.092h0a.12.12 0 01-.056.076.132.132 0 01-.066.019.131.131 0 01-.11-.062z" stroke="url(#paint1_linear_162:3683)" stroke-width=".664"/><path d="M22.956 34.433a14.912 14.912 0 01-3.887.217.462.462 0 00-.493.42l4.38-.637zm0 0a2.262 2.262 0 01.664-1.811m-.664 1.81l.663-1.81m-4.712 2.472a.13.13 0 01.136-.113h0c1.325.1 2.674.025 3.975-.222l.294-.056-.026-.298a1.93 1.93 0 01.567-1.548 1.95 1.95 0 011.39-.572c.652 0 1.258.321 1.624.858l.168.247.263-.14c4.881-2.613 7.914-7.657 7.914-13.165l-16.305 15.01zm0 0s0 0 0 0v.012c0 .061.05.118.117.123a15.405 15.405 0 004.497-.319.12.12 0 00.081-.059l.001-.002a.123.123 0 00.011-.098 1.693 1.693 0 01-.08-.515v-.001a1.71 1.71 0 011.708-1.7h.001a1.7 1.7 0 011.588 1.08h0c.013.03.04.058.073.07.03.012.07.011.104-.005a15.292 15.292 0 006.11-5.5 15.083 15.083 0 002.348-8.095c0-1.646-.263-3.264-.782-4.81h0a15.067 15.067 0 00-2.176-4.175 15.304 15.304 0 00-3.32-3.29h0a15.232 15.232 0 00-4.203-2.15.152.152 0 00-.044-.007.126.126 0 00-.12.087.125.125 0 00.08.156h0c6.166 2.024 10.312 7.725 10.311 14.19L18.907 35.093zm4.712-2.473a2.286 2.286 0 011.623-.668c.762 0 1.472.375 1.9 1.004m-3.523-.336l3.522.336m0 0c4.774-2.556 7.74-7.488 7.74-12.872l-7.74 12.872zm-13.456.871v.001a.13.13 0 00.17-.06.124.124 0 00-.06-.165h0c-5.236-2.457-8.62-7.763-8.62-13.519l8.51 13.743zm0 0a15.28 15.28 0 01-3.554-2.318h0a15.28 15.28 0 01-2.77-3.188h0a15.07 15.07 0 01-2.44-8.237c0-2.013.39-3.968 1.158-5.81v-.001a15.22 15.22 0 011.36-2.546m6.246 22.1l-6.246-22.1m0 0a15.383 15.383 0 013.993-4.084h0a15.236 15.236 0 018.3-2.74L7.439 11.728zm16.06-6.35a.126.126 0 00-.101-.145h-.005v-.001h-.019a.125.125 0 00-.124.1l-.02.11-.006.005a1.704 1.704 0 01-1.651 1.276h-.002a1.708 1.708 0 01-1.709-1.694v-.002a.115.115 0 00-.037-.086h-.001a.125.125 0 00-.092-.037l3.768.474zm0 0a1.96 1.96 0 01-1.928 1.594c-.453 0-.895-.157-1.243-.441h0M23.5 5.378l-3.172 1.153m0 0a1.955 1.955 0 01-.676-1.098l-.06-.277m.736 1.375l-.737-1.375m0 0l-.283.016m.283-.016l-.283.016m0 0c-7.924.459-14.133 7.007-14.132 14.913L19.308 5.172zm3.947.1v.004-.003zm-.107.244a.046.046 0 01-.002 0h.002zm-6.825 29.26a.126.126 0 01-.123-.156.127.127 0 01.156-.088c.033.009.06.029.077.058.017.03.021.06.013.094a.127.127 0 01-.123.093z" stroke="url(#paint2_linear_162:3683)" stroke-width=".664"/><path d="M9.525 20.678l.02.254a10.561 10.561 0 003.381 6.938 10.68 10.68 0 007.268 2.838 10.66 10.66 0 007.554-3.112h0a10.588 10.588 0 002.29-3.377 10.5 10.5 0 00.839-4.134.127.127 0 00-.254 0l-21.098.593zm0 0l-.25-.046m.25.046l-.25-.046m0 0a1.952 1.952 0 01-1.6-1.917 1.955 1.955 0 011.963-1.95h.002c.047 0 .092.001.137.005l.254.021m-.757 3.841l.757-3.84m0 0l.086-.242m-.086.241l.086-.24m0 0a10.601 10.601 0 011.568-2.892 10.715 10.715 0 012.36-2.263h0m-3.928 5.154l3.928-5.154m0 0a.124.124 0 01.074-.023c.043 0 .082.02.104.053h0m-.178-.03l.178.03m0 0h.001m0 0h0m0 0a.122.122 0 01-.03.172h-.001m.031-.171l-.031.171m0 0a10.44 10.44 0 00-3.955 5.393.126.126 0 01-.153.084h0m4.108-5.477l-4.108 5.476m0 0h-.003m.003 0h-.003m0 0a1.7 1.7 0 00-.444-.06h0m.444.06l-.444-.06m0 0a1.709 1.709 0 00-1.709 1.7v.002m1.709-1.702l-1.709 1.702m0 0a1.711 1.711 0 001.696 1.7v0m-1.696-1.7l1.696 1.7m0 0h.003m-.003 0h.003m0 0h.025c.069.002.12.055.123.119h0m-.148-.119l.148.12m0 0c.239 5.565 4.816 9.923 10.417 9.923 2.785 0 5.404-1.08 7.374-3.038h0M9.776 20.535l17.791 6.886m0 0a10.281 10.281 0 003.055-7.336l-3.055 7.336zM16.43 10.27v-.002a.125.125 0 01.12-.165c.053 0 .101.034.119.081a.125.125 0 01-.075.16.128.128 0 01-.164-.074zm2.671-.641v-.002c0-.059.05-.117.115-.122h0c.323-.03.652-.045.978-.045.072 0 .127.058.127.125a.126.126 0 01-.127.125c-.317 0-.638.014-.954.042h0l-.013.001a.124.124 0 01-.125-.11v-.014z" stroke="url(#paint3_linear_162:3683)" stroke-width=".664"/><path d="M11.347 18.716a1.702 1.702 0 00-1.263-1.641.134.134 0 01-.08-.061.123.123 0 01-.01-.095v-.002a10.535 10.535 0 011.492-2.987h0a10.653 10.653 0 012.319-2.36h0c.904-.672 1.9-1.193 2.965-1.551h0c1.099-.37 2.25-.558 3.424-.558.072 0 .127.058.127.125a.126.126 0 01-.127.125h-.002c-4.387 0-8.33 2.757-9.815 6.864l-.1.274.26.134a1.942 1.942 0 01.624 2.962h0c-.278.34-.669.58-1.098.675l-.284.062.024.29c.454 5.323 5.017 9.487 10.39 9.487 3.73 0 7.199-2.001 9.056-5.224v-.001a.128.128 0 01.111-.063c.022 0 .043.006.062.017l.002.001a.12.12 0 01.058.074h0a.117.117 0 01-.011.093l-.001.002a10.698 10.698 0 01-3.84 3.873h0c-.805.475-1.67.841-2.57 1.09h0c-.929.257-1.892.387-2.866.387a10.678 10.678 0 01-7.4-2.962h0a10.586 10.586 0 01-2.31-3.228h0a10.487 10.487 0 01-.962-3.972h0a.127.127 0 01.033-.09.138.138 0 01.094-.04l-.003-.332m1.7-1.368c0 .934-.762 1.695-1.698 1.7l-.002-.332m1.7-1.368s0 0 0 0h-.331m.332 0s0 0 0 0h-.332m-1.369 1.368a.47.47 0 00-.33.141l1.699-1.51m-1.369 1.369a1.375 1.375 0 001.369-1.369m19.276 4.117h0a.126.126 0 00.11.062c.06 0 .11-.04.123-.092a.125.125 0 00-.09-.152l.084-.321m-.227.503l-.013-.093a.126.126 0 01.157-.09l.083-.32m-.227.503a.12.12 0 01-.013-.093l.013.093zm.227-.503a.457.457 0 01.327.557m-.327-.557a.468.468 0 00-.117-.016l.444.573m0 0a.459.459 0 01-.56.325l.56-.325z" stroke="url(#paint4_linear_162:3683)" stroke-width=".664"/><path d="M24.323 24.194h0a5.822 5.822 0 01-4.13 1.7.126.126 0 00-.126.125c0 .067.055.125.127.125.823 0 1.621-.16 2.372-.476l1.757-1.474zm0 0a5.762 5.762 0 001.71-4.11 5.763 5.763 0 00-1.71-4.108h0m0 8.218v-8.218m0 0a5.822 5.822 0 00-4.13-1.7 5.822 5.822 0 00-4.128 1.7h0m8.257 0h-8.257m0 0a5.764 5.764 0 00-1.71 4.108m1.71-4.108l-1.71 4.108m0 0v0m0 0v0m0 0a.126.126 0 01-.128.125m.128-.124l-.128.124m0 0a.126.126 0 01-.127-.124m.127.124l-.127-.124m0 0c0-.819.161-1.612.479-2.358m-.479 2.358l.479-2.358m0 0a6.048 6.048 0 011.305-1.926l-1.305 1.926zm3.242-3.225a6.102 6.102 0 00-1.937 1.3l1.937-1.3zm0 0a6.085 6.085 0 012.373-.476m-2.373.476l2.373-.476m0 0c.823 0 1.621.16 2.372.476l-2.372-.476zm2.372.476a6.086 6.086 0 011.937 1.3l-1.937-1.3zm1.938 1.3c.56.556.998 1.204 1.305 1.925l-1.306-1.926zm1.305 1.925c.317.747.478 1.54.478 2.358 0 .818-.16 1.611-.478 2.358a6.086 6.086 0 01-3.242 3.225l3.242-7.94z" stroke="url(#paint5_linear_162:3683)" stroke-width=".664"/><path d="M24.323 24.194h0a5.822 5.822 0 01-4.13 1.7.126.126 0 00-.126.125c0 .067.055.125.127.125.823 0 1.621-.16 2.372-.476l1.757-1.474zm0 0a5.762 5.762 0 001.71-4.11 5.763 5.763 0 00-1.71-4.108h0m0 8.218v-8.218m0 0a5.822 5.822 0 00-4.13-1.7 5.822 5.822 0 00-4.128 1.7h0m8.257 0h-8.257m0 0a5.764 5.764 0 00-1.71 4.109m1.71-4.109l-1.71 4.109m0 0a.126.126 0 01-.128.124m.128-.124l-.128.124m0 0a.126.126 0 01-.127-.124m.127.124l-.127-.124m0 0c0-.819.161-1.611.479-2.358m-.479 2.358l.479-2.358m0 0a6.045 6.045 0 011.305-1.926l-1.305 1.926zm11.23 0a6.046 6.046 0 00-1.306-1.926l1.306 1.926zm0 0c.317.747.478 1.54.478 2.358m-.478-2.358l.478 2.358m0 0c0 .818-.16 1.611-.478 2.358m.478-2.358l-.478 2.358m0 0a6.046 6.046 0 01-1.306 1.926m1.306-1.926l-1.306 1.926m0 0a6.086 6.086 0 01-1.936 1.299l1.936-1.3zM15.884 15.8a6.1 6.1 0 014.31-1.775c.823 0 1.621.16 2.372.476l-6.682 1.3zm6.682-1.299a6.086 6.086 0 011.937 1.3l-1.937-1.3z" stroke="url(#paint6_linear_162:3683)" stroke-width=".664"/><path d="M19.609 5.041v-.026l-.001-.004a1.93 1.93 0 01.574-1.368c.37-.369.863-.572 1.389-.572a1.955 1.955 0 011.928 2.307 1.96 1.96 0 01-1.929 1.594c-.521 0-1.011-.2-1.381-.565a1.928 1.928 0 01-.58-1.366zm1.962-1.72h-.001a1.713 1.713 0 00-1.708 1.686h0v.021a1.707 1.707 0 001.709 1.695h.002c.82 0 1.526-.583 1.676-1.39h0a1.7 1.7 0 00.03-.311V5.02a1.71 1.71 0 00-1.708-1.7z" stroke="url(#paint7_linear_162:3683)" stroke-width=".664"/><path d="M24.072 35.801c.34.251.744.384 1.17.384.526 0 1.018-.202 1.39-.571a1.93 1.93 0 00.437-2.09h0a1.946 1.946 0 00-.708-.891h0a1.952 1.952 0 00-1.119-.349c-.526 0-1.018.203-1.389.572l.219 2.945zm0 0a1.94 1.94 0 01-.7-.975h0a1.935 1.935 0 01.481-1.97l.219 2.945zm1.17-3.267h0a1.71 1.71 0 00-1.708 1.7v.001a1.702 1.702 0 001.708 1.701h.001a1.71 1.71 0 001.708-1.7v-.001a1.7 1.7 0 00-1.708-1.701h0z" stroke="url(#paint8_linear_162:3683)" stroke-width=".664"/><path d="M10.149 16.834h0a1.955 1.955 0 011.452 1.882c0 .517-.201 1.003-.568 1.371h0a1.956 1.956 0 01-1.374.578h-.021l-.005.001a1.955 1.955 0 01-1.958-1.95 1.955 1.955 0 012.474-1.881zm-.511.18h0a1.709 1.709 0 00-1.709 1.701h0a1.714 1.714 0 001.693 1.702h.019l.009-.001h.003a1.707 1.707 0 001.694-1.7 1.702 1.702 0 00-1.264-1.64 1.655 1.655 0 00-.445-.062zm.008 3.402h0s0 0 0 0h0zm-.008-3.07a1.377 1.377 0 00-1.377 1.37l1.735-1.32a1.33 1.33 0 00-.358-.05z" stroke="url(#paint9_linear_162:3683)" stroke-width=".664"/><path d="M38.683 27.027h0a1.952 1.952 0 001.717-.542 1.93 1.93 0 00.574-1.379 1.92 1.92 0 00-.36-1.124h0a1.964 1.964 0 00-1.603-.826c-.526 0-1.018.202-1.39.571l1.062 3.3zm0 0a1.969 1.969 0 01-1.167-.657h0m1.167.657l-1.167-.657m0 0a1.94 1.94 0 01-.468-1.264m.468 1.264l-.468-1.264m0 0c0-.521.203-1.01.574-1.379l-.574 1.38zm1.963-1.701h0a1.71 1.71 0 00-1.709 1.7h0c-.001.835.6 1.539 1.423 1.677h.002c.097.016.19.025.284.025h0a1.71 1.71 0 001.708-1.7h0a1.706 1.706 0 00-1.116-1.595h0a1.713 1.713 0 00-.592-.107z" stroke="url(#paint10_linear_162:3683)" stroke-width=".664"/><path d="M20.194 21.579c-.83 0-1.504-.673-1.504-1.494s.674-1.494 1.504-1.494 1.504.673 1.504 1.494c0 .82-.674 1.494-1.504 1.494zm0-2.74h0a1.251 1.251 0 00-1.25 1.245v.001a1.251 1.251 0 001.25 1.244h0a1.251 1.251 0 001.25-1.244h0a1.251 1.251 0 00-1.25-1.245z" stroke="url(#paint11_linear_162:3683)" stroke-width=".664"/><defs><linearGradient id="paint0_linear_162:3683" x1="-8.244" y1="1.27" x2="43.833" y2="40.01" gradientUnits="userSpaceOnUse"><stop stop-color="#ACB4FF"/><stop offset=".521" stop-color="#A55FFF"/><stop offset="1" stop-color="#816CFF" stop-opacity=".88"/></linearGradient><linearGradient id="paint1_linear_162:3683" x1="-1.781" y1="3.807" x2="40.823" y2="32.93" gradientUnits="userSpaceOnUse"><stop stop-color="#ACB4FF"/><stop offset=".521" stop-color="#A55FFF"/><stop offset="1" stop-color="#816CFF" stop-opacity=".88"/></linearGradient><linearGradient id="paint2_linear_162:3683" x1="-1.781" y1="5.554" x2="38.455" y2="35.491" gradientUnits="userSpaceOnUse"><stop stop-color="#ACB4FF"/><stop offset=".521" stop-color="#A55FFF"/><stop offset="1" stop-color="#816CFF" stop-opacity=".88"/></linearGradient><linearGradient id="paint3_linear_162:3683" x1="2.472" y1="9.822" x2="31.453" y2="33.177" gradientUnits="userSpaceOnUse"><stop stop-color="#ACB4FF"/><stop offset=".521" stop-color="#A55FFF"/><stop offset="1" stop-color="#816CFF" stop-opacity=".88"/></linearGradient><linearGradient id="paint4_linear_162:3683" x1="4.767" y1="9.822" x2="33.035" y2="30.508" gradientUnits="userSpaceOnUse"><stop stop-color="#ACB4FF"/><stop offset=".521" stop-color="#A55FFF"/><stop offset="1" stop-color="#816CFF" stop-opacity=".88"/></linearGradient><linearGradient id="paint5_linear_162:3683" x1="11.146" y1="14.098" x2="27.716" y2="26.425" gradientUnits="userSpaceOnUse"><stop stop-color="#ACB4FF"/><stop offset=".521" stop-color="#A55FFF"/><stop offset="1" stop-color="#816CFF" stop-opacity=".88"/></linearGradient><linearGradient id="paint6_linear_162:3683" x1="11.146" y1="14.098" x2="27.716" y2="26.425" gradientUnits="userSpaceOnUse"><stop stop-color="#ACB4FF"/><stop offset=".521" stop-color="#A55FFF"/><stop offset="1" stop-color="#816CFF" stop-opacity=".88"/></linearGradient><linearGradient id="paint7_linear_162:3683" x1="18.339" y1="2.884" x2="24.257" y2="7.286" gradientUnits="userSpaceOnUse"><stop stop-color="#ACB4FF"/><stop offset=".521" stop-color="#A55FFF"/><stop offset="1" stop-color="#816CFF" stop-opacity=".88"/></linearGradient><linearGradient id="paint8_linear_162:3683" x1="22.011" y1="32.097" x2="27.929" y2="36.499" gradientUnits="userSpaceOnUse"><stop stop-color="#ACB4FF"/><stop offset=".521" stop-color="#A55FFF"/><stop offset="1" stop-color="#816CFF" stop-opacity=".88"/></linearGradient><linearGradient id="paint9_linear_162:3683" x1="6.406" y1="16.577" x2="12.324" y2="20.98" gradientUnits="userSpaceOnUse"><stop stop-color="#ACB4FF"/><stop offset=".521" stop-color="#A55FFF"/><stop offset="1" stop-color="#816CFF" stop-opacity=".88"/></linearGradient><linearGradient id="paint10_linear_162:3683" x1="35.779" y1="22.968" x2="41.697" y2="27.37" gradientUnits="userSpaceOnUse"><stop stop-color="#ACB4FF"/><stop offset=".521" stop-color="#A55FFF"/><stop offset="1" stop-color="#816CFF" stop-opacity=".88"/></linearGradient><linearGradient id="paint11_linear_162:3683" x1="17.609" y1="18.374" x2="22.343" y2="21.896" gradientUnits="userSpaceOnUse"><stop stop-color="#ACB4FF"/><stop offset=".521" stop-color="#A55FFF"/><stop offset="1" stop-color="#816CFF" stop-opacity=".88"/></linearGradient></defs></svg>