<svg width="42" height="42" fill="none" xmlns="http://www.w3.org/2000/svg"><path d="M6.284 6.284h0a20.246 20.246 0 00-4.355 6.458l4.355-6.458zm0 0a20.248 20.248 0 016.458-4.354l-.129-.306m-6.33 4.66l6.33-4.66m0 0l.13.306a20.193 20.193 0 017.91-1.598c2.743 0 5.404.538 7.91 1.598h0a20.24 20.24 0 016.459 4.354h0a20.253 20.253 0 014.354 6.458M12.613 1.624A20.525 20.525 0 0120.653 0c2.787 0 5.492.547 8.04 1.624a20.571 20.571 0 016.563 4.425 20.586 20.586 0 014.426 6.564m0 0l-.306.13s0 0 0 0m.306-.13l-.306.13m.306-.13a20.527 20.527 0 011.623 8.04 20.572 20.572 0 01-6.05 14.604 20.57 20.57 0 01-6.563 4.424 20.515 20.515 0 01-8.04 1.624 20.52 20.52 0 01-8.039-1.624 20.563 20.563 0 01-6.564-4.425L1.93 12.742a20.204 20.204 0 00-1.597 7.91c0 2.744.537 5.405 1.597 7.911h0a20.241 20.241 0 004.355 6.459h0a20.232 20.232 0 006.458 4.354h0a20.185 20.185 0 007.91 1.598c2.744 0 5.405-.538 7.91-1.598h.001a20.24 20.24 0 006.459-4.354h0a20.242 20.242 0 004.354-6.459h0a20.19 20.19 0 001.598-7.91c0-2.743-.538-5.404-1.598-7.91" stroke="url(#paint0_linear_209:126)" stroke-width=".664"/><path d="M12.795 18.796c0 1.623.496 3.142 1.33 4.4a6.767 6.767 0 00-.185.237 8.237 8.237 0 01-1.44-4.656c0-4.56 3.717-8.277 8.277-8.277 4.558 0 8.277 3.716 8.295 8.278 0 1.732-.539 3.34-1.448 4.666a7.489 7.489 0 00-.196-.248 7.958 7.958 0 001.33-4.4 7.983 7.983 0 00-15.963 0z" fill="#000" stroke="url(#paint1_linear_209:126)"/><path d="M15.117 19.024v.019a5.53 5.53 0 00.741 2.57 6.006 6.006 0 00-.252.176 6.008 6.008 0 01-.822-3.012 6 6 0 015.992-5.992c3.303 0 5.992 2.688 5.992 6.01a5.926 5.926 0 01-.82 3.02 8.561 8.561 0 00-.255-.182c.434-.753.701-1.62.759-2.541.022-.118.022-.227.022-.3v-.015c0-.073-.007-.143-.011-.187l-.001-.006a1.004 1.004 0 01-.007-.093v-.015l-.001-.015a5.716 5.716 0 00-5.09-5.34c-.2-.023-.394-.023-.575-.023h-.025c-.181 0-.376 0-.575.022a5.681 5.681 0 00-5.07 5.313c-.021.13-.02.251-.02.331v.013a1.55 1.55 0 00.017.23l.001.017z" fill="#000" stroke="url(#paint2_linear_209:126)"/><path d="M27.282 28.353v.147h-13.05v-.147c0-1.127.3-2.165.828-3.082h0l.005-.009c.188-.34.43-.671.695-.972.218-.236.43-.447.655-.637.327-.273.66-.517 1-.705a6.03 6.03 0 01.911-.403l.881-.294-.73-.574a3.53 3.53 0 01-.648-.664h0l-.005-.006a3.685 3.685 0 01-.755-2.23 3.721 3.721 0 013.707-3.708c2.043 0 3.706 1.676 3.689 3.742h0v.004c0 .836-.284 1.607-.756 2.23h0l-.004.006c-.18.244-.394.46-.652.667l-.717.574.872.29c.31.104.621.242.897.397.36.217.698.448 1.014.712.225.19.437.4.655.637.266.303.508.633.677.936h0l.004.007a6.11 6.11 0 01.828 3.082zm-12.675-.687l-.066.559h12.526l-.084-.573a6.242 6.242 0 00-.622-1.966h0l-.006-.01a6.428 6.428 0 00-.806-1.157h0l-.007-.008a6.656 6.656 0 00-.78-.737 5.755 5.755 0 00-1.413-.832h0l-.01-.004a6.047 6.047 0 00-2.22-.435h-.647c-.784 0-1.535.144-2.228.438a5.652 5.652 0 00-1.414.832 6.658 6.658 0 00-.78.738h0l-.008.008c-.313.354-.58.747-.806 1.156a5.408 5.408 0 00-.63 1.991zm6.17-12.283a3.393 3.393 0 00-3.394 3.394c0 .978.401 1.85 1.07 2.476.603.58 1.43.937 2.323.937.895 0 1.721-.358 2.325-.937a3.359 3.359 0 001.07-2.476 3.393 3.393 0 00-3.395-3.394z" fill="#000" stroke="url(#paint3_linear_209:126)"/><defs><linearGradient id="paint0_linear_209:126" x1="-8.431" y1="1.306" x2="45.036" y2="40.864" gradientUnits="userSpaceOnUse"><stop stop-color="#ACB4FF"/><stop offset=".521" stop-color="#A55FFF"/><stop offset="1" stop-color="#816CFF" stop-opacity=".88"/></linearGradient><linearGradient id="paint1_linear_209:126" x1="8.413" y1="10.452" x2="27.68" y2="27.971" gradientUnits="userSpaceOnUse"><stop stop-color="#ACB4FF"/><stop offset=".521" stop-color="#A55FFF"/><stop offset="1" stop-color="#816CFF" stop-opacity=".88"/></linearGradient><linearGradient id="paint2_linear_209:126" x1="11.634" y1="12.609" x2="25.494" y2="25.584" gradientUnits="userSpaceOnUse"><stop stop-color="#ACB4FF"/><stop offset=".521" stop-color="#A55FFF"/><stop offset="1" stop-color="#816CFF" stop-opacity=".88"/></linearGradient><linearGradient id="paint3_linear_209:126" x1="10.865" y1="15.026" x2="29.393" y2="28.372" gradientUnits="userSpaceOnUse"><stop stop-color="#ACB4FF"/><stop offset=".521" stop-color="#A55FFF"/><stop offset="1" stop-color="#816CFF" stop-opacity=".88"/></linearGradient></defs></svg>