<svg width="657" height="411" fill="none" xmlns="http://www.w3.org/2000/svg"><g opacity=".3"><path d="M334.166 72.588h-12.238c0-2.838.639-5.499 1.916-7.982 1.277-2.554 2.837-4.718 4.682-6.491a124.441 124.441 0 015.534-5.215c1.844-1.703 3.405-3.547 4.682-5.534 1.277-1.986 1.916-4.008 1.916-6.066 0-2.909-1.029-5.179-3.086-6.81-2.058-1.633-4.825-2.448-8.301-2.448-3.335 0-6.208.85-8.62 2.554-2.412 1.702-4.15 4.115-5.215 7.236l-10.535-5.96c1.915-4.966 5.072-8.832 9.471-11.6 4.47-2.766 9.542-4.15 15.218-4.15 6.385 0 11.848 1.81 16.389 5.428 4.611 3.618 6.917 8.62 6.917 15.005a18.73 18.73 0 01-1.915 8.3c-1.277 2.626-2.838 4.86-4.683 6.705a389.708 389.708 0 01-5.534 5.428c-1.844 1.703-3.405 3.547-4.682 5.534-1.277 1.986-1.916 4.008-1.916 6.066zm-6.066 8.726c2.2 0 4.08.78 5.641 2.341 1.56 1.561 2.341 3.441 2.341 5.64 0 2.2-.781 4.08-2.341 5.64-1.561 1.562-3.441 2.342-5.641 2.342-2.199 0-4.079-.78-5.64-2.341-1.561-1.561-2.341-3.441-2.341-5.64 0-2.2.745-4.08 2.235-5.64 1.56-1.562 3.476-2.342 5.746-2.342z" fill="#fff" fill-opacity=".77"/><path d="M334.166 72.588h-12.238c0-2.838.639-5.499 1.916-7.982 1.277-2.554 2.837-4.718 4.682-6.491a124.441 124.441 0 015.534-5.215c1.844-1.703 3.405-3.547 4.682-5.534 1.277-1.986 1.916-4.008 1.916-6.066 0-2.909-1.029-5.179-3.086-6.81-2.058-1.633-4.825-2.448-8.301-2.448-3.335 0-6.208.85-8.62 2.554-2.412 1.702-4.15 4.115-5.215 7.236l-10.535-5.96c1.915-4.966 5.072-8.832 9.471-11.6 4.47-2.766 9.542-4.15 15.218-4.15 6.385 0 11.848 1.81 16.389 5.428 4.611 3.618 6.917 8.62 6.917 15.005a18.73 18.73 0 01-1.915 8.3c-1.277 2.626-2.838 4.86-4.683 6.705a389.708 389.708 0 01-5.534 5.428c-1.844 1.703-3.405 3.547-4.682 5.534-1.277 1.986-1.916 4.008-1.916 6.066zm-6.066 8.726c2.2 0 4.08.78 5.641 2.341 1.56 1.561 2.341 3.441 2.341 5.64 0 2.2-.781 4.08-2.341 5.64-1.561 1.562-3.441 2.342-5.641 2.342-2.199 0-4.079-.78-5.64-2.341-1.561-1.561-2.341-3.441-2.341-5.64 0-2.2.745-4.08 2.235-5.64 1.56-1.562 3.476-2.342 5.746-2.342z" fill="url(#paint0_linear_301:787)"/></g><path d="M440.657 364.394a8.773 8.773 0 01-4.454-3.497c-33.671-51.828-54.723-93.7-66.382-131.847-14.86-48.736-8.864-86.887 17.808-113.402 19.028-18.946 57.43-26.522 90.975-2.706a86.633 86.633 0 0133.18 46.547 86.641 86.641 0 0154.885-15.977c40.946 2.227 66.536 31.83 69.731 58.492 4.508 37.337-14.424 70.998-56.284 100.044-32.788 22.719-75.256 42.542-133.797 62.361a8.777 8.777 0 01-5.662-.015zm12.026-245.304a51.791 51.791 0 00-52.632 8.954c-22.007 21.908-26.392 53.278-13.371 95.801a501.464 501.464 0 0060.511 121.725 501.446 501.446 0 00122.888-57.97c36.679-25.363 52.59-52.732 48.862-83.48-2.535-19.464-22.836-41.284-53.238-43.103a70.21 70.21 0 00-53.054 20.608 8.775 8.775 0 01-9.455 2.479 8.78 8.78 0 01-5.886-7.804 69.595 69.595 0 00-28.875-49.048 64.124 64.124 0 00-15.75-8.162z" fill="url(#paint1_linear_301:787)" fill-opacity=".4"/><path d="M452.683 119.09a51.791 51.791 0 00-52.632 8.954c-22.007 21.908-26.392 53.278-13.371 95.801a501.464 501.464 0 0060.511 121.725 501.446 501.446 0 00122.888-57.97c36.679-25.363 52.59-52.732 48.862-83.48-2.535-19.464-22.836-41.284-53.238-43.103a70.21 70.21 0 00-53.054 20.608 8.775 8.775 0 01-9.455 2.479 8.78 8.78 0 01-5.886-7.804 69.595 69.595 0 00-28.875-49.048 64.124 64.124 0 00-15.75-8.162z" fill="url(#paint2_linear_301:787)" fill-opacity=".4"/><path d="M274.252 118.808c-16.714-21.037-54.156-33.015-90.295-13.282a101.705 101.705 0 00-37.328 40.127 148.135 148.135 0 00-12.719 43.787l61.963 12.78-37.97 55.639 24.952 19.132-10.972 14.461-38.925-29.359 32.248-47.637-51.33-10.358a170.768 170.768 0 019.396-51.504 129.635 129.635 0 016.208-15.208l.516-.114a85.122 85.122 0 00-37.567-11.321c-40.932-2.851-69.83 23.556-76.162 49.668-8.9 36.564 5.982 72.205 44.246 105.933 29.974 26.386 69.933 51.022 125.901 77.526a8.824 8.824 0 0010.578-2.329c39.591-47.458 65.647-86.362 81.69-123.24 20.471-46.662 19.005-85.258-4.43-114.701z" fill="url(#paint3_linear_301:787)" fill-opacity=".4"/><defs><linearGradient id="paint0_linear_301:787" x1="329.691" y1="-20.805" x2="329.691" y2="126.857" gradientUnits="userSpaceOnUse"><stop stop-color="#F0C7FF"/><stop offset="1" stop-color="#C4C4C4" stop-opacity="0"/></linearGradient><linearGradient id="paint1_linear_301:787" x1="537.365" y1="85.796" x2="440.657" y2="364.394" gradientUnits="userSpaceOnUse"><stop stop-color="#F0C7FF"/><stop offset="1" stop-color="#C4C4C4" stop-opacity="0"/></linearGradient><linearGradient id="paint2_linear_301:787" x1="537.365" y1="85.796" x2="440.657" y2="364.394" gradientUnits="userSpaceOnUse"><stop stop-color="#F0C7FF"/><stop offset="1" stop-color="#C4C4C4" stop-opacity="0"/></linearGradient><linearGradient id="paint3_linear_301:787" x1="128.636" y1="71.715" x2="192.061" y2="359.735" gradientUnits="userSpaceOnUse"><stop stop-color="#F0C7FF"/><stop offset="1" stop-color="#C4C4C4" stop-opacity="0"/></linearGradient></defs></svg>