<svg width="26" height="24" fill="none" xmlns="http://www.w3.org/2000/svg"><path fill-rule="evenodd" clip-rule="evenodd" d="M13.016 4.95a.618.618 0 00.618-.618V.882a.618.618 0 00-.618-.617.64.64 0 00-.618.618v3.45c0 .357.293.618.618.618zm5.564 0a.618.618 0 00.619-.618V.882a.618.618 0 00-.618-.617.64.64 0 00-.619.618v3.45c0 .357.293.618.619.618zm-1.724-2.636H14.74a.48.48 0 00-.489.489v.227a.48.48 0 00.489.488h2.115a.48.48 0 00.488-.488v-.227a.5.5 0 00-.488-.489zm-5.63 0H9.111a.48.48 0 00-.488.489v.227a.48.48 0 00.488.488h2.115a.48.48 0 00.488-.488v-.227a.5.5 0 00-.488-.489zM7.452 4.95a.618.618 0 00.618-.618V.882a.618.618 0 00-.618-.617.64.64 0 00-.619.618v3.45c0 .357.26.618.619.618z" fill="#000"/><path fill-rule="evenodd" clip-rule="evenodd" d="M24.145 2.314h-3.742a.48.48 0 00-.488.489v.227a.48.48 0 00.488.488h3.124c.683 0 1.236.554 1.236 1.237V20.83c0 .684-.553 1.237-1.236 1.237H2.473a1.236 1.236 0 01-1.236-1.237V4.755c0-.683.553-1.237 1.236-1.237h3.19a.48.48 0 00.487-.488v-.227a.48.48 0 00-.488-.489H1.855A1.854 1.854 0 000 4.17v17.312c0 1.041.846 1.855 1.855 1.855h22.29A1.854 1.854 0 0026 21.48V4.169a1.854 1.854 0 00-1.855-1.855z" fill="#000"/><path d="M16.693 8.79a1.27 1.27 0 100-2.538 1.27 1.27 0 000 2.538zm-3.709 7.452a1.27 1.27 0 100-2.538 1.27 1.27 0 000 2.538zm3.709-3.742a1.27 1.27 0 100-2.538 1.27 1.27 0 000 2.538zm-3.709-3.71a1.27 1.27 0 100-2.538 1.27 1.27 0 000 2.538zm3.709 7.452a1.27 1.27 0 100-2.538 1.27 1.27 0 000 2.538zm3.743 0a1.27 1.27 0 100-2.538 1.27 1.27 0 000 2.538zm0-3.742a1.27 1.27 0 100-2.538 1.27 1.27 0 000 2.538zm0-3.71a1.27 1.27 0 100-2.538 1.27 1.27 0 000 2.538zM9.307 16.242a1.27 1.27 0 100-2.538 1.27 1.27 0 000 2.538zm-3.71 0a1.27 1.27 0 100-2.538 1.27 1.27 0 000 2.538zm0-3.742a1.27 1.27 0 100-2.538 1.27 1.27 0 000 2.538zm0 7.452a1.269 1.269 0 100-2.538 1.269 1.269 0 000 2.538zm7.387-7.452a1.27 1.27 0 100-2.538 1.27 1.27 0 000 2.538zM9.307 8.79a1.27 1.27 0 100-2.538 1.27 1.27 0 000 2.538zm0 11.162a1.269 1.269 0 100-2.538 1.269 1.269 0 000 2.538zm0-7.452a1.27 1.27 0 100-2.538 1.27 1.27 0 000 2.538z" fill="#000"/></svg>