<svg width="15" height="15" fill="none" xmlns="http://www.w3.org/2000/svg"><g fill="#fff"><path d="M12.775 0H2.225A2.231 2.231 0 000 2.225v10.55A2.231 2.231 0 002.225 15h10.55A2.231 2.231 0 0015 12.775V2.225A2.231 2.231 0 0012.775 0zm.975 12.775a.975.975 0 01-.975.975H2.225a.975.975 0 01-.975-.975V2.225a.975.975 0 01.975-.975h10.55a.975.975 0 01.975.975v10.55z"/><path d="M7.5 3.75a3.75 3.75 0 100 7.5 3.75 3.75 0 000-7.5zm0 6.25a2.5 2.5 0 110-5 2.5 2.5 0 010 5zm4.062-5.625a.938.938 0 100-1.875.938.938 0 000 1.875z"/></g></svg>