<svg width="16" height="15" fill="none" xmlns="http://www.w3.org/2000/svg"><path d="M3.436 2.713C3.739 1.25 4.739.333 6.06.333c.75 0 1.553.3 2.374.917.107.07.232.07.34 0 .803-.582 1.624-.9 2.356-.9 1.321 0 2.321.9 2.607 2.345.196 1.022-.018 2.168-.607 3.208-.857 1.022-2.018 2.397-2.286 2.714l-2.928.688-.66-.723 2.178-.881c.607-.23.91-.9.714-1.516-.16-.582-.839-.952-1.464-.776L4.382 6.467c-.839-1.18-1.178-2.538-.946-3.754zm11.64 3.965l-3.373 4.142a.957.957 0 01-.608.335l-6.284.793a.427.427 0 00-.197.106l-1.642 2.168-2.75-2.697 3.66-4.194c.143-.141.322-.23.5-.282l4.446-1.11a.676.676 0 01.803.422.66.66 0 01-.392.829L6.703 8.23a.255.255 0 00-.16.193.26.26 0 00.071.247L7.65 9.816c.071.07.178.106.267.088l3.178-.74c.054-.018.107-.053.161-.088 0 0 1.375-1.64 2.375-2.82 0 0 0-.018.018-.018.125-.141.232-.282.339-.406a.673.673 0 01.464-.246.724.724 0 01.5.14l.018.018c.285.23.339.635.107.934z" fill="#E7E6E9"/></svg>