<svg width="113" height="113" fill="none" xmlns="http://www.w3.org/2000/svg"><g clip-path="url(#clip0)"><path d="M56.5 113c31.194 0 56.482-25.296 56.482-56.5S87.694 0 56.5 0 .018 25.296.018 56.5 25.306 113 56.5 113z" fill="#FFE667"/><path d="M56.5 0h-.077v113l.077.001c31.194 0 56.482-25.296 56.482-56.5S87.694 0 56.5 0z" fill="#FDD35A"/><path d="M24.567 57.624l22.845 22.845a2.551 2.551 0 003.608 0l37.506-37.506a2.552 2.552 0 000-3.608l-6.827-6.826a2.552 2.552 0 00-3.608 0l-27.28 27.278a2.552 2.552 0 01-3.608 0L34.98 47.583a2.552 2.552 0 00-3.557-.05l-6.804 6.432a2.552 2.552 0 00-.051 3.659z" fill="#FEFEFE"/><path d="M81.7 32.527a2.551 2.551 0 00-3.61 0L56.424 54.194v20.87l32.103-32.102a2.552 2.552 0 000-3.609L81.7 32.527z" fill="#FFFCEC"/></g><defs><clipPath id="clip0"><path fill="#fff" d="M0 0h113v113H0z"/></clipPath></defs></svg>