<svg width="22" height="14" fill="none" xmlns="http://www.w3.org/2000/svg"><path d="M21.454 6.203a.605.605 0 00-.788-.323c-2.04.837-3.678.888-4.944.608a.567.567 0 00-.093-.02c-2.162-.514-3.209-1.992-3.28-2.095a.606.606 0 00-.834-.166.593.593 0 00-.168.828c.017.027 1.064 1.532 3.176 2.321-.272.767-.735 2.24-.86 3.717 0 0 .126.024.337.058a27.947 27.947 0 00-.13 1.85.597.597 0 00.583.614h.019a.6.6 0 00.601-.578c.001-.017.026-.761.124-1.739.339.03.707.053 1.082.056.715 1.612 1.677 2.413 1.743 2.466a.603.603 0 00.848-.086.593.593 0 00-.087-.84c-.012-.009-.645-.539-1.21-1.623a3.43 3.43 0 00.898-.254s-.598-1.809-.638-3.195c.984-.075 2.081-.321 3.295-.82a.594.594 0 00.326-.78zM10.487 4.21a.607.607 0 00-.836.162c-.067.099-1.114 1.582-3.28 2.096a.625.625 0 00-.094.02c-1.266.28-2.904.23-4.944-.608a.604.604 0 00-.787.323.594.594 0 00.326.78c1.488.61 2.802.847 3.945.847l.039-.002c.075.48.16 1.199.144 1.957-.556 2.05-1.717 3.036-1.785 3.092a.593.593 0 00-.084.838.603.603 0 00.847.085c.078-.062 1.402-1.166 2.098-3.418.199-.037.406-.067.61-.08a29.26 29.26 0 01.24 2.715.6.6 0 00.603.579h.019a.6.6 0 00.583-.615 28.934 28.934 0 00-.243-2.783c.004-.654-.002-1.948-.085-2.972 1.894-.814 2.834-2.166 2.851-2.191a.593.593 0 00-.167-.825zM5.627 6.3a2.25 2.25 0 002.261-2.239 2.25 2.25 0 00-2.26-2.24 2.25 2.25 0 00-2.262 2.24 2.25 2.25 0 002.261 2.24zm9.349-3.942a.212.212 0 01-.026.243c-.237.273-.41.605-.492.985a2.242 2.242 0 001.889 2.686c1.167.169 2.291-.611 2.535-1.755a2.18 2.18 0 00-.044-1.091.212.212 0 01.076-.23c.644-.48.037 1.751 2.346 1.245-1.424-.33-.718-1.62-.893-2.141-.167-.488-1.046-.922-1.834.317a.078.078 0 01-.126.008 2.23 2.23 0 00-1.264-.76 2.256 2.256 0 00-1.463.18.078.078 0 01-.112-.06C15.357.539 14.375.579 14.02.956c-.375.405-.264 1.869-1.7 1.593 1.893 1.395 2.263-.88 2.655-.19z" fill="#E7E6E9"/></svg>