<svg width="14" height="14" fill="none" xmlns="http://www.w3.org/2000/svg"><path d="M12.476 3.19H11.02c.173-.287.265-.616.267-.952A1.905 1.905 0 009.38.333 2.857 2.857 0 007 1.614 2.857 2.857 0 004.62.334a1.905 1.905 0 00-1.906 1.904c.002.336.094.665.267.952H1.524a1.19 1.19 0 100 2.381h10.952a1.19 1.19 0 100-2.38zM9.381 1.286a.952.952 0 110 1.904H7.476a1.905 1.905 0 011.905-1.904zm-5.714.952a.952.952 0 01.952-.952A1.905 1.905 0 016.524 3.19H4.619a.952.952 0 01-.952-.952zm8.81 3.81c.078.007.158.007.237 0v6.19a1.428 1.428 0 01-1.428 1.429h-3.81v-7.62h5zm-10.953 0h5v7.619h-3.81a1.429 1.429 0 01-1.428-1.429v-6.19c.079.007.159.007.238 0z" fill="#E7E6E9"/></svg>