<svg width="14" height="12" fill="none" xmlns="http://www.w3.org/2000/svg"><path d="M7 11.556a.704.704 0 01-.475-.188c-.49-.438-.965-.86-1.394-1.22C3.906 9.067 2.834 8.143 2.1 7.235 1.272 6.22.889 5.25.889 4.2c0-1.033.337-1.972.965-2.66A3.248 3.248 0 014.304.444c.705 0 1.348.235 1.915.673.29.235.551.501.781.83.23-.329.49-.595.781-.83A2.986 2.986 0 019.696.444c.95 0 1.807.392 2.45 1.096.628.688.965 1.643.965 2.66 0 1.064-.383 2.02-1.21 3.036-.735.908-1.807 1.831-3.032 2.911-.414.36-.904.783-1.394 1.22a.704.704 0 01-.475.189z" fill="#E7E6E9"/></svg>