<svg width="67" height="61" fill="none" xmlns="http://www.w3.org/2000/svg"><g filter="url(#a)"><path d="M33.047 48.824c-8.635-3.63-14.883-9.827-18.254-16.101-3.319-6.25-3.786-12.472-.83-16.206 2.67-3.344 6.145-4.615 9.671-4.511 3.527.104 6.95 1.633 9.413 3.785 2.463-2.152 5.885-3.681 9.412-3.785 3.526-.104 7 1.167 9.67 4.511 2.957 3.734 2.49 9.957-.88 16.206-3.32 6.274-9.568 12.471-18.202 16.101z" fill="url(#b)"/></g><defs><linearGradient id="b" x1="12" y1="13" x2="53.873" y2="29.14" gradientUnits="userSpaceOnUse"><stop stop-color="#FC7EFF"/><stop offset="1" stop-color="#6833FF"/></linearGradient><filter id="a" x="0" y="0" width="66.088" height="60.824" filterUnits="userSpaceOnUse" color-interpolation-filters="sRGB"><feFlood flood-opacity="0" result="BackgroundImageFix"/><feColorMatrix in="SourceAlpha" values="0 0 0 0 0 0 0 0 0 0 0 0 0 0 0 0 0 0 127 0" result="hardAlpha"/><feOffset/><feGaussianBlur stdDeviation="6"/><feComposite in2="hardAlpha" operator="out"/><feColorMatrix values="0 0 0 0 0.953333 0 0 0 0 0.666667 0 0 0 0 1 0 0 0 0.45 0"/><feBlend in2="BackgroundImageFix" result="effect1_dropShadow_374:6"/><feBlend in="SourceGraphic" in2="effect1_dropShadow_374:6" result="shape"/></filter></defs></svg>