<svg width="42" height="42" fill="none" xmlns="http://www.w3.org/2000/svg"><path d="M23.084 7.519a2.388 2.388 0 11-4.776 0 2.388 2.388 0 014.776 0z" stroke="url(#paint0_linear_162:3774)" stroke-width=".664"/><path d="M8.49 11.385c.117-.121.303-.223.58-.245.07.032.142.062.219.09 0 0 0 0 0 0l3.762 1.37h-3.86c-.33 0-.548-.105-.683-.235a.689.689 0 01-.211-.488.688.688 0 01.192-.492z" stroke="url(#paint1_linear_162:3774)" stroke-width=".664"/><path d="M25.253 24.96l4.754 8.245h0c.329.57.133 1.3-.436 1.629h0a1.193 1.193 0 01-1.63-.436l-2.687-4.709v-4.73z" stroke="url(#paint2_linear_162:3774)" stroke-width=".664"/><path d="M11.128 33.039a1.525 1.525 0 002.642 1.525m-2.642-1.525l5.041-8.744v.665m-5.04 8.079h0zm2.64 1.525l2.731-4.787m-2.73 4.787l-.289-.164v-.001a1.193 1.193 0 01-1.629.435h0a1.193 1.193 0 01-.437-1.63h0l4.754-8.244m-2.4 9.604l-.287-.166 2.687-4.709m.331.088v-5.393l-.331.576m.331 4.817h-.331v-.088m.331.088l-.288-.164-.043.076m0-4.73v4.73" stroke="url(#paint3_linear_162:3774)" stroke-width=".664"/><path d="M32.129 11.23s0 0 0 0c.076-.028.15-.058.22-.09.276.022.462.124.58.245a.69.69 0 01.192.492.688.688 0 01-.21.488c-.136.13-.354.234-.684.234h-3.86l3.762-1.37z" stroke="url(#paint4_linear_162:3774)" stroke-width=".664"/><path d="M24.101 11.138h.062l.057-.022 6.907-2.654c.312-.114.553-.089.724-.012.174.079.3.223.363.394a.69.69 0 01-.025.536c-.081.17-.251.345-.565.46h0l-7.636 2.78-.218.079v.232l-.001 1.67-.001 1.095.001-.002-.007 20.337v0a1.193 1.193 0 11-2.385 0s0 0 0 0l.004-12.17v-.332H20.04v.332l-.002 12.17v0a1.193 1.193 0 01-2.387 0s0 0 0 0l.002-12.213v0L17.65 12.93v-.23l-.218-.08-7.637-2.78h0c-.313-.114-.483-.29-.564-.459a.69.69 0 01-.025-.536.687.687 0 01.363-.394c.17-.077.412-.102.724.012l6.907 2.654.057.022h6.844z" stroke="url(#paint5_linear_162:3774)" stroke-width=".664"/><path d="M6.284 6.284h0a20.246 20.246 0 00-4.355 6.458l4.355-6.458zm0 0a20.248 20.248 0 016.458-4.354l-.129-.306m-6.33 4.66l6.33-4.66m0 0l.13.306a20.193 20.193 0 017.91-1.598c2.743 0 5.404.538 7.91 1.598h0a20.24 20.24 0 016.459 4.354h0a20.253 20.253 0 014.354 6.458M12.613 1.624A20.525 20.525 0 0120.653 0c2.787 0 5.492.547 8.04 1.624a20.571 20.571 0 016.563 4.425 20.586 20.586 0 014.426 6.564m0 0l-.306.13s0 0 0 0m.306-.13l-.306.13m.306-.13a20.527 20.527 0 011.623 8.04 20.572 20.572 0 01-6.05 14.604 20.57 20.57 0 01-6.563 4.424 20.515 20.515 0 01-8.04 1.624 20.52 20.52 0 01-8.039-1.624 20.563 20.563 0 01-6.564-4.425L1.93 12.742a20.204 20.204 0 00-1.597 7.91c0 2.744.537 5.405 1.597 7.911h0a20.241 20.241 0 004.355 6.459h0a20.232 20.232 0 006.458 4.354h0a20.185 20.185 0 007.91 1.598c2.744 0 5.405-.538 7.91-1.598h.001a20.24 20.24 0 006.459-4.354h0a20.242 20.242 0 004.354-6.459h0a20.19 20.19 0 001.598-7.91c0-2.743-.538-5.404-1.598-7.91" stroke="url(#paint6_linear_162:3774)" stroke-width=".664"/><defs><linearGradient id="paint0_linear_162:3774" x1="16.866" y1="4.971" x2="23.907" y2="10.181" gradientUnits="userSpaceOnUse"><stop stop-color="#ACB4FF"/><stop offset=".521" stop-color="#A55FFF"/><stop offset="1" stop-color="#816CFF" stop-opacity=".88"/></linearGradient><linearGradient id="paint1_linear_162:3774" x1="6.543" y1="10.871" x2="8.573" y2="15.792" gradientUnits="userSpaceOnUse"><stop stop-color="#ACB4FF"/><stop offset=".521" stop-color="#A55FFF"/><stop offset="1" stop-color="#816CFF" stop-opacity=".88"/></linearGradient><linearGradient id="paint2_linear_162:3774" x1="23.783" y1="24.087" x2="33.7" y2="27.613" gradientUnits="userSpaceOnUse"><stop stop-color="#ACB4FF"/><stop offset=".521" stop-color="#A55FFF"/><stop offset="1" stop-color="#816CFF" stop-opacity=".88"/></linearGradient><linearGradient id="paint3_linear_162:3774" x1="9.786" y1="24.087" x2="19.703" y2="27.612" gradientUnits="userSpaceOnUse"><stop stop-color="#ACB4FF"/><stop offset=".521" stop-color="#A55FFF"/><stop offset="1" stop-color="#816CFF" stop-opacity=".88"/></linearGradient><linearGradient id="paint4_linear_162:3774" x1="25.063" y1="10.871" x2="27.093" y2="15.792" gradientUnits="userSpaceOnUse"><stop stop-color="#ACB4FF"/><stop offset=".521" stop-color="#A55FFF"/><stop offset="1" stop-color="#816CFF" stop-opacity=".88"/></linearGradient><linearGradient id="paint5_linear_162:3774" x1="3.982" y1="8.986" x2="39.102" y2="29.909" gradientUnits="userSpaceOnUse"><stop stop-color="#ACB4FF"/><stop offset=".521" stop-color="#A55FFF"/><stop offset="1" stop-color="#816CFF" stop-opacity=".88"/></linearGradient><linearGradient id="paint6_linear_162:3774" x1="-8.431" y1="1.306" x2="45.036" y2="40.864" gradientUnits="userSpaceOnUse"><stop stop-color="#ACB4FF"/><stop offset=".521" stop-color="#A55FFF"/><stop offset="1" stop-color="#816CFF" stop-opacity=".88"/></linearGradient></defs></svg>