<svg width="24" height="25" fill="none" xmlns="http://www.w3.org/2000/svg"><path d="M11.996 8.655a4.01 4.01 0 00-4.001 4.002 4.01 4.01 0 004.001 4.001 4.01 4.01 0 004.002-4.001 4.01 4.01 0 00-4.002-4.002zm12.002 4.002c0-1.657.015-3.3-.078-4.953-.093-1.922-.532-3.627-1.936-5.032C20.576 1.264 18.874.83 16.952.736 15.296.643 13.654.658 12 .658c-1.658 0-3.3-.015-4.954.078-1.92.093-3.626.532-5.03 1.936C.606 4.08.171 5.782.078 7.704-.014 9.36 0 11.003 0 12.657c0 1.654-.015 3.299.078 4.953.093 1.92.531 3.626 1.936 5.03 1.408 1.409 3.11 1.844 5.031 1.937 1.657.093 3.3.078 4.953.078 1.657 0 3.3.015 4.954-.078 1.92-.093 3.626-.531 5.03-1.936 1.409-1.408 1.844-3.11 1.937-5.031.096-1.654.078-3.296.078-4.953zm-12.002 6.157a6.148 6.148 0 01-6.156-6.157A6.148 6.148 0 0111.996 6.5a6.148 6.148 0 016.157 6.157 6.148 6.148 0 01-6.157 6.157zm6.41-11.128a1.436 1.436 0 01-1.438-1.438c0-.796.642-1.438 1.437-1.438a1.436 1.436 0 011.33 1.988 1.434 1.434 0 01-1.33.888z" fill="#fff"/></svg>