<svg width="18" height="18" fill="none" xmlns="http://www.w3.org/2000/svg"><rect width="18" height="18" rx="3.214" fill="#fff"/><rect width="18" height="18" rx="3.214" fill="url(#a)"/><path d="M11.696 3.154H6.304a3.15 3.15 0 00-3.15 3.15v5.393a3.15 3.15 0 003.15 3.15h5.392a3.15 3.15 0 003.15-3.15V6.305a3.15 3.15 0 00-3.15-3.15z" fill="url(#b)"/><path d="M11.696 3.154H6.304a3.15 3.15 0 00-3.15 3.15v5.393a3.15 3.15 0 003.15 3.15h5.392a3.15 3.15 0 003.15-3.15V6.305a3.15 3.15 0 00-3.15-3.15z" stroke="#fff" stroke-width=".5" stroke-miterlimit="10"/><path d="M9 11.823a2.822 2.822 0 100-5.645 2.822 2.822 0 000 5.645z" stroke="#fff" stroke-width=".5" stroke-miterlimit="10"/><path d="M12.427 6.177a.605.605 0 100-1.21.605.605 0 000 1.21z" fill="#fff"/><defs><linearGradient id="a" x1="16.889" y1=".148" x2=".149" y2="16.697" gradientUnits="userSpaceOnUse"><stop stop-color="#7D2ABA"/><stop offset=".26" stop-color="#EF3477"/><stop offset=".474" stop-color="#F26664"/><stop offset=".729" stop-color="#F59B50"/><stop offset="1" stop-color="#F7CE3D"/></linearGradient><linearGradient id="b" x1="14.125" y1="3.251" x2="3.25" y2="14.001" gradientUnits="userSpaceOnUse"><stop stop-color="#7D2ABA"/><stop offset=".26" stop-color="#EF3477"/><stop offset=".474" stop-color="#F26664"/><stop offset=".729" stop-color="#F59B50"/><stop offset="1" stop-color="#F7CE3D"/></linearGradient></defs></svg>