<svg width="42" height="42" fill="none" xmlns="http://www.w3.org/2000/svg"><path d="M9.363 3.756A20.32 20.32 0 0120.653.332a20.344 20.344 0 0120.32 20.321A20.32 20.32 0 119.363 3.756z" stroke="url(#a)" stroke-width=".664"/><path d="M35.974 20.652a15.34 15.34 0 00-4.493-10.83m.496 11.828h2.279a13.579 13.579 0 01-3.282 7.913l-2.955-2.955-.234-.235-.235.235-.942.941-.235.235.235.235 2.954 2.956a13.583 13.583 0 01-7.913 3.282v-2.61h-1.996v2.61a13.582 13.582 0 01-7.912-3.282l2.955-2.955.235-.235-.235-.234-.942-.942-.234-.235-.235.235-2.956 2.954a13.578 13.578 0 01-3.282-7.913h2.611v-1.996H7.047a13.579 13.579 0 013.282-7.912l2.955 2.955.234.235.235-.235.942-.942.234-.234-.234-.235-2.954-2.956a13.583 13.583 0 017.912-3.282v2.61h1.996v-2.61a13.583 13.583 0 017.913 3.281l-2.955 2.955-.235.235.235.235.942.942.234.234.235-.234 2.956-2.954a13.578 13.578 0 013.282 7.912h-2.611v1.996h.332z" stroke="url(#b)" stroke-width=".664"/><path d="M21.652 3.33a1 1 0 11-2 0 1 1 0 012 0z" stroke="url(#c)" stroke-width=".664"/><path d="M21.652 37.974a1 1 0 11-2.001 0 1 1 0 012.001 0z" stroke="url(#d)" stroke-width=".664"/><path d="M32.9 9.404a.996.996 0 01-.707-.292 1 1 0 11.707.292z" stroke="url(#e)" stroke-width=".664"/><path d="M7.421 32.706a1 1 0 111.963.39 1 1 0 01-1.963-.39z" stroke="url(#f)" stroke-width=".664"/><path d="M31.919 32.706a1.001 1.001 0 111.963.39 1.001 1.001 0 01-1.963-.39z" stroke="url(#g)" stroke-width=".664"/><path d="M8.403 9.404a.995.995 0 01-.707-.292 1 1 0 11.707.292z" stroke="url(#h)" stroke-width=".664"/><path d="M14.274 35.676a.992.992 0 01.536.545v.001a1.001 1.001 0 11-.536-.546z" stroke="url(#i)" stroke-width=".664"/><path d="M27.307 5.616a1 1 0 11-.563-1.92 1 1 0 01.563 1.92z" stroke="url(#j)" stroke-width=".664"/><path d="M14.538 5.52h-.002a.98.98 0 01-.76-.006 1.001 1.001 0 01.781-1.842 1.001 1.001 0 01-.019 1.847z" stroke="url(#k)" stroke-width=".664"/><path d="M26.765 35.785h.002a.983.983 0 01.762.007l.132-.305-.13.305a1 1 0 01-.392 1.922 1 1 0 01-.374-1.928z" stroke="url(#l)" stroke-width=".664"/><path d="M23.942 16.16l.096.16h4.608a.335.335 0 01.287.507l-2.193 3.655-.102.17.102.171 2.193 3.654a.335.335 0 01-.287.507h-4.608l-.096.161-3.004 5.007a.335.335 0 01-.573 0l-3.004-5.007-.096-.16h-4.608a.334.334 0 01-.287-.507l2.193-3.655.102-.17-.102-.171-2.193-3.654a.335.335 0 01.287-.507h4.608l.096-.161 2.998-4.997a.362.362 0 01.585 0l2.998 4.997zm-3.006-3.71l-.285-.475-.284.474-2.021 3.37-.302.502h5.216l-.302-.503-2.021-3.369zm2.82 4.7l-.096-.16h-6.017l-.097.16-1.998 3.332-.103.17.103.171 1.998 3.331.097.161h6.017l.097-.16 1.998-3.332.103-.17-.103-.171-1.998-3.331zm-9.922-.16h-.587l.302.502 1.222 2.036.284.474.285-.474 1.222-2.036.301-.502h-3.03zm-.285 6.823l-.302.502h3.616l-.301-.502-1.222-2.036-.285-.474-.284.474-1.222 2.036zm6.818 5.043l.284.474.285-.474 2.021-3.37.302-.502h-5.215l.302.503 2.021 3.369zm7.102-4.54h.587l-.302-.503-1.222-2.036-.284-.474-.285.474-1.222 2.036-.301.502h3.03zm-1.506-4.788l.285.474.284-.474 1.222-2.036.302-.502H24.44l.301.502 1.222 2.036z" stroke="url(#m)" stroke-width=".664"/><defs><linearGradient id="a" x1="-8.431" y1="1.306" x2="45.036" y2="40.864" gradientUnits="userSpaceOnUse"><stop stop-color="#ACB4FF"/><stop offset=".521" stop-color="#A55FFF"/><stop offset="1" stop-color="#816CFF" stop-opacity=".88"/></linearGradient><linearGradient id="b" x1="-.927" y1="7.622" x2="37.445" y2="37.337" gradientUnits="userSpaceOnUse"><stop stop-color="#ACB4FF"/><stop offset=".521" stop-color="#A55FFF"/><stop offset="1" stop-color="#816CFF" stop-opacity=".88"/></linearGradient><linearGradient id="c" x1="18.775" y1="2.082" x2="22.225" y2="4.634" gradientUnits="userSpaceOnUse"><stop stop-color="#ACB4FF"/><stop offset=".521" stop-color="#A55FFF"/><stop offset="1" stop-color="#816CFF" stop-opacity=".88"/></linearGradient><linearGradient id="d" x1="18.775" y1="36.725" x2="22.225" y2="39.278" gradientUnits="userSpaceOnUse"><stop stop-color="#ACB4FF"/><stop offset=".521" stop-color="#A55FFF"/><stop offset="1" stop-color="#816CFF" stop-opacity=".88"/></linearGradient><linearGradient id="e" x1="31.023" y1="7.155" x2="34.472" y2="9.707" gradientUnits="userSpaceOnUse"><stop stop-color="#ACB4FF"/><stop offset=".521" stop-color="#A55FFF"/><stop offset="1" stop-color="#816CFF" stop-opacity=".88"/></linearGradient><linearGradient id="f" x1="6.526" y1="31.653" x2="9.976" y2="34.205" gradientUnits="userSpaceOnUse"><stop stop-color="#ACB4FF"/><stop offset=".521" stop-color="#A55FFF"/><stop offset="1" stop-color="#816CFF" stop-opacity=".88"/></linearGradient><linearGradient id="g" x1="31.023" y1="31.653" x2="34.473" y2="34.205" gradientUnits="userSpaceOnUse"><stop stop-color="#ACB4FF"/><stop offset=".521" stop-color="#A55FFF"/><stop offset="1" stop-color="#816CFF" stop-opacity=".88"/></linearGradient><linearGradient id="h" x1="6.527" y1="7.155" x2="9.976" y2="9.707" gradientUnits="userSpaceOnUse"><stop stop-color="#ACB4FF"/><stop offset=".521" stop-color="#A55FFF"/><stop offset="1" stop-color="#816CFF" stop-opacity=".88"/></linearGradient><linearGradient id="i" x1="12.006" y1="35.348" x2="15.456" y2="37.901" gradientUnits="userSpaceOnUse"><stop stop-color="#ACB4FF"/><stop offset=".521" stop-color="#A55FFF"/><stop offset="1" stop-color="#816CFF" stop-opacity=".88"/></linearGradient><linearGradient id="j" x1="25.149" y1="3.408" x2="28.599" y2="5.96" gradientUnits="userSpaceOnUse"><stop stop-color="#ACB4FF"/><stop offset=".521" stop-color="#A55FFF"/><stop offset="1" stop-color="#816CFF" stop-opacity=".88"/></linearGradient><linearGradient id="k" x1="12.318" y1="3.354" x2="15.749" y2="5.876" gradientUnits="userSpaceOnUse"><stop stop-color="#ACB4FF"/><stop offset=".521" stop-color="#A55FFF"/><stop offset="1" stop-color="#816CFF" stop-opacity=".88"/></linearGradient><linearGradient id="l" x1="25.262" y1="35.464" x2="28.714" y2="38.017" gradientUnits="userSpaceOnUse"><stop stop-color="#ACB4FF"/><stop offset=".521" stop-color="#A55FFF"/><stop offset="1" stop-color="#816CFF" stop-opacity=".88"/></linearGradient><linearGradient id="m" x1="8.455" y1="11.313" x2="33.025" y2="27.086" gradientUnits="userSpaceOnUse"><stop stop-color="#ACB4FF"/><stop offset=".521" stop-color="#A55FFF"/><stop offset="1" stop-color="#816CFF" stop-opacity=".88"/></linearGradient></defs></svg>