<svg width="42" height="42" fill="none" xmlns="http://www.w3.org/2000/svg"><path d="M6.284 6.284h0a20.246 20.246 0 00-4.355 6.458l4.355-6.458zm0 0a20.248 20.248 0 016.458-4.354l-.129-.306m-6.33 4.66l6.33-4.66m0 0l.13.306a20.193 20.193 0 017.91-1.598c2.743 0 5.404.538 7.91 1.598h0a20.24 20.24 0 016.459 4.354h0a20.253 20.253 0 015.952 14.369 20.19 20.19 0 01-1.598 7.91h0a20.242 20.242 0 01-4.354 6.459h0a20.24 20.24 0 01-6.459 4.354h0a20.182 20.182 0 01-7.91 1.598c-2.743 0-5.404-.538-7.91-1.598h0a20.232 20.232 0 01-6.46-4.354h0a20.241 20.241 0 01-4.354-6.459h0M12.613 1.624L1.93 28.563m0 0a20.19 20.19 0 01-1.597-7.91c0-2.743.538-5.404 1.597-7.91v15.82z" stroke="url(#paint0_linear_348:2654)" stroke-width=".664"/><path d="M12.795 19.595a7.67 7.67 0 001.326 4.3 4.813 4.813 0 00-.181.225 7.904 7.904 0 01-1.44-4.544c0-4.438 3.706-8.076 8.277-8.076 4.57 0 8.277 3.637 8.295 8.078a7.904 7.904 0 01-1.448 4.553 7.303 7.303 0 00-.191-.237 7.67 7.67 0 001.326-4.299c0-4.324-3.586-7.811-7.982-7.811-4.397 0-7.982 3.487-7.982 7.811z" fill="#000" stroke="url(#paint1_linear_348:2654)"/><path d="M26.769 19.595a5.67 5.67 0 01-.82 2.943 8.828 8.828 0 00-.25-.175c.43-.734.695-1.578.753-2.476a1.49 1.49 0 00.022-.295v-.015c0-.073-.007-.142-.012-.184v-.007a.953.953 0 01-.007-.088v-.016l-.001-.015c-.168-2.745-2.345-4.944-5.092-5.23a5.263 5.263 0 00-.573-.02h-.025c-.181 0-.375 0-.573.021-2.735.284-4.909 2.466-5.071 5.2-.022.129-.022.248-.022.326v.013a1.496 1.496 0 00.018.227l.001.015s0 0 0 0v.018a5.32 5.32 0 00.735 2.505 7.609 7.609 0 00-.247.17 5.75 5.75 0 01-.82-2.935c0-3.21 2.678-5.844 5.992-5.844 3.313 0 5.992 2.632 5.992 5.862z" fill="#000" stroke="url(#paint2_linear_348:2654)"/><path d="M14.54 28.82l.067-.56a5.22 5.22 0 01.632-1.952l-.7 2.512zm0 0h.563m-.564 0h.564m0 0h11.965l-.086-.574a6.02 6.02 0 00-.623-1.927h0l-.007-.011a6.296 6.296 0 00-.807-1.132h0l-.007-.008a6.6 6.6 0 00-.78-.72 5.787 5.787 0 00-1.413-.814h0l-.01-.003a6.16 6.16 0 00-2.216-.424h-.647a5.79 5.79 0 00-2.224.427c-.523.205-1 .49-1.414.812a6.602 6.602 0 00-.78.722h0m-.95 3.652l.95-3.652m0 0l-.008.008m.007-.008l-.007.008m0 0a6.302 6.302 0 00-.807 1.131l.807-1.13zm11.236 3.758v.133h-13.05v-.133c0-1.097.298-2.107.826-3.001h0l.005-.009c.187-.332.428-.654.693-.948.218-.23.43-.436.654-.622a6.49 6.49 0 011.002-.689c.31-.16.605-.295.911-.394l.903-.294-.753-.578a3.478 3.478 0 01-.647-.648h0l-.005-.006a3.53 3.53 0 01-.752-2.168c0-1.966 1.652-3.612 3.707-3.612 2.054 0 3.706 1.643 3.689 3.645h0v.004a3.53 3.53 0 01-.752 2.168h0l-.005.006c-.178.238-.393.45-.65.65l-.74.579.893.29c.31.102.622.237.898.388.361.212.698.438 1.015.696.224.186.436.392.654.622.266.296.508.618.675.913h0l.004.007a5.84 5.84 0 01.825 3.001zM20.776 16.25c-1.864 0-3.393 1.478-3.393 3.328 0 .963.404 1.82 1.074 2.431a3.393 3.393 0 002.32.915c.89 0 1.715-.347 2.32-.914a3.265 3.265 0 001.073-2.432c0-1.85-1.53-3.328-3.394-3.328z" fill="#000" stroke="url(#paint3_linear_348:2654)"/><defs><linearGradient id="paint0_linear_348:2654" x1="-8.431" y1="1.306" x2="45.036" y2="40.864" gradientUnits="userSpaceOnUse"><stop stop-color="#ACB4FF"/><stop offset=".521" stop-color="#A55FFF"/><stop offset="1" stop-color="#816CFF" stop-opacity=".88"/></linearGradient><linearGradient id="paint1_linear_348:2654" x1="8.413" y1="11.442" x2="27.277" y2="28.995" gradientUnits="userSpaceOnUse"><stop stop-color="#ACB4FF"/><stop offset=".521" stop-color="#A55FFF"/><stop offset="1" stop-color="#816CFF" stop-opacity=".88"/></linearGradient><linearGradient id="paint2_linear_348:2654" x1="11.634" y1="13.55" x2="25.195" y2="26.541" gradientUnits="userSpaceOnUse"><stop stop-color="#ACB4FF"/><stop offset=".521" stop-color="#A55FFF"/><stop offset="1" stop-color="#816CFF" stop-opacity=".88"/></linearGradient><linearGradient id="paint3_linear_348:2654" x1="10.865" y1="15.911" x2="29.098" y2="29.352" gradientUnits="userSpaceOnUse"><stop stop-color="#ACB4FF"/><stop offset=".521" stop-color="#A55FFF"/><stop offset="1" stop-color="#816CFF" stop-opacity=".88"/></linearGradient></defs></svg>