<svg width="42" height="42" fill="none" xmlns="http://www.w3.org/2000/svg"><path d="M23.084 7.519a2.388 2.388 0 11-4.776 0 2.388 2.388 0 014.776 0z" stroke="url(#paint0_linear_348:2665)" stroke-width=".664"/><path d="M8.49 11.385c.117-.121.303-.223.58-.245.07.032.142.062.219.09 0 0 0 0 0 0l3.762 1.37h-3.86c-.33 0-.548-.105-.683-.235a.689.689 0 01-.211-.488.688.688 0 01.192-.492z" stroke="url(#paint1_linear_348:2665)" stroke-width=".664"/><path d="M25.253 24.96l4.754 8.245h0c.33.57.133 1.3-.436 1.629h0a1.193 1.193 0 01-1.63-.436l-2.687-4.709v-4.73z" stroke="url(#paint2_linear_348:2665)" stroke-width=".664"/><path d="M11.415 33.205h0l4.754-8.245v4.73l-2.687 4.708s0 0 0 0a1.193 1.193 0 01-1.63.436h0a1.193 1.193 0 01-.437-1.63z" stroke="url(#paint3_linear_348:2665)" stroke-width=".664"/><path d="M32.13 11.23s0 0 0 0a3.58 3.58 0 00.219-.09c.276.022.462.124.58.245.13.135.196.313.192.492a.689.689 0 01-.21.488c-.136.13-.354.234-.684.234h-3.86l3.762-1.37z" stroke="url(#paint4_linear_348:2665)" stroke-width=".664"/><path d="M23.768 15.696l.001-.002-.007 20.337v0a1.193 1.193 0 11-2.385 0s0 0 0 0l.004-12.17v-.332H20.04v.332l-.002 12.17v0a1.193 1.193 0 01-2.387 0s0 0 0 0l.002-12.213v0L17.65 12.93v-.23l-.218-.08-7.637-2.78h0c-.313-.114-.483-.29-.564-.459a.69.69 0 01-.025-.536.687.687 0 01.363-.394c.17-.077.412-.102.724.012l6.907 2.654.057.022h6.906l.057-.022 6.907-2.654c.312-.114.553-.089.724-.012.174.079.3.223.363.394a.69.69 0 01-.025.536c-.081.17-.251.345-.565.46h0l-7.636 2.78-.218.079v.232l-.001 1.67-.001 1.095z" stroke="url(#paint5_linear_348:2665)" stroke-width=".664"/><path d="M6.284 6.284h0a20.246 20.246 0 00-4.355 6.458l4.355-6.458zm0 0a20.248 20.248 0 016.458-4.354l-.129-.306m-6.33 4.66l6.33-4.66m0 0l.13.306a20.193 20.193 0 017.91-1.598c2.743 0 5.404.538 7.91 1.598h0a20.24 20.24 0 016.459 4.354h0a20.253 20.253 0 015.952 14.369 20.19 20.19 0 01-1.598 7.91h0a20.242 20.242 0 01-4.354 6.459h0a20.24 20.24 0 01-6.459 4.354h0a20.182 20.182 0 01-7.91 1.598c-2.743 0-5.404-.538-7.91-1.598h0a20.232 20.232 0 01-6.46-4.354h0a20.241 20.241 0 01-4.354-6.459h0M12.613 1.624L1.93 28.563m0 0a20.19 20.19 0 01-1.597-7.91c0-2.743.538-5.404 1.597-7.91v15.82z" stroke="url(#paint6_linear_348:2665)" stroke-width=".664"/><defs><linearGradient id="paint0_linear_348:2665" x1="16.865" y1="4.971" x2="23.907" y2="10.181" gradientUnits="userSpaceOnUse"><stop stop-color="#ACB4FF"/><stop offset=".521" stop-color="#A55FFF"/><stop offset="1" stop-color="#816CFF" stop-opacity=".88"/></linearGradient><linearGradient id="paint1_linear_348:2665" x1="6.543" y1="10.871" x2="8.573" y2="15.792" gradientUnits="userSpaceOnUse"><stop stop-color="#ACB4FF"/><stop offset=".521" stop-color="#A55FFF"/><stop offset="1" stop-color="#816CFF" stop-opacity=".88"/></linearGradient><linearGradient id="paint2_linear_348:2665" x1="23.783" y1="24.087" x2="33.701" y2="27.613" gradientUnits="userSpaceOnUse"><stop stop-color="#ACB4FF"/><stop offset=".521" stop-color="#A55FFF"/><stop offset="1" stop-color="#816CFF" stop-opacity=".88"/></linearGradient><linearGradient id="paint3_linear_348:2665" x1="9.786" y1="24.087" x2="19.703" y2="27.612" gradientUnits="userSpaceOnUse"><stop stop-color="#ACB4FF"/><stop offset=".521" stop-color="#A55FFF"/><stop offset="1" stop-color="#816CFF" stop-opacity=".88"/></linearGradient><linearGradient id="paint4_linear_348:2665" x1="25.063" y1="10.871" x2="27.093" y2="15.792" gradientUnits="userSpaceOnUse"><stop stop-color="#ACB4FF"/><stop offset=".521" stop-color="#A55FFF"/><stop offset="1" stop-color="#816CFF" stop-opacity=".88"/></linearGradient><linearGradient id="paint5_linear_348:2665" x1="3.982" y1="8.986" x2="39.102" y2="29.909" gradientUnits="userSpaceOnUse"><stop stop-color="#ACB4FF"/><stop offset=".521" stop-color="#A55FFF"/><stop offset="1" stop-color="#816CFF" stop-opacity=".88"/></linearGradient><linearGradient id="paint6_linear_348:2665" x1="-8.431" y1="1.306" x2="45.036" y2="40.864" gradientUnits="userSpaceOnUse"><stop stop-color="#ACB4FF"/><stop offset=".521" stop-color="#A55FFF"/><stop offset="1" stop-color="#816CFF" stop-opacity=".88"/></linearGradient></defs></svg>