<svg width="42" height="41" fill="none" xmlns="http://www.w3.org/2000/svg"><mask id="a" fill="#fff"><path d="M20.334 40.168h-.003a.458.458 0 01-.459-.453.457.457 0 01.454-.46h.005a.46.46 0 01.46.454.458.458 0 01-.457.46zM17.586 40a.648.648 0 01-.06-.003 20.21 20.21 0 01-12.473-6.62 20.003 20.003 0 01-3.706-6.063A19.904 19.904 0 010 20.085a19.875 19.875 0 012.014-8.753 20.078 20.078 0 012.34-3.707 20.255 20.255 0 013.073-3.102.46.46 0 01.749.355.456.456 0 01-.168.352C3.502 8.891.918 14.306.918 20.085c-.001 9.583 7.19 17.754 16.728 19.005a.458.458 0 01.395.512.46.46 0 01-.455.397zm5.487-.037a.46.46 0 01-.458-.46.46.46 0 01.392-.448l.003-.001c6.763-.984 12.544-5.526 15.088-11.855a2.28 2.28 0 01-1.382-2.092 2.287 2.287 0 012.555-2.268c.132-.91.199-1.835.199-2.753 0-5.121-2.006-9.935-5.646-13.557A19.21 19.21 0 0020.194.914c-2.64 0-5.198.521-7.603 1.55a.46.46 0 01-.603-.24.455.455 0 01.24-.6A20.155 20.155 0 0116.067.42 20.441 20.441 0 0120.193 0c1.371 0 2.74.137 4.07.408a20.13 20.13 0 017.22 3.022 20.271 20.271 0 015.456 5.425 19.872 19.872 0 013.449 11.23c0 1.13-.097 2.27-.288 3.387a.464.464 0 01-.223.318.469.469 0 01-.389.033 1.376 1.376 0 00-1.854 1.283 1.363 1.363 0 001.146 1.348.464.464 0 01.322.221c.066.117.08.261.033.388a20.144 20.144 0 01-6.173 8.583 20.184 20.184 0 01-9.822 4.31.432.432 0 01-.067.006zM9.963 3.753a.457.457 0 11.393-.694.45.45 0 01.053.345.45.45 0 01-.208.282.453.453 0 01-.237.067z"/></mask><path d="M20.334 40.168v.664h.005l-.005-.664zm-.462-.453l.664-.004-.664.005zm.133-.324l-.47-.468.47.468zm.322-.135l.004.664.271-.002.193-.191-.468-.47zm0 0v-.664h-.273l-.194.193.468.47zm.463.453l.664-.005-.664.005zm-3.265.287l-.086.658.013.002h.014l.06-.66zm-12.472-6.62l-.496.44.496-.44zm-3.706-6.063l-.618.24.618-.24zm-.824-11.79l.646.151-.646-.15zm1.49-4.192l.597.291-.596-.29zm2.342-3.706l.519.413-.52-.413zm3.072-3.102l.418.515.001-.001-.42-.514zm.645.065l-.514.42.003.002.511-.422zm.104.29l-.664-.006v.001l.664.005zm-.168.352l.418.515-.418-.515zM.918 20.085h.664-.664zM17.646 39.09l-.087.658.087-.658zm.395.512l.658.088-.658-.088zm4.579-.03l-.66.079.002.009.001.009.657-.098zm-.005-.07l-.663-.006v.006h.663zm.392-.448v-.664h-.049l-.048.007.097.657zm.003-.001l-.096-.657-.254.037-.163.198.513.422zm15.088-11.855l.616.248.242-.601-.595-.256-.263.61zm-1.382-2.092h-.664.664zm.672-1.615l-.468-.47.468.47zm1.882-.653l-.07.66.635.068.092-.633-.657-.095zm-5.446-16.31l.468-.47-.468.47zM12.59 2.462l.26.61-.26-.61zm-.603-.24l-.61.261v.002l.61-.263zm-.005-.349l-.615-.249-.002.004.617.245zm.245-.25l.26.611h.001l-.26-.61zM16.067.42l.134.65-.134-.65zm8.197-.012l-.133.65.133-.65zm3.79 1.17l-.258.612.258-.612zm3.43 1.852l.37-.55v-.001l-.37.55zm2.989 2.453l-.469.47.469-.47zm2.466 2.972l.549-.372-.549.372zm1.861 3.412l-.61.26.61-.26zm1.177 3.77l.65-.134-.65.134zm.123 7.435l.654.113v-.002l-.654-.111zm-.223.318l.33.576.003-.002-.333-.574zm-.389.033l-.23.623h.001l.229-.623zm-.477-.087v-.663h-.001v.663zm-1.377 1.37h.663-.663zm1.146 1.348l-.11.655h.002l.108-.655zm.322.221l.575-.33-.003-.005-.572.335zm.033.388l.621.232.001-.002-.622-.23zm-6.173 8.583l.418.515-.418-.515zm-9.822 4.31l-.095-.656-.01.002.105.655zM9.57 3.534l-.566.345.001.002.566-.347zm.155-.627l-.341-.57-.002.002.343.568zm.63.153l-.567.344v.001l.568-.345zm.054.345l-.644-.16-.001.006.645.154zm-.208.282l-.342-.568L7.812 4.35h2.39v-.664zm0 0v-.663h-.187l-.16.097.347.566zm10.133 35.819h-.003v1.327h.003v-1.327zm-.003 0c.11 0 .204.087.205.206l-1.327.01a1.12 1.12 0 001.122 1.11v-1.326zm.205.206a.218.218 0 01-.06.148l-.942-.936a1.115 1.115 0 00-.325.797l1.327-.01zm-.061.148a.207.207 0 01-.144.06l-.009-1.326c-.297.002-.58.12-.788.33l.94.936zm.32-.132v-.001l-.467-.47-.468-.471h-.001l.936.942zm-.467.192h.003v-1.327h-.003v1.327zm.003 0a.205.205 0 01-.204-.205l1.327-.01a1.123 1.123 0 00-1.123-1.112v1.327zm-.204-.205a.206.206 0 01.202-.21l.01 1.328a1.121 1.121 0 001.115-1.128l-1.327.01zm-2.541-.378h.011l-.012-.001-.12 1.322c.016.001.066.006.121.006v-1.327zm.026.002a19.546 19.546 0 01-12.063-6.404l-.992.882a20.873 20.873 0 0012.882 6.838l.173-1.316zM5.549 32.934a19.34 19.34 0 01-3.583-5.86l-1.237.48a20.66 20.66 0 003.828 6.262l.992-.882zm-3.583-5.86a19.24 19.24 0 01-1.302-6.99H-.664c0 2.574.469 5.088 1.393 7.47l1.237-.48zm-1.302-6.99c0-1.49.17-2.972.505-4.41l-1.292-.301a20.76 20.76 0 00-.54 4.712H.663zm.505-4.41a19.25 19.25 0 011.441-4.052l-1.193-.582a20.542 20.542 0 00-1.54 4.333l1.292.301zm1.441-4.052a19.414 19.414 0 012.264-3.584l-1.039-.827a20.742 20.742 0 00-2.418 3.83l1.193.581zm2.264-3.584a19.593 19.593 0 012.971-3l-.837-1.03a20.92 20.92 0 00-3.173 3.204l1.039.826zm2.972-3.001a.204.204 0 01-.13.046V3.756c-.257 0-.508.089-.709.252l.84 1.029zm-.13.046a.207.207 0 01-.158-.076l1.028-.84a1.12 1.12 0 00-.87-.411v1.327zm-.155-.073a.213.213 0 01-.049-.138l1.327.012a1.114 1.114 0 00-.256-.72l-1.022.846zm-.049-.137c0-.057.027-.117.077-.157l.838 1.029a1.12 1.12 0 00.412-.863l-1.327-.009zm.077-.158C2.93 8.501.254 14.105.254 20.085h1.328c0-5.578 2.493-10.804 6.844-14.34l-.837-1.03zM.254 20.085c0 9.918 7.44 18.368 17.305 19.663l.173-1.316c-9.209-1.208-16.151-9.1-16.15-18.347H.254zM17.56 39.748a.206.206 0 01-.177-.233l1.316.175a1.121 1.121 0 00-.967-1.258l-.172 1.316zm-.176-.234a.204.204 0 01.202-.178v1.327c.56 0 1.038-.415 1.113-.973l-1.316-.176zm5.69-.216c.102 0 .187.073.202.176l-1.313.195c.082.548.556.957 1.11.957v-1.328zm.205.194v-.001.01h-1.327c0 .057.004.109.009.15l1.318-.16zm0 .015a.204.204 0 01-.175.203l-.194-1.313c-.543.08-.954.546-.958 1.1l1.327.01zm-.272.21h.011a.699.699 0 00.165-.023.667.667 0 00.34-.22l-1.026-.843a.66.66 0 01.337-.218c.1-.027.192-.023.173-.023v1.327zm.098-.008c6.997-1.017 12.976-5.715 15.609-12.263l-1.231-.495c-2.456 6.108-8.039 10.496-14.569 11.445l.191 1.313zm15.256-13.12a1.617 1.617 0 01-.981-1.484l-1.328.001a2.944 2.944 0 001.784 2.702l.525-1.22zm-.981-1.483c0-.433.167-.837.476-1.144l-.936-.94a2.926 2.926 0 00-.868 2.084h1.328zm.476-1.144a1.623 1.623 0 011.155-.475V22.16a2.95 2.95 0 00-2.091.86l.936.942zm1.155-.475c.058 0 .123.004.189.01l.14-1.319a3.126 3.126 0 00-.33-.018v1.327zm.916-.554c.137-.94.206-1.898.206-2.848h-1.327c0 .886-.065 1.78-.192 2.657l1.313.191zm.206-2.848c0-5.298-2.076-10.281-5.841-14.027l-.936.94c3.515 3.498 5.45 8.143 5.45 13.087h1.327zM34.291 6.058C30.526 2.313 25.517.249 20.194.249v1.328c4.973 0 9.645 1.925 13.162 5.422l.935-.941zM20.194.249c-2.729 0-5.376.54-7.864 1.603l.522 1.22a18.571 18.571 0 017.342-1.495V.249zM12.33 1.852a.207.207 0 01.079-.017v1.327c.149 0 .298-.028.441-.09l-.52-1.22zm.079-.017c.08 0 .154.047.187.124l-1.218.526c.178.413.585.677 1.031.677V1.835zm.188.126c.021.05.022.107.002.157l-1.234-.49c-.11.277-.105.583.012.855l1.22-.522zm0 .162a.208.208 0 01-.11.111l-.519-1.222a1.12 1.12 0 00-.6.612l1.23.499zm-.109.11A19.488 19.488 0 0116.2 1.07l-.268-1.3c-1.358.28-2.692.699-3.966 1.243l.522 1.22zM16.2 1.07a19.777 19.777 0 013.992-.406V-.664c-1.435 0-2.867.146-4.26.434l.268 1.3zm3.992-.406V-.664.664zm0 0c1.327 0 2.652.132 3.938.394l.265-1.3a21.083 21.083 0 00-4.202-.422V.664zm3.938.394c1.254.256 2.488.636 3.665 1.132L28.31.967a20.795 20.795 0 00-3.915-1.21l-.265 1.301zm3.666 1.132a19.556 19.556 0 013.317 1.79l.74-1.101A20.889 20.889 0 0028.31.967l-.514 1.223zm3.317 1.79a19.612 19.612 0 012.89 2.373l.937-.94a20.94 20.94 0 00-3.087-2.534l-.74 1.102zm2.89 2.374a19.53 19.53 0 012.386 2.874l1.098-.745a20.865 20.865 0 00-2.548-3.07l-.935.94zm2.386 2.874a19.375 19.375 0 011.8 3.299l1.221-.52a20.706 20.706 0 00-1.923-3.524l-1.098.745zm1.8 3.3a19.25 19.25 0 011.137 3.642l1.3-.267a20.525 20.525 0 00-1.216-3.896l-1.221.52zm1.137 3.642c.263 1.28.397 2.596.397 3.915h1.327a20.82 20.82 0 00-.424-4.182l-1.3.267zm.397 3.915c0 1.093-.093 2.195-.278 3.275l1.308.223c.198-1.153.297-2.33.297-3.498h-1.327zm-.278 3.273a.2.2 0 01.099-.142l.665 1.148c.284-.164.487-.45.544-.78l-1.308-.226zm.102-.144a.197.197 0 01.169-.014l-.458 1.246c.312.115.662.083.947-.08l-.658-1.152zm.17-.013a2.038 2.038 0 00-.707-.128V24.4c.08 0 .162.014.247.046l.46-1.245zm-.708-.128a2.04 2.04 0 00-2.04 2.032l1.327.002c0-.385.319-.707.715-.707l-.002-1.327zm-2.04 2.032a2.028 2.028 0 001.7 2.004l.22-1.31a.7.7 0 01-.593-.692l-1.327-.002zm1.702 2.004a.203.203 0 01-.144-.098l1.146-.671a1.128 1.128 0 00-.786-.54l-.216 1.309zm-.146-.104a.2.2 0 01-.014-.172l1.245.46a1.128 1.128 0 00-.08-.948l-1.151.66zm-.013-.174a19.481 19.481 0 01-5.97 8.3l.837 1.03a20.809 20.809 0 006.376-8.866l-1.243-.464zm-5.97 8.3a19.52 19.52 0 01-9.498 4.169l.19 1.313a20.849 20.849 0 0010.145-4.452l-.837-1.03zm-9.509 4.17a.238.238 0 01.04-.003v1.328c.055 0 .113-.005.172-.014l-.212-1.31zM9.964 3.09c.069 0 .136.038.173.097l-1.132.694c.205.335.566.537.959.537V3.089zm.174.099c.06.1.027.227-.07.286l-.686-1.136a1.12 1.12 0 00-.378 1.54l1.134-.69zm-.072.287a.2.2 0 01-.103.029V2.177c-.204 0-.404.055-.579.16l.682 1.138zm-.103.029a.21.21 0 01-.175-.1l1.135-.689a1.118 1.118 0 00-.96-.538v1.327zm-.174-.1a.213.213 0 01-.024-.16l1.288.32a1.114 1.114 0 00-.13-.85l-1.134.69zm-.025-.154a.213.213 0 01.095-.132l.685 1.137a1.11 1.11 0 00.51-.696l-1.29-.31zm.438.436v-.663H10.2v.662zm-.348-.566a.21.21 0 01.11-.03v1.327c.205 0 .406-.057.583-.165L9.854 3.12z" fill="url(#paint0_linear_348:2590)" mask="url(#a)"/><path d="M23.395 34.94l.116.215a1.964 1.964 0 001.732 1.031c.525 0 1.017-.203 1.388-.572a1.93 1.93 0 00.438-2.09h0a.125.125 0 00-.12-.08.123.123 0 00-.045.01h-.003 0a.119.119 0 00-.068.065.121.121 0 00-.002.095h0c.08.2.12.41.12.622v0a1.71 1.71 0 01-1.708 1.7h0-.002a1.7 1.7 0 01-1.626-1.184.126.126 0 00-.121-.088l-.099.276zm0 0l-.24.047c-.97.19-1.967.286-2.961.286a15.255 15.255 0 01-10.8-4.449 15.184 15.184 0 01-3.273-4.828 15.026 15.026 0 01-1.2-5.911 15.079 15.079 0 011.403-6.367h0a15.203 15.203 0 013.791-5.044h0a.129.129 0 01.18.012.123.123 0 01-.01.174h0a14.918 14.918 0 00-5.11 11.225 14.81 14.81 0 004.4 10.564h0a14.97 14.97 0 0010.619 4.375c1.1 0 2.2-.12 3.271-.357l-.07.273zM23.25 5.333h0a.13.13 0 00.099.145c6.875 1.461 11.865 7.603 11.864 14.607L23.249 5.333zm0 0a1.7 1.7 0 00.03-.311V5.02m-.03.312l.03-.312m0 0a1.71 1.71 0 00-1.708-1.7h0m1.708 1.7l-1.709-1.7m0 0a1.712 1.712 0 00-1.708 1.69h0m1.708-1.69l-1.708 1.69m0 0v.013m0-.012v.012m0 0a.118.118 0 01-.032.088l-.001.001m.033-.089l-.033.09m0 0a.125.125 0 01-.09.04l.09-.04zm-5.051.899h0a.13.13 0 00.163.074l.01.024.002.002-.01-.028a15.03 15.03 0 014.796-.931l-4.961.859zm0 0V6.01m0 .002V6.01m0 0a.118.118 0 01-.008-.044c0-.047.032-.096.082-.115a15.312 15.312 0 014.483-.93l.259-.015M14.777 6.01l4.817-1.104m0 0l.049-.254m-.049.254l.049-.254m0 0a1.961 1.961 0 011.928-1.582c.522 0 1.012.201 1.382.566.37.365.575.849.58 1.364l.003.26m-3.893-.608l3.893.607m0 0l.252.06m-.252-.06l.252.06m0 0a15.306 15.306 0 018.351 5.3 15.075 15.075 0 013.327 9.464 15.07 15.07 0 01-3.68 9.887v.002M23.787 5.32l7.997 24.653m0 0a15.313 15.313 0 01-2.577 2.372.13.13 0 01-.077.026c-.04 0-.08-.02-.104-.052m2.758-2.346l-2.758 2.346m0 0a.124.124 0 01.028-.173s0 0 0 0l-.195-.269.168.442zM12.31 7.219v-.001a.124.124 0 01.042-.17.13.13 0 01.176.043l.002.002a.12.12 0 01.012.092h0a.12.12 0 01-.056.076.133.133 0 01-.066.019.131.131 0 01-.11-.062z" stroke="url(#paint1_linear_348:2590)" stroke-width=".664"/><path d="M22.956 34.433a14.912 14.912 0 01-3.887.217.462.462 0 00-.493.42l-.001.036v0a.46.46 0 00.424.454 15.747 15.747 0 004.594-.326l-.637-.801zm0 0a2.262 2.262 0 01.663-1.811m-.663 1.81l.663-1.81m0 0a2.286 2.286 0 011.623-.669c.762 0 1.472.375 1.9 1.004m-3.523-.336l3.522.336m0 0c4.774-2.556 7.74-7.488 7.74-12.872 0-6.32-4.053-11.895-10.083-13.874l2.343 26.746zm-13.456.871v.001a.13.13 0 00.17-.06.124.124 0 00-.06-.165h0c-5.236-2.457-8.62-7.763-8.62-13.519l8.51 13.743zm0 0a15.28 15.28 0 01-3.555-2.318h0m3.555 2.318L10.13 31.51m0 0c-1.068-.932-2-2.004-2.77-3.188h0m2.77 3.188l-2.77-3.188m0 0a15.07 15.07 0 01-2.439-8.237c0-2.013.39-3.968 1.158-5.81v-.001m1.282 14.049L6.079 14.274m0 0a15.183 15.183 0 013.164-4.775 15.35 15.35 0 012.19-1.855h0m-5.354 6.63l5.353-6.63m0 0c.79-.552 1.638-1.03 2.517-1.423m-2.517 1.423L13.95 6.22m5.876-1.28h-.001a.125.125 0 00-.092-.037l.093.037zm0 0a.115.115 0 01.037.086v.002m-.037-.088l.037.088m0 0a1.708 1.708 0 001.709 1.694h.002c.781 0 1.459-.529 1.65-1.276l-3.361-.418zM13.949 6.22a15.235 15.235 0 015.783-1.317L13.949 6.22zm9.571 28.69a15.404 15.404 0 01-4.496.318.127.127 0 01-.118-.123v-.012s0 0 0 0a.13.13 0 01.137-.113h0c1.325.1 2.674.025 3.975-.222l.294-.056-.026-.298a1.93 1.93 0 01.567-1.548 1.95 1.95 0 011.39-.572c.652 0 1.258.321 1.624.858l.168.247.263-.14c4.881-2.613 7.914-7.657 7.914-13.165L23.52 34.91zm.082-.06a.121.121 0 01-.08.06l11.69-14.826c0-6.464-4.145-12.165-10.31-14.19H24.9a.125.125 0 01-.08-.155.126.126 0 01.12-.087.17.17 0 01.044.007 15.231 15.231 0 014.204 2.15h0c1.27.923 2.387 2.03 3.319 3.29a15.068 15.068 0 012.176 4.175h0a15.08 15.08 0 01.782 4.81c0 2.876-.813 5.675-2.349 8.095a15.292 15.292 0 01-6.109 5.5.134.134 0 01-.104.006.128.128 0 01-.073-.071h0a1.7 1.7 0 00-1.588-1.08h0a1.71 1.71 0 00-1.71 1.7v0c0 .177.028.35.081.516a.123.123 0 01-.01.098l-.002.002zm-3.88-30.279a.457.457 0 01.472.455l-.472-.455zm1.849 2.4c-.453 0-.895-.157-1.243-.441h0a1.956 1.956 0 01-.677-1.098l-.06-.277-.283.016c-7.924.459-14.133 7.007-14.132 14.913L21.57 6.972zm1.683-1.7v.004-.003zm-.108.245l.001-.001v.001zm-6.823 29.26a.126.126 0 01-.123-.156.127.127 0 01.156-.089c.033.009.06.029.077.058.017.03.021.06.013.094a.127.127 0 01-.123.093z" stroke="url(#paint2_linear_348:2590)" stroke-width=".664"/><path d="M9.638 17.346c.118 0 .235.015.358.048a.457.457 0 00.558-.304 10.109 10.109 0 013.83-5.22.454.454 0 00.11-.635.459.459 0 00-.64-.11 11.047 11.047 0 00-2.432 2.333 10.932 10.932 0 00-1.618 2.981l-.166.907zm0 0c-.758 0-1.376.615-1.377 1.37l1.377-1.37zm-.113 3.332l.02.254a10.561 10.561 0 003.381 6.938 10.68 10.68 0 007.268 2.838 10.66 10.66 0 007.554-3.112h0a10.588 10.588 0 002.29-3.377 10.5 10.5 0 00.839-4.134.127.127 0 00-.254 0l-21.098.593zm0 0l-.25-.046m.25.046l-.25-.046m0 0a1.952 1.952 0 01-1.6-1.917 1.955 1.955 0 011.963-1.95h.002c.047 0 .092.001.137.005l.254.021m-.757 3.841l.757-3.84m0 0l.086-.242m-.086.241l.086-.24m0 0a10.6 10.6 0 011.568-2.892 10.713 10.713 0 012.36-2.263h0m-3.928 5.154l3.928-5.154m0 0a.124.124 0 01.074-.023c.043 0 .082.02.104.053h0m-.178-.03l.178.03m0 0h.001m0 0h0m0 0a.122.122 0 01-.03.172h-.001m.031-.171l-.031.171m0 0a10.44 10.44 0 00-3.955 5.393.126.126 0 01-.153.084h0m4.108-5.477l-4.108 5.476m0 0h-.003m.003 0h-.003m0 0a1.7 1.7 0 00-.444-.06h0m.444.06l-.444-.06m0 0a1.709 1.709 0 00-1.709 1.7v.002m1.709-1.702l-1.709 1.702m0 0a1.711 1.711 0 001.696 1.7v0m-1.696-1.7l1.696 1.7m0 0h.003m-.003 0h.003m0 0h.025c.069.002.12.055.123.119h0m-.148-.119l.148.12m0 0c.239 5.565 4.816 9.923 10.417 9.923 2.785 0 5.404-1.08 7.374-3.038h0M9.776 20.535l17.791 6.886m0 0a10.281 10.281 0 003.055-7.336l-3.055 7.336zM16.43 10.27v-.002a.125.125 0 01.12-.165c.053 0 .101.034.119.081a.125.125 0 01-.075.16.128.128 0 01-.164-.074zm2.671-.641v-.002c0-.059.05-.117.115-.122h0c.323-.03.652-.045.978-.045.072 0 .127.058.127.125a.126.126 0 01-.127.125c-.317 0-.638.014-.954.042h0l-.013.001a.124.124 0 01-.125-.11v-.014z" stroke="url(#paint3_linear_348:2590)" stroke-width=".664"/><path d="M12.794 27.746h0c.975.931 2.099 1.66 3.343 2.169l-3.343-2.169zm0 0a10.586 10.586 0 01-2.31-3.228h0m2.31 3.228l-2.31-3.228m0 0a10.487 10.487 0 01-.962-3.972h0m.962 3.972l-.962-3.973m0 0a.127.127 0 01.033-.09.138.138 0 01.094-.04l-.003-.331m-.124.462l.472-3.629m0 0v.002a.123.123 0 00.01.095.134.134 0 00.08.061c.742.2 1.264.873 1.263 1.64m-1.353-1.798a10.535 10.535 0 011.492-2.987h0m-1.492 2.987l1.492-2.987m-.14 4.785c0 .935-.762 1.696-1.698 1.7l-.002-.331m1.7-1.369s0 0 0 0h-.331m.332 0s0 0 0 0h-.332m-1.369 1.369a.47.47 0 00-.33.141l1.699-1.51m-1.369 1.369a1.375 1.375 0 001.369-1.369m.471-4.785a10.653 10.653 0 012.319-2.36h0m-2.319 2.36l2.319-2.36m0 0c.904-.672 1.9-1.193 2.965-1.551h0m-2.965 1.55l2.965-1.55m0 0c1.099-.37 2.25-.558 3.424-.558.072 0 .127.058.127.125a.126.126 0 01-.127.125h-.002c-4.387 0-8.33 2.757-9.815 6.864l-.1.274m6.493-6.83l-6.492 6.83m0 0l.26.134m-.26-.134l.26.134m0 0a1.942 1.942 0 01.623 2.962h0m-.623-2.962l.623 2.963m0 0c-.278.34-.669.58-1.098.674l-.284.062m1.382-.736l-1.382.736m0 0l.024.29m-.024-.29l.024.29m0 0c.454 5.323 5.017 9.487 10.39 9.487 3.73 0 7.199-2.001 9.056-5.224v-.001M9.804 20.972l19.447 4.262m0 0a.128.128 0 01.11-.063c.022 0 .043.006.062.017l.002.001m-.174.045l.174-.045m0 0a.12.12 0 01.058.074h0m-.058-.074l.059.075m0 0a.117.117 0 01-.012.092l-.001.002m.013-.094l-.013.094m0 0a10.698 10.698 0 01-3.84 3.873h0m3.84-3.873l-3.84 3.873m0 0c-.805.475-1.67.841-2.57 1.09h0m2.57-1.09l-2.57 1.09m0 0c-.929.257-1.892.387-2.866.387-1.405 0-2.77-.267-4.057-.793l6.922.406zm7.23-7.49h0a.126.126 0 00.111.063c.06 0 .11-.04.123-.093a.125.125 0 00-.09-.151l.084-.321m-.227.503l-.013-.093a.126.126 0 01.157-.09l.083-.32m-.227.503a.12.12 0 01-.013-.093l.013.093zm.227-.503a.457.457 0 01.327.557m-.327-.557a.468.468 0 00-.117-.016l.444.573m0 0a.459.459 0 01-.56.325l.56-.325zM9.19 20.56h0z" stroke="url(#paint4_linear_348:2590)" stroke-width=".664"/><path d="M24.323 24.194h0a5.822 5.822 0 01-4.13 1.7.126.126 0 00-.126.125c0 .067.055.125.127.125.823 0 1.621-.16 2.372-.476l1.757-1.474zm0 0a5.762 5.762 0 001.71-4.11 5.763 5.763 0 00-1.71-4.108h0m0 8.218v-8.218m0 0a5.822 5.822 0 00-4.13-1.7 5.822 5.822 0 00-4.128 1.7h0m8.257 0h-8.257m0 0a5.764 5.764 0 00-1.71 4.108m1.71-4.108l-1.71 4.108m0 0v0m0 0v0m0 0a.126.126 0 01-.128.125m.128-.124l-.128.124m0 0a.126.126 0 01-.127-.124m.127.124l-.127-.124m0 0c0-.819.161-1.612.479-2.358m-.479 2.358l.479-2.358m0 0a6.048 6.048 0 011.305-1.926l-1.305 1.926zm3.242-3.225a6.102 6.102 0 00-1.937 1.3l1.937-1.3zm0 0a6.085 6.085 0 012.373-.476m-2.373.476l2.373-.476m0 0c.823 0 1.621.16 2.372.476l-2.372-.476zm5.615 3.701a6.046 6.046 0 00-1.306-1.926l1.306 1.926zm0 0c.317.747.478 1.54.478 2.358m-.478-2.358l.478 2.358m0 0c0 .818-.16 1.611-.478 2.358l.478-2.358zm-3.72-5.583a6.086 6.086 0 011.936 1.3l-1.937-1.3zm3.242 7.94a6.086 6.086 0 01-3.242 3.225l3.242-3.224z" stroke="url(#paint5_linear_348:2590)" stroke-width=".664"/><path d="M24.323 24.194h0a5.822 5.822 0 01-4.13 1.7.126.126 0 00-.126.125c0 .067.055.125.127.125a6.087 6.087 0 005.615-3.701c.317-.747.478-1.54.478-2.358a5.98 5.98 0 00-.478-2.358l-1.486 6.467zm0 0a5.762 5.762 0 001.71-4.11 5.763 5.763 0 00-1.71-4.108h0a5.822 5.822 0 00-4.13-1.7 5.822 5.822 0 00-4.128 1.7h0a5.764 5.764 0 00-1.71 4.109.126.126 0 01-.128.124.126.126 0 01-.127-.124c0-.819.161-1.611.479-2.358m9.744 6.467l-9.744-6.467m0 0a6.1 6.1 0 015.615-3.701c.823 0 1.621.16 2.372.476l-7.987 3.225zm7.987-3.225a6.086 6.086 0 013.243 3.225l-3.243-3.225z" stroke="url(#paint6_linear_348:2590)" stroke-width=".664"/><path d="M19.609 5.041v-.026l-.001-.004a1.93 1.93 0 01.574-1.368c.37-.369.863-.572 1.389-.572a1.955 1.955 0 011.928 2.308 1.96 1.96 0 01-1.929 1.593c-.521 0-1.011-.2-1.381-.565a1.928 1.928 0 01-.58-1.366zm1.962-1.72h-.001a1.713 1.713 0 00-1.708 1.686h0v.021a1.707 1.707 0 001.709 1.695h.002c.82 0 1.526-.583 1.676-1.39h0a1.7 1.7 0 00.03-.311V5.02a1.71 1.71 0 00-1.708-1.7z" stroke="url(#paint7_linear_348:2590)" stroke-width=".664"/><path d="M23.372 34.826h0a1.957 1.957 0 001.87 1.36c.526 0 1.018-.203 1.39-.572a1.93 1.93 0 00.437-2.09h0a1.946 1.946 0 00-.708-.891h0a1.952 1.952 0 00-1.119-.349c-.526 0-1.018.203-1.389.572l-.481 1.97zm0 0a1.935 1.935 0 01-.093-.591m.093.59l-.093-.59m0 0c0-.521.204-1.01.574-1.379l-.574 1.379zm1.963-1.701h0a1.71 1.71 0 00-1.708 1.7v.001a1.702 1.702 0 001.708 1.701h.001a1.71 1.71 0 001.708-1.7v-.001a1.7 1.7 0 00-1.708-1.701h0z" stroke="url(#paint8_linear_348:2590)" stroke-width=".664"/><path d="M11.347 18.716a1.702 1.702 0 00-1.264-1.64 1.655 1.655 0 00-.445-.062h0a1.709 1.709 0 00-1.709 1.701h0a1.714 1.714 0 001.693 1.702h.019l.009-.001h.003a1.707 1.707 0 001.694-1.7zm0 0s0 0 0 0h-.332.332s0 0 0 0zm-1.198-1.882h0a1.955 1.955 0 011.452 1.882c0 .517-.201 1.003-.568 1.371h0a1.956 1.956 0 01-1.374.578h-.021l-.005.001a1.955 1.955 0 01-1.958-1.95 1.955 1.955 0 012.474-1.881zm-.503 3.582h0s0 0 0 0h0z" stroke="url(#paint9_linear_348:2590)" stroke-width=".664"/><path d="M38.683 27.027h0a1.952 1.952 0 001.717-.542 1.93 1.93 0 00.574-1.379 1.92 1.92 0 00-.36-1.124h0a1.964 1.964 0 00-1.603-.826c-.526 0-1.018.202-1.39.571l1.062 3.3zm0 0a1.969 1.969 0 01-1.167-.657h0m1.167.657l-1.167-.657m0 0a1.94 1.94 0 01-.468-1.264m.468 1.264l-.468-1.264m0 0c0-.521.203-1.01.574-1.379l-.574 1.38zm1.963-1.701h0a1.71 1.71 0 00-1.709 1.7h0c-.001.835.6 1.539 1.423 1.677h.002c.097.016.19.025.284.025h0a1.71 1.71 0 001.708-1.7h0a1.706 1.706 0 00-1.116-1.595h0a1.713 1.713 0 00-.592-.107z" stroke="url(#paint10_linear_348:2590)" stroke-width=".664"/><path d="M20.194 21.579c-.83 0-1.504-.673-1.504-1.494s.674-1.494 1.504-1.494 1.504.673 1.504 1.494c0 .82-.674 1.494-1.504 1.494zm0-2.74h0a1.251 1.251 0 00-1.25 1.245v.001a1.251 1.251 0 001.25 1.244h0a1.251 1.251 0 001.25-1.244h0a1.251 1.251 0 00-1.25-1.245zm0 .333h0z" stroke="url(#paint11_linear_348:2590)" stroke-width=".664"/><defs><linearGradient id="paint0_linear_348:2590" x1="-8.244" y1="1.27" x2="43.833" y2="40.01" gradientUnits="userSpaceOnUse"><stop stop-color="#ACB4FF"/><stop offset=".521" stop-color="#A55FFF"/><stop offset="1" stop-color="#816CFF" stop-opacity=".88"/></linearGradient><linearGradient id="paint1_linear_348:2590" x1="-1.781" y1="3.807" x2="40.823" y2="32.93" gradientUnits="userSpaceOnUse"><stop stop-color="#ACB4FF"/><stop offset=".521" stop-color="#A55FFF"/><stop offset="1" stop-color="#816CFF" stop-opacity=".88"/></linearGradient><linearGradient id="paint2_linear_348:2590" x1="-1.781" y1="5.554" x2="38.455" y2="35.491" gradientUnits="userSpaceOnUse"><stop stop-color="#ACB4FF"/><stop offset=".521" stop-color="#A55FFF"/><stop offset="1" stop-color="#816CFF" stop-opacity=".88"/></linearGradient><linearGradient id="paint3_linear_348:2590" x1="2.472" y1="9.822" x2="31.453" y2="33.177" gradientUnits="userSpaceOnUse"><stop stop-color="#ACB4FF"/><stop offset=".521" stop-color="#A55FFF"/><stop offset="1" stop-color="#816CFF" stop-opacity=".88"/></linearGradient><linearGradient id="paint4_linear_348:2590" x1="4.767" y1="9.822" x2="33.035" y2="30.508" gradientUnits="userSpaceOnUse"><stop stop-color="#ACB4FF"/><stop offset=".521" stop-color="#A55FFF"/><stop offset="1" stop-color="#816CFF" stop-opacity=".88"/></linearGradient><linearGradient id="paint5_linear_348:2590" x1="11.146" y1="14.098" x2="27.716" y2="26.425" gradientUnits="userSpaceOnUse"><stop stop-color="#ACB4FF"/><stop offset=".521" stop-color="#A55FFF"/><stop offset="1" stop-color="#816CFF" stop-opacity=".88"/></linearGradient><linearGradient id="paint6_linear_348:2590" x1="11.146" y1="14.098" x2="27.716" y2="26.425" gradientUnits="userSpaceOnUse"><stop stop-color="#ACB4FF"/><stop offset=".521" stop-color="#A55FFF"/><stop offset="1" stop-color="#816CFF" stop-opacity=".88"/></linearGradient><linearGradient id="paint7_linear_348:2590" x1="18.339" y1="2.884" x2="24.257" y2="7.286" gradientUnits="userSpaceOnUse"><stop stop-color="#ACB4FF"/><stop offset=".521" stop-color="#A55FFF"/><stop offset="1" stop-color="#816CFF" stop-opacity=".88"/></linearGradient><linearGradient id="paint8_linear_348:2590" x1="22.011" y1="32.097" x2="27.929" y2="36.499" gradientUnits="userSpaceOnUse"><stop stop-color="#ACB4FF"/><stop offset=".521" stop-color="#A55FFF"/><stop offset="1" stop-color="#816CFF" stop-opacity=".88"/></linearGradient><linearGradient id="paint9_linear_348:2590" x1="6.406" y1="16.577" x2="12.324" y2="20.98" gradientUnits="userSpaceOnUse"><stop stop-color="#ACB4FF"/><stop offset=".521" stop-color="#A55FFF"/><stop offset="1" stop-color="#816CFF" stop-opacity=".88"/></linearGradient><linearGradient id="paint10_linear_348:2590" x1="35.779" y1="22.968" x2="41.697" y2="27.37" gradientUnits="userSpaceOnUse"><stop stop-color="#ACB4FF"/><stop offset=".521" stop-color="#A55FFF"/><stop offset="1" stop-color="#816CFF" stop-opacity=".88"/></linearGradient><linearGradient id="paint11_linear_348:2590" x1="17.609" y1="18.374" x2="22.343" y2="21.896" gradientUnits="userSpaceOnUse"><stop stop-color="#ACB4FF"/><stop offset=".521" stop-color="#A55FFF"/><stop offset="1" stop-color="#816CFF" stop-opacity=".88"/></linearGradient></defs></svg>