<svg width="42" height="42" fill="none" xmlns="http://www.w3.org/2000/svg"><path d="M6.284 6.284h0a20.246 20.246 0 00-4.355 6.458l4.355-6.458zm0 0a20.248 20.248 0 016.458-4.354l-.129-.306m-6.33 4.66l6.33-4.66m0 0l.13.306a20.193 20.193 0 017.91-1.598c2.743 0 5.404.538 7.91 1.598h0a20.24 20.24 0 016.459 4.354h0a20.253 20.253 0 015.952 14.369 20.19 20.19 0 01-1.598 7.91h0a20.242 20.242 0 01-4.354 6.459h0a20.24 20.24 0 01-6.459 4.354h0a20.182 20.182 0 01-7.91 1.598c-2.743 0-5.404-.538-7.91-1.598h0a20.232 20.232 0 01-6.46-4.354h0a20.241 20.241 0 01-4.354-6.459h0M12.613 1.624L1.93 28.563m0 0a20.19 20.19 0 01-1.597-7.91c0-2.743.538-5.404 1.597-7.91v15.82z" stroke="url(#paint0_linear_348:2679)" stroke-width=".664"/><path d="M27.136 14.148c1.423.199 2.747.927 3.763 2.07.056.063.13.098.209.098a.264.264 0 00.112-.025.292.292 0 00.096-.072.338.338 0 00.064-.108.372.372 0 00-.064-.364c-1.109-1.248-2.554-2.043-4.107-2.26a.261.261 0 00-.115.01.282.282 0 00-.103.057.325.325 0 00-.075.099.365.365 0 00.024.37.308.308 0 00.087.085.27.27 0 00.11.04z" fill="url(#paint1_linear_348:2679)"/><path d="M10.587 16.219c1.016-1.144 2.34-1.872 3.763-2.07a.273.273 0 00.11-.041.309.309 0 00.087-.085.353.353 0 00.06-.247.363.363 0 00-.037-.123.325.325 0 00-.075-.099.282.282 0 00-.103-.058.261.261 0 00-.115-.009c-1.553.217-2.998 1.012-4.107 2.26a.357.357 0 00-.085.236c0 .088.032.172.087.234.055.063.13.098.207.098a.278.278 0 00.208-.096z" fill="url(#paint2_linear_348:2679)"/><path d="M8.818 18.576c.436.346 1 .686 1.634 1.143a12.05 12.05 0 012.032 1.818c1.156 1.306 2.32 3.184 3.409 4.783-.367.302-.8.485-1.252.527a.277.277 0 00-.157.07.336.336 0 00-.098.156.374.374 0 00-.006.19c.015.064.045.12.088.164.56.573 1.29.89 2.046.887.26-.001.518-.04.77-.114.268.326.565.62.886.877.248.2.532.336.831.398.015 1.391.48 2.729 1.309 3.758.415.52.916.942 1.475 1.243a4.29 4.29 0 002.028.518c1.274-.002 2.497-.576 3.398-1.596.901-1.02 1.408-2.403 1.409-3.845a.369.369 0 00-.037-.163.32.32 0 00-.103-.12.266.266 0 00-.287-.015c-.39.22-.82.334-1.257.334-.437 0-.867-.115-1.258-.334a.266.266 0 00-.287.014.32.32 0 00-.102.122.369.369 0 00-.038.162c0 .432-.152.847-.423 1.153-.27.306-.637.479-1.02.48-.047 0-.095-.003-.144-.008a1.354 1.354 0 01-.925-.56 1.924 1.924 0 01-.367-1.089c.366-.024.72-.168 1.015-.413.316-.253.604-.544.862-.87.198.045.4.068.602.068.756.002 1.485-.314 2.046-.887a.344.344 0 00.088-.163.375.375 0 00-.006-.191.336.336 0 00-.098-.156.276.276 0 00-.157-.07 2.29 2.29 0 01-1.161-.458c1.038-1.619 2.148-3.53 3.318-4.852a13.596 13.596 0 013.023-2.463c.381-.23.743-.5 1.08-.805.14-.135.26-.295.353-.475.092-.183.14-.39.14-.602a2.18 2.18 0 00-.338-1.073 8.318 8.318 0 00-.989-1.313c-1.055-1.197-2.38-2.044-3.83-2.448a7.263 7.263 0 00-4.397.152 1.22 1.22 0 00.106-1.065 1.117 1.117 0 00-.214-.36v-.001l-.003-.003-.003-.003a.976.976 0 00-.318-.242.876.876 0 00-.377-.085h-4.863a.937.937 0 00-.7.329 1.2 1.2 0 00-.29.79c0 .2.05.395.14.565a7.455 7.455 0 00-2.236-.351 7.367 7.367 0 00-3.141.692 8.19 8.19 0 00-2.667 2.002 8.578 8.578 0 00-1.01 1.338A2.202 2.202 0 008 17.205c0 .207.046.411.135.593.172.314.406.58.683.778zm9.07 9.368c.44-.25.82-.615 1.11-1.065v1.916a1.58 1.58 0 01-.498-.27 4.77 4.77 0 01-.611-.581zm5.17.62c-.201.17-.44.275-.691.3v-1.985c.32.5.754.895 1.254 1.144-.173.2-.361.38-.563.54zm.036-1.74a2.848 2.848 0 01-.539-.91 3.119 3.119 0 01-.188-1.077V22.48a.357.357 0 00-.087-.236.279.279 0 00-.208-.097.278.278 0 00-.208.097.356.356 0 00-.087.236v6.986c0 .58.182 1.141.514 1.584.33.447.802.73 1.315.791a1.895 1.895 0 001.479-.502c.362-.33.612-.792.71-1.306a3.012 3.012 0 002.212.023c-.111 1.172-.6 2.256-1.374 3.044-.774.789-1.779 1.226-2.82 1.228-.068 0-.14-.004-.216-.008a3.746 3.746 0 01-1.561-.447 4.206 4.206 0 01-1.291-1.09c-.745-.924-1.158-2.13-1.158-3.38V22.48a.357.357 0 00-.086-.236.279.279 0 00-.208-.097.278.278 0 00-.209.097.356.356 0 00-.086.236v2.358a3.1 3.1 0 01-.315 1.37 2.69 2.69 0 01-.866 1.023 2.282 2.282 0 01-1.198.414 2.244 2.244 0 01-1.223-.3 3.117 3.117 0 001.525-1.26 3.781 3.781 0 00.582-2.034v-3.143a.37.37 0 00-.086-.237.296.296 0 00-.095-.073.266.266 0 00-.227 0 .296.296 0 00-.096.073.37.37 0 00-.085.237v1.404c-.962-1.11-1.499-2.601-1.495-4.155a6.485 6.485 0 01.458-2.417h9.61a6.563 6.563 0 01.42 3.134l-.001.01c-.01.112-.025.223-.045.338v.004a5.52 5.52 0 01-.084.429l-.004.016a3.282 3.282 0 01-.056.233v.002c-.03.104-.063.209-.097.319-.062.192-.133.38-.215.563l-.004.01a1.554 1.554 0 01-.073.157l-.014.028a2.06 2.06 0 01-.064.134l-.011.02c-.039.08-.08.158-.122.23l-.007.012c-.03.058-.069.118-.11.185-.074.118-.15.235-.23.346a5.134 5.134 0 01-.16.214l-.006.008-.012.014a3.47 3.47 0 01-.137.165l-.003.004v-1.407a.37.37 0 00-.086-.237.295.295 0 00-.096-.073.266.266 0 00-.227 0 .296.296 0 00-.096.073.34.34 0 00-.063.109.373.373 0 00-.022.128v3.143c0 .511.099 1.016.291 1.478.193.462.473.87.822 1.195l.004.005.003.001c.292.273.627.482.987.616a2.23 2.23 0 01-1.512.266 2.394 2.394 0 01-1.363-.787zM17.832 13.15c.087-.062.174-.118.262-.175.052.01.104.015.157.015h.78a3.096 3.096 0 00-.017.766v.004c.005.042.01.087.018.135h-2.02c.251-.28.526-.529.82-.745zm5.433-.173h.002l.003-.001c.109.069.217.139.319.216l.001.001c.272.207.527.442.76.702h-2.02a2.75 2.75 0 00.037-.453c0-.151-.012-.303-.034-.452h.781c.05 0 .101-.005.151-.013zm-1.202 1.784l.004-.01c.02-.042.05-.1.078-.17l.007-.016.001-.004h2.718c.11.165.214.336.31.513h-3.317a2.2 2.2 0 00.199-.313zm-.335-1.771c.031.148.048.3.05.452 0 .12-.01.24-.03.36l-.002.013c-.013.1-.036.2-.068.295-.02.063-.039.118-.059.17l-.002.005-.007.016a1.547 1.547 0 01-.234.397h-.001c-.029.037-.06.071-.092.103l-.011.01a.607.607 0 01-.088.077l-.013.01a.862.862 0 01-.217.122h-.001l-.044.016a.725.725 0 01-.227.038.67.67 0 01-.148-.017h-.007a1.005 1.005 0 01-.568-.396l-.042-.057a1.562 1.562 0 01-.053-.085l-.01-.016-.033-.06-.005-.01a1.711 1.711 0 01-.05-.105l-.03-.069a2.86 2.86 0 01-.048-.143l-.003-.008a1.83 1.83 0 01-.048-.179l-.01-.056-.007-.044a1.32 1.32 0 01-.02-.15l-.001-.005a2.264 2.264 0 01.038-.684h2.09zm-5.234 1.571h2.717l.024.058.003.006a2.3 2.3 0 00.068.142l.002.003.003.007c.02.038.041.075.064.111.02.036.045.079.078.127l.005.006.038.053h-3.312a5.95 5.95 0 01.31-.513zm15.24.716c.338.366.643.77.91 1.205.14.206.224.452.244.71a.6.6 0 01-.065.276 1.738 1.738 0 01-.524.554c-.401.309-.99.653-1.662 1.124a12.203 12.203 0 00-2.173 1.92c-1.223 1.385-2.332 3.3-3.353 4.893a3.005 3.005 0 01-.66-1.907v-.83c.032-.032.066-.062.096-.094l.004-.004.009-.009a4.85 4.85 0 00.312-.333l.002-.002.002-.002c.05-.058.099-.117.146-.178l.014-.015.01-.013a6.54 6.54 0 00.185-.245 8.39 8.39 0 00.25-.377v-.001c.04-.064.083-.134.126-.212l.003-.005.003-.006c.048-.082.092-.166.132-.249l.005-.01.006-.01.002-.005c.03-.054.057-.11.08-.166.034-.064.064-.128.092-.195l.004-.01c.09-.201.169-.409.237-.621l.001-.002.002-.005v-.003c.035-.11.071-.223.105-.346v.001-.002.001c.025-.09.046-.179.065-.269l.002-.011.002-.005c.039-.161.068-.319.092-.47v-.004a4.78 4.78 0 00.051-.387l.001-.008v-.003a7.3 7.3 0 00-.508-3.591l-.034-.087-.003-.004v-.004a6.451 6.451 0 00-1.552-2.216 6.755 6.755 0 013.933.005c1.288.392 2.463 1.16 3.405 2.227zm-13.766-3.726a.397.397 0 01.13-.098.357.357 0 01.153-.035h4.863c.052 0 .104.01.151.033a.387.387 0 01.128.098l.006.006a.44.44 0 01.086.145.494.494 0 01-.049.439.406.406 0 01-.203.163l-.007.003a.32.32 0 01-.112.018h-4.863a.32.32 0 01-.112-.018l-.006-.002a.383.383 0 01-.164-.114l-.003-.003a.441.441 0 01-.086-.145.504.504 0 01.001-.344.455.455 0 01.087-.146zm-9.128 4.93a7.98 7.98 0 01.934-1.231 7.599 7.599 0 012.475-1.858 6.929 6.929 0 014.765-.39 6.314 6.314 0 00-.9 1.018 6.74 6.74 0 00-.694 1.237v.001l-.002.003a1.806 1.806 0 00-.057.147 7.22 7.22 0 00-.532 2.75c0 .964.186 1.918.546 2.792a6.56 6.56 0 001.539 2.27v.832c0 .663-.208 1.306-.588 1.811-1.07-1.57-2.227-3.44-3.426-4.797a14.745 14.745 0 00-3.076-2.559 6.278 6.278 0 01-.951-.73 1.164 1.164 0 01-.22-.298.612.612 0 01-.064-.274 1.52 1.52 0 01.25-.725z" fill="url(#paint3_linear_348:2679)"/><path d="M16.113 14.02v-.001.001z" fill="url(#paint4_linear_348:2679)"/><path d="M19.64 10.239h2.084a.278.278 0 00.209-.098.357.357 0 00.086-.236c.006-.47-.121-.93-.364-1.311a1.233 1.233 0 00-.42-.436A1.06 1.06 0 0020.682 8c-.193 0-.383.054-.553.158a1.23 1.23 0 00-.42.436 2.4 2.4 0 00-.364 1.311c0 .089.031.174.087.236.055.063.13.098.208.098zm1.042-1.572c.1.005.199.038.286.095a.679.679 0 01.216.232c.108.172.182.37.214.578h-1.432c.033-.208.106-.406.215-.578a.679.679 0 01.216-.232.584.584 0 01.285-.095z" fill="url(#paint5_linear_348:2679)"/><path d="M21.03 22.474h-.695a.278.278 0 00-.208.097.357.357 0 00-.087.236c0 .088.031.173.087.236.055.062.13.097.208.097h.695a.278.278 0 00.208-.098.356.356 0 00.086-.235.357.357 0 00-.086-.236.278.278 0 00-.208-.097z" fill="url(#paint6_linear_348:2679)"/><path d="M21.03 24.753h-.695a.278.278 0 00-.208.098.357.357 0 00-.087.235c0 .089.031.173.087.236.055.062.13.097.208.097h.695a.278.278 0 00.208-.097.356.356 0 00.086-.236.357.357 0 00-.086-.235.278.278 0 00-.208-.098z" fill="url(#paint7_linear_348:2679)"/><path d="M20.335 27.699h.695a.279.279 0 00.208-.098.356.356 0 00.086-.235.356.356 0 00-.086-.236.278.278 0 00-.208-.097h-.695a.278.278 0 00-.208.097.356.356 0 00-.087.236c0 .088.031.173.087.235.055.063.13.098.208.098z" fill="url(#paint8_linear_348:2679)"/><path d="M21.328 29.626a.355.355 0 00-.091-.234.276.276 0 00-.21-.091l-.695.02a.267.267 0 00-.113.028.298.298 0 00-.094.075.372.372 0 00.01.473c.029.03.062.054.098.07a.264.264 0 00.114.02l.694-.02a.266.266 0 00.113-.028.297.297 0 00.093-.075.373.373 0 00.081-.238z" fill="url(#paint9_linear_348:2679)"/><path d="M21.45 31.244l-.544.488a.365.365 0 00-.046.467.27.27 0 00.413.054l.544-.488a.324.324 0 00.074-.099.363.363 0 00.027-.254.354.354 0 00-.053-.116.308.308 0 00-.088-.084.272.272 0 00-.225-.029.285.285 0 00-.102.06z" fill="url(#paint10_linear_348:2679)"/><path d="M22.857 33.673c.076.023.156.01.224-.035a.332.332 0 00.136-.203l.175-.76a.371.371 0 00-.03-.253.302.302 0 00-.18-.154.265.265 0 00-.224.035.332.332 0 00-.136.204l-.175.76a.371.371 0 00.03.252c.04.077.105.132.18.154z" fill="url(#paint11_linear_348:2679)"/><path d="M24.854 33.315c.03.081.087.147.159.18a.263.263 0 00.225.002.316.316 0 00.16-.18.374.374 0 00.001-.256l-.264-.727a.317.317 0 00-.159-.18.263.263 0 00-.225-.002.316.316 0 00-.16.18.374.374 0 000 .255l.263.728z" fill="url(#paint12_linear_348:2679)"/><path d="M26.043 31.445l.597.403a.265.265 0 00.223.037.3.3 0 00.18-.152.372.372 0 00.033-.253.333.333 0 00-.134-.204l-.597-.403a.266.266 0 00-.223-.037.3.3 0 00-.18.153.37.37 0 00-.034.252c.02.085.068.16.135.204z" fill="url(#paint13_linear_348:2679)"/><path d="M20.89 21.34l.696-.786a.357.357 0 00.086-.236.357.357 0 00-.086-.235.278.278 0 00-.209-.098.279.279 0 00-.208.098l-.487.55-.486-.55a.296.296 0 00-.096-.073.266.266 0 00-.226 0 .296.296 0 00-.096.071.372.372 0 00.001.473l.695.786c.027.03.06.055.096.072a.264.264 0 00.225 0 .294.294 0 00.096-.072z" fill="url(#paint14_linear_348:2679)"/><path d="M20.682 18.883a.278.278 0 00.209-.097.357.357 0 00.086-.236v-1.572a.357.357 0 00-.087-.235.278.278 0 00-.208-.098.278.278 0 00-.208.098.357.357 0 00-.086.235v1.572c0 .088.03.173.086.236.055.062.13.097.208.097z" fill="url(#paint15_linear_348:2679)"/><path d="M19.935 17.764v-1.178a.357.357 0 00-.086-.236.279.279 0 00-.209-.098.279.279 0 00-.208.098.357.357 0 00-.086.236v1.178c0 .089.03.174.086.236.055.063.13.098.208.098a.279.279 0 00.21-.098.357.357 0 00.086-.236z" fill="url(#paint16_linear_348:2679)"/><path d="M21.725 16.252a.279.279 0 00-.209.098.357.357 0 00-.086.236v1.178c0 .089.031.174.086.236.056.063.13.098.209.098a.279.279 0 00.208-.098.357.357 0 00.086-.236v-1.178a.357.357 0 00-.086-.236.279.279 0 00-.208-.098z" fill="url(#paint17_linear_348:2679)"/><path d="M18.46 17.948a1.601 1.601 0 00-1.147-.598 1.563 1.563 0 00-1.19.477.352.352 0 00-.098.229.361.361 0 00.073.241.283.283 0 00.203.112.274.274 0 00.213-.084c.02-.02.042-.034.063-.052.018.215.092.419.21.587a.99.99 0 00.461.36.873.873 0 00.56.018.971.971 0 00.477-.332c.009.033.018.066.024.1.016.087.06.163.126.212a.267.267 0 00.221.049.296.296 0 00.187-.142.369.369 0 00.044-.25 1.996 1.996 0 00-.42-.92l-.007-.007zm-.904.661a.362.362 0 01-.181-.049.417.417 0 01-.142-.136.507.507 0 01-.059-.404c.021 0 .042-.006.063-.006.254 0 .501.101.697.285a.457.457 0 01-.146.224.373.373 0 01-.232.086z" fill="url(#paint18_linear_348:2679)"/><path d="M24.788 18.273c.02.018.043.033.063.053a.274.274 0 00.212.082.283.283 0 00.203-.111.362.362 0 00.074-.24.352.352 0 00-.099-.23 1.562 1.562 0 00-1.19-.477 1.6 1.6 0 00-1.146.598l-.007.008a1.996 1.996 0 00-.42.92.37.37 0 00.043.25.297.297 0 00.188.141c.076.018.156 0 .22-.049a.338.338 0 00.127-.211c.006-.035.015-.068.024-.101a.97.97 0 00.477.332c.184.056.378.05.56-.017a.989.989 0 00.46-.36c.12-.169.192-.373.21-.588zm-.697.203a.399.399 0 01-.129.099.357.357 0 01-.386-.052.457.457 0 01-.145-.223c.196-.184.442-.285.697-.286.021 0 .042.006.063.007a.506.506 0 01.007.244.467.467 0 01-.107.211z" fill="url(#paint19_linear_348:2679)"/><defs><linearGradient id="paint0_linear_348:2679" x1="-8.431" y1="1.306" x2="45.036" y2="40.864" gradientUnits="userSpaceOnUse"><stop stop-color="#ACB4FF"/><stop offset=".521" stop-color="#A55FFF"/><stop offset="1" stop-color="#816CFF" stop-opacity=".88"/></linearGradient><linearGradient id="paint1_linear_348:2679" x1="25.954" y1="13.574" x2="29.734" y2="18.043" gradientUnits="userSpaceOnUse"><stop stop-color="#ACB4FF"/><stop offset=".521" stop-color="#A55FFF"/><stop offset="1" stop-color="#816CFF" stop-opacity=".88"/></linearGradient><linearGradient id="paint2_linear_348:2679" x1="9.162" y1="13.574" x2="12.941" y2="18.041" gradientUnits="userSpaceOnUse"><stop stop-color="#ACB4FF"/><stop offset=".521" stop-color="#A55FFF"/><stop offset="1" stop-color="#816CFF" stop-opacity=".88"/></linearGradient><linearGradient id="paint3_linear_348:2679" x1="2.8" y1="11.518" x2="34.603" y2="36.247" gradientUnits="userSpaceOnUse"><stop stop-color="#ACB4FF"/><stop offset=".521" stop-color="#A55FFF"/><stop offset="1" stop-color="#816CFF" stop-opacity=".88"/></linearGradient><linearGradient id="paint4_linear_348:2679" x1="16.113" y1="14.019" x2="16.114" y2="14.019" gradientUnits="userSpaceOnUse"><stop stop-color="#ACB4FF"/><stop offset=".521" stop-color="#A55FFF"/><stop offset="1" stop-color="#816CFF" stop-opacity=".88"/></linearGradient><linearGradient id="paint5_linear_348:2679" x1="18.799" y1="8.071" x2="21.807" y2="10.729" gradientUnits="userSpaceOnUse"><stop stop-color="#ACB4FF"/><stop offset=".521" stop-color="#A55FFF"/><stop offset="1" stop-color="#816CFF" stop-opacity=".88"/></linearGradient><linearGradient id="paint6_linear_348:2679" x1="19.778" y1="22.495" x2="20.627" y2="23.704" gradientUnits="userSpaceOnUse"><stop stop-color="#ACB4FF"/><stop offset=".521" stop-color="#A55FFF"/><stop offset="1" stop-color="#816CFF" stop-opacity=".88"/></linearGradient><linearGradient id="paint7_linear_348:2679" x1="19.778" y1="24.774" x2="20.627" y2="25.983" gradientUnits="userSpaceOnUse"><stop stop-color="#ACB4FF"/><stop offset=".521" stop-color="#A55FFF"/><stop offset="1" stop-color="#816CFF" stop-opacity=".88"/></linearGradient><linearGradient id="paint8_linear_348:2679" x1="19.778" y1="27.054" x2="20.626" y2="28.263" gradientUnits="userSpaceOnUse"><stop stop-color="#ACB4FF"/><stop offset=".521" stop-color="#A55FFF"/><stop offset="1" stop-color="#816CFF" stop-opacity=".88"/></linearGradient><linearGradient id="paint9_linear_348:2679" x1="19.781" y1="29.323" x2="20.663" y2="30.545" gradientUnits="userSpaceOnUse"><stop stop-color="#ACB4FF"/><stop offset=".521" stop-color="#A55FFF"/><stop offset="1" stop-color="#816CFF" stop-opacity=".88"/></linearGradient><linearGradient id="paint10_linear_348:2679" x1="20.564" y1="31.207" x2="22.05" y2="32.286" gradientUnits="userSpaceOnUse"><stop stop-color="#ACB4FF"/><stop offset=".521" stop-color="#A55FFF"/><stop offset="1" stop-color="#816CFF" stop-opacity=".88"/></linearGradient><linearGradient id="paint11_linear_348:2679" x1="22.481" y1="32.302" x2="23.804" y2="32.827" gradientUnits="userSpaceOnUse"><stop stop-color="#ACB4FF"/><stop offset=".521" stop-color="#A55FFF"/><stop offset="1" stop-color="#816CFF" stop-opacity=".88"/></linearGradient><linearGradient id="paint12_linear_348:2679" x1="24.394" y1="32.172" x2="25.812" y2="32.813" gradientUnits="userSpaceOnUse"><stop stop-color="#ACB4FF"/><stop offset=".521" stop-color="#A55FFF"/><stop offset="1" stop-color="#816CFF" stop-opacity=".88"/></linearGradient><linearGradient id="paint13_linear_348:2679" x1="25.657" y1="30.86" x2="27.076" y2="32.025" gradientUnits="userSpaceOnUse"><stop stop-color="#ACB4FF"/><stop offset=".521" stop-color="#A55FFF"/><stop offset="1" stop-color="#816CFF" stop-opacity=".88"/></linearGradient><linearGradient id="paint14_linear_348:2679" x1="19.288" y1="20.03" x2="21.256" y2="22.013" gradientUnits="userSpaceOnUse"><stop stop-color="#ACB4FF"/><stop offset=".521" stop-color="#A55FFF"/><stop offset="1" stop-color="#816CFF" stop-opacity=".88"/></linearGradient><linearGradient id="paint15_linear_348:2679" x1="20.267" y1="16.716" x2="21.404" y2="16.937" gradientUnits="userSpaceOnUse"><stop stop-color="#ACB4FF"/><stop offset=".521" stop-color="#A55FFF"/><stop offset="1" stop-color="#816CFF" stop-opacity=".88"/></linearGradient><linearGradient id="paint16_linear_348:2679" x1="19.225" y1="16.311" x2="20.343" y2="16.575" gradientUnits="userSpaceOnUse"><stop stop-color="#ACB4FF"/><stop offset=".521" stop-color="#A55FFF"/><stop offset="1" stop-color="#816CFF" stop-opacity=".88"/></linearGradient><linearGradient id="paint17_linear_348:2679" x1="21.31" y1="16.311" x2="22.428" y2="16.575" gradientUnits="userSpaceOnUse"><stop stop-color="#ACB4FF"/><stop offset=".521" stop-color="#A55FFF"/><stop offset="1" stop-color="#816CFF" stop-opacity=".88"/></linearGradient><linearGradient id="paint18_linear_348:2679" x1="15.438" y1="17.409" x2="18.037" y2="20.268" gradientUnits="userSpaceOnUse"><stop stop-color="#ACB4FF"/><stop offset=".521" stop-color="#A55FFF"/><stop offset="1" stop-color="#816CFF" stop-opacity=".88"/></linearGradient><linearGradient id="paint19_linear_348:2679" x1="21.887" y1="17.409" x2="24.486" y2="20.268" gradientUnits="userSpaceOnUse"><stop stop-color="#ACB4FF"/><stop offset=".521" stop-color="#A55FFF"/><stop offset="1" stop-color="#816CFF" stop-opacity=".88"/></linearGradient></defs></svg>