<svg width="183" height="308" fill="none" xmlns="http://www.w3.org/2000/svg"><path d="M129.365 149.879c-.061-.131-.199-.15-.327-.077l-4.148 2.497 1.624-2.697c.078-.111.03-.282-.069-.357-.1-.075-.265-.013-.343.098l-1.612 2.723.165-3.114c.003-.134-.084-.25-.21-.243-.127.007-.242.106-.244.24l-.194 3.264-1.981-3.964c-.061-.131-.199-.15-.327-.076-.127.073-.155.222-.094.353l1.981 3.963-2.664-1.678c-.099-.075-.265-.013-.342.099-.078.111-.03.282.07.357l2.575 1.63-3.159.035c-.127.006-.242.106-.244.24-.002.134.084.25.211.243l3.058-.042-3.944 2.379c-.127.073-.155.222-.094.353.049.104.174.165.276.106l.026-.015 4.147-2.497-1.871 3.138c-.078.112-.03.283.07.358.049.038.15.046.201.016.051-.029.103-.059.116-.1l1.871-3.138-.198 3.598c-.003.134.084.25.21.243.038.011.064-.004.089-.018.077-.045.166-.13.155-.223l.21-3.505 2.042 4.095c.049.104.174.164.276.105l.026-.014c.128-.074.155-.223.094-.354l-2.017-4.042 2.601 1.615c.05.038.151.046.202.016.051-.029.102-.059.115-.1.078-.111.03-.282-.07-.357l-2.701-1.69 3.16-.035c.037.011.063-.003.088-.018.077-.044.167-.129.156-.223.002-.134-.085-.249-.211-.243l-3.26.027 4.352-2.615c.178-.103.206-.252.157-.356zm-8.918-.369a.146.146 0 01-.165-.005 257.798 257.798 0 01-2.238-1.978c-.063-.064-.037-.146.002-.201.065-.071.141-.048.191-.01.075.09 1.635 1.459 2.213 1.993.063.064.062.131-.003.201.026-.014.026-.014 0 0zm2.407-1.387l-.052.029c-.089.018-.152-.046-.151-.113l-.48-4.584c-.012-.093.053-.163.116-.167.09-.017.153.047.152.114l.48 4.584c.025.052-.014.107-.065.137zm2.744.622c-.025.015-.051.029-.088.018-.076-.023-.138-.086-.111-.168.015-.175 1.22-3.492 1.59-4.502.027-.082.104-.126.179-.104.075.023.112.101.085.183-.609 1.679-1.548 4.246-1.589 4.435.024.053-.015.108-.066.138zm-6.049 3.166c-.026.015-.077.045-.115.033l-2.476-.792c-.075-.023-.112-.101-.085-.183.027-.082.103-.126.179-.104l2.475.793c.076.023.112.101.086.183-.013.041-.039.056-.064.07z" fill="#2D2A76"/><path d="M119.466 154.371l-4.351 1.594c-.078.042-.168-.007-.18-.097-.012-.091.014-.17.104-.187l4.351-1.594c.078-.042.167.007.18.097a.208.208 0 01-.104.187zm-1.426 6.139c-.052.029-.089.018-.127.006-.05-.037-.087-.115-.035-.211l2.3-3.862c.039-.056.115-.1.203-.051.05.038.087.116.035.212l-2.3 3.862a4.227 4.227 0 00-.076.044zm3.749.416c-.026.015-.051.03-.089.018-.076-.022-.112-.101-.086-.183l.876-3.262c.027-.082.103-.126.179-.104.075.023.112.102.085.184l-.875 3.262c-.014.041-.065.07-.09.085zm4.584.67c-.116.032-.167-.006-.205-.084l-.909-3.38c-.012-.093.027-.148.105-.192.09-.017.141.021.179.099l.909 3.379c.038.079-.027.149-.079.178zm3.902-2.768c-.051.029-.115.033-.165-.005l-2.477-2.14c-.05-.038-.061-.131.003-.201a.123.123 0 01.191-.01l2.476 2.14c.05.038.062.131-.003.201l-.025.015zm.844-3.325c-.025.015-.089.018-.126.007l-2.197-.888c-.076-.023-.087-.116-.06-.198.026-.082.115-.1.19-.077l2.198.888c.075.023.086.116.06.198.012.026-.014.04-.065.07zm.097-4.128s-.025.014 0 0l-1.875.708c-.077.043-.166-.006-.178-.097-.038-.077.014-.17.103-.187l1.85-.695c.077-.042.166.006.178.097 0 .066-.026.145-.078.174zm-3.279-2.077a.152.152 0 01-.165-.006c-.063-.063-.062-.129.002-.198l1.766-1.949c.065-.069.128-.072.191-.009s.062.13-.002.199l-1.766 1.948c-.013-.026-.026.015-.026.015zm-7.79-2.18a.323.323 0 00.133-.409.263.263 0 00-.377-.114.325.325 0 00-.133.409.261.261 0 00.377.114zm4.306-.882a.323.323 0 00.133-.409.263.263 0 00-.377-.114.324.324 0 00-.133.409.261.261 0 00.377.114zm3.859.493c.14-.082.2-.265.133-.409a.264.264 0 00-.378-.114.324.324 0 00-.133.409.264.264 0 00.378.114zm2.065 6.949a.324.324 0 00.133-.409.263.263 0 00-.377-.114.323.323 0 00-.133.409.263.263 0 00.377.114zm-6.236 6.36a.325.325 0 00.133-.409.261.261 0 00-.377-.114.323.323 0 00-.133.409.263.263 0 00.377.114zm-4.238-14.303a.261.261 0 00.107-.328.21.21 0 00-.302-.091.26.26 0 00-.107.327.21.21 0 00.302.092zm-2.139 7.256a.26.26 0 00.107-.327.21.21 0 00-.302-.092.26.26 0 00-.107.328.21.21 0 00.302.091zm12.577 4.15a.258.258 0 00.106-.327.21.21 0 00-.301-.091.259.259 0 00-.107.327.21.21 0 00.302.091zm.74-4.083a.26.26 0 00.107-.327.21.21 0 00-.302-.091.258.258 0 00-.106.327.21.21 0 00.301.091zm-3.213 7.147a.259.259 0 00.106-.327.21.21 0 00-.301-.092.26.26 0 00-.107.327.21.21 0 00.302.092zm-10.746-10.921a.258.258 0 00.106-.327.21.21 0 00-.301-.091.26.26 0 00-.107.327.21.21 0 00.302.091zm3.203 10.534a.259.259 0 00.107-.327.21.21 0 00-.302-.091.259.259 0 00-.106.327.208.208 0 00.301.091zm-34.038-23.999c.014-.108.116-.167.217-.159.076.023 7.832 1.71 8.675 1.919.1.008.15.113.135.22-.014.108-.116.167-.217.159-.843-.209-8.6-1.897-8.675-1.919-.113-.034-.162-.139-.135-.22zm-.259 1.261s.026-.015 0 0c.066-.138.18-.171.256-.148l5.07 2.318c.088.048.137.153.085.25-.053.096-.155.155-.242.106l-5.07-2.317c-.076-.023-.125-.128-.099-.209zm.586-2.477c.026-.081.09-.15.154-.153l5.681-.494c.09-.018.19.057.176.164.011.092-.066.202-.168.194l-5.681.494c-.09.017-.19-.057-.176-.164 0 0-.012-.026.014-.041zm-12.952 7.399c.087.049.11.167.059.263-.027.082-4.231 7.62-4.687 8.443a.186.186 0 01-.254.08c-.088-.048-.112-.167-.06-.263.456-.824 4.66-8.362 4.687-8.443.065-.07.179-.103.255-.08zm-1.289-.459s.012.026.038.011c.063.063.087.181-.003.265l-3.834 4.634c-.064.07-.179.102-.254.013-.063-.063-.087-.181.003-.265l3.834-4.634c.064-.07.153-.087.216-.024zm2.312 1.274c.05.037.087.116.072.224l-1.461 5.894c-.015.108-.117.167-.218.159-.1-.008-.15-.112-.135-.22l1.462-5.895c.014-.108.116-.167.217-.159.051-.03.051-.03.063-.003zm5.835-.923c.09-.017.205.017.217.11.013.093 2.301 8.122 2.54 9.019.012.093-.027.215-.118.232-.09.018-.206-.017-.218-.11-.238-.897-2.527-8.926-2.527-8.993-.037-.145.015-.241.105-.258zm-1.292.505l.025-.015c.09-.018.19.057.202.151l.446 5.967c.011.093-.067.204-.156.222-.09.018-.19-.057-.202-.151l-.445-5.967c-.012-.093.04-.189.13-.207zm2.468-.708c.078-.043.168.006.206.085l3.117 4.879c.038.079.037.212-.067.27-.077.043-.207.049-.258-.056l-3.116-4.879c-.038-.079-.038-.212.066-.27l.052-.029zm-5.264-5.808c-.54-.252-1.923-.648-2.749-2.694-.935-2.282-1.044-4.112-.88-4.804.163-.692-.441-.874-.834-.049-.393.825-2.136 3.826-.976 7.074 1.16 3.248 2.88 4.644 6.313 4.916 3.459.257 6.307-3.848 6.673-4.591.249-.509.473-1.071.44-1.35-.034-.28-.275-.24-.544.015-.27.256-1.252 1.555-3.152 1.857-1.889.329-3.827-.144-4.291-.374z" fill="#2D2A76"/><path d="M76.33 131.56c.257-.282 1.22-1.203.982-2.127-.225-.898-1.07-1.736-.916-1.892.154-.155.995.951 1.843.892.847-.059 1.55-.565 1.937-.987.386-.422.429.018.275.173-.154.155-1.335 1.236-1.069 1.944.266.709 1.037 1.457.984 1.62-.053.164-.143.249-.443.024-.286-.266-1.118-1.145-1.869-.81-.649.275-1.434 1.161-1.615 1.398-.064.07-.264-.08-.11-.235zm-10.197 11.928c.154-.156.77-.711.628-1.293-.142-.581-.664-1.143-.574-1.228.09-.085.621.637 1.14.636.517-.001.964-.292 1.208-.533.244-.241.252.053.162.139-.09.085-.833.713-.663 1.146.156.474.641.957.589 1.054-.052.096-.091.152-.265-.013-.174-.165-.682-.767-1.153-.595-.419.143-.895.65-1.011.817-.027.082-.164-.004-.061-.13zm3.393-15.381c-.065.07-.193.076-.256.012s-5.6-5.966-6.207-6.62c-.063-.064-.062-.198.003-.268s.193-.076.256-.012c.607.653 6.144 6.556 6.207 6.62.063.064.062.198-.003.268zm.967-1l-.025.015c-.078.043-.208.049-.259-.056l-3.069-4.908c-.038-.078-.038-.212.066-.269.078-.044.207-.049.258.055l3.07 4.908a.233.233 0 01-.04.255zm-1.925 1.765c-.064.07-.153.089-.215.025l-4.855-2.749c-.088-.049-.112-.168-.06-.265a.187.187 0 01.255-.08l4.855 2.748c.088.049.111.169.06.265-.026.015-.026.015-.04.056zm.174 6.775c.012.092-.066.202-.168.194-.089.017-8.154 1.119-9.045 1.228-.09.018-.19-.057-.177-.163-.011-.092.067-.202.168-.193.892-.109 8.957-1.212 9.046-1.229.09-.018.19.057.176.163zm-.219-1.289s.013.026-.013.041c-.014.107-.104.192-.205.184l-5.625-.375a.177.177 0 01-.161-.205c.014-.107.104-.192.205-.184l5.625.375c.1.008.163.072.174.164zm.32 2.651c.013.09-.052.157-.104.184l-5.41 2.298c-.077.042-.193.007-.245-.094-.038-.076 0-.194.104-.25l5.41-2.297c.077-.042.193-.008.245.094.013.025-.013.039 0 .065zm8.527-11.874c-.09.017-.19-.058-.176-.166-.012-.093-.41-8.583-.449-9.492-.011-.093.067-.205.168-.196a.15.15 0 01.176.165c.052.936.45 9.425.449 9.492.011.094-.066.205-.168.197zm1.377-.233s-.025.015-.038-.011a.179.179 0 01-.161-.206l.828-5.998c.015-.108.105-.194.206-.186a.178.178 0 01.161.206l-.828 5.998c-.002.135-.079.179-.168.197zm-2.573.128c-.09.017-.154-.046-.193-.125l-1.947-5.53c-.039-.079.026-.215.104-.258.078-.044.207.018.245.096l1.948 5.53c.038.079-.027.215-.105.258.013.026-.026.015-.052.029zm7.923 4.766c-.063-.063-.087-.181-.023-.25.065-.07 5.422-6.682 6.016-7.413.065-.069.18-.101.242-.038.063.063.087.181.023.251-.594.73-5.978 7.357-6.017 7.412-.064.069-.179.101-.241.038zm1.125.685l-.013-.026c-.064-.062-.037-.207.04-.25l4.576-3.787c.064-.068.205-.048.243.029.064.063.037.208-.04.25l-4.575 3.787c-.065.068-.168.06-.231-.003zm-2.016-1.642c-.063-.063-.074-.156-.035-.212l2.442-5.583c.053-.096.155-.155.242-.106.088.048.137.153.085.249l-2.443 5.584c-.052.096-.154.155-.241.106-.038-.011-.038-.011-.05-.038zm14.863 1.856c-.116.1-.282.23-.498.321-.14.048-.254.081-.418.076-.19.01-.39-.14-.54-.252-.162-.139-.286-.266-.337-.237-.013.041.049.105.11.235.11.169.27.441.317.68.107.436-.355.836-.484.976-.05.03-.038.056-.026.082.012.026.05.038.063-.003l.026-.015c.038-.056.09-.085.154-.155.154-.156.385-.356.588-.407.165-.062.328.01.466.096 0 0 .012.026.037.011.15.113.287.266.386.341.125.128.176.098.202.016 0 0 .001-.067-.036-.078-.1-.142-.334-.437-.43-.714-.05-.104-.01-.227.03-.349.08-.179.233-.334.349-.434.038-.056.09-.085.115-.1.051-.029.04-.123.028-.149.05-.029-.012-.026-.102.059zm-9.899 15.232a.426.426 0 00.013-.563.341.341 0 00-.514-.001.426.426 0 00-.013.563.341.341 0 00.514.001zm-.317-96.934c-.19.077-.558.123-.963.159-.405.035-1.121-.181-1.502-.094-.367.046-1.013.12-1.013.12.07-.404.95-1.576 1.282-1.835.307-.244.94-1.108.942-1.175.001-.067.029-.215-.098-.209-.126.007-.486.348-.73.588s-.992.375-1.374.596c-.358.206-1.023.724-1.023.724l.246-1.138c.247-1.137.901-1.748 1.057-1.97.155-.223.287-.565.264-.684-.061-.13-.191.077-.308.244-.104.193-.715.48-1.037.832-.334.326-.799.926-1.16 1.334-.347.366-.602.514-.602.514-.035-.146.128-.837.206-1.711.052-.86.123-2.095.126-2.296.004-.201-.146-.314-.188-.057-.03.282-.278.724-.63 1.359-.363.608-.81 1.663-.87 2.161-.084.514-.274.524-.274.524-.098-.142-.65-1.947-.67-2.267-.02-.32-.535-1.216-.708-1.448-.173-.232-.453-.137-.18.17.273.307.033 1.806.001 2.222-.032.417.036 1.605.036 1.605s-.763-1.218-1.236-1.607c-.474-.39-.842-1.04-1.003-1.245-.037-.079-.074-.09-.112-.102-.087-.115-.149-.179-.149-.179s-.176-.03-.054.23c.122.262-.062 1.463.066 2.085.167.634.904 1.867.904 1.867s-1.22-.39-1.718-.765c-.312-.252-1.789-.36-1.946-.767-.157-.406-.364-.154-.242.107s.638 1.157.926 1.29c.289.131 1.569 1.415 1.642 1.572 0 0-.104.193-.557.056-.453-.136-1.514-.12-2.173-.004-.66.115-1.153.169-1.38.1-.238-.094-.229.133-.04.19.188.057 1.242.51 1.995.804.754.294 1.421.405 1.496.495 0 0-.206.185-.664.384-.458.198-1.157.437-1.59.62-.394.195-.908.691-1.123.716-.203.051-.406.102-.332.192.074.09.428.084.694.03.241-.04 1.019-.456 2.09-.246l1.044.226s-.702.439-1.023.724c-.332.258-.749.964-1.03 1.126-.28.162-.726.387-.778.483-.052.097.073.157.123.194.075.023 1.04-.27 1.36-.487.345-.233 1.679-.639 2.056-.525 0 0-.3.605-.522.965-.195.345-.335 1.156-.518 1.527-.209.386-.366.742-.52.898-.142.181-.067.204.034.212.113.034.421-.277.82-.673.386-.422 1.63-1.573 1.848-1.732l.206-.185s-.461 1.096-.583 1.597c-.122.502-.14 1.574-.131 1.802.009.227.032.346.135.22.103-.126.188-.64.486-1.11.273-.457.817-1.236 1.124-2.243 0 0 .01.923.166 1.397.157.474.284 1.163.101 1.534-.157.357-.24.803-.127.837.126-.007.64-.503.724-1.016.085-.513.503-2.115.67-2.312 0 0 .18-.17.309.452.128.623.471 1.287.806 1.658.335.37.408.526.483.616.074.09.214.042.166-.13-.048-.17-.321-1.937-.321-2.7.025-.777.242-.87.24-.735.012.026.061.063.136.153l.134.287c.136.154.758.79 1.195 1.101.423.352.847.705 1.097.892.224.202.38-.02.28-.162-.098-.142-.095-.343-.368-.65-.247-.321-.375-1.01-.63-1.56-.27-.574-.472-.523-.546-.613-.088-.049.08-.245.732.041.652.287 2.025 1.285 2.15 1.412.124.127.227.001.178-.103-.049-.105-.147-.247-.316-.747-.194-.485-.613-1.105-1.075-1.468-.473-.39-.257-.482-.257-.482.254-.08 1.754.147 2.232.269.44.11 1.103-.206 1.143-.329.04-.122-.363-.221-.742-.201-.38.02-.929-.392-1.252-.736-.323-.345-1.087-.732-1.087-.732.959.11 1.847-.14 2.329-.218.507-.094.973.001 1.112-.047.153-.021.078-.11-.135-.22-.187-.124-1.116-.516-1.57-.585-.465-.096-1.565-.09-1.565-.09l.23-.133c.23-.133 1.708-.922 2.192-1.135.484-.213.867-.435.906-.557.027-.082.016-.175-.175-.098zm-10.947-3.525l-.024-.052.024.052zM90.782 202.95c.016-.175 8.547-2.586 8.528-2.906-.02-.388-8.718 1.457-8.867 1.277-.123-.194 7.143-5.523 6.794-5.785-.312-.252-7.751 4.845-7.9 4.733-.15-.112.299-7.339-.054-7.401-.378-.046-1.537 7.258-1.727 7.336-.191.077-4.035-10.375-3.819-8.94.217 1.434 2.31 9.248 2.106 9.366-.205.118-6.153-4.571-6.208-4.341-.029.216 4.69 5.948 4.573 6.115-.116.167-6.55-.493-6.413-.34.11.168 6.317 1.59 6.312 1.858-.004.268-8.78 3.683-8.477 3.707.303.024 9.183-2.057 9.281-1.915.099.142-3.731 5.541-3.545 5.732.124.127 4.629-4.8 4.69-4.669.049.104-.986 7.604-.595 7.609.228.002 2.276-7.619 2.276-7.619.11.169 2.9 7.878 3.028 7.804.128-.073-1.602-8.496-1.423-8.599.19-.077 4.93 4.449 5.02 4.297.066-.137-3.718-5.812-3.655-5.816.063-.003 6.873.771 6.927.607.115-.1-6.867-1.935-6.852-2.11zM39.25 141.772c.003-.134 6.478-1.953 6.457-2.206-.034-.279-6.615 1.104-6.713.962-.099-.142 5.402-4.185 5.152-4.373-.25-.187-5.873 3.661-5.999 3.601-.1-.075.22-5.568-.058-5.607-.277-.038-1.153 5.511-1.293 5.559-.127.074-3.053-7.857-2.907-6.78.159 1.103 1.753 7.016 1.6 7.104-.153.089-4.667-3.472-4.709-3.283-.015.175 3.564 4.509 3.499 4.646-.066.138-4.972-.376-4.848-.249.098.142 4.781 1.217 4.778 1.418-.004.201-6.668 2.793-6.429 2.821.24.027 6.951-1.564 7.038-1.448.086.116-2.838 4.195-2.676 4.334.075.09 3.523-3.629 3.56-3.551.036.078-.741 5.77-.45 5.768.164.004 1.739-5.783 1.739-5.783.098.142 2.212 5.987 2.289 5.942.076-.044-1.232-6.454-1.067-6.516.166-.063 3.747 3.374 3.787 3.251.052-.096-2.833-4.4-2.77-4.404.039.012 5.235.591 5.275.468.027-.149-5.256-1.54-5.254-1.674zm42.441 114.615c-.162-.139-5.64-5.002-5.75-5.304-.096-.276.095-.353.398-.329.315.05 6.709 3.819 6.801 3.6.092-.219-.35-5.472-.173-5.508.177-.037 1.698 5.025 1.862 5.029.176.031 5.384-6.1 5.559-6.002.15.112-4.138 7.172-3.852 7.438.312.251 5.607-.555 5.705-.346.097.21-5.541 1.877-5.507 2.09.047.238 5.671 4.719 5.743 4.942a.32.32 0 01-.373.382c-.24-.027-6.356-3.758-6.458-3.699-.077.044.823 5.929.732 6.081-.079.178-.37.248-.517-.066-.146-.314-1.47-5.024-1.594-5.151-.125-.127-5.084 6.258-5.21 6.265-.127.007-.352-.128-.168-.567.185-.438 3.397-6.677 3.375-6.863-.022-.187-5.073.378-5.248.281-.188-.124-.324-.278.122-.503.433-.25 4.674-1.442 4.714-1.564.025-.015-.023-.12-.161-.206zM93.03 82.916c-.06-.198-1.818-7.71-1.737-8.022.081-.313.27-.256.468-.039.199.217 3.303 7.283 3.47 7.153.166-.13 2.622-4.934 2.773-4.889.163.072-1.328 5.347-1.204 5.475.124.127 7.49-2.075 7.55-1.877.06.197-7.063 3.752-6.969 4.162.094.41 4.729 2.841 4.687 3.098-.042.256-5.38-1.668-5.473-1.448-.092.219 1.998 7.472 1.918 7.718-.08.245-.332.259-.494.12-.175-.165-3.055-7.028-3.13-7.05-.101-.009-2.495 5.623-2.648 5.712-.179.103-.404-.032-.36-.356.056-.364 1.49-5.209 1.455-5.421-.022-.186-7.344 2.388-7.444 2.313-.1-.075-.21-.31.175-.598.37-.248 6.216-3.761 6.295-3.94.079-.178-4.2-2.68-4.298-2.89-.06-.197-.132-.421.347-.367.48.055 4.473 1.529 4.563 1.444.102-.06.103-.126.055-.298zm55.231 137.71c-.024-.119-.484-4.367-.43-4.53.053-.164.166-.13.265.012.099.142 1.306 4.256 1.408 4.197.102-.059 1.736-2.53 1.823-2.481.088.049-1.071 2.843-.996 2.932.062.064 4.192-.599 4.216-.479.023.119-4.07 1.556-4.061 1.784.046.238 2.381 1.908 2.342 2.03-.04.123-2.796-1.337-2.862-1.199-.077.111.599 4.267.534 4.404-.066.138-.205.118-.279.028-.074-.089-1.195-4.087-1.245-4.125-.038-.011-1.717 2.918-1.793 2.962-.103.059-.215-.042-.174-.232.042-.189 1.146-2.753 1.148-2.887-.011-.093-4.133.797-4.195.733-.05-.037-.085-.182.119-.3.204-.119 3.616-1.627 3.668-1.723.052-.097-2.105-1.803-2.129-1.922-.023-.119-.046-.239.205-.185.252.053 2.331 1.174 2.382 1.145.063-.004.065-.071.054-.164zm-20.816 34.947c-.149-.18-5.37-6.851-5.428-7.183-.057-.331.171-.397.485-.28.314.117 6.792 5.663 6.922 5.455.13-.207.598-6.286.788-6.296.189-.01.973 6.041 1.161 6.098.189.057 7.086-5.856 7.26-5.692.174.165-5.884 7.32-5.587 7.679.297.359 6.323.492 6.381.756.059.265-6.499 1.004-6.491 1.299-.005.268 5.464 6.497 5.509 6.803.008.294-.247.441-.499.388-.264-.08-6.415-5.549-6.504-5.531-.114.033-.153 6.892-.282 7.099-.142.182-.459.199-.541-.185-.107-.369-.733-6.014-.844-6.182-.111-.168-6.786 6.082-6.925 6.062-.139-.019-.363-.221-.09-.678.273-.457 4.98-6.896 4.972-7.123-.009-.227-5.715-.578-5.889-.743-.174-.165-.323-.344.224-.561.521-.202 5.471-.708 5.536-.845.015-.108-.022-.187-.158-.34zM68.008 37.712c-2.058-1.632-4.024-2.719-6.924-.875 2.002-2.586 1.966-4.956.454-7.568 2.095 1.71 4.176 2.764 7.037.976-2.014 2.56-1.966 4.956-.567 7.467zm37.054 150.632a.13.13 0 00.038-.168.106.106 0 00-.155-.029.128.128 0 00-.037.167c.032.055.101.068.154.03zm-8.992-11.092s.013.026 0 0c.14.087.292.065.37-.046a.264.264 0 00-.046-.373l-3.313-2.593-.026.015.013.026 3.002 2.971zm.64.156l.047.172-.04.189.165-.062.176.031-.048-.172.041-.189-.165.062-.025.015-.151-.046zm-1.653 2.004s.012.026 0 0c.164.005.305-.11.307-.243.028-.149-.07-.291-.21-.31l-4.177-.407-.025.014.012.026 4.093.92zm.922.063l.166-.063-.125-.127-.047-.171-.104.126-.025.015-.14.047.124.127.047.172.104-.126zm-.615 2.375a.296.296 0 00.155-.344.268.268 0 00-.334-.143l-3.995 1.783-.026.014.013.025 4.135-1.307.052-.028zm.589-.652l-.027.149-.014.041-.103.126.176.03.125.127.04-.189.13-.141-.177-.031-.15-.112zm.847 2.592c.102-.124.054-.294-.047-.369-.113-.1-.28-.039-.357.071l-2.664 3.612.013.026.025-.015 3.03-3.325c-.026.014-.026.014 0 0zm.183-.62l-.04.19.165-.062.176.03-.048-.171.041-.19-.165.063-.176-.031.047.171zm2.075 1.624c.027-.149-.071-.291-.21-.31-.139-.02-.28.095-.308.244l-.667 4.473.013.026.025-.015 1.147-4.418c-.026.015-.026.015 0 0zm-.2-.781l-.166.063.112.101.012.026.035.145.13-.141.165-.063-.124-.126-.048-.171-.117.166zm2.249.463a.308.308 0 00-.157.354l1.587 4.067.013.026.026-.014-1.109-4.235-.013-.026c-.051-.171-.205-.218-.347-.172zm-.221-.677l-.041.189-.129.141.139.019.037.012.112.101.041-.19.129-.14-.176-.031-.112-.101zm2.603-.527c-.013-.026-.013-.026 0 0-.139-.086-.292-.065-.37.046a.263.263 0 00.046.373l3.313 2.593.026-.015-.013-.026-3.002-2.971zm-.654-.182l-.048-.172.042-.189-.166.062-.176-.031.047.172-.041.19.166-.063.025-.015.151.046zm1.666-1.979c-.012-.026-.012-.026 0 0-.164-.005-.305.11-.307.243-.028.149.071.291.209.31l4.178.408.025-.015-.012-.026-4.093-.92zm-.934-.088l-.166.063.124.127.048.171.103-.126.026-.015.14-.048-.124-.127-.048-.171-.103.126zm4.788-3.67l-4.135 1.308-.026.014a.295.295 0 00-.155.344.268.268 0 00.334.142l3.995-1.783s.026-.014-.013-.025c.026-.014.026-.014 0 0zm-4.708 1.785l.128-.141-.176-.031-.124-.127-.041.19-.129.14.176.031.125.127.041-.189zm-.862-2.417c-.103.124-.055.293.046.368.113.1.279.039.357-.07l2.664-3.612-.012-.026-.026.014-3.029 3.326c-.012-.026 0 0 0 0zm-.485.461l.048.172-.041.189.165-.062.176.031-.047-.172-.013-.026.054-.164-.166.063-.176-.031zm-1.773-1.465c-.028.149.071.291.21.31.139.02.28-.095.307-.244l.668-4.473-.013-.026-.025.014-1.147 4.419c-.012-.027 0 0 0 0zm.173.793l.165-.063-.112-.101-.012-.026-.035-.145-.129.141-.166.063.124.126.048.171.117-.166zm-2.262-.489a.308.308 0 00.157-.354l-1.587-4.067-.013-.026-.026.015 1.109 4.235.012.026c.064.197.218.244.348.171zm.234.704l.041-.189.129-.141-.139-.019-.038-.012-.112-.101-.04.19-.13.141.177.03.112.101zm3.659 4.885c.038.011.063-.003.089-.018.025-.015.025-.015.039-.056.039-.055.014-.108-.036-.145l-.012-.026c.21-.453.319-.914.326-1.384l.026-.014.051-.03c.025-.015.039-.055.052-.096.001-.067-.049-.105-.1-.075l-.025.014a3.079 3.079 0 00-.37-1.346l.026-.014c.051-.03.052-.097.028-.149-.025-.053-.088-.049-.139-.02l-.025.015a2.596 2.596 0 00-.971-.899l.013-.041c.039-.055.015-.108-.035-.145-.05-.038-.101-.008-.14.048l-.013.04a2.668 2.668 0 00-1.285-.252l-.012-.027c.001-.067-.049-.104-.1-.075-.063.004-.102.059-.078.112l.013.026c-.43.05-.876.207-1.272.469l-.012-.026c-.024-.052-.087-.049-.138-.019-.051.029-.052.096-.028.149l.012.026a3.215 3.215 0 00-.915 1.093l-.038-.011c-.05-.038-.1-.008-.14.047-.038.056-.014.108.036.146l.038.011c-.21.453-.319.914-.327 1.383l-.025.015c-.063.004-.102.059-.078.112-.001.067.049.104.1.075l.025-.015c.018.454.137.916.358 1.32l-.026.015c-.051.029-.052.096-.028.148.025.053.088.049.139.02l.025-.015c.247.389.583.692.971.899l-.013.041c-.04.055-.015.108.035.145.038.012.063-.003.089-.018.025-.015.025-.015.039-.056l.013-.04c.414.192.842.276 1.285.252l.012.026c-.001.067.049.105.1.075l.05-.029c.026-.015.04-.056.053-.097l-.012-.026a2.98 2.98 0 001.296-.484l.013.026c.024.052.087.049.138.019.051-.029.052-.096.028-.148l-.012-.026c.344-.166.653-.544.887-.945zm-4.804.19c-.75-1.259-.367-3.007.899-3.905 1.24-.883 2.865-.595 3.627.69.75 1.259.367 3.007-.899 3.905-1.24.883-2.865.595-3.627-.69z" fill="#2D2A76"/><path d="M101.014 179.486c-.127.074-.51.295-.812.204a3.44 3.44 0 01.254-.844c.039-.056-.086-.116-.113-.034-.04.123-.159.49-.416.705-.298-.292-.48-.751-.556-.707-.077.044.156.474.111.865-.417.008-.844-.143-.87-.061-.027.082.463.23.699.525a1.62 1.62 0 01-.565.526c-.23.132-.067.204.022.186.051-.03.408-.236.687-.264a1.41 1.41 0 01-.088.714c-.105.26.11.168.137.086.04-.055.134-.408.289-.631.197.284.355.691.418.687.063-.003.127-.006.067-.204-.024-.119-.146-.38-.179-.66.354-.005.831.183.87.128.039-.056.078-.111-.098-.209-.125-.061-.465-.163-.638-.395.244-.24.665-.45.779-.483.102-.059.079-.178.002-.134zm56.509-6.129a.388.388 0 00.159-.49.314.314 0 00-.452-.137.388.388 0 00-.16.49.315.315 0 00.453.137zm-3.64 2.904a.454.454 0 00.187-.573.368.368 0 00-.528-.159.453.453 0 00-.187.572.368.368 0 00.528.16z" fill="#2D2A76"/><path d="M157.735 170.449c-.11-.235-3.475-.845-3.747-1.219-.272-.374 3.065-3.365 2.792-3.672-.187-.191-2.585 1.893-2.905 2.111-.319.218-.334.326-.569.031-.235-.296.21-3.507-.257-3.536-.366-.02-.656 3.732-1.177 3.867-.508.161-2.182-3.285-2.6-3.276-.506.027.112.864.676 1.933.526 1.056 1.239 2.237.828 2.607-.41.37-2.775-.32-3.473-.149-.457.132-.334.326-.097.488.225.135 1.386.26 2.294.399.87.128 1.285.253.73.939-.543.712-2.492 2.37-2.139 2.431.341.036 2.456-1.752 2.927-1.924.496-.188.583-.072.62 1.466.038 1.539-.408 3.223.008 3.281.353.062 1.069-4.169 1.313-4.409.244-.241 1.019 1.07 1.707 2.198.664 1.143.897.81.965.538.068-.271-1.877-3.395-1.671-3.647.207-.252 1.845.062 2.806.037.998-.013 1.054-.311.969-.494zm-10.433-4.017a.422.422 0 00.173-.531.342.342 0 00-.491-.149.423.423 0 00-.173.532.342.342 0 00.491.148zm3.851-2.683a.323.323 0 00.133-.408.262.262 0 00-.377-.114.322.322 0 00-.133.408.261.261 0 00.377.114zm3.911.794a.357.357 0 00.147-.45.288.288 0 00-.415-.125.355.355 0 00-.146.45.288.288 0 00.414.125zm-8.477 7.239a.356.356 0 00.146-.45.29.29 0 00-.415-.125.357.357 0 00-.146.45c.074.158.26.215.415.125z" fill="#2D2A76"/><path d="M149.81 174.894a.422.422 0 00.173-.532.341.341 0 00-.49-.148.422.422 0 00-.173.532.341.341 0 00.49.148zm8.424-6.456a.29.29 0 00.119-.368.236.236 0 00-.339-.102.292.292 0 00-.12.368c.061.13.213.175.34.102zm-51.66-51.738c.072-.206-.001-.417-.164-.471-.163-.055-.353.068-.426.274-.072.207.001.418.164.472.163.054.354-.069.426-.275zm-.676 4.596c.085-.241-.001-.487-.191-.55-.19-.063-.412.08-.497.321-.084.24.001.486.191.55.19.063.413-.081.497-.321zm-.916-7.096c-.239-.094-3.231 1.968-3.685 1.898-.454-.069.177-4.548-.24-4.539-.265-.013-.761 3.16-.868 3.554-.108.394-.046.458-.412.437-.379-.046-2.12-2.524-2.516-2.195-.296.271 1.92 3.004 1.622 3.475-.298.471-3.82-.612-4.14-.327-.373.381.661.514 1.781.828 1.12.315 2.391.609 2.331 1.174-.06.566-2.368 1.801-2.771 2.465-.285.431-.034.484.246.389.254-.081 1.253-.857 2.008-1.393.78-.551 1.137-.757 1.186.11.049.868-.374 3.435-.066 3.191.307-.244.745-2.986 1.006-3.469.261-.482.4-.463 1.457.552 1.057 1.014 1.778 2.489 2.137 2.215.307-.244-1.886-3.621-1.868-3.93.018-.309 1.505-.041 2.739.241 1.259.268 1.215-.105 1.093-.366-.136-.221-3.638-.917-3.67-1.263-.032-.347 1.463-1.31 2.196-2.033.77-.71.622-.957.434-1.014zm-10.604 4.531c.079-.223 0-.452-.177-.511-.176-.058-.383.075-.461.298-.079.224 0 .452.177.511s.383-.074.461-.298zm.964-4.568c.06-.172 0-.348-.136-.393-.136-.045-.295.057-.355.229-.06.171 0 .347.136.393.136.045.295-.058.355-.229zm3.368-2.132c.065-.189-.002-.382-.151-.432-.15-.05-.324.063-.39.252-.067.189 0 .382.15.432.149.05.324-.063.39-.252zM97.541 123.1c.066-.189 0-.382-.15-.432-.15-.05-.324.063-.39.252-.067.189 0 .382.15.432.149.05.324-.063.39-.252z" fill="#2D2A76"/><path d="M102.033 123.136c.078-.223-.001-.452-.177-.511-.177-.059-.383.075-.462.298-.078.223.001.452.178.511.176.059.383-.075.461-.298zm1.651-10.498c.054-.155-.001-.313-.123-.354-.122-.041-.265.052-.319.206-.054.155.001.313.123.354.122.041.265-.052.319-.206zm31.053 111.745c-.125-.127 1.497-1.792 1.298-1.942-.188-.124-3.097.594-3.131.382-.035-.212 3.174-.705 3.053-1.033-.121-.328-1.62-1.451-1.465-1.606.116-.167 1.76 1.336 1.844.891.083-.446-.328-3.058-.125-3.109.216-.025.362 2.574.739 2.688.227.068 1.533-1.647 1.67-1.493.136.153-1.099 1.395-1.073 2.076.027.68 3.279-.136 3.313.077.034.212-3.147.623-3.22 1.161-.072.539 1.63 1.611 1.5 1.819-.13.207-1.773-1.363-1.966-1.152-.374.381-.021 2.729-.199 2.765-.266.055-.193-2.77-.598-2.802-.567-.104-1.516 1.405-1.64 1.278zM73.34 44.362c-.283.16-.603.109-.792-.15L71.01 42.16c-.037-.078-.088-.116-.1-.209-.05-.037-.114-.101-.165-.139l-1.538-2.053a.71.71 0 01.138-.943c.284-.227.694-.193.895.091l1.54 2.053c.037.079.088.116.1.21.05.037.113.1.164.139l1.539 2.053a.71.71 0 01-.139.942l-.103.059zm17.385 29.844c-.026.014-.026.014 0 0-.339.186-.741.042-.87-.285l-.517-1.177a.43.43 0 01-.039-.212.476.476 0 01-.116-.168l-1.073-2.366c-.155-.313.002-.731.314-.903.312-.172.715-.028.87.285l1.073 2.366c.039.078.038.144.038.211.052.038.091.116.117.168l.517 1.177a.74.74 0 01-.314.904zm-2.87-6.326s-.026.014 0 0c-.338.186-.74.042-.87-.285l-.168-.406c-.155-.313.002-.732.314-.904a.644.644 0 01.87.285l.168.406a.74.74 0 01-.314.904zm-1.267-2.757c-.338.186-.74.042-.87-.285l-1.073-2.366a.43.43 0 01-.038-.212c-.052-.037-.09-.116-.13-.194L83.406 59.7c-.156-.313.001-.731.314-.903.312-.172.715-.028.87.285l1.073 2.366a.429.429 0 01.038.211c.052.038.09.116.13.194l1.073 2.366a.74.74 0 01-.315.904zm13.03 45.775c-.051.029-.128.073-.192.076-.36.071-.663-.155-.71-.527l-.211-1.609c0-.067-.01-.16.016-.241a.726.726 0 01-.074-.224l-.34-2.632a.689.689 0 01.547-.776c.359-.071.663.155.71.527l.339 2.633c-.001.067.01.16-.016.241.025.053.063.131.062.198l.21 1.608a.717.717 0 01-.34.726zm-.973-7.324a.5.5 0 01-.193.076c-.358.071-.663-.155-.71-.527l-.045-.439a.689.689 0 01.546-.776c.36-.071.663.155.71.527l.046.44a.73.73 0 01-.354.699zm-.41-3.057c-.052.029-.13.073-.193.076-.36.071-.663-.155-.71-.527l-.34-2.632c.002-.067-.01-.16.017-.242a.498.498 0 01-.062-.198l-.34-2.632a.689.689 0 01.547-.776c.36-.07.663.155.71.528l.34 2.632c-.002.067.01.16-.017.242.025.052.063.13.062.197l.34 2.633c.022.253-.123.567-.355.699zm20.158 44.883a.612.612 0 01-.843-.232l-.929-1.547c-.18-.299-.088-.715.237-.928a.627.627 0 01.895.204l.928 1.547c.181.299.089.715-.236.928l-.052.028zm-2.258-3.769a.612.612 0 01-.842-.233l-.22-.377a.691.691 0 01.211-.914c.299-.198.701-.121.882.178l.219.377a.69.69 0 01-.211.914.1.1 0 01-.039.055zm-1.587-2.612a.612.612 0 01-.842-.233l-1.329-2.223a.635.635 0 01-.077-.223.516.516 0 01-.142-.154l-1.329-2.223c-.181-.299-.088-.715.237-.928a.625.625 0 01.894.204l1.329 2.223c.039.078.064.13.077.223a.516.516 0 01.142.154l1.329 2.223c.181.299.088.715-.237.928l-.052.029zm-4.205-7.047a.612.612 0 01-.843-.232l-.219-.377c-.181-.299-.088-.715.237-.928a.625.625 0 01.894.204l.22.377c.18.299.088.715-.237.928l-.052.028zm-1.574-2.585a.613.613 0 01-.843-.233l-1.328-2.223c-.039-.078-.065-.13-.077-.223a.52.52 0 01-.143-.154l-1.328-2.223c-.181-.299-.089-.715.236-.928a.627.627 0 01.895.204l1.329 2.223c.038.078.064.13.077.223a.53.53 0 01.142.154l1.329 2.223c.18.299.088.715-.237.928l-.052.029zm-17.964-3.764c-.283.156-.641.093-.806-.174-.202-.279-.121-.714.175-.911.476-.361 1.327-.96 2.139-1.571l.205-.114a.59.59 0 01.155-.151c1.108-.807 1.83-1.27 2.138-1.441a.913.913 0 01.27-.116.597.597 0 01.751.464c.062.324-.12.686-.429.791-.231.128-.733.437-2.035 1.384l-.205.114a.57.57 0 01-.155.15c-.85.6-1.662 1.211-2.14 1.572-.012-.025-.038-.011-.063.003zm4.56-3.235l.026-.014-.026.014zm49.953 44.056a.7.7 0 01-.61.019l-1.12-.65c-.051-.038-.113-.102-.163-.139-.076-.023-.14-.02-.202-.083l-2.178-1.237c-.303-.158-.398-.568-.227-.898.17-.33.566-.458.869-.3l2.177 1.237c.051.038.113.101.163.139.076.023.14.019.202.083l1.121.65c.302.158.397.568.226.898a.619.619 0 01-.258.281zm-5.854-3.305a.7.7 0 01-.61.019l-.353-.196c-.302-.158-.397-.568-.227-.898.17-.33.566-.458.869-.3l.352.196c.303.158.398.568.227.898-.04.122-.13.207-.258.281zm-2.531-1.433a.7.7 0 01-.61.019l-2.178-1.237c-.05-.038-.113-.101-.163-.139-.076-.023-.139-.019-.202-.083l-2.178-1.237c-.302-.158-.397-.568-.227-.898.171-.33.567-.458.869-.3l2.178 1.237c.05.038.113.102.163.139.076.023.139.02.202.083l2.178 1.237c.302.158.397.568.227.898-.04.123-.156.222-.259.281zm7.692 9.355a.592.592 0 01-.193.075l-2.536.561c-.09.017-.154.02-.217.023-.052.028-.129.071-.219.088l-2.536.562c-.358.068-.688-.14-.736-.505a.717.717 0 01.532-.785l2.536-.561c.09-.018.154-.02.218-.023.077-.043.128-.072.218-.089l2.536-.561c.358-.069.689.139.736.504.074.286-.082.568-.339.711zm-7.993 1.767c-.051.028-.103.057-.167.06l-.41.097c-.358.069-.688-.139-.736-.504a.719.719 0 01.532-.786l.41-.097c.359-.069.689.139.736.505.01.288-.134.596-.365.725zm-2.958.633c-.052.028-.103.057-.193.074l-2.536.561c-.09.017-.154.02-.217.023-.078.043-.129.072-.219.089l-2.536.561c-.358.069-.688-.139-.736-.505a.718.718 0 01.532-.785l2.536-.561c.09-.017.154-.02.218-.023a.664.664 0 01.218-.089l2.536-.561c.358-.068.689.14.736.505a.696.696 0 01-.339.711zm-7.993 1.766a.564.564 0 01-.192.075l-.41.097c-.359.069-.663-.154-.736-.505a.716.716 0 01.531-.785l.41-.097c.359-.069.663.154.737.504a.696.696 0 01-.34.711zm-2.946.659c-.051.028-.103.057-.192.074l-2.537.561c-.089.018-.153.02-.217.023a.651.651 0 01-.218.089l-2.536.561c-.359.069-.689-.139-.736-.504a.718.718 0 01.532-.786l2.536-.561c.089-.017.153-.02.217-.023a.65.65 0 01.218-.088l2.536-.562c.359-.068.689.14.736.505.036.274-.108.582-.339.711zm-8.031 1.755a.557.557 0 01-.192.074l-.41.098c-.359.069-.663-.154-.736-.505a.716.716 0 01.532-.785l.41-.097c.358-.069.663.153.736.504.074.286-.083.568-.34.711zm-2.946.659c-.051.028-.103.057-.192.074l-1.563.346c-.358.069-.688-.139-.736-.504a.717.717 0 01.532-.785l1.563-.347c.358-.069.688.139.736.505.074.285-.083.568-.34.711zm36.442 38.025a.768.768 0 01-.345.098.616.616 0 01-.561-.707l.09-.847a.857.857 0 01.054-.231c.001-.067-.036-.145-.009-.227l.271-2.677c.044-.39.341-.66.709-.639a.617.617 0 01.561.707l-.271 2.677a.847.847 0 01-.055.23c-.001.067.036.146.01.227l-.09.848c-.016.242-.159.423-.364.541zm.702-6.674a.768.768 0 01-.345.098c-.368-.021-.605-.316-.561-.707l.045-.457c.045-.39.341-.66.71-.639.368.021.605.316.561.707l-.046.457a.79.79 0 01-.364.541zm.316-3.135a.769.769 0 01-.345.099c-.368-.021-.605-.317-.561-.707l.271-2.677a.862.862 0 01.055-.231c.001-.066-.036-.145-.01-.227l.271-2.677c.045-.39.341-.66.709-.639a.616.616 0 01.561.707l-.27 2.677a.847.847 0 01-.055.23c-.001.067.036.146.009.227l-.271 2.678c-.016.241-.159.423-.364.54zm.896-8.477a.756.756 0 01-.345.098c-.368-.02-.605-.316-.561-.706l.045-.458c.045-.39.341-.66.71-.639.368.021.605.317.561.707l-.046.457c-.054.231-.185.438-.364.541zm.316-3.134a.768.768 0 01-.345.098.617.617 0 01-.561-.707l.271-2.677c.001-.067.028-.148.055-.23.001-.067-.036-.145-.01-.227l.271-2.677c.045-.391.341-.66.709-.639a.615.615 0 01.561.706l-.27 2.678a.905.905 0 01-.055.23c-.001.067.036.145.009.227l-.271 2.677a.785.785 0 01-.364.541zm.858-8.489a.756.756 0 01-.345.098c-.368-.02-.605-.316-.561-.706l.045-.458c.045-.39.341-.66.71-.639.368.021.605.317.561.707l-.046.457a.743.743 0 01-.364.541zm.342-3.149a.756.756 0 01-.345.098.615.615 0 01-.561-.706l.271-2.678c.001-.067.028-.148.054-.23.001-.067-.036-.145-.009-.227l.271-2.677c.056-.364.341-.66.709-.639a.616.616 0 01.561.707l-.271 2.677c-.001.067-.028.148-.054.23-.001.067.036.145.009.227l-.271 2.677a.745.745 0 01-.364.541zm-19.46 68.647a.625.625 0 01-.383.087.617.617 0 01-.534-.721l.316-2.305c.057-.364.379-.648.722-.613a.617.617 0 01.534.721l-.317 2.305c-.003.2-.133.408-.338.526zm.715-4.988a.615.615 0 01-.382.087.617.617 0 01-.535-.721l.058-.431c.057-.364.379-.649.721-.613a.617.617 0 01.535.721l-.058.431a.729.729 0 01-.339.526zm.419-3.125a.63.63 0 01-.382.087.617.617 0 01-.535-.722l.373-2.668a.393.393 0 01.067-.204c.001-.067-.01-.16-.009-.227l.373-2.669c.057-.364.379-.648.722-.613a.617.617 0 01.534.721l-.373 2.669a.396.396 0 01-.067.204c-.001.067.01.16.009.227l-.373 2.668a.657.657 0 01-.339.527zm1.203-8.452a.615.615 0 01-.382.087.618.618 0 01-.535-.721l.058-.431c.057-.364.379-.649.721-.613a.616.616 0 01.535.721l-.058.431a.729.729 0 01-.339.526zm.445-3.14a.625.625 0 01-.383.087.617.617 0 01-.534-.721l.373-2.669a.396.396 0 01.067-.204c.001-.067-.01-.16-.009-.227l.373-2.668c.057-.365.379-.649.721-.613a.616.616 0 01.535.721l-.373 2.668a.393.393 0 01-.067.204c-.001.067.01.16.009.227l-.373 2.669a.658.658 0 01-.339.526zm-50.199 20.239a.765.765 0 01-.345.098.616.616 0 01-.56-.707l.27-2.677a.856.856 0 01.055-.23c0-.067-.036-.146-.01-.227l.271-2.677c.044-.391.341-.661.71-.64a.617.617 0 01.56.707l-.27 2.677a.87.87 0 01-.055.231c-.001.067.036.145.01.227l-.272 2.677a.745.745 0 01-.364.541zm.883-8.504a.766.766 0 01-.344.099.617.617 0 01-.561-.707l.045-.458c.044-.39.34-.66.71-.639a.617.617 0 01.56.707l-.045.457a.789.789 0 01-.365.541zm.317-3.134a.766.766 0 01-.345.098.616.616 0 01-.561-.707l.27-2.677a.895.895 0 01.055-.23c.001-.067-.036-.145-.009-.227l.27-2.677c.045-.391.342-.66.71-.639a.615.615 0 01.56.706l-.27 2.678a.873.873 0 01-.054.23c-.001.067.036.145.009.227l-.271 2.677c-.016.242-.16.423-.364.541zm.895-8.477a.778.778 0 01-.344.098.617.617 0 01-.561-.707l.045-.457c.044-.391.34-.66.71-.639a.615.615 0 01.56.706l-.045.458a.79.79 0 01-.365.541zm.316-3.135a.752.752 0 01-.344.098.615.615 0 01-.561-.706l.27-2.677a.87.87 0 01.055-.231c.001-.067-.036-.145-.01-.227l.272-2.677c.044-.39.34-.66.709-.639a.616.616 0 01.56.707l-.27 2.677c-.001.067-.028.148-.055.23 0 .067.036.145.01.227l-.271 2.677a.789.789 0 01-.365.541zm.884-8.503a.765.765 0 01-.345.098.616.616 0 01-.56-.707l.044-.457c.057-.364.341-.66.71-.639a.616.616 0 01.56.707l-.045.457c-.054.23-.184.438-.364.541zm.316-3.135a.766.766 0 01-.345.099.617.617 0 01-.56-.707l.27-2.677c.001-.067.028-.149.055-.231 0-.067-.036-.145-.01-.227l.271-2.677c.045-.39.341-.66.71-.639a.617.617 0 01.56.707l-.27 2.677a.86.86 0 01-.055.23c0 .067.036.146.01.227l-.272 2.677c-.016.242-.184.438-.364.541zm2.122-19.114a.702.702 0 01-.61.019c-.301-.157-.396-.565-.226-.893l1.308-2.394c.039-.055.103-.125.142-.18a.335.335 0 01.093-.218l1.307-2.394c.17-.328.566-.455.868-.298.302.157.397.564.227.892l-1.308 2.395c-.039.055-.104.125-.143.18a.334.334 0 01-.092.218l-1.308 2.394c-.077.11-.155.221-.258.279zm4.12-7.525a.706.706 0 01-.61.018c-.302-.157-.397-.564-.227-.892l.21-.383c.17-.328.565-.455.867-.298.302.157.397.564.227.892l-.21.383c-.078.111-.155.221-.258.28zm1.516-2.778a.702.702 0 01-.61.018c-.301-.157-.396-.564-.226-.892l1.308-2.394c.039-.055.103-.125.142-.18a.335.335 0 01.093-.218l.104-.191c.17-.328.566-.455.868-.298.302.157.397.564.226.892l-.104.192c-.04.055-.104.125-.143.18a.334.334 0 01-.092.217l-1.308 2.395a.615.615 0 01-.258.279zm-.834-14.369l-.026.014c-.325.146-.715.028-.857-.325l-1.022-2.394a.432.432 0 01-.038-.212.55.55 0 01-.13-.194l-1.022-2.394a.698.698 0 01.353-.892c.325-.145.715-.028.857.326l1.022 2.394a.428.428 0 01.039.211c.052.038.09.116.13.195l1.022 2.394c.09.315-.041.72-.328.877zm-3.22-7.628l-.026.014c-.326.146-.716.028-.858-.326l-.168-.405a.698.698 0 01.353-.892c.325-.146.715-.028.857.326l.169.406c.09.315-.041.719-.327.877zm-1.203-2.826l-.026.014c-.326.146-.716.028-.858-.326l-1.022-2.394a.415.415 0 01-.038-.211.55.55 0 01-.13-.194l-1.022-2.394a.698.698 0 01.353-.892c.325-.146.715-.028.858.326l1.02 2.394c.04.078.04.145.039.211.052.038.09.116.13.195l1.022 2.394c.103.341-.015.705-.327.877zm-3.221-7.628l-.026.014c-.326.146-.716.028-.858-.326l-.168-.406a.697.697 0 01.353-.891c.325-.146.715-.028.858.326l.168.405c.103.342-.041.72-.327.878zm-1.19-2.8l-.026.014c-.326.146-.716.028-.858-.326l-1.022-2.394a.427.427 0 01-.038-.211.55.55 0 01-.13-.194l-.298-.667a.698.698 0 01.353-.892c.326-.145.716-.027.858.326l.297.667c.04.078.04.145.039.211.052.038.09.116.13.195l1.022 2.394c.103.341-.015.705-.328.877zm-28.681-15.8a.5.5 0 01-.192.075l-1.547.309c-.358.07-.662-.153-.734-.505a.721.721 0 01.532-.788l1.547-.31c.358-.069.662.154.734.505a.7.7 0 01-.34.714zm-4.066.836c-.051.028-.129.072-.192.075l-.422.072c-.358.069-.662-.153-.734-.505a.722.722 0 01.532-.788l.422-.073c.358-.069.661.153.734.505a.702.702 0 01-.34.714zm-2.954.639c-.052.028-.129.071-.193.074l-2.519.527c-.064.003-.153.02-.217.023-.077.043-.128.072-.192.075l-2.52.526c-.357.07-.66-.153-.733-.505a.722.722 0 01.532-.788l2.519-.527c.064-.003.153-.02.217-.023a.499.499 0 01.192-.075l2.52-.526c.358-.069.661.153.734.505a.673.673 0 01-.34.714z" fill="#2D2A76"/></svg>