<svg width="23" height="20" fill="none" xmlns="http://www.w3.org/2000/svg"><path d="M19.406.621A3.594 3.594 0 0123 4.215v11.5a3.593 3.593 0 01-3.594 3.594H3.594A3.594 3.594 0 010 15.715v-11.5A3.594 3.594 0 013.594.62h15.812zm2.157 5.694l-9.698 5.707a.718.718 0 01-.612.054l-.118-.054-9.697-5.704v9.397a2.156 2.156 0 002.156 2.156h15.812a2.156 2.156 0 002.157-2.156v-9.4zm-2.157-4.256H3.594a2.156 2.156 0 00-2.156 2.156v.434l10.062 5.92 10.063-5.923v-.431a2.156 2.156 0 00-2.157-2.156z" fill="#fff"/></svg>