<svg display="block" width="245" height="485" xmlns="http://www.w3.org/2000/svg"><path d="M242.185 44.545c.308.023.851-.036.89.078.688 2.004 1.553 3.99 1.886 6.059.326 2.026-1.444 2.876-2.849 4.032-2.588 2.13-5.69.873-8.409 1.629.479 3.156.992 6.163 1.379 9.185.465 3.636 1.04 7.278 1.175 10.932.198 5.389-.059 10.793.098 16.185.066 2.258.563 4.534 1.107 6.742.613 2.486.384 4.434-1.717 6.286a38.763 38.763 0 00-6.001 6.678c-1.042 1.478-1.588 3.481-1.777 5.308-.087.849 1.206 1.841 1.733 2.573-.28.862-.882 1.731-.749 2.466.795 4.365 1.725 8.706 2.683 13.038.489 2.213 1.014 4.431 1.731 6.578 1.145 3.434 2.346 6.86 3.744 10.196 1.198 2.858.994 7.079-1.381 8.57-1.958 1.23-4.693 2.298-6.84 1.946-5.891-.966-7.947 2.837-7.389 7.854.378 3.408.024 4.739-2.87 6.078-1.346.623-3.117.327-4.695.448l-.03-.68-1.236 2.584-1.015-.502c.925.847 1.833 1.715 2.779 2.538 1.828 1.59 1.999 3.603 1.401 5.743-.576 2.063-2.961 3.734-5.629 3.958 0 4.148.276 8.34-.068 12.481-.45 5.418-2.73 9.887-8.037 12.28-5.427 2.448-10.937 3.676-16.8 1.609-.816-.287-1.75-.224-2.623-.368-3.044-.502-6.15-.786-9.112-1.594-4.012-1.095-7.888-2.682-11.873-3.892-2.27-.689-4.62-1.238-6.973-1.504-2.994-.338-7.311 2.379-8.526 5.883-2.003 5.779-2.093 11.693-.978 17.45.603 3.112 1.75 6.159 1.294 9.322-.307 2.133-1.349 4.174-2.162 6.217-.663 1.664-1.666 3.212-2.17 4.914-.556 1.882-.384 3.199 2.156 4.134 2.29.842 4.133 3.124 5.941 4.995a100.085 100.085 0 016.846 7.849c2.074 2.649 3.506 5.688 3.735 9.108.166 2.488.017 4.995.107 7.49.096 2.677 1.704 4.711 4.214 5.529.649 1.873-.35 2.385-1.983 2.576-.702.082-1.359.56-2.036.859.389.722.662 1.545 1.185 2.152 3.738 4.337 7.718 8.483 11.215 13.004 1.593 2.058 2.256 4.833 3.357 7.276 1.325 2.937 2.853 5.799 3.953 8.818 1.281 3.517 2.189 7.169 3.267 10.76.782 2.603 1.645 5.183 2.348 7.807.613 2.289 1.107 4.614 1.56 6.941.666 3.428 1.323 6.861 1.849 10.313.886 5.822 1.666 11.661 2.491 17.493.101.716.254 1.431.293 2.151.777 14.362 2.201 28.691 1.718 43.113-.259 7.76-.048 7.749 5.628 12.685 3.701 3.217 7.381 6.46 10.988 9.781.625.576 1.209 1.61 1.184 2.413-.338 10.71-.784 21.417-1.223 32.124-.019.465-.239.921-.475 1.784-3.846-2.183-7.511-4.348-11.259-6.361-2.332-1.252-4.821-2.211-7.181-3.416-2.391-1.222-4.666-2.675-7.073-3.861-2.441-1.203-5.006-2.153-7.474-3.305-2.816-1.313-5.543-2.823-8.387-4.069-2.754-1.206-5.63-2.131-8.411-3.278-2.957-1.22-5.85-2.592-8.8-3.826-1.652-.691-3.372-1.214-5.047-1.851-3.536-1.346-7.06-2.726-10.595-4.076-1.465-.56-2.931-1.126-4.423-1.606-1.974-.635-4.009-1.094-5.956-1.798-3.393-1.227-6.699-2.702-10.116-3.854-3.631-1.223-7.368-2.129-11.021-3.293-2.117-.675-4.152-1.606-6.24-2.382-1.663-.619-3.33-1.244-5.03-1.747-3.705-1.097-7.46-2.031-11.143-3.193-3.801-1.2-7.525-2.644-11.315-3.883-3.565-1.166-7.199-2.124-10.753-3.32-3.389-1.139-6.706-2.487-10.069-3.704-1.953-.708-3.959-1.276-5.896-2.024-1.922-.742-3.773-1.666-5.682-2.443-1.63-.663-3.339-1.143-4.943-1.861-3.853-1.725-7.676-3.521-11.491-5.331-2.407-1.142-4.966-2.09-7.12-3.604-3.267-2.296-6.407-4.835-9.285-7.6-2.129-2.046-3.787-4.591-5.573-6.976-.288-.385-.2-1.094-.192-1.652.172-11.836.287-23.674.577-35.507.114-4.642.413-9.302 1.023-13.901.57-4.303 1.671-8.535 2.525-12.801.576-2.874 1.033-5.776 1.716-8.624.697-2.905 1.61-5.759 2.42-8.637.636-2.252 1.22-4.52 1.903-6.757.563-1.842 1.135-3.693 1.885-5.463 1.772-4.176 3.532-8.365 5.523-12.438 2.002-4.091 4.242-8.068 6.446-12.058 1.639-2.966 3.306-5.924 5.113-8.789 1.441-2.285 3.111-4.425 4.682-6.628 1.182-1.656 2.367-3.309 3.574-4.995l-3.423-4.777c5.438-.36 8.823-2.843 11.487-6.29 1.548-2.001 2.65-4.347 3.954-6.538 1.343-2.259 2.733-4.492 4.019-6.783 1.52-2.709 3.023-5.433 4.404-8.214 1.475-2.973 3.167-5.445 7.45-4.161l3.752-24.827c-5.478-.572-11.702 1.911-14.786-4.578 1.499-.929 2.991-1.65 4.234-2.673 1.782-1.467 2.139-4.561 1.62-6.789-1.223-5.248-4.641-8.82-8.846-11.614-2.645-1.759-5.22-3.421-6.735-6.281-.494-.934-.958-1.975-1.065-3.005-.215-2.078.194-4.29-.373-6.238-.365-1.257-2.006-2.143-3.31-3.427.574-.646 1.468-1.487 2.167-2.466 3.808-5.336 3.656-11.184 2.139-17.2-.69-2.738-1.278-5.502-2.007-8.229-.825-3.085-1.808-6.127-2.625-9.213a84.712 84.712 0 01-1.5-6.739c-.59-3.292-1.042-6.61-1.579-9.911-.779-4.79-1.987-9.555-2.246-14.37-.206-3.823.56-7.739 1.242-11.55.361-2.017 1.553-3.87 2.219-5.848 1.484-4.405 4.483-7.697 7.868-10.639 2.565-2.229 5.383-4.166 7.58-5.845l-1.073-5.136c4.446-2.201 7.693-5.147 10.71-8.813 4.862-5.91 9.81-11.862 16.015-16.546 2.431-1.835 4.815-3.787 6.942-5.958 2.174-2.218 5.03-3.152 7.708-3.817 8.217-2.041 16.654-2.247 25.078-1.515 2.664.232 5.269 1.102 7.932 1.379 2.725.283 4.977-.588 7.184-2.59 1.676-1.52 4.36-2.182 6.709-2.633 2.252-.432 4.657-.213 6.981-.07 2.223.138 4.427.554 6.642.833 4.2.529 8.391 1.348 12.606 1.498 6.336.226 12.706.241 19.03-.151 4.633-.288 8.697.997 12.502 3.213 2.146 1.25 3.753 3.407 5.863 4.746 1.715 1.089 3.759 1.915 5.759 2.248 4.354.724 7.938 2.623 10.702 6.001 3.95 4.828 7.494 9.975 12.531 13.866 3.112 2.404 5.994 5.162 8.661 8.056.798.866.522 2.724.735 4.125-1.768-.36-2.334.97-2.963 2.152-.399.75-.793 1.527-1.015 2.34-.287 1.052-.402 2.153-.591 3.233 1.226-.043 2.523.139 3.651-.217.622-.196 1.344-1.29 1.353-1.986.022-1.863-.317-3.73-.513-5.596z" fill="url(#a)" fill-opacity=".3"/><defs><linearGradient id="a" x1="122.5" y1="-79.54" x2="42.064" y2="422.165" gradientUnits="userSpaceOnUse"><stop stop-color="#F0C7FF"/><stop offset="1" stop-color="#C4C4C4" stop-opacity="0"/></linearGradient></defs></svg>