<svg width="42" height="42" fill="none" xmlns="http://www.w3.org/2000/svg"><circle cx="20.653" cy="20.653" r="20.321" stroke="url(#paint0_linear_162:3725)" stroke-width=".664"/><path d="M16.68 13.354v-2.969h.238v2.969h-.238z" stroke="url(#paint1_linear_162:3725)" stroke-width=".664"/><path d="M20.525 13.354h-.239v-1.03c0-.034.013-.065.036-.088a.118.118 0 01.167 0 .124.124 0 01.036.087v1.03z" stroke="url(#paint2_linear_162:3725)" stroke-width=".664"/><path d="M13.072 18.802v-2.06h3.713l-.32 2.06h-3.393z" stroke="url(#paint3_linear_162:3725)" stroke-width=".664"/><path d="M25.035 14.925v.244h-9.257v-.244h9.257z" stroke="url(#paint4_linear_162:3725)" stroke-width=".664"/><path d="M19.213 11.126a1.699 1.699 0 00-.492 1.197v1.03h-.239V7.66h3.846v5.694h-.238v-1.03c0-.45-.177-.88-.493-1.198a1.68 1.68 0 00-2.384 0z" stroke="url(#paint5_linear_162:3725)" stroke-width=".664"/><path d="M24.59 20.373h4.954v2.061H24.91l-.32-2.06z" stroke="url(#paint6_linear_162:3725)" stroke-width=".664"/><path d="M24.347 18.802l-.32-2.06h3.713v2.06h-3.393z" stroke="url(#paint7_linear_162:3725)" stroke-width=".664"/><path d="M23.895 13.354v-2.969h.238v2.969h-.238z" stroke="url(#paint8_linear_162:3725)" stroke-width=".664"/><path d="M16.221 20.373l-.32 2.061h-4.634v-2.06h4.954z" stroke="url(#paint9_linear_162:3725)" stroke-width=".664"/><path d="M24.235 29.7l-2.012-12.96h.221l2.008 12.96h-.217z" stroke="url(#paint10_linear_162:3725)" stroke-width=".664"/><path d="M22.648 29.7h-4.483l2.012-12.959h.46L22.648 29.7z" stroke="url(#paint11_linear_162:3725)" stroke-width=".664"/><path d="M26.038 29.7l-.32-2.062h7.434V29.7h-7.114z" stroke="url(#paint12_linear_162:3725)" stroke-width=".664"/><path d="M25.474 26.067l-.32-2.06h6.194v2.06h-5.874z" stroke="url(#paint13_linear_162:3725)" stroke-width=".664"/><path d="M15.094 27.638l-.32 2.061H7.66v-2.06h7.434z" stroke="url(#paint14_linear_162:3725)" stroke-width=".664"/><path d="M15.338 26.067H9.463v-2.06h6.194l-.32 2.06z" stroke="url(#paint15_linear_162:3725)" stroke-width=".664"/><path d="M18.59 16.741L16.578 29.7h-.217l2.012-12.959h.217z" stroke="url(#paint16_linear_162:3725)" stroke-width=".664"/><defs><linearGradient id="paint0_linear_162:3725" x1="-8.431" y1="1.306" x2="45.036" y2="40.864" gradientUnits="userSpaceOnUse"><stop stop-color="#ACB4FF"/><stop offset=".521" stop-color="#A55FFF"/><stop offset="1" stop-color="#816CFF" stop-opacity=".88"/></linearGradient><linearGradient id="paint1_linear_162:3725" x1="16.164" y1="10.168" x2="17.912" y2="10.489" gradientUnits="userSpaceOnUse"><stop stop-color="#ACB4FF"/><stop offset=".521" stop-color="#A55FFF"/><stop offset="1" stop-color="#816CFF" stop-opacity=".88"/></linearGradient><linearGradient id="paint2_linear_162:3725" x1="19.77" y1="11.927" x2="21.362" y2="12.511" gradientUnits="userSpaceOnUse"><stop stop-color="#ACB4FF"/><stop offset=".521" stop-color="#A55FFF"/><stop offset="1" stop-color="#816CFF" stop-opacity=".88"/></linearGradient><linearGradient id="paint3_linear_162:3725" x1="11.835" y1="16.496" x2="15.46" y2="20.86" gradientUnits="userSpaceOnUse"><stop stop-color="#ACB4FF"/><stop offset=".521" stop-color="#A55FFF"/><stop offset="1" stop-color="#816CFF" stop-opacity=".88"/></linearGradient><linearGradient id="paint4_linear_162:3725" x1="13.421" y1="14.621" x2="13.72" y2="17.043" gradientUnits="userSpaceOnUse"><stop stop-color="#ACB4FF"/><stop offset=".521" stop-color="#A55FFF"/><stop offset="1" stop-color="#816CFF" stop-opacity=".88"/></linearGradient><linearGradient id="paint5_linear_162:3725" x1="17.23" y1="7.53" x2="24.312" y2="11.246" gradientUnits="userSpaceOnUse"><stop stop-color="#ACB4FF"/><stop offset=".521" stop-color="#A55FFF"/><stop offset="1" stop-color="#816CFF" stop-opacity=".88"/></linearGradient><linearGradient id="paint6_linear_162:3725" x1="23.045" y1="20.128" x2="26.413" y2="25.317" gradientUnits="userSpaceOnUse"><stop stop-color="#ACB4FF"/><stop offset=".521" stop-color="#A55FFF"/><stop offset="1" stop-color="#816CFF" stop-opacity=".88"/></linearGradient><linearGradient id="paint7_linear_162:3725" x1="22.734" y1="16.496" x2="26.36" y2="20.86" gradientUnits="userSpaceOnUse"><stop stop-color="#ACB4FF"/><stop offset=".521" stop-color="#A55FFF"/><stop offset="1" stop-color="#816CFF" stop-opacity=".88"/></linearGradient><linearGradient id="paint8_linear_162:3725" x1="23.379" y1="10.168" x2="25.126" y2="10.489" gradientUnits="userSpaceOnUse"><stop stop-color="#ACB4FF"/><stop offset=".521" stop-color="#A55FFF"/><stop offset="1" stop-color="#816CFF" stop-opacity=".88"/></linearGradient><linearGradient id="paint9_linear_162:3725" x1="9.778" y1="20.128" x2="13.146" y2="25.317" gradientUnits="userSpaceOnUse"><stop stop-color="#ACB4FF"/><stop offset=".521" stop-color="#A55FFF"/><stop offset="1" stop-color="#816CFF" stop-opacity=".88"/></linearGradient><linearGradient id="paint10_linear_162:3725" x1="21.223" y1="16.84" x2="27.082" y2="17.796" gradientUnits="userSpaceOnUse"><stop stop-color="#ACB4FF"/><stop offset=".521" stop-color="#A55FFF"/><stop offset="1" stop-color="#816CFF" stop-opacity=".88"/></linearGradient><linearGradient id="paint11_linear_162:3725" x1="16.705" y1="16.84" x2="26.442" y2="19.621" gradientUnits="userSpaceOnUse"><stop stop-color="#ACB4FF"/><stop offset=".521" stop-color="#A55FFF"/><stop offset="1" stop-color="#816CFF" stop-opacity=".88"/></linearGradient><linearGradient id="paint12_linear_162:3725" x1="23.666" y1="27.393" x2="26.433" y2="33.519" gradientUnits="userSpaceOnUse"><stop stop-color="#ACB4FF"/><stop offset=".521" stop-color="#A55FFF"/><stop offset="1" stop-color="#816CFF" stop-opacity=".88"/></linearGradient><linearGradient id="paint13_linear_162:3725" x1="23.355" y1="23.761" x2="26.416" y2="29.506" gradientUnits="userSpaceOnUse"><stop stop-color="#ACB4FF"/><stop offset=".521" stop-color="#A55FFF"/><stop offset="1" stop-color="#816CFF" stop-opacity=".88"/></linearGradient><linearGradient id="paint14_linear_162:3725" x1="5.664" y1="27.393" x2="8.431" y2="33.519" gradientUnits="userSpaceOnUse"><stop stop-color="#ACB4FF"/><stop offset=".521" stop-color="#A55FFF"/><stop offset="1" stop-color="#816CFF" stop-opacity=".88"/></linearGradient><linearGradient id="paint15_linear_162:3725" x1="7.722" y1="23.761" x2="10.782" y2="29.506" gradientUnits="userSpaceOnUse"><stop stop-color="#ACB4FF"/><stop offset=".521" stop-color="#A55FFF"/><stop offset="1" stop-color="#816CFF" stop-opacity=".88"/></linearGradient><linearGradient id="paint16_linear_162:3725" x1="15.361" y1="16.84" x2="21.221" y2="17.796" gradientUnits="userSpaceOnUse"><stop stop-color="#ACB4FF"/><stop offset=".521" stop-color="#A55FFF"/><stop offset="1" stop-color="#816CFF" stop-opacity=".88"/></linearGradient></defs></svg>