<svg width="16" height="16" fill="none" xmlns="http://www.w3.org/2000/svg"><path d="M10.145 12.191c.467.002.917-.17 1.256-.482.34-.312.542-.739.566-1.192v-.024l1.767-1.928a1.09 1.09 0 011.468-.139 1.016 1.016 0 01.374.696.984.984 0 01-.252.747l-3.528 3.928c-.233.26-.52.467-.842.609a2.537 2.537 0 01-1.025.215H4.626l-.92.895L.42 12.404l2.353-2.266a3.62 3.62 0 011.738-.928 3.69 3.69 0 011.979.11l.516.177h3.181a1.027 1.027 0 01.72.295.97.97 0 01.282.708.99.99 0 01-.33.67c-.194.175-.45.27-.714.266H8.236a.395.395 0 00-.275.11.372.372 0 000 .535c.073.07.172.11.275.11h1.91zM8.22 4.962c.257.141.525.263.801.363.119.045.237.092.354.142.139.058.27.134.387.226a.424.424 0 01.093.635.448.448 0 01-.2.136 1.305 1.305 0 01-.67.085 3.18 3.18 0 01-1.073-.312.52.52 0 00-.231-.072c-.187 0-.245.183-.277.28-.061.19-.115.38-.168.57-.087.312-.033.428.267.57.33.146.68.244 1.04.29a.882.882 0 01.167.035.735.735 0 01.014.177v.373a.33.33 0 00.1.26.35.35 0 00.266.1h.575a.343.343 0 00.26-.099.324.324 0 00.092-.255v-.515c0-.115.028-.151.156-.186a2.03 2.03 0 001.05-.654 1.759 1.759 0 00.395-1.487 1.902 1.902 0 00-.35-.769 1.97 1.97 0 00-.654-.55 8.629 8.629 0 00-.902-.4l-.118-.046a2.11 2.11 0 01-.504-.281.371.371 0 01-.156-.331.375.375 0 01.086-.176.39.39 0 01.165-.111.838.838 0 01.292-.056c.412-.024.823.055 1.193.23.383.18.467-.091.498-.206.052-.151.097-.302.142-.46l.053-.182a.331.331 0 00-.098-.371.35.35 0 00-.12-.067 3.355 3.355 0 00-.826-.235c-.257-.039-.257-.039-.257-.29 0-.527-.042-.604-.572-.604h-.287c-.31.009-.395.098-.402.394v.316c0 .222 0 .222-.228.302-.827.292-1.272.842-1.322 1.634-.045.666.274 1.192.97 1.597z" fill="#E7E6E9"/></svg>