<svg width="38" height="38" fill="none" xmlns="http://www.w3.org/2000/svg"><path d="M25.024 16.137l-.004-.011-.005-.01a.988.988 0 00-.395-.46.928.928 0 00-.56-.12c-.362.032-.707.245-.98.52-.557.56-.973 1.535-.739 2.63v.001a.98.98 0 00.466.665c.23.13.49.145.718.081.464-.128.843-.6.706-1.224-.06-.278.01-.454.09-.569a.724.724 0 01.215-.203c.518-.234.66-.848.488-1.3z" stroke="url(#paint0_linear_162:3763)" stroke-width=".809"/><path d="M8.358 17.587c.406-.306 1.1-.734 2.318-1.04.753-.183.985 1.04.231 1.223-1.796.428-2.897 1.345-2.665 3.118m.116-3.301l.286-.286a2.022 2.022 0 01-.216-.256m-.07.542c-1.045-1.048-.96-2.892.088-3.871.023.18.051.348.084.503m-.172 3.368l-.243-.323c.09-.07.195-.143.313-.22m0 0c.46-.296 1.137-.635 2.15-.889h.002a.92.92 0 01.806.163c.206.163.324.398.368.628.085.45-.105 1.06-.75 1.217H11c-.862.206-1.498.516-1.891.938-.376.402-.569.947-.468 1.73m-.214-3.786c-.59-.83-.525-2.05.102-2.826m.112 6.611v-.005l-.4.063m.4-.058l.001.006-.4.052m.4-.058c.1.635.45 1.195.916 1.49l.043.026m-1.36-1.458c.116.734.522 1.406 1.101 1.773l2.202 1.284m-1.943-1.599a.236.236 0 01-.02-.009s0 0 0 0m.02.01h0l.034.036a.298.298 0 00-.054-.046m.02.01l.034.013c.059.022.156.05.292.069.271.038.698.042 1.29-.1l.095.393-.096-.393a.92.92 0 01.807.164c.206.163.324.398.367.628.085.449-.104 1.057-.746 1.216m-2.063-2a.051.051 0 000 0zm2.063 2l.003-.001-.103-.391m.1.392h-.005l-.095-.392m.1.392c-.603.158-1.266.236-1.915.146m1.815-.538c-.68.179-1.414.241-2.096.073l.344.088a2.237 2.237 0 00-.063.377m0 0a3.68 3.68 0 01-.399-.077 2.62 2.62 0 01.07-.4l1.969 3.205a4.851 4.851 0 01-.003-.414M9.73 24.483c-.086 1.085.636 2.094 1.636 2.314m0 0a1.9 1.9 0 00.404.045c-.004.131-.002.266.007.404l6.142-16.568c.115-3.485-4.868-3.485-4.868 0 0 1.467 1.101 2.629 2.492 2.629.753 0 .753 1.223 0 1.223-1.901 0-3.548-1.558-3.65-3.616a1.956 1.956 0 00-.395.167m-.131 15.716c.063-1.794 1.143-3.03 2.24-3.648.588-.331 1.218-.505 1.736-.467.26.02.525.095.732.27a.95.95 0 01.336.748c0 .27-.087.527-.27.722a.967.967 0 01-.714.294c-.69 0-1.194.275-1.532.677-.346.412-.534.975-.54 1.552-.007.577.169 1.137.508 1.544.332.398.84.676 1.564.676 1.147 0 2.087-.96 2.087-2.224v-6.48m0 0a.655.655 0 00.052-.088c.112-.212.16-.473.112-.722l-.002-.014-.004-.014a1.049 1.049 0 00-.158-.344m0 1.183v-1.183m0 1.183a.89.89 0 01-.542.39m.542-1.573v-8.614h0c.026-.769-.227-1.308-.588-1.656a2.005 2.005 0 00-1.398-.54c-.523 0-1.04.185-1.424.544-.377.353-.648.897-.648 1.665 0 1.265.94 2.225 2.087 2.225.31 0 .565.13.736.338.163.199.233.447.233.677 0 .231-.07.48-.233.677a.932.932 0 01-.736.339c-2.08 0-3.862-1.662-4.045-3.853m6.016 8.198a.906.906 0 00-.163-.175 1.003 1.003 0 00-.528-.213c-.347-.04-.733.062-1.076.2a6.018 6.018 0 00-1.632 1.021m-2.617-9.031a4.466 4.466 0 01-.015-.445c-1.265.57-1.995 2.232-1.155 3.894.384.81-1.05 1.84-1.45-.65-.13.099-.247.213-.348.34m2.968-3.139c-.957.536-1.514 1.872-.81 3.266l.005.01h0a1.07 1.07 0 01-.037.991c-.155.273-.449.503-.82.503-.386 0-.716-.244-.947-.633-.15-.25-.272-.58-.36-.999m5.586 5.893c.083.03.167.062.252.098l-.157.372m-.095-.47c-.073.066-.14.13-.198.192l.293.278m-.095-.47c-.844-.297-1.528-.233-2.03-.056-.542.19-.841.5-.892.554-.432.456-.324 1.05-.012 1.391.157.172.38.301.64.322a.961.961 0 00.701-.237m4.45-1.233a.302.302 0 01.01-.003l-.107-.39m.097.393c-1.034.281-1.447.689-1.701.97a5.68 5.68 0 01-.204.227c-.068.07-.157.155-.27.218a.732.732 0 01-.423.088 1.089 1.089 0 01-.41-.132l-.007-.004h0c-.54-.298-.895-.304-1.096-.269a.843.843 0 00-.309.118l-.005.003-.025.014m4.45-1.233a.504.504 0 01-.013.003l-.084-.396m0 0c.29-.061.464-.428.406-.734-.29-1.1-2.375.123-3.07.856m2.664-.122c-1.233.334-1.69.85-1.982 1.18-.243.274-.372.42-.74.226-1.053-.581-1.629-.248-1.803-.148a.183.183 0 01-.052.026m1.912-1.162c-1.738-.733-2.665.245-2.723.306-.522.55.232 1.406.811.856m.224.342a.77.77 0 01-.08.037.425.425 0 01-.144.025v-.404m.224.342a.85.85 0 00.054-.049l-.278-.293m1.279-6.171l-.01-.005-.01-.005c-.474-.2-1.075-.011-1.285.524-.137.317-.14.612.01.876.11.193.294.34.412.434l.037.03c.141.114.23.197.285.298.045.082.084.208.048.433a.948.948 0 00.094.762.968.968 0 00.614.467c.206.05.412.03.597-.06a.998.998 0 00.41-.387c.185-.304.254-.708.233-1.107-.041-.8-.459-1.782-1.435-2.26z" stroke="url(#paint1_linear_162:3763)" stroke-width=".809"/><mask id="a" fill="#fff"><path d="M37.046 14.466c.294 0 .588-.294.588-.588a.59.59 0 00-.588-.589h-3.234V9.526h3.234c.294 0 .588-.294.588-.588a.59.59 0 00-.588-.588h-3.234v-.823c0-2-1.647-3.646-3.646-3.646h-.823V.588A.59.59 0 0028.755 0c-.353 0-.588.235-.588.588v3.234h-3.823V.588c0-.353-.235-.588-.588-.588a.59.59 0 00-.588.588v3.234h-3.763V.588a.59.59 0 00-1.176 0v3.234h-3.822V.588c0-.353-.236-.588-.588-.588-.353 0-.588.235-.588.588v3.234H9.467V.588A.59.59 0 008.88 0c-.353 0-.588.235-.588.588v3.234h-.823c-2 0-3.646 1.647-3.646 3.646v.823H.588a.59.59 0 000 1.176h3.234v3.764H.588a.59.59 0 000 1.176h3.234v3.822H.588c-.294 0-.588.294-.588.588 0 .353.235.588.588.588h3.234v3.822H.588a.59.59 0 000 1.176h3.234v3.764H.588c-.294 0-.588.294-.588.588 0 .352.235.588.588.588h3.234v.823c0 2 1.647 3.646 3.646 3.646h.823v3.234c0 .353.235.588.588.588a.59.59 0 00.588-.588v-3.234h3.764v3.234c0 .353.235.588.588.588.352 0 .588-.235.588-.588v-3.234h3.822v3.234a.59.59 0 001.176 0v-3.234h3.763v3.234a.59.59 0 00.588.588c.353 0 .588-.235.588-.588v-3.234h3.823v3.234c0 .353.235.588.588.588a.59.59 0 00.588-.588v-3.234h.823c2 0 3.646-1.647 3.646-3.646v-.823h3.234a.59.59 0 00.588-.588c0-.294-.294-.588-.588-.588h-3.234v-3.764h3.234c.294 0 .588-.294.588-.588a.59.59 0 00-.588-.588h-3.234v-3.822h3.234a.59.59 0 00.588-.588c0-.294-.294-.588-.588-.588h-3.234v-3.763h3.234zm-7.939 8.761c.824 2.411-1.117 5.057-3.763 4.88-1.235 2.882-5.057 2.94-6.586.53-1.588 2.529-5.351 2.176-6.527-.53-1.235.06-2.41-.41-3.175-1.41-.765-1-1-2.294-.588-3.411-1.353-1.176-1.706-3.175-.765-4.704-2.058-1.882-1.352-5.293 1.294-6.233.411-1.588 1.94-2.705 3.293-2.764 1.058-2.764 4.998-3.058 6.527-.588 1.588-2.47 5.469-2.176 6.527.588 1.352.059 2.823 1.117 3.293 2.764 2.646.882 3.293 4.351 1.294 6.233.882 1.529.588 3.47-.824 4.645z"/></mask><path d="M37.046 14.466c.294 0 .588-.294.588-.588a.59.59 0 00-.588-.589h-3.234V9.526h3.234c.294 0 .588-.294.588-.588a.59.59 0 00-.588-.588h-3.234v-.823c0-2-1.647-3.646-3.646-3.646h-.823V.588A.59.59 0 0028.755 0c-.353 0-.588.235-.588.588v3.234h-3.823V.588c0-.353-.235-.588-.588-.588a.59.59 0 00-.588.588v3.234h-3.763V.588a.59.59 0 00-1.176 0v3.234h-3.822V.588c0-.353-.236-.588-.588-.588-.353 0-.588.235-.588.588v3.234H9.467V.588A.59.59 0 008.88 0c-.353 0-.588.235-.588.588v3.234h-.823c-2 0-3.646 1.647-3.646 3.646v.823H.588a.59.59 0 000 1.176h3.234v3.764H.588a.59.59 0 000 1.176h3.234v3.822H.588c-.294 0-.588.294-.588.588 0 .353.235.588.588.588h3.234v3.822H.588a.59.59 0 000 1.176h3.234v3.764H.588c-.294 0-.588.294-.588.588 0 .352.235.588.588.588h3.234v.823c0 2 1.647 3.646 3.646 3.646h.823v3.234c0 .353.235.588.588.588a.59.59 0 00.588-.588v-3.234h3.764v3.234c0 .353.235.588.588.588.352 0 .588-.235.588-.588v-3.234h3.822v3.234a.59.59 0 001.176 0v-3.234h3.763v3.234a.59.59 0 00.588.588c.353 0 .588-.235.588-.588v-3.234h3.823v3.234c0 .353.235.588.588.588a.59.59 0 00.588-.588v-3.234h.823c2 0 3.646-1.647 3.646-3.646v-.823h3.234a.59.59 0 00.588-.588c0-.294-.294-.588-.588-.588h-3.234v-3.764h3.234c.294 0 .588-.294.588-.588a.59.59 0 00-.588-.588h-3.234v-3.822h3.234a.59.59 0 00.588-.588c0-.294-.294-.588-.588-.588h-3.234v-3.763h3.234zm-7.939 8.761c.824 2.411-1.117 5.057-3.763 4.88-1.235 2.882-5.057 2.94-6.586.53-1.588 2.529-5.351 2.176-6.527-.53-1.235.06-2.41-.41-3.175-1.41-.765-1-1-2.294-.588-3.411-1.353-1.176-1.706-3.175-.765-4.704-2.058-1.882-1.352-5.293 1.294-6.233.411-1.588 1.94-2.705 3.293-2.764 1.058-2.764 4.998-3.058 6.527-.588 1.588-2.47 5.469-2.176 6.527.588 1.352.059 2.823 1.117 3.293 2.764 2.646.882 3.293 4.351 1.294 6.233.882 1.529.588 3.47-.824 4.645z" stroke="url(#paint2_linear_162:3763)" stroke-width="1.617" mask="url(#a)"/><defs><linearGradient id="paint0_linear_162:3763" x1="17.162" y1="8.744" x2="35.497" y2="15.245" gradientUnits="userSpaceOnUse"><stop stop-color="#ACB4FF"/><stop offset=".521" stop-color="#A55FFF"/><stop offset="1" stop-color="#816CFF" stop-opacity=".88"/></linearGradient><linearGradient id="paint1_linear_162:3763" x1="5.513" y1="8.744" x2="23.848" y2="15.245" gradientUnits="userSpaceOnUse"><stop stop-color="#ACB4FF"/><stop offset=".521" stop-color="#A55FFF"/><stop offset="1" stop-color="#816CFF" stop-opacity=".88"/></linearGradient><linearGradient id="paint2_linear_162:3763" x1="-7.682" y1="1.19" x2="41.033" y2="37.232" gradientUnits="userSpaceOnUse"><stop stop-color="#ACB4FF"/><stop offset=".521" stop-color="#A55FFF"/><stop offset="1" stop-color="#816CFF" stop-opacity=".88"/></linearGradient></defs></svg>