<svg width="16" height="25" fill="none" xmlns="http://www.w3.org/2000/svg"><path d="M5.63 22.74c0-.5.17-.92.51-1.26.34-.36.76-.54 1.26-.54s.92.18 1.26.54c.36.34.54.76.54 1.26s-.18.92-.54 1.26c-.34.32-.76.48-1.26.48s-.92-.16-1.26-.48c-.34-.34-.51-.76-.51-1.26zM.5 4.5c.42-.48.88-.93 1.38-1.35.5-.42 1.06-.79 1.68-1.11.64-.34 1.34-.6 2.1-.78.76-.2 1.61-.3 2.55-.3 1.48 0 2.71.22 3.69.66.98.44 1.75.98 2.31 1.62.58.64.98 1.33 1.2 2.07.24.72.36 1.38.36 1.98 0 .9-.1 1.68-.3 2.34a5.39 5.39 0 01-.9 1.83c-.42.54-.98 1.06-1.68 1.56-.68.5-1.53 1.03-2.55 1.59-.3.18-.57.35-.81.51-.24.14-.45.33-.63.57-.16.24-.29.55-.39.93-.08.38-.12.88-.12 1.5h-2.1l-.12-1.14c-.04-.4-.06-.79-.06-1.17 0-.38.03-.75.09-1.11.08-.38.21-.74.39-1.08.2-.36.46-.68.78-.96.34-.3.77-.57 1.29-.81.6-.26 1.14-.53 1.62-.81a5.3 5.3 0 001.2-.93c.34-.36.6-.76.78-1.2.18-.46.27-1 .27-1.62 0-.26-.06-.56-.18-.9-.12-.34-.35-.67-.69-.99-.32-.32-.76-.59-1.32-.81-.56-.22-1.27-.33-2.13-.33-.68 0-1.29.07-1.83.21-.52.12-1 .3-1.44.54-.42.24-.82.53-1.2.87-.38.32-.76.68-1.14 1.08L.5 4.5z" fill="url(#a)"/><path d="M6.14 21.48l.707.707.01-.01.01-.01-.727-.687zm2.52 0l-.727.687.02.02.02.02.687-.727zm0 2.52l.685.728.002-.001L8.66 24zm-2.52 0l-.707.707.01.01.012.011L6.14 24zM.5 4.5l-.753-.659-.569.65.561.658L.5 4.5zm1.38-1.35l-.643-.766.643.766zm1.68-1.11l.459.889.01-.006-.469-.883zm2.1-.78l.23.973.013-.003.011-.003-.254-.967zm6.24.36l.41-.912-.41.912zm2.31 1.62l-.753.658.006.007.006.007.741-.672zm1.2 2.07l-.959.285.005.016.005.015.949-.316zm.06 4.32l-.957-.29-.004.013-.004.014.965.263zm-.9 1.83l.79.614.005-.007.005-.007-.8-.6zm-1.68 1.56l-.581-.814-.011.008.592.806zm-2.55 1.59l-.481-.877-.017.01-.016.01.514.857zm-.81.51l.504.864.026-.015.025-.017-.555-.832zm-.63.57l-.8-.6-.017.022-.015.023.832.555zm-.39.93l-.967-.255-.006.025-.006.024.979.206zm-.12 1.5v1h1v-1h-1zm-2.1 0l-.995.105.095.895h.9v-1zm-.12-1.14l-.995.1v.005l.995-.105zm.03-2.28l-.979-.206-.004.02-.003.022.986.164zm.39-1.08l-.874-.486-.005.01-.005.008.884.468zm.78-.96l.659.753.003-.003-.662-.75zm1.29-.81l-.398-.918-.01.005-.011.005.419.908zm2.82-1.74l-.727-.687-.001.002.728.685zm.78-1.2l.925.379.003-.007.003-.008-.931-.364zm.09-2.52l-.943.333.943-.333zm-.69-.99l-.707.707.01.01.012.011.685-.728zm-1.32-.81l-.366.93.366-.93zm-3.96-.12l.225.974.013-.003.013-.003-.251-.968zm-1.44.54l-.479-.878-.009.005-.008.005.496.868zm-1.2.87l.644.765.012-.01.01-.01-.666-.745zM2.6 6.96l-.76.65.72.844.765-.805L2.6 6.96zm4.03 15.78c0-.247.073-.409.217-.553l-1.414-1.414a2.71 2.71 0 00-.803 1.967h2zm.237-.573a.668.668 0 01.533-.227v-2c-.772 0-1.456.291-1.987.853l1.454 1.374zm.533-.227c.228 0 .384.069.533.227l1.454-1.374A2.663 2.663 0 007.4 19.94v2zm.573.267a.668.668 0 01.227.533h2c0-.772-.291-1.456-.853-1.987l-1.374 1.454zm.227.533a.668.668 0 01-.227.533l1.374 1.454a2.663 2.663 0 00.853-1.987h-2zm-.225.532c-.14.132-.31.208-.575.208v2c.735 0 1.406-.244 1.945-.752l-1.37-1.456zm-.575.208c-.265 0-.434-.076-.575-.208l-1.37 1.456c.54.508 1.21.752 1.945.752v-2zm-.553-.187a.715.715 0 01-.217-.553h-2c0 .753.267 1.431.803 1.967l1.414-1.414zM1.253 5.159c.385-.441.808-.855 1.27-1.243L1.237 2.384c-.538.452-1.035.938-1.49 1.457l1.506 1.317zm1.27-1.243c.44-.37.937-.7 1.496-.987L3.1 1.15a10.06 10.06 0 00-1.864 1.233l1.286 1.532zm1.506-.993a7.757 7.757 0 011.861-.69L5.43.287a9.755 9.755 0 00-2.34.87l.94 1.766zm1.885-.696c.663-.174 1.426-.267 2.296-.267v-2c-1.01 0-1.947.107-2.804.333l.508 1.934zM8.21 1.96c1.389 0 2.468.208 3.28.572l.82-1.824C11.162.192 9.78-.04 8.21-.04v2zm3.28.572c.883.396 1.524.86 1.967 1.366l1.506-1.317c-.677-.772-1.576-1.39-2.653-1.873l-.82 1.824zm1.979 1.38c.492.542.81 1.103.982 1.683l1.918-.57c-.268-.9-.75-1.719-1.418-2.457l-1.482 1.344zm.992 1.714c.215.644.309 1.196.309 1.664h2c0-.732-.146-1.5-.411-2.296l-1.898.632zm.309 1.664c0 .83-.093 1.508-.257 2.05l1.914.58c.236-.778.343-1.66.343-2.63h-2zm-.265 2.077a4.39 4.39 0 01-.735 1.493l1.6 1.2a6.39 6.39 0 001.065-2.167l-1.93-.526zm-.724 1.48c-.348.446-.832.902-1.472 1.36l1.162 1.627c.76-.543 1.396-1.127 1.888-1.76l-1.578-1.228zm-1.483 1.367c-.634.467-1.444.973-2.44 1.52l.963 1.753c1.046-.574 1.936-1.128 2.661-1.661l-1.184-1.612zm-2.472 1.538c-.311.187-.595.365-.85.536l1.109 1.664c.224-.15.48-.311.77-.485l-1.03-1.715zm-.8.504a3.123 3.123 0 00-.926.834l1.6 1.2c.106-.142.218-.239.334-.306l-1.008-1.728zm-.958.88c-.239.358-.406.779-.525 1.23l1.934.509c.081-.31.174-.509.255-.63l-1.664-1.11zm-.537 1.278c-.1.476-.141 1.052-.141 1.706h2c0-.587.039-1.01.099-1.294l-1.958-.412zm.859.706h-2.1v2h2.1v-2zm-1.105.895l-.12-1.14-1.99.21.12 1.14 1.99-.21zm-.12-1.134a10.76 10.76 0 01-.055-1.071h-2c0 .415.022.838.065 1.27l1.99-.2zM7.11 15.81c0-.327.026-.642.076-.946l-1.972-.328c-.07.416-.104.841-.104 1.274h2zm.069-.904c.06-.29.159-.561.295-.818l-1.768-.936a5.103 5.103 0 00-.485 1.342l1.958.412zm.285-.8c.142-.256.328-.487.564-.693l-1.317-1.506a4.578 4.578 0 00-.995 1.227l1.748.972zm.568-.696c.25-.222.593-.443 1.047-.652l-.838-1.816c-.586.27-1.104.59-1.533.968l1.324 1.5zm1.026-.642c.63-.274 1.206-.561 1.726-.864l-1.008-1.728c-.44.257-.944.51-1.514.756l.796 1.836zm1.726-.864a6.295 6.295 0 001.424-1.109l-1.456-1.37a4.308 4.308 0 01-.976.751l1.008 1.728zm1.423-1.107c.421-.446.75-.95.978-1.508l-1.85-.758a2.876 2.876 0 01-.582.892l1.454 1.374zm.984-1.523c.236-.601.339-1.27.339-1.984h-2c0 .526-.077.937-.201 1.256l1.862.728zm.339-1.984a3.74 3.74 0 00-.237-1.233l-1.886.666c.096.271.123.455.123.567h2zm-.237-1.233c-.186-.528-.525-.987-.948-1.385l-1.37 1.456c.257.242.378.443.432.595l1.886-.666zm-.926-1.364c-.444-.444-1.013-.78-1.661-1.034l-.732 1.862c.472.185.783.39.979.586l1.414-1.414zm-1.661-1.034c-.715-.28-1.56-.399-2.496-.399v2c.784 0 1.36.102 1.764.26l.732-1.86zM8.21 3.26c-.747 0-1.443.077-2.081.242l.502 1.936A6.314 6.314 0 018.21 5.26v-2zm-2.055.236a6.643 6.643 0 00-1.694.636l.958 1.756a4.64 4.64 0 011.186-.444l-.45-1.948zm-1.711.646a8.03 8.03 0 00-1.37.993l1.333 1.49a6.03 6.03 0 011.03-.747l-.993-1.736zm-1.348.973a15.17 15.17 0 00-1.221 1.156l1.45 1.378c.357-.376.71-.71 1.06-1.004l-1.29-1.53zm.265 1.196l-2.1-2.46-1.522 1.298 2.1 2.46 1.522-1.298z" fill="url(#b)"/><defs><linearGradient id="a" x1="-.186" y1="-4.077" x2="19.341" y2="12.278" gradientUnits="userSpaceOnUse"><stop stop-color="#AB69FF"/><stop offset=".453" stop-color="#fff"/><stop offset="1" stop-color="#9B36FF"/></linearGradient><linearGradient id="b" x1="18.058" y1="11.819" x2="-1.475" y2="12.632" gradientUnits="userSpaceOnUse"><stop stop-color="#fff"/><stop offset="0" stop-color="#fff"/><stop offset=".464" stop-color="#CC97EE"/><stop offset="1" stop-color="#fff"/></linearGradient></defs></svg>