<svg width="145" height="245" fill="none" xmlns="http://www.w3.org/2000/svg"><path d="M156.687 154.82c-.04.081-.201.135-.322.081-.12-.027-10.454-2.798-11.58-3.094-.121-.027-.201-.134-.121-.215.04-.081.201-.134.322-.081 1.126.296 11.46 3.067 11.58 3.094.081.027.161.135.121.215zm-8.164-97.495a4.468 4.468 0 01-.885-.242c-.362-.107-.925-.457-1.247-.538-.361-.08-.924-.242-.924-.242.201-.215 1.487-.592 1.849-.618.362-.028 1.287-.323 1.287-.35.04-.027.08-.108 0-.162-.121-.027-.563.054-.844.081-.322.054-1.006-.108-1.408-.108-.402 0-1.206.081-1.206.081l.683-.565c.684-.565 1.488-.7 1.689-.78.201-.08.483-.215.483-.296 0-.08-.201-.027-.362.054-.161.08-.844.027-1.247.134-.402.081-1.085.27-1.528.377-.442.108-.723.108-.723.108.04-.081.442-.43.844-.915.402-.484.965-1.157 1.046-1.264.08-.108 0-.243-.161-.081-.161.134-.523.323-1.086.565-.563.242-1.367.672-1.649.941-.281.27-.442.216-.442.216-.04-.108.241-1.319.362-1.507.121-.188.04-.86-.04-1.05-.081-.188-.362-.214-.241.055.12.269-.724 1.049-.885 1.264-.201.215-.603.915-.603.915s-.201-.942-.402-1.319c-.242-.376-.322-.86-.362-1.049 0-.053-.04-.08-.04-.107-.041-.081-.041-.135-.041-.135s-.16-.08-.16.108-.644.807-.764 1.21c-.121.404.04 1.346.04 1.346s-.925-.62-1.166-.996c-.161-.242-1.408-.807-1.367-1.076.04-.269-.242-.215-.242-.027s.081.861.282 1.022c.161.162.764 1.319.764 1.426 0 0-.161.081-.523-.134-.322-.215-1.287-.565-1.89-.7-.603-.161-1.045-.269-1.246-.403-.201-.135-.242 0-.121.107.121.108.844.7 1.407 1.103.523.404 1.046.7 1.126.78 0 0-.241.027-.723 0-.483-.053-1.207-.134-1.609-.16-.442-.028-1.086.08-1.246.053-.201-.054-.402-.08-.362 0 .04.08.362.188.563.242.241.054 1.085.08 1.89.538l.804.484s-.804.027-1.207.081c-.402.054-1.045.296-1.367.296-.321 0-.764-.027-.884.027-.081.054 0 .107.04.161.04.027 1.005.189 1.367.189.402 0 1.729.188 2.011.376 0 0-.523.242-.845.377-.322.134-.764.538-1.086.7-.321.16-.603.295-.804.35-.201.053-.12.08-.04.134.08.053.483 0 1.005-.108.483-.108 2.051-.35 2.292-.377l.241-.026s-.844.484-1.125.726c-.322.242-.764.834-.845.995-.08.135-.12.215.04.162.121-.054.443-.296.845-.458.442-.161 1.206-.43 1.89-.888 0 0-.362.539-.402.861-.041.323-.242.754-.523.915-.282.161-.563.377-.442.43.08.054.764-.08 1.045-.322.281-.27 1.287-1.023 1.528-1.103 0 0 .201-.027.08.35-.16.403-.12.887.041 1.21.12.323.16.43.16.511 0 .08.161.108.201-.027.041-.107.523-1.21.845-1.64.322-.431.563-.404.523-.35 0 0 0 .053.04.134v.215c.04.135.362.7.603 1.023.241.322.442.672.563.86.121.189.362.108.322 0-.041-.107.04-.215-.041-.484-.08-.269.081-.7.081-1.103s-.201-.457-.241-.511c-.041-.054.16-.108.603.269.442.377 1.246 1.372 1.286 1.507.041.107.201.053.201 0 0-.081-.04-.189 0-.512.041-.35-.08-.834-.321-1.183-.242-.377-.04-.35-.04-.35.241.027 1.487.672 1.809.888.362.215 1.045.242 1.126.188.08-.054-.241-.242-.563-.377-.322-.107-.643-.51-.804-.834-.161-.296-.644-.78-.644-.78.805.377 1.649.511 2.131.646.483.108.845.323.965.35.121.027.121-.027-.04-.162-.12-.134-.764-.645-1.126-.86-.361-.216-1.327-.566-1.327-.566h.242c.241 0 1.849.027 2.372.081.523.027.925.054 1.005 0 0-.323.041-.35-.16-.377zm-8.042-5.595v-.027.027zM25.04 233.914c.12-.162 13.953 2.206 14.154 1.883.2-.377-13.47-3.363-13.55-3.605-.081-.242 13.912-1.318 13.63-1.722-.281-.403-14.355.35-14.515.162-.121-.189 5.347-6.726 4.865-6.968-.483-.242-7.077 5.972-7.399 5.945-.321-.027 1.166-11.891.523-10.438-.684 1.453-2.895 9.927-3.257 9.9-.362-.027-5.79-7.613-5.991-7.425-.201.189 2.774 8.125 2.493 8.232-.282.108-9.047-4.008-8.967-3.793.08.242 8.002 4.923 7.8 5.165-.2.269-15.037-1.291-14.635-1.103.402.189 14.515 3.04 14.555 3.229.04.188-9.047 3.147-8.886 3.47.08.188 9.851-1.991 9.851-1.856 0 .134-6.513 6.591-5.95 6.806.321.135 8.363-5.918 8.363-5.918.08.242-1.086 8.958-.885 8.958.201 0 3.378-8.851 3.74-8.824.322.027 4.101 6.833 4.302 6.726.201-.081-1.447-7.452-1.367-7.425.08.027 9.369 4.465 9.53 4.331.2-.081-8.565-5.569-8.404-5.73zM83.544 15.708c.12-.162 13.952 2.206 14.154 1.883.2-.377-13.47-3.363-13.551-3.605-.08-.242 13.912-1.318 13.63-1.722-.28-.403-14.354.35-14.515.162-.12-.189 5.348-6.726 4.866-6.968-.483-.215-7.037 5.972-7.359 5.972-.321-.027 1.166-11.89.523-10.438-.683 1.453-2.895 9.927-3.257 9.9-.362-.027-5.79-7.613-5.991-7.425-.201.188 2.774 8.124 2.493 8.232-.282.108-9.047-4.008-8.967-3.793.08.242 8.002 4.923 7.8 5.165-.2.27-15.038-1.291-14.635-1.103.402.188 14.515 3.04 14.555 3.229.04.188-9.047 3.147-8.886 3.47.08.188 9.851-1.99 9.851-1.856 0 .134-6.513 6.59-5.95 6.806.321.134 8.363-5.919 8.363-5.919.08.242-1.086 8.959-.885 8.959.201 0 3.378-8.851 3.74-8.824.322.027 4.101 6.833 4.302 6.726.201-.081-1.447-7.452-1.367-7.425.08.026 9.369 4.465 9.53 4.33.16-.134-8.565-5.622-8.444-5.756zM48.523 65.692c0-.215-.282-.403-.603-.403l-11.54.134 6.272-2.502c.282-.107.362-.35.201-.538-.16-.188-.523-.242-.804-.134l-6.313 2.528 3.539-4.25c.16-.188.04-.43-.242-.538-.281-.108-.643-.027-.804.161l-3.7 4.466-.24-7.264c0-.215-.282-.403-.604-.376-.321 0-.603.188-.562.403l.24 7.264-4.1-4.574c-.161-.188-.523-.242-.805-.134-.281.108-.362.35-.2.538l3.98 4.439-6.876-2.556c-.281-.107-.643-.027-.804.162-.16.188-.04.43.241.538l6.635 2.475-10.977.134c-.322 0-.604.188-.604.404 0 .188.242.376.523.376h.08l11.54-.134-7.237 2.905c-.281.108-.362.35-.201.538.08.108.282.189.442.189.12 0 .242 0 .362-.054l7.198-2.906-4.102 4.95c-.16.189-.04.43.242.539.08.027.16.053.2.053.242.027.483-.053.604-.215l3.98-4.788.282 7.505c0 .189.241.35.523.377h.08c.322 0 .603-.188.563-.404l-.282-7.398 3.981 4.44c.08.107.282.187.443.187.12 0 .24 0 .361-.053.282-.108.362-.35.201-.538l-4.141-4.6 6.916 2.555c.08.027.16.054.2.054.242.027.483-.054.604-.215.16-.189.04-.43-.241-.538l-7.117-2.637 12.103-.134c.281-.027.563-.216.563-.43zm-18.537-7.478c-.12 0-.281-.054-.321-.135-.121-.188-2.654-4.385-2.815-4.627-.04-.108.04-.242.201-.296.161-.027.362.027.442.134.08.189 2.051 3.39 2.775 4.6.08.108 0 .243-.201.297 0 .027-.04.027-.08.027zm6.794-.324h-.12c-.16-.053-.281-.16-.2-.295l3.618-6.887a.408.408 0 01.442-.135c.161.054.282.162.201.296l-3.618 6.887c-.04.081-.202.135-.322.135zm5.189 2.826c-.08 0-.12 0-.201-.027-.161-.08-.201-.215-.08-.323.24-.242 6.232-3.954 8.041-5.057a.51.51 0 01.483 0 .19.19 0 010 .322c-3.056 1.884-7.68 4.762-7.962 4.977-.04.081-.16.108-.281.108zm-16.607.349a.432.432 0 01-.241-.08l-4.624-3.175a.19.19 0 010-.323c.12-.08.362-.08.482 0l4.624 3.174a.19.19 0 010 .323c-.04.054-.12.08-.241.08z" fill="#876FF2" fill-opacity=".5"/><path d="M22.467 64.536h-.04l-11.018-1.13c-.2-.027-.321-.135-.281-.27.04-.134.2-.214.402-.188l11.017 1.13c.201.027.322.135.282.27-.04.107-.201.188-.362.188zm-9.69 7.532c-.12 0-.241-.027-.282-.107-.08-.108-.04-.242.12-.323l8.968-3.659a.512.512 0 01.482.08c.08.108.04.243-.12.324l-8.967 3.658c-.08.027-.161.027-.201.027zm7.639 3.417c-.08 0-.16-.027-.241-.054-.16-.08-.16-.242-.04-.323l5.227-3.9c.12-.108.362-.108.483-.027.16.08.16.242.04.322l-5.228 3.901c-.04.054-.16.081-.24.081zm9.087 4.385h-.08c-.201-.027-.322-.134-.281-.269l1.568-5.515c.04-.135.2-.215.402-.188.2.027.322.134.281.269l-1.568 5.515c0 .107-.16.188-.322.188zm11.38-1.05c-.12 0-.281-.053-.321-.134l-3.137-5.03c-.08-.108 0-.243.201-.297.161-.053.362 0 .443.135l3.136 5.03c.08.108 0 .243-.201.297-.04-.027-.08 0-.12 0zm5.469-4.142a.562.562 0 01-.282-.08l-3.86-3.095c-.12-.107-.12-.242.04-.322.161-.081.362-.081.483.026l3.86 3.094c.12.108.12.242-.04.323a.398.398 0 01-.201.054zm4.583-5.918h-.04l-4.745-.485c-.2-.027-.321-.135-.281-.269.04-.135.201-.215.402-.188l4.745.484c.2.027.321.134.281.269-.04.108-.16.188-.362.188zm-4.704-5.516c-.16 0-.281-.054-.322-.161-.08-.108.04-.243.201-.296l5.83-1.372a.433.433 0 01.443.134c.08.108-.04.242-.201.296l-5.83 1.372c-.04.027-.08.027-.12.027zm-14.354-8.716c.4 0 .724-.217.724-.484 0-.268-.324-.484-.724-.484-.4 0-.724.216-.724.484 0 .267.324.484.724.484zm10.212 1.856c.4 0 .724-.217.724-.484 0-.268-.324-.484-.724-.484-.4 0-.724.216-.724.484 0 .267.324.484.724.484zm7.721 3.578c.4 0 .723-.217.723-.485 0-.267-.324-.484-.723-.484-.4 0-.724.217-.724.484 0 .268.324.485.724.485zm-3.178 11.461c.4 0 .724-.217.724-.485 0-.267-.324-.484-.724-.484-.4 0-.724.217-.724.484 0 .268.324.485.724.485zm-20.346 4.573c.4 0 .724-.217.724-.484 0-.268-.324-.485-.724-.485-.4 0-.724.217-.724.485 0 .267.325.484.724.484zm6.594-23.701c.29 0 .523-.157.523-.35 0-.193-.234-.35-.522-.35-.289 0-.523.157-.523.35 0 .193.234.35.523.35zm-12.504 8.878c.288 0 .522-.157.522-.35 0-.193-.234-.35-.522-.35-.289 0-.523.157-.523.35 0 .193.234.35.523.35zm22.396 15.146c.289 0 .523-.157.523-.35 0-.193-.234-.35-.523-.35-.288 0-.522.157-.522.35 0 .193.234.35.522.35zm6.072-5.299c.289 0 .523-.157.523-.35 0-.194-.234-.35-.523-.35-.288 0-.522.156-.522.35 0 .193.234.35.522.35zm-14.676 7.882c.288 0 .522-.157.522-.35 0-.193-.234-.35-.522-.35-.289 0-.523.157-.523.35 0 .193.234.35.523.35zM22.99 55.362c.288 0 .522-.157.522-.35 0-.193-.234-.35-.523-.35-.288 0-.522.157-.522.35 0 .193.234.35.522.35zm-4.665 17.46c.288 0 .522-.157.522-.35 0-.193-.234-.35-.522-.35-.288 0-.522.157-.522.35 0 .193.233.35.522.35zm103.74 11.245c-.081-.135-2.976-4.897-2.976-5.112.04-.215.241-.188.483-.054.241.135 4.463 4.547 4.624 4.466.161-.08 2.01-3.363 2.171-3.336.161.027-.603 3.551-.442 3.632.161.08 7.479-1.775 7.559-1.641.121.134-6.795 2.825-6.634 3.094.16.269 5.307 1.587 5.307 1.748 0 .162-5.83-.78-5.87-.645-.081.161 3.136 4.735 3.096 4.896-.04.162-.322.188-.523.108-.201-.081-4.182-4.412-4.262-4.412-.081 0-1.769 3.793-1.93 3.874-.161.08-.442 0-.442-.216 0-.242.804-3.47.723-3.605-.08-.134-7.278 1.964-7.398 1.91-.121-.026-.241-.188.08-.376.362-.188 5.911-2.771 5.951-2.906.04-.134-4.745-1.506-4.865-1.64-.121-.135-.201-.27.322-.27.522 0 4.865.727 4.945.7.161-.054.161-.108.081-.215zm-65.661 57.329c-.765-.807-1.77-1.479-2.936-2.044a13.328 13.328 0 00-4.02-1.157c-1.488-.188-2.936-.215-4.383-.027-1.408.188-2.735.538-3.9 1.049a10.494 10.494 0 00-3.057 1.964c-.844.807-1.447 1.695-1.729 2.69a4.87 4.87 0 00-.04 2.933c.282.941.804 1.829 1.568 2.609.764.807 1.77 1.48 2.936 2.045 1.206.565 2.533.968 4.02 1.157 1.448.215 2.936.215 4.383.027 1.408-.189 2.734-.538 3.9-1.05a10.49 10.49 0 003.056-1.963c.845-.808 1.448-1.695 1.73-2.691a4.866 4.866 0 00.04-2.932c-.242-.915-.764-1.803-1.569-2.61zm-1.006 7.856a9.67 9.67 0 01-2.774 1.776c-1.086.484-2.292.807-3.579.968a15.201 15.201 0 01-3.98-.027c-1.327-.188-2.574-.538-3.66-1.076-1.045-.511-1.97-1.13-2.653-1.856-.724-.727-1.207-1.534-1.448-2.395a4.621 4.621 0 01.04-2.663c.282-.888.804-1.722 1.609-2.448a9.65 9.65 0 012.774-1.776c1.086-.484 2.292-.807 3.579-.968a15.115 15.115 0 013.98.027c1.327.188 2.574.538 3.66 1.076l.08.054a8.745 8.745 0 00-1.327-.269c-3.82-.538-7.56 1.076-8.404 3.631-.804 2.556 1.609 5.058 5.429 5.623 3.82.538 7.559-1.076 8.403-3.632.04-.08.04-.161.08-.242.04.592-.04 1.184-.2 1.776-.282.861-.845 1.668-1.609 2.421zm42.984 37.367c-.081-.161-2.172-6.429-2.051-6.671.08-.242.362-.189.603 0 .281.188 4.101 6.214 4.343 6.133.241-.08 3.498-3.847 3.699-3.793.201.054-1.85 4.278-1.649 4.385.161.108 9.731-1.13 9.811-.968.081.161-9.208 2.529-9.087 2.878.121.35 6.031 2.691 5.991 2.879-.08.188-6.916-1.776-7.036-1.587-.121.188 2.412 6.268 2.291 6.456-.12.189-.442.189-.643.054-.201-.134-3.78-5.972-3.9-5.999-.121-.027-3.338 4.412-3.539 4.493-.2.08-.522-.054-.442-.323.08-.296 2.05-4.17 2.01-4.305-.04-.161-9.53 1.399-9.65 1.345-.16-.053-.24-.269.242-.457s8.122-2.609 8.202-2.744c.12-.134-5.388-2.502-5.468-2.69-.08-.162-.161-.35.482-.269.603.08 5.75 1.587 5.87 1.533.121-.054 0-.188-.08-.35zM80.608 89.178c-.764-1.99-1.769-3.658-5.548-4.035 3.498-.484 5.026-1.937 5.388-4.224.723 2.072 1.85 3.767 5.589 4.17-3.499.458-4.986 1.883-5.429 4.09zm-10.814-4.869c-.603-1.641-1.488-3.013-4.584-3.336 2.855-.404 4.142-1.587 4.423-3.497.603 1.694 1.528 3.093 4.624 3.443-2.855.377-4.101 1.56-4.463 3.39zm35.423 61.715c.111 0 .2-.06.2-.135 0-.074-.089-.134-.2-.134-.111 0-.201.06-.201.134 0 .075.09.135.201.135zm-2.614-16.303v.027c.08.161.362.242.603.188.241-.054.362-.242.282-.403l-2.533-4.735h-.041s-.04 0 0 .027l1.689 4.896zm.684.484l-.08.188-.201.135.281.054.201.134.08-.188.201-.135-.281-.053s-.04 0-.04-.027l-.161-.108zm-4.223 1.049c.04 0 .04 0 0 0 .242.135.523.108.684 0 .16-.135.12-.323-.04-.43l-5.71-3.256h-.04v.027l5.106 3.659zm1.247.539l.281.053-.08-.188.08-.188-.281.054h-.041l-.28-.054.08.188-.08.188.321-.053zm-3.096 1.963c.241.027.483-.081.523-.242.04-.162-.12-.323-.362-.35l-7.358-.888h-.04v.027l7.157 1.453h.08zm1.447-.35l-.201.135s-.04 0-.04.027l-.281.053.2.135.08.188.202-.134.281-.054-.2-.135-.041-.215zm-1.246 3.121c.241-.053.362-.242.282-.403-.08-.162-.362-.242-.604-.188l-7.076 1.694v.027s0 .027.04 0l7.318-1.13c0 .027.04.027.04 0zm.924-.592c0 .027 0 .027 0 0l-.24.162.28.054.202.134.08-.188.2-.135-.28-.054-.201-.134-.04.161zm1.367 2.959c.161-.134.12-.322-.04-.43a.676.676 0 00-.643.027l-4.866 3.82v.027h.04l5.51-3.444c-.041 0-.041 0 0 0zm.523-.968l-.28-.054.08.188v.027l-.08.189.28-.054.282.054-.081-.189.081-.188-.282.027zm2.816 1.883c-.241-.027-.483.081-.523.242l-1.327 4.924v.026h.04l2.172-4.788v-.027c.04-.188-.121-.35-.362-.377zm.361-.807l-.201.135-.281.054.201.134s0 .027.04.027l.08.188.201-.134.281-.054-.201-.134-.12-.216zm4.183 1.05v-.027c-.08-.162-.362-.242-.603-.189-.241.054-.362.243-.282.404l2.534 4.735h.04s.04 0 0-.027l-1.689-4.896zm-.685-.512l.08-.188.201-.134-.281-.054-.201-.135-.08.189-.201.134.281.054s.04 0 .04.027l.161.107zm4.223-1.022c-.04 0-.04 0 0 0-.242-.134-.523-.107-.684 0-.161.135-.12.323.04.431l5.71 3.255h.04v-.027l-5.106-3.659zm-1.247-.538l-.281-.054.08.189-.08.188.281-.054h.04l.281.054-.08-.188.08-.189-.321.054zm10.334-.511l-7.158-1.453h-.04c-.241-.027-.482.081-.523.242-.04.161.121.323.362.35l7.359.887v-.026c0 .026 0 0 0 0zm-8.484-1.237c0-.027.04-.027 0 0l.321-.054-.2-.135-.081-.188-.201.134-.281.054.201.135.08.188.161-.134zm1.046-3.014c-.241.054-.362.242-.281.404.08.161.361.242.603.188l7.076-1.695v-.027s0-.027-.04 0l-7.318 1.13h-.04zm-1.207.242l-.08.189-.201.134.281.054.201.135.08-.189s0-.027.041-.027l.201-.134-.282-.054-.241-.108zm-1.086-2.582c-.161.134-.12.322.04.43a.677.677 0 00.644-.027l4.865-3.82v-.027h-.04l-5.509 3.444c.04 0 .04 0 0 0zm-.563.941l.281.054-.08-.188v-.027l.08-.188-.281.054-.281-.054.08.188-.08.188.281-.027zm-2.774-1.856c.242.027.483-.081.523-.242l1.327-4.923v-.027h-.04l-2.172 4.789v.027c-.04.188.121.349.362.376zm-.363.807l.201-.134.281-.054-.2-.134s0-.027-.041-.027l-.08-.189-.201.135-.281.054.201.134.12.215zm.845 7.156c.04.027.08.054.161.054.04 0 .04 0 .08-.027.081-.027.121-.107.081-.161v-.027c.683-.296 1.246-.673 1.688-1.13l.041.027c.04 0 .04.027.08.027a.38.38 0 00.161-.054c.04-.054 0-.134-.081-.161l-.04-.027c.362-.458.603-.969.603-1.534h.041c.08 0 .16-.054.16-.107 0-.054-.08-.108-.16-.108h-.041a2.808 2.808 0 00-.603-1.533l.04-.027c.081-.027.121-.108.081-.162-.04-.054-.161-.08-.241-.054l-.041.027c-.442-.457-1.005-.834-1.688-1.13l.04-.026c.04-.054 0-.135-.081-.162-.08-.027-.201 0-.241.054l-.04.027a6.826 6.826 0 00-2.292-.404v-.027c0-.053-.08-.107-.161-.107-.08 0-.161.054-.161.107v.027c-.804.027-1.608.162-2.292.404l-.04-.027c-.04-.054-.161-.081-.241-.054-.08.027-.121.108-.08.162l.04.026a5.135 5.135 0 00-1.689 1.103l-.04-.026c-.081-.027-.201 0-.241.053-.041.054 0 .135.08.162l.04.027c-.362.457-.603.968-.603 1.533h-.04c-.08 0-.161.054-.161.108s.08.107.16.107h.041c.04.565.241 1.076.603 1.534l-.04.027c-.08.027-.121.107-.08.161.04.027.08.054.16.054.041 0 .041 0 .081-.027l.04-.027c.402.457 1.005.834 1.689 1.13l-.04.027c-.041.054 0 .134.08.161.04 0 .04.027.08.027a.375.375 0 00.161-.054l.04-.026a6.826 6.826 0 002.292.403v.027c0 .054.081.108.161.108.081 0 .161-.054.161-.108v-.027c.804.027 1.608-.134 2.292-.35zm-7.157-3.093c0-1.722 2.091-3.148 4.704-3.148 2.574 0 4.705 1.399 4.705 3.148 0 1.721-2.091 3.147-4.705 3.147-2.613 0-4.704-1.426-4.704-3.147z" fill="#876FF2" fill-opacity=".5"/><path d="M107.549 134.967c-.242-.027-.965-.081-1.368-.377.322-.296.925-.565 1.126-.645.081-.027 0-.162-.161-.108-.16.081-.683.35-1.206.377-.161-.484-.04-1.049-.161-1.076-.12 0-.201.565-.603.914-.603-.269-1.085-.726-1.206-.645-.121.054.482.538.563.968a3.681 3.681 0 01-1.287.108c-.442-.054-.241.161-.121.188.121 0 .805.054 1.247.242a1.942 1.942 0 01-.764.646c-.362.188 0 .242.121.188.08-.054.522-.296.965-.403.04.403-.081.887.04.941.121.054.201.054.281-.161.041-.135.121-.484.322-.753.523.242 1.045.753 1.166.726.121-.027.241-.054.04-.242-.12-.135-.522-.484-.603-.807.563-.081 1.367.027 1.568.054.161.026.242-.108.041-.135zm21.272-54.72c-.081 0-.121 0-.201-.027-.322-.081-.483-.296-.402-.511l.12-.27c.121-.215.443-.322.764-.268.322.08.483.295.402.51l-.12.27c-.04.188-.282.296-.563.296zm.884-1.803c-.08 0-.12 0-.201-.027-.321-.08-.482-.296-.402-.51l.724-1.534c.04-.054.04-.081.081-.108 0-.054 0-.08.04-.135l.724-1.533c.12-.215.442-.323.764-.269.321.08.482.296.402.511l-.724 1.534c-.04.053-.04.08-.081.107 0 .054 0 .08-.04.135l-.724 1.533c-.08.189-.321.296-.563.296zm2.333-4.87c-.081 0-.121 0-.201-.026-.322-.08-.483-.296-.402-.511l.12-.27c.121-.215.442-.322.764-.268.322.08.483.296.402.51l-.12.27c-.081.188-.282.296-.563.296zm.884-1.775c-.08 0-.12 0-.201-.027-.321-.08-.482-.296-.402-.51l.724-1.534c.04-.054.04-.081.08-.135 0-.054 0-.08.041-.134l.723-1.534c.121-.215.443-.323.764-.269.322.08.483.296.402.511l-.723 1.534c-.041.054-.041.08-.081.134 0 .054 0 .081-.04.135l-.724 1.533c-.08.189-.321.296-.563.296zm2.332-4.87c-.08 0-.12 0-.201-.026-.321-.08-.482-.296-.402-.511l.121-.27c.121-.215.442-.322.764-.268.322.08.482.296.402.51l-.121.27c-.08.188-.321.296-.563.296zm.885-1.802c-.08 0-.121 0-.201-.026-.322-.081-.483-.296-.402-.512l.724-1.533c.04-.054.04-.08.08-.108 0-.054 0-.08.04-.134l.724-1.534c.121-.215.442-.322.764-.269.322.081.483.296.402.511l-.724 1.534c-.04.054-.04.08-.08.108 0 .053 0 .08-.04.134l-.724 1.533c-.08.189-.322.296-.563.296zM63.078 77.583a1.04 1.04 0 01-.281-.053l-2.091-.78c-.08-.028-.12-.055-.16-.081-.081 0-.121-.027-.202-.054l-2.09-.78c-.282-.108-.403-.35-.242-.538.16-.189.523-.27.804-.162l2.091.78c.08.027.12.054.16.081.081 0 .121.027.202.054l2.09.78c.282.108.403.35.242.538a.716.716 0 01-.523.215zm-6.674-2.475a1.04 1.04 0 01-.282-.053l-.362-.135c-.281-.108-.402-.35-.241-.538.16-.188.523-.27.804-.162l.362.135c.282.108.402.35.241.538a.716.716 0 01-.522.215zm-2.453-.914c-.08 0-.201-.027-.282-.054l-2.09-.78a.588.588 0 01-.161-.081c-.08 0-.12-.027-.201-.054l-2.091-.78c-.282-.108-.402-.35-.241-.538.16-.188.522-.27.804-.161l2.09.78a.554.554 0 01.161.08c.08 0 .121.027.202.054l2.09.78c.282.108.402.35.242.538a.716.716 0 01-.523.216zm62.725 12.348h-.12c-.322 0-.603-.189-.563-.43 0-.216.322-.404.643-.377h.081c.321 0 .603.188.563.43 0 .215-.282.377-.604.377zm-2.493-.081s-.04 0 0 0l-2.452-.08c-.081 0-.121 0-.201-.028-.081 0-.121.027-.201.027l-2.413-.08c-.322 0-.603-.189-.563-.43 0-.216.282-.404.643-.377l2.413.08c.08 0 .121 0 .201.027.08 0 .121-.027.201-.027l2.413.08c.321 0 .603.19.563.431-.041.216-.282.377-.604.377zm-7.639-.242h-.443c-.321 0-.603-.188-.563-.43 0-.216.282-.404.644-.377h.402c.322 0 .603.188.563.43 0 .215-.282.377-.603.377zm-2.815-.08l-2.453-.082c-.08 0-.12 0-.201-.026-.08 0-.12.026-.201.026l-2.412-.08c-.322 0-.603-.189-.563-.43 0-.216.281-.404.643-.377l2.413.08c.08 0 .12 0 .201.027.08 0 .12-.027.201-.027l2.412.081c.322 0 .603.188.563.43 0 .216-.281.377-.603.377zm-7.64-.243h-.442c-.322 0-.603-.188-.563-.43 0-.216.281-.404.643-.377h.402c.322 0 .604.188.563.43 0 .216-.281.377-.603.377zm-2.814-.08l-2.453-.081c-.08 0-.12 0-.201-.027-.08 0-.12.027-.201.027l-2.413-.081c-.322 0-.603-.188-.563-.43 0-.216.322-.404.644-.377l2.412.08c.08 0 .12 0 .201.027.08 0 .12-.026.201-.026l2.413.08c.322 0 .603.189.563.43 0 .216-.282.377-.603.377zm55.086 64.539c-.08 0-.201-.027-.281-.054l-.362-.134c-.281-.108-.402-.35-.281-.539.16-.188.522-.269.804-.188l.362.135c.281.107.402.349.281.538a.65.65 0 01-.523.242zm-2.533-.861c-.08 0-.201-.027-.281-.054l-2.131-.726a.578.578 0 01-.161-.081c-.081 0-.121-.027-.201-.054l-2.131-.726c-.282-.108-.402-.35-.282-.538.161-.188.523-.269.804-.188l2.131.726a.578.578 0 01.161.081c.081 0 .121.026.201.053l2.131.727c.282.107.403.349.282.538-.081.161-.282.242-.523.242zm-6.795-2.341a1.04 1.04 0 01-.282-.053l-.362-.135c-.281-.108-.402-.35-.281-.538.161-.188.523-.269.804-.161l.362.134c.282.108.402.35.282.538-.081.162-.282.215-.523.215zm-2.493-.834a1.04 1.04 0 01-.282-.053l-2.131-.727c-.08-.027-.12-.054-.161-.08-.08 0-.12-.027-.201-.054l-2.131-.727c-.281-.107-.402-.349-.281-.538.161-.188.523-.269.804-.188l2.131.726a.578.578 0 01.161.081c.08 0 .121.027.201.054l2.131.726c.282.108.402.35.282.538-.081.162-.322.242-.523.242zm-6.795-2.34c-.081 0-.202-.027-.282-.054l-.362-.134c-.281-.108-.402-.35-.281-.538.161-.189.522-.269.804-.189l.362.135c.281.107.402.349.281.538-.08.161-.321.242-.522.242zm-2.493-.861c-.081 0-.202-.027-.282-.054l-2.131-.726a.592.592 0 01-.161-.081c-.08 0-.12-.027-.201-.054l-2.131-.726c-.281-.108-.402-.35-.281-.538.16-.188.522-.269.804-.188l2.131.726c.08.027.12.054.161.081.08 0 .12.027.201.054l2.131.726c.281.107.402.35.281.538a.646.646 0 01-.522.242zm-6.796-2.34c-.08 0-.201-.027-.281-.054l-.362-.135c-.282-.107-.402-.35-.282-.538.161-.188.523-.269.805-.161l.361.134c.282.108.403.35.282.538a.716.716 0 01-.523.216zm-2.533-.861c-.08 0-.201-.027-.281-.054l-2.132-.727c-.08-.026-.12-.053-.16-.08-.081 0-.121-.027-.201-.054l-2.132-.726c-.281-.108-.402-.35-.281-.538.161-.189.523-.269.804-.189l2.131.727a.58.58 0 01.161.08c.081 0 .121.027.201.054l2.131.726c.282.108.402.35.282.539-.081.161-.282.242-.523.242zm-58.424 2.125c-.282 0-.523-.108-.603-.296-.08-.215.12-.43.442-.484l2.332-.404c.08 0 .12-.027.201 0a.398.398 0 01.201-.053l2.332-.404c.322-.054.644.081.724.296.08.215-.12.43-.442.484l-2.332.404c-.08 0-.121.027-.201 0a.398.398 0 01-.201.053l-2.333.404h-.12zm7.398-1.291c-.281 0-.522-.108-.603-.296-.08-.215.12-.431.443-.484l.402-.081c.321-.054.643.081.723.296.08.215-.12.43-.442.484l-.402.081h-.12zm2.735-.458c-.282 0-.523-.107-.604-.296-.08-.215.121-.43.443-.484l2.332-.403c.08 0 .12-.027.2 0a.397.397 0 01.202-.054l2.332-.404c.322-.053.643.081.724.296.08.215-.12.431-.442.484l-2.333.404c-.08 0-.12.027-.2 0a.398.398 0 01-.202.054l-2.332.403h-.12zm7.398-1.291c-.281 0-.523-.108-.603-.296-.08-.215.12-.43.442-.484l.402-.081c.322-.054.644.081.724.296.08.215-.12.431-.442.484l-.402.081h-.12zm2.694-.484c-.281 0-.523-.108-.603-.296-.08-.215.12-.431.442-.484l2.332-.404c.08 0 .121-.027.202 0a.397.397 0 01.2-.054l2.333-.403c.321-.054.643.08.723.296.08.215-.12.43-.442.484l-2.332.403c-.08 0-.12.027-.201 0a.397.397 0 01-.201.054l-2.332.404h-.12zm7.399-1.265c-.282 0-.523-.107-.604-.296-.08-.215.121-.43.443-.484l.402-.081c.322-.053.643.081.724.296.08.216-.121.431-.443.485l-.402.08h-.12zm2.734-.484c-.282 0-.523-.107-.603-.296-.08-.215.12-.43.442-.484l2.332-.404c.08 0 .12-.026.201 0a.408.408 0 01.201-.053l2.332-.404c.322-.054.644.081.724.296.08.215-.12.43-.442.484l-2.332.404c-.08 0-.12.027-.201 0a.397.397 0 01-.201.054l-2.332.403h-.121zm20.909 46.676c-.161 0-.322-.027-.442-.108-.242-.161-.242-.403 0-.565.04-.027.12-.081 2.09-.968a.401.401 0 01.201-.054c.041-.027.081-.081.161-.108l2.011-.914c.281-.135.643-.081.844.107.201.188.121.431-.161.565l-2.01.915a.398.398 0 01-.201.054c-.04.027-.081.08-.161.107-1.568.727-1.89.861-1.93.888-.121.027-.241.081-.402.081zm6.353-2.906c-.201 0-.402-.054-.483-.188-.201-.188-.12-.431.161-.565l.322-.161c.281-.135.643-.081.844.107.201.188.121.431-.161.565l-.321.162a.895.895 0 01-.362.08zm2.332-1.076c-.201 0-.402-.054-.482-.188-.202-.189-.121-.431.16-.565l2.011-.915a.395.395 0 01.201-.054c.04-.027.08-.08.161-.107l2.01-.915c.282-.134.644-.081.845.108.201.188.12.43-.161.565l-2.011.914a.395.395 0 01-.201.054c-.04.027-.08.081-.161.108l-2.01.914c-.121.081-.241.081-.362.081zm6.353-2.852c-.201 0-.402-.053-.482-.188-.201-.188-.121-.43.16-.565l.322-.161c.282-.135.643-.081.845.107.201.189.12.431-.161.565l-.322.162a.878.878 0 01-.362.08zm2.332-1.049c-.201 0-.402-.054-.482-.188-.201-.188-.121-.43.161-.565l2.01-.915a.398.398 0 01.201-.053c.04-.027.081-.081.161-.108l2.01-.915c.282-.134.644-.081.845.108.201.188.12.43-.161.565l-2.01.914a.402.402 0 01-.202.054c-.04.027-.08.081-.16.108l-2.011.915a.891.891 0 01-.362.08zm6.353-2.878c-.201 0-.402-.054-.482-.189-.201-.188-.121-.43.161-.565l.321-.161c.282-.135.644-.081.845.108.201.188.12.43-.161.565l-.322.161a.876.876 0 01-.362.081zm2.332-1.05c-.201 0-.402-.053-.482-.188-.201-.188-.121-.43.161-.565l2.01-.914a.401.401 0 01.201-.054c.041-.027.081-.081.161-.081l2.011-.915c.281-.134.643-.08.844.108.201.188.121.43-.161.565l-2.01.915a.409.409 0 01-.201.053c-.041.027-.081.081-.161.081l-2.011.915a.875.875 0 01-.362.08zm6.354-2.878c-.201 0-.402-.054-.483-.188-.201-.189-.121-.431.161-.565l.322-.162c.281-.134.643-.08.844.108.201.188.121.43-.161.565l-.322.161a.875.875 0 01-.361.081zm2.372-1.049c-.201 0-.402-.054-.483-.189-.201-.188-.12-.43.161-.565l.443-.188c.281-.134.643-.081.844.108.201.188.121.43-.161.565l-.442.188a.88.88 0 01-.362.081zM32.88 223.018c-.16 0-.361-.054-.482-.161-.2-.189-.16-.431.12-.565l1.89-.996a.391.391 0 01.161-.053c.04-.027.08-.081.121-.108l1.89-.995c.281-.135.643-.108.844.08.201.189.161.431-.12.565l-1.89.996a.379.379 0 01-.161.054c-.04.026-.08.08-.12.107l-1.89.996a.894.894 0 01-.362.08zm5.992-3.147c-.161 0-.362-.054-.483-.162-.2-.188-.16-.43.12-.565l.323-.161c.281-.135.643-.108.844.081.201.188.16.43-.12.565l-.322.161c-.08.054-.201.081-.362.081zm2.252-1.184c-.161 0-.362-.054-.483-.162-.201-.188-.16-.43.12-.564l1.89-.996a.379.379 0 01.161-.054c.04-.027.08-.08.12-.107l1.89-.996c.282-.134.644-.107.845.081.201.188.161.43-.12.565l-1.89.995a.379.379 0 01-.161.054c-.04.027-.08.081-.12.108l-1.89.995a.879.879 0 01-.362.081zm5.99-3.148c-.16 0-.361-.053-.482-.161-.2-.188-.16-.431.12-.565l.322-.161c.282-.135.644-.108.845.08.201.189.16.431-.12.565l-.322.162c-.08.053-.242.08-.362.08zm2.212-1.156c-.16 0-.362-.054-.482-.162-.201-.188-.161-.43.12-.565l1.89-.995a.379.379 0 01.161-.054c.04-.027.08-.081.12-.108l1.89-.995c.282-.135.644-.108.845.081.2.188.16.43-.12.565l-1.89.995a.379.379 0 01-.161.054c-.04.027-.08.081-.121.107l-1.89.996c-.08.054-.2.081-.362.081zm6.032-3.148c-.161 0-.362-.054-.483-.162-.2-.188-.16-.43.12-.564l.322-.162c.282-.134.644-.107.845.081.2.188.16.43-.12.565l-.323.161c-.08.054-.24.081-.361.081zm2.211-1.157c-.16 0-.362-.054-.482-.161-.201-.189-.161-.431.12-.565l1.89-.996a.377.377 0 01.16-.053c.041-.027.081-.081.122-.108l1.89-.995c.28-.135.643-.108.844.08.2.189.16.431-.12.565l-1.89.996a.391.391 0 01-.162.053c-.04.027-.08.081-.12.108l-1.89.995c-.08.054-.241.081-.362.081zm6.031-3.147c-.16 0-.361-.054-.482-.162-.201-.188-.16-.43.12-.565l.322-.161c.282-.135.644-.108.845.08.2.189.16.431-.12.565l-.323.162a.879.879 0 01-.362.081zm2.212-1.157c-.16 0-.362-.054-.483-.162-.2-.188-.16-.43.121-.565l1.89-.995a.379.379 0 01.16-.054c.041-.027.081-.081.121-.107l1.89-.996c.282-.134.644-.107.845.081.2.188.16.43-.12.565l-1.89.995a.379.379 0 01-.162.054c-.04.027-.08.081-.12.108l-1.89.995a.879.879 0 01-.362.081zm6.031-3.148c-.16 0-.362-.054-.482-.161-.201-.189-.16-.431.12-.565l.322-.162c.282-.134.644-.107.845.081.2.188.16.43-.121.565l-.322.161a.879.879 0 01-.362.081zm2.212-1.157c-.16 0-.362-.053-.483-.161-.2-.188-.16-.431.121-.565l1.89-.995a.379.379 0 01.16-.054c.04-.027.081-.081.121-.108l1.89-.995c.282-.135.643-.108.845.08.2.189.16.431-.121.565l-1.89.996a.379.379 0 01-.16.054c-.04.027-.081.08-.121.107l-1.89.996a.894.894 0 01-.362.08zm5.991-3.174c-.16 0-.362-.054-.482-.162-.201-.188-.161-.43.12-.565l.322-.161c.281-.134.643-.108.844.081.201.188.161.43-.12.565l-.322.161c-.08.054-.201.081-.362.081zm2.212-1.157c-.161 0-.362-.054-.483-.161-.2-.189-.16-.431.12-.565l1.89-.996a.379.379 0 01.161-.054c.04-.026.08-.08.121-.107l1.89-.996c.241-.134.643-.107.844.081.201.188.161.431-.12.565l-1.89.995a.379.379 0 01-.161.054c-.04.027-.08.081-.12.108l-1.89.995c-.08.054-.202.081-.362.081zm6.031-3.148c-.16 0-.362-.053-.483-.161-.2-.188-.16-.43.121-.565l.322-.161c.281-.135.643-.108.844.08.201.189.161.431-.12.565l-.322.162c-.08.054-.241.08-.362.08zm44.673-143.04c-.201 0-.402-.053-.523-.188-.04-.054-.322-.242-1.568-1.157-.04-.027-.081-.08-.121-.107-.04-.027-.12-.054-.161-.081-.482-.35-1.045-.727-1.648-1.184-.241-.161-.201-.43.04-.565.241-.161.643-.134.844.027.644.43 1.207.834 1.649 1.184.04.027.08.08.121.107.04.027.12.054.16.081 1.569 1.13 1.649 1.21 1.689 1.264.161.189.081.431-.201.566a.804.804 0 01-.281.053zm-5.227-3.766a.82.82 0 01-.443-.135l-.281-.188c-.241-.161-.201-.403 0-.565.241-.161.603-.134.844.027l.282.188c.241.162.201.404 0 .565a.756.756 0 01-.402.108zm-1.971-1.372a.817.817 0 01-.442-.135l-1.689-1.156c-.04-.027-.08-.081-.12-.108-.041-.027-.121-.054-.161-.08l-1.689-1.157c-.241-.162-.241-.404 0-.566a.796.796 0 01.844 0l1.689 1.157c.04.027.081.081.121.108.04.027.12.054.161.08l1.688 1.157c.242.162.242.404 0 .565-.12.108-.241.135-.402.135zm-5.307-3.686a.82.82 0 01-.443-.134l-.281-.189c-.241-.161-.241-.403 0-.564a.796.796 0 01.844 0l.282.188c.241.161.241.403 0 .565-.081.08-.241.134-.402.134zm-1.971-1.372a.82.82 0 01-.442-.134l-1.689-1.157c-.04-.027-.08-.08-.12-.108-.041-.027-.121-.053-.161-.08l-1.689-1.157c-.241-.162-.241-.404 0-.565a.796.796 0 01.844 0l1.689 1.157c.04.026.081.08.121.107.04.027.121.054.161.081l1.689 1.157c.241.161.241.403 0 .565-.081.107-.242.134-.403.134zm-5.307-3.685a.814.814 0 01-.442-.135l-.282-.188c-.241-.162-.241-.404 0-.565a.796.796 0 01.844 0l.282.188c.241.162.241.404 0 .565-.081.108-.241.135-.402.135zm-1.97-1.346a.82.82 0 01-.443-.134l-1.689-1.157c-.04-.027-.08-.08-.12-.108-.04-.026-.121-.053-.161-.08l-1.689-1.157c-.241-.161-.241-.404 0-.565a.798.798 0 01.845 0l1.688 1.157c.041.027.081.08.121.107.04.027.121.054.161.081l1.689 1.157c.241.161.241.404 0 .565-.081.08-.242.135-.402.135zm-5.308-3.685a.814.814 0 01-.442-.135l-.282-.188.402-.296.443-.269.281.188c.241.162.241.404 0 .565-.08.081-.241.135-.402.135zm-1.97-1.372a.82.82 0 01-.443-.135l-1.688-1.156c-.041-.027-.081-.081-.121-.108-.04-.027-.121-.054-.161-.08l-1.689-1.158c-.24-.161-.24-.403 0-.565a.797.797 0 01.845 0l1.689 1.157c.04.027.08.08.12.108.04.027.121.054.161.08l1.689 1.157c.241.162.241.404 0 .565-.081.108-.241.135-.402.135zm-5.308-3.686a.817.817 0 01-.442-.134l-.282-.189c-.241-.161-.241-.403 0-.565a.797.797 0 01.845 0l.281.189c.241.161.241.403 0 .565a.605.605 0 01-.402.134zm-1.97-1.345a.818.818 0 01-.443-.135l-1.688-1.156c-.04-.027-.08-.081-.12-.108a.588.588 0 01-.162-.08l-.2-.135c-.483-.323-.524-.377-.483-.565l.603.08.442-.268.322.215.2.134c.041.027.081.081.122.108.04.027.12.054.16.08l1.69 1.157c.24.162.24.404 0 .565-.162.054-.323.108-.443.108z" fill="#876FF2" fill-opacity=".5"/></svg>