<svg width="191" height="270" fill="none" xmlns="http://www.w3.org/2000/svg"><path d="M118.696 194.647c-.174-.051-4.523-12.274-4.841-12.275-.389.003 3.475 12.409 3.326 12.583-.149.174-7.089-10.624-7.267-10.191-.16.423 6.576 11.429 6.514 11.629-.062.199-7.26-1.233-7.23-.729.031.503 7.466 2.951 7.595 3.232.129.281-9.229 4.506-7.863 4.372 1.367-.134 8.527-2.216 8.69-1.916.145.311-3.014 8.161-2.805 8.231.225.1 4.735-5.946 4.922-5.782.187.164 1.041 9.154 1.19 8.98.131-.162.088-8.696.351-8.66.263.036 5.67 12.72 5.618 12.311-.053-.409-4.151-13.111-4.04-13.221.129-.121 6.277 5.828 6.447 5.601.094-.139-5.8-7.052-5.69-7.121.109-.068 7.675 2.218 7.594 1.666-.057-.326-8.018-4.053-8.018-4.053.131-.162 7.052-3.219 6.954-3.398-.098-.18-7.958 1.335-8.086 1.054-.129-.281 3.201-6.43 3.031-6.564-.171-.134-4.816 4.589-4.847 4.488-.015-.071-.863-9.587-1.035-9.68-.173-.093-.335 9.495-.51 9.443zm55.059 64.819c.129.281.231.78.348 1.309.134.559.108 1.54.244 2.057l.363 1.38c-.402-.109-1.736-1.482-2.034-1.939-.316-.445-1.28-1.407-1.333-1.414-.052-.007-.211-.029-.182.114.046.172.447.684.714 1.039.267.355.591 1.398.885 1.937.278.509.924 1.47.924 1.47l-1.146-.447c-1.146-.446-1.863-1.403-2.118-1.645-.237-.213-.597-.469-.722-.431-.126.039.094.263.315.445.206.153.643 1.044 1.028 1.526s1.077 1.213 1.531 1.732c.454.519.615.86.615.86-.125.039-.836-.279-1.677-.435-.857-.185-2.015-.383-2.242-.442-.211-.028-.272.171-.011.248.28.066.758.449 1.439 1.027.664.547 1.763 1.265 2.268 1.43.505.166.581.439.581.439-.129.121-1.726.682-2.026.669-.3-.013-1.034.609-1.22.805-.169.227-.009.609.218.266.227-.344 1.724.164 2.128.232.403.069 1.497.106 1.497.106s-.978.935-1.251 1.508c-.291.585-.789 1.058-.957 1.244-.038.064-.074.087-.076.128-.093.098-.131.162-.131.162s.042.256.225.1c.218-.137 1.403.246 1.973.129.555-.147 1.584-1.034 1.584-1.034s-.109 1.636-.349 2.269c-.158.38.07 2.408-.274 2.583-.343.176-.073.448.162.341.218-.137.952-.758 1.021-1.124.07-.365.99-1.987 1.136-2.078 0 0 .205.152.195.761-.027.62.244 2.058.504 2.98.259.923.424 1.583.409 1.914-.015.33.18.329.209.07.029-.26.214-1.622.312-2.648.097-.986.067-1.891.125-2.008 0 0 .234.295.523.958.288.663.669 1.63.962 2.21.292.581.86 1.309.936 1.583.076.274.203.596.261.479.059-.117-.026-.586-.135-.919-.109-.334-.695-1.453-.703-2.855l-.009-1.402s.592.996.924 1.47c.333.475 1.081 1.131 1.309 1.55.211.431.519 1.041.639 1.127.12.085.146-.091.149-.174.004-.083-.484-1.424-.78-1.922-.296-.498-.972-2.364-.968-2.849 0 0 .632.488 1.024.804.392.317 1.159.559 1.604.883.41.305.77.562.972.797.201.235.207.111.196-.043-.011-.154-.361-.617-.848-1.196s-1.872-2.403-2.088-2.709l-.216-.307s1.152.724 1.655.931c.503.207 1.539.361 1.768.378.228.017.319-.04.165-.144-.153-.145-.656-.352-1.15-.766-.51-.443-1.374-1.267-2.393-1.793 0 0 .881.049 1.293-.089.397-.168 1.054-.259 1.449.016.394.275.846.433.819.249-.027-.183-.63-.931-1.135-1.096-.505-.165-2.133-.913-2.369-1.167 0 0-.183-.246.369-.352a2.36 2.36 0 001.402-.919c.283-.42.394-.529.485-.586.057-.076-.005-.278-.149-.228-.161.061-1.777.23-2.514.131-.738-.1-.865-.422-.76-.408.018-.012.057-.076.113-.151l.255-.16c.13-.163.573-.962.791-1.501.236-.551.473-1.101.609-1.388.137-.286-.117-.529-.212-.389-.094.14-.287.1-.531.413-.243.314-.883.394-1.356.69-.472.297-.414.582-.436.676-.04.106-.242-.129-.116-.972s.77-2.614.849-2.783c.094-.14-.058-.286-.131-.24-.073.046-.202.167-.634.358-.433.191-.915.694-1.171 1.297-.257.604-.402.293-.402.293-.143-.352-.264-2.407-.254-3.016.009-.609-.445-1.53-.548-1.586-.138-.074-.128.482-.026.981.101.499-.161 1.227-.408 1.623-.248.396-.452 1.409-.452 1.409-.135-1.322-.542-2.514-.757-3.223-.2-.678-.225-1.306-.286-1.508-.062-.203-.102-.097-.166.144-.064.241-.241 1.437-.216 2.064.025.628.293 2.148.293 2.148l-.179-.33c-.18-.329-1.271-2.418-1.592-3.141-.321-.723-.599-1.232-.72-1.276-.233.065-.337.01-.208.291zM9.787 115.067c-.04.909.06 1.852.298 2.827a12.79 12.79 0 001.157 2.971c.523.958 1.138 1.818 1.848 2.538.676.701 1.41 1.286 2.152 1.664.76.408 1.491.631 2.196.671.723.029 1.401-.115 1.983-.48.581-.365 1.047-.898 1.362-1.618a6.045 6.045 0 00.53-2.383 9.975 9.975 0 00-.298-2.827 12.795 12.795 0 00-1.157-2.971c-.523-.958-1.139-1.818-1.848-2.538-.676-.701-1.41-1.286-2.152-1.664-.76-.408-1.491-.631-2.196-.671-.723-.029-1.401.115-1.983.48-.581.365-1.047.898-1.361 1.618-.313.679-.49 1.473-.53 2.383zm4.058-3.833c.652.033 1.331.25 2.005.591.69.37 1.339.888 1.963 1.541a11.274 11.274 0 011.681 2.321c.474.868.838 1.805 1.063 2.709.225.904.31 1.775.29 2.591-.036.826-.21 1.538-.502 2.164-.311.637-.722 1.136-1.249 1.467a3.077 3.077 0 01-1.804.449c-.653-.033-1.332-.25-2.006-.591-.69-.37-1.338-.888-1.963-1.541a11.262 11.262 0 01-1.68-2.321 11.568 11.568 0 01-1.064-2.709c-.016-.03.002-.041-.014-.071.127.322.256.603.419.902 1.372 2.515 3.719 3.776 5.245 2.818 1.527-.958 1.652-3.77.28-6.285-1.372-2.515-3.718-3.775-5.245-2.817l-.145.091c.245-.355.542-.661.905-.89.544-.3 1.15-.44 1.82-.419zM-4.51 128.021c.277.55.567 1.172.799 1.91.357 1.102.62 2.344.53 3.565-.046.632-.317 1.164-.637 1.606-.225.302-.483.544-.723.775-.442.398-.827.72-.907.931a.162.162 0 00.01.154c.18.329 1.12-.14 2.295-.355a5.027 5.027 0 011.662-.038c1.84.332 3.36 3.477 3.834 4.345.245.449.5.29.492.053a.221.221 0 00-.063-.161c-.314-.486-1.181-2.032-1.767-3.553a8.865 8.865 0 01-.495-1.578 3.9 3.9 0 01-.054-.368c.001-.041-.013-.112.007-.165-.012-1.721 1.671-2.616 2.202-3.03.256-.201.352-.382.376-.517.01-.207-.107-.375-.276-.55-.168-.176-.728.095-1.464.356l-.055.034c-.036.023-.072.046-.107.027-.036.023-.089.016-.125.039l-.055.034c-.036.023-.107.027-.143.05l-.037.023c-.054.034-.125.038-.18.072l-.018.012c-.07.004-.125.038-.196.043-.34.092-.678.143-1.03.124-1.359-.032-3.01-3.416-3.382-4.188l-.065-.119c-.243-.491-1.128-.86-.427.469zm96.722 103.167c-.275-.592 4.18-2.582 3.698-3.285-.465-.673-7.954-3.531-7.96-4.212-.022-.669 8.175 3.353 7.978 2.231-.198-1.122-3.76-6.847-3.378-7.086.382-.24 4.134 6.772 4.447 5.691.313-1.08-.152-9.27.402-9.015.554.255.317 7.962 1.246 8.906.542.545 4.263-2.072 4.552-1.409.307.652-3.045 2.112-3.167 4.037-.12 1.925 8.306 5.16 8.329 5.829.023.669-8.077-3.534-8.369-2.145-.292 1.389 3.739 7.301 3.386 7.683-.352.383-4.183-6.862-4.706-6.614-.976.492-.697 7.714-1.095 7.521-.676-.3.134-8.164-.889-9.01-1.433-1.151-4.182 1.459-4.475.878zM21.94 45.46c-.008-.196-5.466-3.805-6.42-4.572-.938-.779 6.72 3.42 6.727 3.254.007-.166-4.068-5.445-3.901-5.63.167-.186 4.423 4.619 4.53 4.592.107-.027-.504-7.722-.237-7.77.267-.046 1.087 7.718 1.245 7.74.14.033 1.947-6.406 2.2-6.164.222.183-1.172 6.885-1.088 6.994.083.108 3.56-2.957 3.624-2.837.082.15-2.678 3.81-2.715 3.833-.02.053 4.714 1.262 4.778 1.423.047.132-4.3.167-4.292.362-.007.166 5.722 4.408 5.735 4.52.013.113-5.643-3.01-5.783-3.042 0 0 3.972 6.028 3.895 6.156-.134.245-4.35-5.067-4.435-5.134-.087-.026 1.402 5.791 1.279 5.788-.195.002-2.202-5.691-2.324-5.736-.122-.044-1.834 6.657-1.946 6.808-.113.151.75-7.302.58-7.478-.169-.175-3.123 2.684-3.263 2.65-.14-.032 2.419-3.527 2.355-3.688-.063-.16-5.155-.864-5.271-1.032-.118-.127 4.718-.831 4.728-1.038zm67.89 174.585c.115.211.122.448.027.588-.113.152-.342.093-.51-.125l-1.324-1.793c-.168-.218-.208-.516-.095-.667.113-.152.342-.093.51.124l1.324 1.794c.035.019.051.049.068.079z" fill="#876FF2" fill-opacity=".5"/><path d="M88.06 217.638c.115.211.122.449.027.59-.114.152-.343.093-.511-.125l-1.196-1.599c-.168-.218-.209-.516-.095-.668.113-.152.343-.093.511.125l1.195 1.599c.035.018.052.048.068.078zm-2.39-3.238c.116.211.123.449.028.589-.113.152-.343.093-.511-.125l-.202-.278c-.169-.218-.209-.517-.095-.669.113-.151.342-.092.511.126l.202.278c.035.019.051.049.068.079zm-1.396-1.877c.115.211.123.449.027.59-.113.151-.343.092-.511-.126l-1.196-1.598c-.168-.218-.209-.517-.095-.668.114-.152.343-.093.511.125l1.196 1.598c.035.019.051.049.068.079zm-2.39-3.238c.116.211.124.449.028.589-.113.152-.342.093-.511-.125l-.202-.279c-.168-.218-.209-.516-.095-.668.114-.152.343-.093.511.125l.202.279c.035.018.051.049.068.079zm-2.182-3.173c.116.211.123.449.028.59-.114.152-.343.092-.512-.126l-1.197-1.599-.083-.151a.348.348 0 01-.119-.128l-1.197-1.599c-.169-.219-.209-.517-.095-.669.113-.152.343-.093.512.125l1.196 1.6.083.151a.336.336 0 01.12.127l1.196 1.6a.172.172 0 01.068.079zm-3.774-5.089c.116.211.123.449.028.59-.114.152-.343.093-.512-.125l-.202-.279c-.169-.218-.21-.517-.096-.669.114-.152.343-.092.512.126l.202.278c.019-.011.052.049.068.079zm-1.415-1.908c.116.211.123.449.028.59-.114.152-.343.093-.512-.126l-1.197-1.599-.083-.151a.34.34 0 01-.119-.128l-1.197-1.599c-.169-.219-.21-.517-.095-.669.113-.152.343-.093.512.125l1.196 1.6.083.151a.333.333 0 01.12.128l1.196 1.599c.035.019.051.049.068.079zm-3.774-5.089c.116.211.123.45.028.59-.114.152-.343.093-.512-.125l-.202-.279c-.169-.218-.21-.517-.096-.668.114-.152.343-.093.512.125l.202.278c.018-.011.051.049.068.079zm-1.415-1.908c.115.211.123.449.028.59-.114.152-.344.093-.513-.125l-1.196-1.6-.083-.151a.334.334 0 01-.12-.128l-1.196-1.599c-.169-.218-.21-.517-.096-.669.114-.152.344-.093.512.126l1.197 1.599.083.151a.341.341 0 01.12.128l1.196 1.599a.176.176 0 01.068.079zm-3.774-5.088c.115.211.123.449.028.589-.114.152-.344.093-.512-.125l-.202-.279c-.17-.218-.21-.516-.096-.668.114-.152.343-.093.512.125l.202.279c.018-.012.051.048.068.079zm-1.397-1.92c.116.211.123.449.028.59-.114.152-.343.092-.512-.126l-1.197-1.599-.083-.151a.35.35 0 01-.119-.128l-1.197-1.599c-.169-.219-.21-.517-.095-.669.113-.152.343-.093.512.125l1.196 1.6.083.151a.336.336 0 01.12.127l1.196 1.6c.017.03.052.049.068.079zm-3.774-5.089c.116.211.123.449.028.59-.114.152-.343.093-.512-.125l-.202-.279c-.169-.218-.21-.517-.096-.669.114-.152.343-.092.512.126l.202.278s.052.049.068.079zm-1.415-1.908c.116.211.123.449.028.59-.114.152-.343.093-.512-.126l-1.197-1.599-.083-.151a.342.342 0 01-.12-.128l-1.196-1.599c-.169-.219-.21-.517-.096-.669.114-.152.344-.093.513.125l1.196 1.6.083.151a.333.333 0 01.12.128l1.196 1.599a.176.176 0 01.068.079zm-3.774-5.089c.116.211.123.45.028.59-.114.152-.343.093-.512-.125l-.202-.279c-.17-.218-.21-.516-.096-.668.114-.152.343-.093.512.125l.202.278c.018-.011.051.049.068.079zm-1.415-1.908c.115.211.123.449.027.59-.113.152-.343.093-.511-.125l-1.197-1.6-.083-.151a.333.333 0 01-.12-.128l-1.196-1.599c-.169-.218-.21-.517-.096-.669.114-.152.344-.093.512.126l1.197 1.599.083.151a.342.342 0 01.12.128l1.196 1.599c.035.019.051.049.068.079zM50 166.028c.116.211.123.449.028.589-.114.152-.344.093-.512-.125l-.202-.279c-.17-.218-.21-.516-.096-.668.114-.152.343-.093.512.125l.202.279c.018-.012.051.048.068.079zm-1.415-1.909c.115.211.123.45.027.59-.113.152-.343.093-.512-.125l-1.196-1.6-.083-.151a.336.336 0 01-.12-.127l-1.196-1.6c-.169-.218-.21-.517-.096-.669.114-.152.343-.092.512.126l1.197 1.599.083.151a.348.348 0 01.119.128l1.197 1.599c.035.019.051.049.068.079zm-3.774-5.088c.115.211.123.449.027.589-.113.152-.343.093-.511-.125l-.203-.278c-.168-.219-.209-.517-.095-.669.114-.152.343-.093.512.125l.202.279c.035.018.051.049.068.079zm-1.397-1.92c.116.211.123.449.028.59-.114.152-.343.093-.512-.126l-1.197-1.599-.083-.151a.34.34 0 01-.12-.128l-1.196-1.599c-.169-.218-.21-.517-.096-.669.114-.152.344-.093.513.125l1.196 1.6.083.151a.334.334 0 01.12.128l1.196 1.599c.017.03.051.049.068.079zm-3.774-5.089c.116.211.123.45.028.59-.114.152-.343.093-.512-.125l-.202-.279c-.17-.218-.21-.516-.096-.668.114-.152.343-.093.512.125l.202.278s.051.049.068.079zm-1.399-1.878c.116.211.123.45.028.59-.114.152-.343.093-.512-.125l-1.197-1.6-.082-.151a.336.336 0 01-.12-.127l-1.197-1.6c-.168-.218-.209-.517-.095-.669.114-.152.343-.092.512.126l1.197 1.599.082.151a.35.35 0 01.12.128l1.196 1.599c.019-.011.035.019.068.079zm-3.79-5.118c.116.211.123.449.028.589-.114.152-.344.093-.512-.125l-.202-.279c-.17-.218-.21-.516-.096-.668.114-.152.343-.093.512.125l.202.279c.035.018.051.048.068.079zm-1.399-1.878c.116.211.123.449.028.589-.114.152-.343.093-.512-.125l-1.197-1.6-.082-.15a.348.348 0 01-.12-.128l-1.197-1.6c-.168-.218-.209-.516-.095-.668.113-.152.343-.093.512.125l1.197 1.599.082.151a.348.348 0 01.12.128l1.196 1.6c.019-.012.035.018.068.079zm-3.79-5.119c.115.211.123.449.027.589-.113.152-.343.093-.512-.125l-.201-.278c-.17-.219-.21-.517-.096-.669.114-.152.343-.093.512.125l.202.279c.035.018.051.049.068.079zm-1.399-1.878c.116.211.123.449.028.589-.114.152-.343.093-.512-.125l-1.197-1.6-.083-.15a.35.35 0 01-.119-.128l-1.197-1.6c-.169-.218-.21-.516-.095-.668.113-.152.343-.093.512.125l1.196 1.6.083.15a.348.348 0 01.12.128l1.196 1.6c.018-.012.035.018.068.079zm-3.79-5.119c.115.211.123.449.027.59-.113.152-.343.092-.512-.126l-.185-.248c-.169-.218-.21-.517-.096-.669.114-.152.343-.093.512.126l.186.248a.176.176 0 01.068.079zm-1.527-2.263c.116.21.123.448.028.588-.114.152-.342.093-.51-.125l-1.324-1.794c-.168-.217-.209-.515-.095-.667.113-.151.341-.093.51.125l1.324 1.794c.035.019.051.049.067.079zm-11.38-5.921c.162.296.165.612.018.783l-.932.901-.09.057c-.02.052-.037.063-.073.086l-.932.901c-.165.183-.474.058-.688-.245-.214-.303-.232-.688-.066-.872l.93-.901c.037-.022.055-.033.09-.056.02-.052.039-.063.075-.086l.93-.901c.166-.183.475-.059.69.244.015.03.032.06.048.089zm-2.943 2.916c.161.296.165.611.018.783l-.164.142c-.165.183-.475.059-.688-.244-.214-.303-.232-.689-.067-.872l.164-.142c.165-.183.474-.059.688.244l.049.089zm-1.079 1.073c.162.296.165.611.018.783l-.931.901-.09.056c-.02.052-.038.064-.074.086l-.931.901c-.166.183-.475.059-.689-.244-.214-.303-.231-.689-.066-.872l.931-.901.09-.056c.02-.052.038-.064.074-.086l.931-.901c.165-.183.475-.059.688.244l.049.089zm-2.943 2.915c.162.296.165.612.018.784l-.146.13c-.165.184-.474.059-.688-.244-.214-.303-.232-.689-.067-.872l.146-.131c.165-.183.475-.058.688.245l.049.088zm4.029-41.69c.032.06.063.162.078.234l.363 1.83a.551.551 0 01.011.154c.033.06.031.102.064.162l.394 1.932c.042.256-.073.45-.25.44-.194-.041-.396-.277-.457-.522L8.04 90.36a.551.551 0 01-.01-.154c-.033-.06-.032-.102-.064-.162l-.363-1.83c-.042-.256.073-.45.25-.44.142-.008.279.108.378.288zm1.21 5.98c.032.06.063.162.078.234l.056.328c.042.256-.073.449-.25.439-.194-.04-.396-.277-.456-.522l-.057-.327c-.042-.256.073-.45.25-.44.143-.008.28.108.378.288zm.433 2.23c.033.06.064.162.079.233l.394 1.932a.526.526 0 01.01.155c.034.06.032.101.065.161l.394 1.932c.042.256-.073.449-.25.439-.194-.04-.397-.276-.457-.521l-.394-1.932a.55.55 0 01-.01-.154c-.034-.06-.032-.102-.065-.162l-.394-1.932c-.042-.256.073-.449.25-.439.143-.008.296.138.378.288zm1.24 6.082c.034.06.065.161.08.233l.056.328c.042.256-.073.449-.25.439-.194-.04-.396-.277-.457-.521l-.056-.328c-.042-.256.073-.449.25-.439.142-.009.28.107.378.288zm.435 2.229c.033.06.064.162.079.233l.394 1.932c.014.072.012.113.01.155.033.06.032.101.064.161l.394 1.932c.042.256-.073.449-.25.439-.193-.04-.396-.276-.456-.521l-.394-1.932a.544.544 0 01-.011-.154c-.033-.06-.031-.102-.064-.162l-.394-1.932c-.042-.256.073-.449.25-.439.143-.008.296.138.378.288zm8.379-51.962c.097.178.122.402.047.53l-.132.201c-.096.18-.321.122-.489-.052-.183-.204-.223-.498-.145-.666l.131-.202c.096-.18.321-.122.489.052.05.048.083.108.099.137zm-.835 1.441c.097.179.122.402.046.53l-.113.19c-.096.18-.321.122-.489-.052-.184-.204-.223-.498-.145-.666l.113-.191c.096-.18.321-.122.489.052.05.048.066.078.099.137zm-.834 1.4c.098.178.123.402.047.53l-.72 1.208c-.02.053-.038.064-.074.087-.001.04-.021.093-.04.104l-.719 1.21c-.096.179-.32.12-.488-.053-.184-.204-.224-.498-.146-.666l.72-1.21c.02-.052.037-.063.073-.086.002-.04.022-.093.04-.104l.72-1.21c.096-.179.32-.12.488.053.033.06.067.078.1.137zm-2.29 3.83c.097.178.122.401.046.529l-.113.19c-.096.18-.321.122-.489-.052-.184-.204-.223-.498-.146-.666l.114-.19c.096-.18.321-.123.488.052a.55.55 0 01.1.137zm-.818 1.43c.098.178.123.401.047.529l-.72 1.209c-.02.052-.037.063-.074.086-.001.04-.021.093-.04.105l-.719 1.208c-.095.18-.32.122-.488-.052-.184-.204-.224-.498-.146-.666l.72-1.21c.02-.052.037-.063.073-.085.002-.041.022-.094.04-.105l.72-1.21c.095-.179.32-.12.488.053.035.019.067.078.1.137zm-2.272 3.818c.097.178.122.401.046.529l-.113.19c-.096.18-.321.122-.489-.052-.183-.204-.223-.498-.145-.666l.113-.191c.096-.18.321-.122.489.052a.48.48 0 01.099.138zm-.852 1.41c.098.18.123.403.047.53l-.72 1.209c-.02.052-.038.064-.074.086-.002.041-.021.094-.04.105l-.719 1.209c-.096.18-.32.122-.489-.052-.183-.204-.223-.498-.145-.667l.72-1.209c.02-.052.037-.063.073-.086.002-.041.022-.093.04-.105l.72-1.209c.095-.18.32-.121.488.053.05.048.067.078.1.137zM112.58 205.953c.113.208.138.431.028.539l-.261.363c-.112.15-.321.122-.486-.093-.166-.215-.223-.497-.112-.647l.262-.363c.111-.15.32-.121.486.094.034.018.066.077.083.107zm-1.013 1.511c.113.208.139.431.029.54l-.132.201c-.112.15-.32.122-.486-.093-.166-.215-.223-.497-.112-.647l.132-.202c.112-.15.321-.121.486.094.016.029.051.048.083.107zm-.933 1.302c.113.208.138.431.028.54l-.785 1.129c-.036.023-.038.064-.074.086-.002.041-.022.094-.058.116l-.785 1.13c-.112.15-.321.121-.486-.093-.166-.215-.224-.498-.112-.647l.786-1.13c.036-.023.038-.064.074-.086.001-.041.021-.094.057-.116l.786-1.13c.111-.15.32-.121.486.094.05.048.067.077.083.107zm-2.454 3.609c.113.208.138.431.028.54l-.131.202c-.112.15-.321.121-.486-.093-.166-.215-.223-.498-.112-.647l.132-.202c.112-.15.32-.122.486.093.034.018.05.048.083.107zm-.899 1.321c.113.208.138.431.028.539l-.785 1.13c-.036.023-.038.064-.074.086-.002.041-.022.094-.058.116l-.785 1.13c-.112.15-.321.121-.486-.094-.166-.214-.223-.497-.112-.647l.786-1.129c.036-.023.038-.064.074-.086.001-.041.021-.094.057-.116l.786-1.13c.112-.15.32-.121.486.093.034.019.05.048.083.108zm-2.47 3.58c.113.207.138.431.028.539l-.131.202c-.112.15-.321.122-.486-.093-.166-.215-.224-.497-.112-.647l.132-.202c.111-.15.32-.121.486.093.034.019.066.078.083.108zm-.917 1.331c.113.208.138.431.028.54l-.785 1.13c-.036.022-.038.063-.074.086-.002.041-.022.093-.058.116l-.785 1.129c-.112.15-.321.122-.487-.093-.165-.215-.223-.497-.111-.647l.786-1.13c.036-.022.037-.063.073-.086.002-.041.022-.093.058-.116l.786-1.129c.111-.15.32-.122.486.093.034.018.05.048.083.107zm60.569 43.123c.065.119.113.25.107.374-.011.248-.174.351-.381.24-.035-.019-.276-.149-1.47-.684-.034-.019-.085-.067-.12-.086-.052-.007-.087-.026-.121-.044l-1.47-.684a.71.71 0 01-.361-.617c-.007-.237.158-.38.365-.269l1.47.684c.034.018.085.067.12.085.052.007.087.026.121.044 1.229.555 1.452.696 1.504.703.088.026.171.134.236.254zm-4.668-2.171a.62.62 0 01.09.345c.007.236-.158.38-.365.269l-.259-.118c-.191-.081-.372-.369-.361-.617-.007-.237.158-.38.365-.269l.241.129c.106.015.223.141.289.261zm-1.711-.814a.62.62 0 01.09.345c.007.237-.158.38-.365.269l-1.469-.684a.465.465 0 01-.12-.085c-.053-.007-.087-.026-.122-.044l-1.469-.685c-.191-.081-.372-.369-.361-.616-.007-.237.158-.381.365-.27l1.47.684c.034.019.068.037.119.086.053.007.087.026.122.044l1.469.684a.701.701 0 01.271.272zm-4.652-2.14a.617.617 0 01.09.344c.007.237-.158.381-.365.27l-.241-.13c-.191-.081-.372-.369-.361-.617-.007-.236.158-.38.365-.269l.259.118a.968.968 0 01.253.284zm-1.73-.803c.066.12.097.221.091.345.007.237-.158.38-.365.269l-1.47-.684a.48.48 0 01-.119-.085c-.053-.007-.087-.026-.122-.045l-1.469-.684c-.191-.081-.372-.369-.361-.617-.007-.236.158-.38.365-.269l1.469.684c.035.019.069.037.12.086.053.007.087.026.122.044l1.469.684c.122.044.205.153.27.272zm-4.634-2.152c.066.12.097.221.091.345.007.237-.158.38-.365.269l-.241-.129c-.191-.082-.372-.37-.361-.617-.007-.237.158-.381.365-.27l.241.13a.692.692 0 01.27.272zm-1.712-.772a.618.618 0 01.09.345c.007.236-.158.38-.365.269l-1.469-.684c-.035-.019-.069-.037-.12-.086-.053-.007-.087-.026-.122-.044l-1.469-.684c-.191-.081-.372-.369-.361-.617-.007-.237.158-.38.365-.269l1.469.684a.465.465 0 01.12.085.342.342 0 01.122.045l1.469.684a.688.688 0 01.271.272zm-4.652-2.141a.62.62 0 01.09.345c.007.236-.158.38-.365.269l-.241-.13c-.191-.081-.372-.369-.361-.617-.007-.236.158-.38.365-.269l.241.13c.122.044.205.152.271.272zm-1.695-.784a.62.62 0 01.09.345c.008.237-.158.38-.364.269l-1.47-.684c-.035-.018-.085-.067-.12-.085a.312.312 0 01-.121-.045l-1.47-.684c-.191-.081-.372-.369-.361-.617-.007-.236.158-.38.365-.269l1.47.684c.034.019.085.067.119.086.053.007.087.026.122.044l1.47.684c.087.026.205.153.27.272zm-4.652-2.14c.065.119.096.22.09.344.007.237-.158.381-.365.27l-.241-.13c-.19-.081-.372-.369-.361-.617-.007-.236.158-.38.365-.269l.26.118c.087.026.186.164.252.284zm-1.711-.814a.62.62 0 01.09.345c.007.236-.158.38-.365.269l-1.469-.684c-.035-.019-.086-.067-.12-.086a.324.324 0 01-.122-.044l-1.469-.684c-.191-.081-.372-.369-.361-.617-.007-.236.158-.38.365-.269l1.469.684a.465.465 0 01.12.085.342.342 0 01.122.045l1.469.684a.688.688 0 01.271.272zm-4.652-2.141a.62.62 0 01.09.345c.007.236-.158.38-.365.269l-.241-.13c-.191-.081-.372-.369-.361-.616-.007-.237.158-.381.365-.27l.259.119a.976.976 0 01.253.283zm-1.713-.772a.618.618 0 01.09.345c.007.236-.158.38-.365.269l-1.469-.684c-.035-.019-.085-.067-.12-.086-.053-.007-.087-.026-.122-.044l-1.469-.684c-.191-.081-.372-.369-.361-.617-.007-.237.158-.38.365-.269l1.47.684c.034.018.085.067.119.085.053.007.087.026.122.045l1.469.684c.122.044.205.152.271.272zm-4.634-2.152a.617.617 0 01.09.344c.007.237-.158.381-.365.27l-.259-.119c-.191-.081-.372-.369-.361-.617-.007-.236.158-.38.365-.269l.259.119a.688.688 0 01.271.272zm-1.713-.773a.63.63 0 01.091.345c.007.236-.159.38-.365.269l-1.47-.684a.465.465 0 01-.12-.085.336.336 0 01-.121-.045l-1.47-.684c-.191-.081-.372-.369-.361-.617-.007-.236.158-.38.365-.269l1.47.684c.034.019.069.037.119.086a.318.318 0 01.122.044l1.47.684c.087.026.188.123.27.272zm-4.669-2.17a.61.61 0 01.091.344c.007.237-.158.381-.365.27l-.259-.119c-.191-.081-.372-.369-.361-.617-.007-.236.158-.38.365-.269l.259.119a.68.68 0 01.27.272zm-1.712-.773a.62.62 0 01.09.345c.007.236-.158.38-.365.269l-1.469-.684a.465.465 0 01-.12-.085.342.342 0 01-.122-.045l-1.469-.684c-.191-.081-.372-.369-.361-.617-.007-.236.158-.38.365-.269l1.469.684c.035.019.069.037.12.086a.324.324 0 01.122.044l1.469.684c.122.044.205.153.271.272zm57.685 19.525c.099.181.124.407.048.536-.097.182-.31.153-.496-.053l-1.307-1.446c-.051-.048-.067-.078-.1-.139-.035-.018-.086-.067-.121-.086l-1.306-1.445c-.187-.206-.246-.493-.149-.675.097-.182.309-.153.496.054l1.307 1.445c.051.049.067.079.1.139.035.019.086.067.121.086l1.306 1.445c.033.06.068.079.101.139zm-4.139-4.602c.099.181.125.407.048.536-.097.182-.309.153-.496-.053l-.203-.237c-.187-.206-.245-.493-.148-.675.097-.182.309-.153.495.053l.204.237c.016.03.067.079.1.139zm-1.544-1.7c.099.18.124.407.047.536-.097.181-.309.153-.495-.054l-1.307-1.445a.451.451 0 01-.1-.139c-.035-.019-.086-.067-.121-.086l-1.307-1.445c-.186-.207-.245-.493-.148-.675.097-.182.309-.153.496.053l1.306 1.445c.052.049.068.079.101.14.035.018.086.067.121.086l1.306 1.445c.051.048.084.109.101.139zm-4.139-4.602c.099.18.124.407.048.536-.097.181-.31.153-.496-.054l-.203-.236c-.187-.207-.246-.493-.149-.675.097-.182.31-.153.496.053l.203.237c.052.048.068.079.101.139zm-1.51-1.682c.099.181.125.407.048.536-.097.182-.309.153-.496-.054l-1.306-1.445a.447.447 0 01-.101-.139c-.035-.018-.086-.067-.121-.086l-1.306-1.445c-.187-.206-.245-.493-.148-.675.097-.182.309-.153.496.054l1.306 1.445a.472.472 0 01.101.139c.034.018.086.067.12.086l1.307 1.445c.016.03.067.079.1.139zm-4.155-4.632c.099.181.125.407.048.536-.097.182-.31.153-.496-.054l-.203-.236c-.187-.207-.245-.493-.148-.675.096-.182.309-.153.495.053l.203.237c.033.06.085.109.101.139zm-1.528-1.67c.099.18.125.407.048.536-.097.181-.309.153-.496-.054l-1.306-1.445c-.052-.049-.068-.079-.101-.139-.035-.019-.086-.067-.121-.086l-1.306-1.445c-.187-.207-.245-.493-.148-.675.096-.182.309-.153.495.053l1.307 1.445c.051.049.067.079.1.139.035.019.086.068.121.087l1.307 1.445c.034.018.067.079.1.139zm-4.139-4.602c.099.18.125.407.048.536-.097.181-.309.153-.496-.054l-.203-.236c-.187-.207-.245-.493-.148-.675.097-.182.309-.153.496.053l.203.237c.035.018.067.078.1.139zm-1.526-1.712c.099.18.125.407.048.536-.097.182-.309.153-.496-.054l-1.306-1.445c-.052-.049-.068-.079-.101-.139-.035-.018-.086-.067-.121-.086l-1.306-1.445c-.187-.206-.245-.493-.148-.675.097-.182.309-.153.495.054l1.307 1.445a.447.447 0 01.101.139c.034.018.086.067.12.086l1.307 1.445c.051.049.067.079.1.139zm-4.139-4.602c.099.18.125.407.048.536-.097.182-.309.153-.496-.054l-.203-.236c-.186-.207-.245-.493-.148-.675.097-.182.309-.153.496.053l.203.237c.016.03.068.079.1.139zm-1.544-1.7c.099.18.125.407.048.535-.097.182-.309.153-.496-.053l-1.306-1.445c-.052-.049-.068-.079-.101-.139-.035-.019-.086-.068-.121-.086l-1.306-1.445c-.187-.207-.246-.493-.149-.675.097-.182.31-.153.496.053l1.307 1.445c.051.049.067.079.1.139.035.019.086.068.121.086l1.307 1.446a.52.52 0 01.1.139zm-4.139-4.602c.099.18.125.406.048.535-.097.182-.309.153-.496-.053l-.203-.237c-.187-.206-.245-.493-.148-.674.097-.182.309-.154.496.053l.203.236c.051.049.067.079.1.14zm-1.509-1.682c.099.18.124.407.047.536-.097.182-.309.153-.495-.054l-1.307-1.445a.472.472 0 01-.101-.139c-.034-.019-.086-.067-.12-.086l-1.307-1.445c-.186-.207-.245-.493-.148-.675.097-.182.309-.153.496.053l1.306 1.446c.052.048.068.078.101.139.035.018.086.067.121.086l1.306 1.445c.035.018.068.079.101.139zm-4.156-4.632c.099.18.125.407.048.536-.097.181-.309.153-.496-.054l-.203-.236c-.187-.207-.245-.493-.148-.675.097-.182.309-.153.496.053l.203.237a.537.537 0 01.1.139zm-1.527-1.67c.098.18.124.406.047.535-.097.182-.309.153-.496-.053l-1.306-1.445c-.187-.207-.245-.493-.148-.675.097-.182.309-.153.496.053l1.306 1.445c.035.019.068.079.101.14zm-24.335-32.955c.132.242.121.492-.009.614-.131.122-.376-.009-.527-.24l-1.069-1.765a.496.496 0 01-.064-.163c-.052-.049-.068-.079-.102-.139l-1.068-1.766c-.152-.23-.139-.522-.008-.644.13-.122.375.009.526.239l1.069 1.766c.033.061.05.091.065.163a.472.472 0 01.101.139l1.069 1.766.017.03zm-3.391-5.588c.132.242.121.492-.009.614-.131.121-.376-.01-.527-.24l-.184-.29c-.151-.23-.139-.522-.008-.644s.376.009.527.239l.184.291.017.03zm-1.237-2.026c.133.241.122.491-.009.613-.13.122-.375-.009-.526-.239l-1.069-1.766a.492.492 0 01-.065-.162.464.464 0 01-.101-.14l-1.07-1.766c-.132-.241-.138-.522-.007-.643.13-.122.376.009.527.239l1.069 1.766c.033.06.049.09.064.162.052.049.068.079.101.14l1.069 1.766.017.03zm-3.373-5.6c.133.242.122.492-.008.614-.131.122-.376-.01-.527-.24l-.184-.29c-.151-.23-.139-.522-.008-.644.13-.122.375.009.526.24l.185.29.016.03zm-1.253-2.056c.133.241.122.491-.009.613-.13.122-.375-.009-.526-.239l-1.07-1.766a.48.48 0 01-.064-.162c-.051-.049-.068-.08-.101-.14l-1.069-1.766c-.151-.23-.138-.522-.008-.644.13-.121.376.01.527.24l1.069 1.766c.033.06.05.09.064.162a.456.456 0 01.102.14l1.069 1.766.016.03zm-3.374-5.558c.132.241.122.491-.009.613-.13.122-.376-.009-.527-.239l-.184-.291c-.151-.23-.138-.521-.008-.643s.376.009.527.239l.184.291.017.03zm-1.254-2.057c.133.242.122.492-.008.614s-.376-.009-.527-.24l-1.069-1.765c-.033-.061-.05-.091-.064-.163a.466.466 0 01-.102-.139l-1.069-1.766c-.15-.23-.138-.522-.007-.644.13-.122.375.009.526.239l1.07 1.766c.032.061.049.091.064.163a.464.464 0 01.101.139l1.069 1.766.016.03zm-3.39-5.588c.132.242.121.492-.01.614-.13.121-.375-.01-.526-.24l-.184-.29c-.151-.23-.138-.522-.008-.644s.376.009.527.239l.184.291.016.03zm-1.235-2.068c.133.242.122.492-.009.614-.13.122-.376-.01-.527-.24l-1.069-1.766a.475.475 0 01-.064-.162.458.458 0 01-.101-.14l-1.07-1.765c-.15-.231-.138-.522-.007-.644.13-.122.375.009.526.239l1.07 1.766c.033.061.05.091.064.163a.464.464 0 01.101.139l1.07 1.766.016.03zm-3.375-5.558c.133.242.122.492-.008.614-.131.122-.376-.01-.527-.24l-.184-.29c-.15-.272-.139-.522-.008-.644.13-.122.375.009.526.24l.185.29.016.03zm-1.253-2.056c.133.241.122.491-.009.613-.13.122-.375-.009-.526-.239l-1.07-1.766a.48.48 0 01-.064-.162c-.051-.049-.068-.08-.101-.14l-1.069-1.766c-.151-.23-.138-.522-.008-.644.13-.121.376.01.527.24l1.069 1.766c.033.06.05.09.064.162a.458.458 0 01.102.14l1.069 1.766.016.03zm-3.39-5.588c.132.241.121.491-.01.613-.13.122-.375-.009-.526-.239l-.184-.291c-.152-.23-.139-.522-.008-.643.13-.122.375.009.526.239l.185.29.016.031zm-1.237-2.027c.132.242.121.492-.01.614-.13.122-.375-.009-.526-.24l-1.069-1.765c-.033-.061-.05-.091-.064-.163a.466.466 0 01-.102-.139l-1.069-1.766c-.15-.23-.138-.522-.007-.644.13-.122.375.009.526.239l1.07 1.766c.032.061.049.091.064.163a.464.464 0 01.101.139l1.069 1.766.016.03zm-3.373-5.599c.133.241.122.491-.009.613-.13.122-.375-.009-.526-.239l-.185-.291c-.15-.23-.138-.521-.007-.643.13-.122.375.009.526.239l.184.29.017.031zm-1.253-2.057c.133.242.122.492-.009.614-.13.122-.376-.01-.527-.24l-1.069-1.766a.475.475 0 01-.064-.162.458.458 0 01-.101-.14l-1.07-1.765c-.15-.231-.138-.522-.007-.644.13-.122.375.009.526.239l1.07 1.766c.033.061.05.091.064.163a.466.466 0 01.101.139l1.07 1.766.016.03zm-3.375-5.558c.133.242.122.492-.008.614-.131.122-.376-.01-.527-.24l-.184-.29c-.151-.23-.139-.522-.008-.644.13-.122.375.009.527.239l.184.291.016.03zm-1.253-2.056c.133.241.122.491-.009.613-.13.122-.375-.009-.526-.239l-1.07-1.766a.48.48 0 01-.064-.162c-.051-.049-.068-.08-.101-.14l-1.069-1.766c-.151-.23-.138-.522-.008-.644.13-.121.376.01.527.24l1.069 1.766c.033.06.05.09.064.162a.456.456 0 01.102.14l1.069 1.766.016.03zm-3.39-5.588c.132.241.121.491-.01.613-.13.122-.375-.009-.526-.239l-.184-.291c-.152-.23-.139-.522-.008-.643.13-.122.375.009.526.239l.184.29.017.031zm-1.236-2.068c.133.241.122.491-.008.613-.131.122-.376-.009-.527-.239l-1.069-1.766c-.033-.061-.05-.091-.064-.163a.458.458 0 01-.102-.139l-1.069-1.766c-.15-.23-.138-.522-.008-.644.131-.122.376.01.527.24l1.069 1.766c.033.06.05.09.064.162a.456.456 0 01.102.14l1.069 1.765.016.031zm-3.374-5.558c.133.241.122.491-.009.613-.13.122-.375-.009-.526-.239l-.185-.291c-.15-.23-.138-.521-.008-.643.131-.122.376.009.527.239l.184.29.017.031zm-1.253-2.057c.133.242.122.492-.009.614-.13.122-.375-.01-.527-.24l-1.069-1.766a.475.475 0 01-.064-.162.458.458 0 01-.101-.14l-1.07-1.765c-.15-.231-.138-.522-.007-.644.13-.122.375.009.526.239l1.07 1.766c.032.061.05.091.064.163a.472.472 0 01.101.139l1.07 1.766.016.03zm-3.391-5.588c.132.242.122.491-.009.613-.13.122-.376-.009-.527-.239l-.184-.29c-.133-.242-.138-.522-.008-.644s.376.01.527.24l.184.29.017.03zm-1.235-2.068c.133.242.122.492-.009.614-.13.121-.375-.01-.526-.24l-1.07-1.766a.482.482 0 01-.064-.162.464.464 0 01-.101-.14l-1.07-1.766c-.15-.23-.137-.521-.007-.643s.376.009.527.24l1.069 1.765c.033.06.05.09.064.163.052.048.068.079.101.139l1.07 1.766.016.03zm-3.374-5.558c.132.242.121.492-.01.614-.13.121-.375-.01-.526-.24l-.184-.29c-.151-.23-.139-.522-.008-.644.13-.122.376.01.527.24l.184.29.017.03zm-1.254-2.056c.133.241.122.491-.008.613-.131.122-.376-.01-.527-.24l-1.069-1.765a.478.478 0 01-.064-.163.462.462 0 01-.102-.14l-1.069-1.765c-.15-.23-.138-.522-.008-.644.131-.122.376.01.527.24l1.069 1.766c.033.06.05.09.064.162.052.049.069.08.102.14l1.069 1.766.016.03zm-3.374-5.558c.133.241.122.491-.009.613-.13.122-.375-.01-.526-.24l-.185-.29c-.15-.23-.138-.521-.008-.643.131-.122.376.009.527.239l.184.29.017.03zm-1.253-2.057c.133.242.122.492-.009.614-.13.121-.375-.01-.527-.24l-1.069-1.766c-.033-.06-.05-.09-.064-.162-.052-.049-.068-.08-.101-.14l-1.07-1.766c-.15-.23-.138-.521-.007-.643.13-.122.375.01.526.24l1.07 1.765c.033.06.05.09.064.163a.464.464 0 01.101.14l1.07 1.765.016.03zm-3.373-5.6c.133.242.122.492-.009.614-.13.122-.375-.01-.526-.24l-.184-.29c-.152-.23-.139-.522-.008-.644.13-.121.375.01.526.24l.185.29.016.03zm-1.253-2.056c.133.242.122.492-.009.614-.13.121-.375-.01-.526-.24l-1.07-1.766a.48.48 0 01-.064-.162.49.49 0 01-.101-.14l-1.07-1.766c-.15-.23-.138-.521-.007-.643.13-.122.376.009.527.24l1.069 1.765c.033.06.05.09.064.162.052.05.068.08.101.14l1.07 1.766.016.03zm-3.374-5.558c.132.242.121.492-.01.614-.13.121-.375-.01-.526-.24l-.184-.29c-.133-.242-.139-.522-.008-.644.13-.122.376.01.527.24l.184.29.017.03zm-1.254-2.056c.133.241.122.491-.008.613-.131.122-.376-.01-.527-.24l-1.069-1.765a.48.48 0 01-.064-.163.462.462 0 01-.102-.14l-1.069-1.765c-.15-.23-.138-.522-.008-.644.131-.122.376.01.527.24l1.069 1.766c.033.06.05.09.064.162.052.049.069.08.102.14l1.069 1.765.016.03zm-3.39-5.589c.132.242.121.492-.01.614-.13.122-.375-.01-.526-.24l-.184-.29c-.133-.241-.139-.522-.008-.644.13-.121.375.01.527.24l.184.29.016.03zm-1.235-2.068c.132.242.121.492-.01.614-.13.122-.375-.01-.526-.24l-.986-1.614c-.15-.23-.138-.522-.008-.644.131-.122.376.01.527.24l.986 1.614.017.03zM4.8 84.46c-.048-.05-.105-.051-.127-.001-.022.05 0 .131.048.182.049.05.106.05.128 0 .022-.05 0-.13-.048-.181zm.344-.772c-.086-.089-.186-.09-.225-.002-.038.087 0 .23.085.318.086.089.186.09.225.002.038-.087 0-.23-.085-.318zm.349-.815c-.135-.14-.293-.14-.353-.003s0 .361.133.5c.135.14.293.141.353.004.06-.138.001-.362-.133-.501zm.376-.815c-.17-.177-.372-.179-.449-.004-.077.175 0 .46.17.637s.372.179.449.004c.077-.175 0-.46-.17-.637zm.406-.95c-.208-.215-.452-.217-.546-.005-.093.213 0 .56.207.774.207.215.451.217.545.005.093-.212.001-.559-.206-.774zm.458-1.033c-.257-.266-.558-.269-.674-.006-.115.262-.001.69.255.956.256.265.558.268.674.005.115-.262.001-.69-.255-.956zm1.851 7.007c-.055-.02-.094.021-.089.09.006.07.054.14.109.16.054.019.094-.022.088-.09-.005-.07-.054-.141-.108-.16zm-.087-1.135c-.095-.033-.164.038-.154.159.01.12.094.245.189.278.095.033.164-.038.155-.158-.01-.121-.095-.246-.19-.279zm-.12-1.121c-.15-.052-.259.06-.244.25.015.19.149.385.298.438.15.052.259-.06.244-.25-.015-.19-.149-.386-.298-.438zm-.102-1.132c-.19-.067-.329.075-.31.317.02.241.19.491.38.557.19.067.329-.075.31-.317-.02-.242-.19-.491-.38-.558zm-.1-1.294c-.231-.081-.4.091-.377.385.024.293.23.596.461.677.231.08.4-.092.377-.386-.024-.293-.23-.596-.461-.677zm-.138-1.478c-.285-.1-.494.114-.465.476.029.362.283.737.57.836.285.1.493-.113.464-.476-.028-.362-.283-.736-.569-.836zm4.11 6.221c-.044.018-.054.088-.022.156.031.069.092.11.136.092.044-.018.054-.088.023-.156-.032-.069-.093-.11-.137-.092zm-.528-1.096c-.077.032-.094.154-.04.273.056.12.163.192.24.16.077-.03.094-.153.039-.273-.055-.12-.162-.19-.24-.16zm-.529-1.158c-.12.049-.148.241-.061.429s.255.3.376.251c.12-.049.148-.24.06-.429-.086-.188-.254-.3-.375-.251zm-.511-1.125c-.154.063-.189.307-.078.546.11.24.324.383.478.32.153-.062.188-.307.078-.546-.11-.24-.325-.383-.479-.32zm-.627-1.36c-.187.076-.23.373-.095.663.134.29.394.465.58.389.187-.076.23-.373.095-.664-.134-.29-.394-.464-.58-.388zm-.686-1.455c-.23.093-.283.46-.117.819.166.359.487.574.717.48.23-.094.283-.46.117-.82-.166-.358-.487-.573-.717-.48zm5.349 3.743c-.049-.05-.106-.05-.128 0-.022.049 0 .13.049.181.048.05.106.051.128.001.022-.05 0-.131-.049-.182zm-.691-.832c-.085-.09-.186-.09-.224-.002-.039.087 0 .23.085.318.085.089.186.09.224.002.039-.087 0-.23-.085-.319zm-.674-.829c-.134-.139-.292-.14-.352-.003s-.001.362.133.5c.135.14.292.141.353.004.06-.138 0-.362-.133-.5zm-.724-.862c-.17-.177-.372-.18-.449-.004-.077.175 0 .46.17.637.171.177.372.179.45.004.076-.175 0-.46-.17-.637zm-.851-.976c-.208-.215-.452-.217-.545-.005-.094.213-.001.56.206.774.208.215.452.217.545.005.094-.212.002-.559-.206-.774zm-.939-1.106c-.257-.266-.558-.268-.674-.006-.115.263-.001.69.255.956s.558.268.674.006c.115-.262 0-.69-.255-.956zm4.396.18c-.055-.019-.095.022-.09.091.006.07.055.14.11.16.054.018.094-.022.088-.091-.005-.07-.054-.14-.108-.16zm-.809-.372c-.095-.033-.165.037-.155.158.01.12.094.245.19.278.094.033.164-.038.154-.158-.01-.12-.094-.245-.19-.278zm-.792-.427c-.15-.052-.259.06-.244.25.015.189.149.385.299.437.15.052.258-.06.243-.25-.015-.189-.148-.385-.298-.437zm-.826-.391c-.19-.067-.33.076-.31.317.02.242.189.491.38.558.19.066.329-.076.31-.318-.02-.241-.19-.49-.38-.557zm-.955-.462c-.232-.08-.4.093-.377.386.023.293.23.596.46.677.232.08.4-.092.377-.385-.023-.294-.23-.597-.46-.678zm-1.063-.505c-.286-.1-.494.114-.466.476.03.362.284.737.57.836.285.1.493-.113.465-.476-.029-.362-.284-.736-.57-.836zm2.946-2.966c-.043.018-.053.088-.022.156.032.069.093.11.137.092.044-.018.054-.088.022-.156-.032-.069-.093-.11-.137-.092zm-.659.178c-.076.03-.094.153-.039.273.056.12.163.191.24.16.076-.031.094-.154.038-.273-.055-.12-.162-.192-.239-.16zm-.709.132c-.12.05-.148.242-.061.43.086.187.255.3.375.25.121-.048.148-.24.062-.428-.087-.188-.255-.3-.376-.252zm-.711.152c-.154.063-.188.307-.078.547.11.239.325.382.478.32.154-.063.189-.308.078-.547-.11-.239-.324-.382-.478-.32zm-.805.206c-.187.076-.23.373-.095.663.134.29.394.464.58.389.187-.076.23-.373.095-.664-.134-.29-.394-.464-.58-.388zm-.908.193c-.23.093-.283.46-.117.819.166.359.487.574.717.48.23-.094.283-.46.117-.82-.165-.358-.487-.573-.717-.48zm.859-5.265c-.049-.05-.106-.051-.128-.001-.022.05 0 .131.049.182.048.05.106.051.128.001.022-.05 0-.131-.049-.182zm-.294.663c-.086-.089-.186-.09-.225-.002-.038.087 0 .23.085.319.086.088.186.089.225.002.038-.088 0-.23-.085-.32zm-.276.637c-.135-.14-.293-.141-.353-.004-.06.137-.001.361.133.5.134.14.292.141.353.004.06-.138 0-.362-.134-.5zm-.3.652c-.17-.177-.371-.18-.448-.004-.077.174-.001.46.17.637.17.177.372.179.449.004.077-.175 0-.46-.17-.637zm-.345.816c-.207-.215-.451-.218-.545-.005-.093.212 0 .559.207.774.207.215.451.217.545.004.093-.212.001-.558-.207-.773zm-.386.875c-.256-.266-.558-.269-.674-.006-.115.262-.001.69.255.956.257.265.558.268.674.005.115-.262.001-.69-.255-.955zm-2.3-6.325c-.055-.02-.095.021-.09.09.006.07.055.14.11.16.054.019.094-.022.088-.09-.005-.07-.054-.141-.108-.16zm.087.912c-.095-.033-.164.038-.155.159.01.12.095.245.19.278.095.033.164-.038.155-.158-.01-.121-.095-.246-.19-.279zm.086.892c-.15-.052-.26.06-.244.25.015.189.148.385.298.437.15.052.259-.06.244-.25-.015-.189-.149-.385-.298-.437zm.084.946c-.19-.066-.33.076-.31.318.019.241.189.49.379.557.19.066.33-.076.31-.317-.019-.242-.189-.491-.38-.558zm.088 1.1c-.231-.08-.4.092-.377.385.023.294.23.597.46.677.232.08.4-.092.377-.385-.023-.293-.23-.596-.46-.677zm.116 1.235c-.286-.1-.494.114-.465.476.028.363.283.737.569.837.285.1.494-.114.465-.476-.029-.363-.284-.737-.57-.837zm-4.091-5.156c-.044.018-.054.088-.023.156.032.068.093.11.137.091.044-.017.054-.087.022-.156-.031-.068-.093-.109-.136-.091zm.415.919c-.077.031-.095.153-.04.273.056.12.163.191.24.16.077-.031.094-.154.039-.273-.055-.12-.163-.192-.24-.16zm.43.901c-.12.049-.148.241-.061.429.086.188.255.3.375.251.121-.049.148-.24.062-.429-.087-.188-.255-.3-.376-.251zm.446.981c-.153.063-.188.308-.078.547.11.239.325.382.479.32.153-.063.188-.307.078-.547-.11-.239-.325-.382-.479-.32zm.517 1.102c-.186.075-.229.372-.095.663.135.29.395.464.581.388.187-.076.229-.373.095-.663-.134-.29-.394-.465-.58-.389zm.577 1.227c-.23.094-.283.46-.117.82.166.358.487.573.717.48.23-.094.283-.461.117-.82-.166-.359-.487-.574-.717-.48zM.877 70.512c-.049-.051-.106-.052-.128-.002-.022.05 0 .132.048.183.05.05.107.05.129 0 .022-.05 0-.13-.049-.181zm.738.673c-.086-.088-.186-.09-.225-.002-.038.088 0 .23.085.319.086.088.186.09.225.002.038-.088 0-.23-.085-.319zm.777.669c-.134-.14-.292-.14-.353-.003-.06.137 0 .362.134.5.134.14.292.141.353.004.06-.138 0-.362-.134-.501zm.778.728c-.171-.177-.372-.179-.45-.004-.076.175 0 .46.17.638.172.177.373.178.45.004.077-.175 0-.46-.17-.638zm.913.84c-.207-.215-.451-.217-.545-.005-.094.212-.001.559.206.774.208.215.452.217.546.005.093-.213 0-.56-.207-.774zm1.014.928c-.256-.266-.558-.268-.674-.006-.115.262-.001.69.255.956.257.266.558.268.674.006.115-.263.001-.69-.255-.956zm-4.847.506c-.054-.019-.093.022-.088.09.006.07.054.141.109.16.054.02.094-.021.088-.09-.005-.07-.054-.14-.108-.16zm.81.207c-.095-.033-.164.038-.155.158.01.12.095.245.19.279.095.033.164-.038.154-.159-.01-.12-.094-.245-.189-.278zm.76.152c-.15-.052-.26.06-.244.25.015.19.148.386.298.438.15.052.258-.06.243-.25-.015-.19-.148-.386-.298-.438zm.806.21c-.19-.066-.33.076-.31.318.019.241.189.491.38.557.19.067.329-.075.31-.317-.02-.242-.19-.491-.38-.558zm.938.279c-.232-.08-.4.092-.377.385.023.294.23.597.46.677.232.08.4-.092.377-.385-.023-.293-.23-.597-.46-.677zm1.044.255c-.285-.1-.493.113-.465.476.029.362.284.736.57.836.285.1.493-.114.465-.476-.03-.362-.284-.737-.57-.836zM1.656 79.99c-.044.017-.054.087-.022.156.031.068.092.109.136.091.044-.018.054-.088.022-.156-.031-.069-.092-.11-.136-.092zm.604-.344c-.076.031-.094.153-.039.273.056.12.163.191.24.16.076-.031.094-.153.039-.273-.056-.12-.163-.191-.24-.16zm.583-.391c-.12.05-.148.241-.061.43.087.187.255.3.375.25.121-.049.149-.24.062-.429-.087-.188-.255-.3-.376-.251zm.604-.349c-.154.062-.189.307-.078.546.11.24.324.382.478.32.153-.063.188-.307.078-.546-.11-.24-.325-.383-.478-.32zm.743-.381c-.187.076-.229.373-.095.663.135.29.394.465.581.389.186-.076.229-.373.095-.663-.135-.291-.394-.465-.581-.389zm.784-.485c-.23.093-.283.46-.117.819.165.359.487.573.717.48.23-.094.283-.46.117-.82-.166-.359-.487-.574-.717-.48zm2.582-3.312c.001-.041-.015-.071-.05-.09l-.034-.018c-.034-.019-.07.004-.056.075l.016.03c-.349-.102-.701-.122-1.007-.011l-.016-.03-.033-.06c-.016-.03-.05-.048-.087-.025-.036.022-.038.064-.005.123l.016.03c-.27.13-.51.361-.667.7l-.017-.03c-.05-.048-.087-.025-.105-.014-.02.053.013.113.03.143l.015.03c-.14.369-.193.764-.16 1.226l-.035-.019c-.034-.018-.07.005-.056.076-.002.041.03.101.083.108l.035.019c.05.45.17.938.379 1.41l-.018.011c-.037.023-.039.064-.006.124s.067.079.104.056l.018-.012c.21.431.492.857.83 1.208l-.019.011c-.02.053.013.113.03.143.05.049.086.026.105.014l.018-.011c.356.34.699.566 1.046.71l-.002.041c-.002.042.03.102.084.109.034.018.07-.005.056-.076l.002-.041c.349.102.701.122 1.006.011l.017.03c.032.06.067.079.103.056.037-.023.038-.064.006-.124l-.017-.03c.271-.13.511-.36.668-.7l.016.03c.05.048.087.025.105.014.02-.053-.012-.113-.029-.142l-.016-.03c.14-.37.193-.765.177-1.197l.035.019c.034.018.07-.004.056-.076a.09.09 0 00-.049-.09l-.034-.018-.019.011a4.83 4.83 0 00-.379-1.41l.019-.011c.036-.023.038-.064.005-.124l-.033-.06c-.016-.03-.05-.048-.087-.026l-.018.012a4.797 4.797 0 00-.83-1.208l.019-.011c.02-.053-.013-.113-.03-.143-.05-.048-.087-.026-.105-.014l-.018.011a3.214 3.214 0 00-1.062-.74zm2.093 4.956c-.489 1.07-1.743 1.054-2.825-.036-1.064-1.1-1.534-2.855-1.06-3.956.489-1.07 1.743-1.053 2.825.036 1.064 1.1 1.55 2.886 1.06 3.956z" fill="#876FF2" fill-opacity=".5"/></svg>