<svg width="16" height="11" fill="none" xmlns="http://www.w3.org/2000/svg"><path d="M.51 5.363a.69.69 0 00.003.977l4.402 4.388a.69.69 0 00.975-.978l-3.913-3.9 3.9-3.914A.69.69 0 004.9.96L.51 5.363zM15 5.137L1 5.16l.002 1.381 14-.022L15 5.137z" fill="#5A4CE6"/><path d="M.51 5.363a.69.69 0 00.003.977l4.402 4.388a.69.69 0 00.975-.978l-3.913-3.9 3.9-3.914A.69.69 0 004.9.96L.51 5.363zM15 5.137L1 5.16l.002 1.381 14-.022L15 5.137z" fill="url(#paint0_linear_207:79)"/><defs><linearGradient id="paint0_linear_207:79" x1="15.201" y1="4.803" x2="2.577" y2="9.964" gradientUnits="userSpaceOnUse"><stop stop-color="#FF7DFF"/><stop offset="1" stop-color="#6146FF"/></linearGradient></defs></svg>