<svg width="16" height="17" fill="none" xmlns="http://www.w3.org/2000/svg"><path d="M11.7.077v1.23h1.775l-2.17 2.207a4.272 4.272 0 00-4.593-.353 4.282 4.282 0 00-4.768.943 4.477 4.477 0 000 6.253 4.293 4.293 0 002.499 1.255l-.001 1.629H2.654v1.231h1.787v1.868h1.208l.001-1.87h1.837v-1.231H5.65v-1.635a4.278 4.278 0 001.384-.459 4.255 4.255 0 001.697.351c2.399 0 4.343-1.98 4.343-4.421a4.451 4.451 0 00-.905-2.7l2.12-2.156v1.724h1.208V.077H11.7zM7.23 4.975a3.234 3.234 0 01-.252 4.742 3.206 3.206 0 01-1.38-2.642 3.21 3.21 0 011.174-2.486c.163.112.316.241.458.386zM5.014 10.42a3.085 3.085 0 01-2.216-.935 3.198 3.198 0 01-.917-2.256c0-.852.326-1.653.917-2.255a3.086 3.086 0 012.217-.935c.176 0 .35.016.52.045a4.448 4.448 0 00-1.146 2.99c0 1.284.539 2.44 1.398 3.248a3.11 3.11 0 01-.773.098zm3.718-.156c-.177 0-.35-.016-.52-.045a4.476 4.476 0 00-.127-6.116 4.253 4.253 0 00-.125-.121c.247-.064.506-.098.772-.098 1.729 0 3.134 1.43 3.134 3.19 0 1.759-1.405 3.19-3.133 3.19z" fill="#E7E6E9"/></svg>