<svg width="14" height="15" fill="none" xmlns="http://www.w3.org/2000/svg"><path d="M6.813 1.101c.026-.22.348-.22.374 0l.22 1.857a5.223 5.223 0 004.57 4.57l1.857.22c.221.027.221.348 0 .374l-1.856.22a5.223 5.223 0 00-4.57 4.571l-.221 1.857c-.026.22-.348.22-.374 0l-.22-1.857a5.223 5.223 0 00-4.57-4.57l-1.857-.22c-.221-.027-.221-.348 0-.374l1.856-.22a5.223 5.223 0 004.571-4.571l.22-1.857z" fill="url(#a)"/><defs><linearGradient id="a" x1="-.778" y1="-1.009" x2="14.791" y2="19.287" gradientUnits="userSpaceOnUse"><stop stop-color="#4A3FF5"/><stop offset="1" stop-color="#AB7AFF"/></linearGradient></defs></svg>