<svg width="264" height="264" fill="none" xmlns="http://www.w3.org/2000/svg"><path d="M132 264c72.902 0 132-59.098 132-132S204.902 0 132 0 0 59.098 0 132s59.098 132 132 132z" fill="#676A7A"/><path d="M172.881 161.066h42.04v20.26h-42.04v-20.26z" fill="#69B0EE"/><path d="M138.021 78.84h20.474a3.71 3.71 0 012.617 1.078l6.437 6.37a3.73 3.73 0 011.104 2.646v23.265l-30.632-33.36z" fill="#EF5261"/><path d="M174.382 122.553v56.694a13.672 13.672 0 01-13.668 13.669H79.883A34.505 34.505 0 0145.375 158.4v-35.548A52.457 52.457 0 0177.76 74.383a52.46 52.46 0 0120.077-3.992h24.383a28.589 28.589 0 0120.247 8.396l23.529 23.513a28.62 28.62 0 018.386 20.253z" fill="#F6C863"/><path d="M174.382 161.18v18.067a13.672 13.672 0 01-13.668 13.669H79.883A34.505 34.505 0 0145.375 158.4v-35.548A52.457 52.457 0 0177.76 74.383a52.46 52.46 0 0120.077-3.992h24.383c2.839 0 5.663.421 8.38 1.25l-6.732 19.97a7.203 7.203 0 01-6.807 4.89h-10.483a37.7 37.7 0 00-37.69 37.697 38.374 38.374 0 0059.967 31.742l6.032-4.76h39.495z" fill="#EAB54E"/><path d="M218.625 160.412a3.127 3.127 0 10-6.253 0v26.289a3.126 3.126 0 106.253 0v-26.289z" fill="#EEEFEE"/><path d="M106.926 154.755c11.161 0 20.209-9.048 20.209-20.209s-9.048-20.208-20.209-20.208c-11.16 0-20.208 9.047-20.208 20.208 0 11.161 9.047 20.209 20.208 20.209z" fill="#575B6D"/></svg>