<svg width="264" height="264" fill="none" xmlns="http://www.w3.org/2000/svg"><path d="M132 264c72.902 0 132-59.098 132-132S204.902 0 132 0 0 59.098 0 132s59.098 132 132 132z" fill="#F6CC71"/><g clip-path="url(#clip0)"><path d="M140.987 154.471l22.244-26.674c1.488-1.784 2.387-4.843 2.387-8.126V68.787c0-2.306-2.883-3.35-4.36-1.58l-20.271 24.309c-2.125 2.549-4.556 3.823-6.987 3.823v62.956c2.431 0 4.862-1.275 6.987-3.824z" fill="url(#paint0_linear)"/><path d="M119.444 90.648l-43.069-27.9c-3.551-2.301-8.24.248-8.24 4.48v55.104c0 3.694 1.871 7.136 4.972 9.145l46.337 30.017a26.773 26.773 0 0029.112 0l46.337-30.017a10.895 10.895 0 004.972-9.145V67.228c0-4.232-4.688-6.781-8.24-4.48l-43.069 27.9a26.774 26.774 0 01-29.112 0z" fill="url(#paint1_linear)"/><path d="M120.747 99.782L81.532 74.38c-3.234-2.095-7.503.226-7.503 4.079v50.173a9.921 9.921 0 004.527 8.327l42.19 27.331a24.38 24.38 0 0026.507 0l42.191-27.331a9.921 9.921 0 004.527-8.327V78.458c0-3.853-4.269-6.174-7.503-4.079l-39.215 25.404a24.376 24.376 0 01-26.506 0z" fill="url(#paint2_linear)"/><path d="M117.425 116.547l-49.042-31.77C64.339 82.159 59 85.062 59 89.88v62.746c0 4.207 2.131 8.127 5.662 10.414l52.764 34.18a30.483 30.483 0 0033.149 0l52.763-34.18A12.407 12.407 0 00209 152.625V89.879c0-4.818-5.339-7.72-9.383-5.101l-49.042 31.769a30.485 30.485 0 01-33.15 0z" fill="#676A7A"/><path d="M150.575 197.219l52.763-34.18A12.407 12.407 0 00209 152.625V89.879c0-4.818-5.339-7.72-9.383-5.101l-49.042 31.77A30.463 30.463 0 01134 121.447v80.671a30.463 30.463 0 0016.575-4.899z" fill="#676A7A"/><path d="M77.222 139.837c5.916 0 10.713-4.796 10.713-10.713 0-5.916-4.797-10.712-10.713-10.712-5.916 0-10.712 4.796-10.712 10.712 0 5.917 4.796 10.713 10.712 10.713z" fill="url(#paint3_linear)"/></g><defs><linearGradient id="paint0_linear" x1="124.613" y1="87.829" x2="147.344" y2="110.561" gradientUnits="userSpaceOnUse"><stop stop-color="#BCE097"/><stop offset="1" stop-color="#7DC03A"/></linearGradient><linearGradient id="paint1_linear" x1="92.684" y1="54.612" x2="160.987" y2="122.914" gradientUnits="userSpaceOnUse"><stop stop-color="#BCE097"/><stop offset="1" stop-color="#7DC03A"/></linearGradient><linearGradient id="paint2_linear" x1="98.829" y1="37.774" x2="151.182" y2="136.597" gradientUnits="userSpaceOnUse"><stop stop-color="#8CC951" stop-opacity="0"/><stop offset="1" stop-color="#3E6E66"/></linearGradient><linearGradient id="paint3_linear" x1="69.232" y1="121.134" x2="82.606" y2="134.509" gradientUnits="userSpaceOnUse"><stop stop-color="#F7E07D"/><stop offset=".289" stop-color="#F3CF6F"/><stop offset=".862" stop-color="#E9A24B"/><stop offset="1" stop-color="#E69642"/></linearGradient><clipPath id="clip0"><path fill="#fff" transform="translate(59 57)" d="M0 0h150v150H0z"/></clipPath></defs></svg>