<svg width="264" height="264" fill="none" xmlns="http://www.w3.org/2000/svg"><path d="M132 264c72.902 0 132-59.098 132-132S204.902 0 132 0 0 59.098 0 132s59.098 132 132 132z" fill="#F6CC71"/><path d="M236.689 51.617v116.797a9.13 9.13 0 01-9.103 9.103H36.414a9.13 9.13 0 01-9.104-9.103V51.617a131.974 131.974 0 01209.379 0z" fill="#DEDEDE"/><path d="M204.827 109.242H59.173a4.552 4.552 0 000 9.104h145.655a4.553 4.553 0 00-.001-9.104zm0-18.207H59.173a4.552 4.552 0 000 9.104h145.655a4.552 4.552 0 10-.001-9.104zm0-18.207H59.173a4.552 4.552 0 000 9.104h145.655a4.552 4.552 0 10-.001-9.104zm0-18.207H59.173a4.552 4.552 0 000 9.104h145.655a4.553 4.553 0 00-.001-9.104zM59.172 45.518h145.656a4.552 4.552 0 000-9.104H59.172a4.552 4.552 0 000 9.104z" fill="#7F6E5D"/><path d="M181.844 144.46a4.56 4.56 0 00-5.736-2.92A160.739 160.739 0 01132 150.208c-4.941 0-9.137-.196-12.693-.521.365-.38.71-.779 1.034-1.195a14.177 14.177 0 002.413-12.642 11.511 11.511 0 00-14.173-8.152c-8.443 1.422-17.382 8.592-16.711 16.606a10.348 10.348 0 002.071 5.455 69.664 69.664 0 01-7.46.449 4.551 4.551 0 10.002 9.103 79.648 79.648 0 0019.707-2.618 102.516 102.516 0 0025.81 2.618c16-.759 31.806-3.828 46.927-9.113a4.548 4.548 0 002.917-5.738zm-68.691-1.555a15.277 15.277 0 01-7.005 4.271c-3.827-1.36-5.139-2.836-5.206-3.631-.166-1.978 4.205-6.037 9.153-6.868.47-.084.946-.128 1.424-.133 2.014 0 2.278 1.026 2.416 1.564a5.045 5.045 0 01-.782 4.797z" fill="#2C3E50"/></svg>