<svg width="264" height="264" fill="none" xmlns="http://www.w3.org/2000/svg"><path d="M132 264c72.902 0 132-59.098 132-132S204.902 0 132 0 0 59.098 0 132s59.098 132 132 132z" fill="#676A7A"/><path d="M81.922 124.625h60.016V67.219H81.922c-15.852 0-28.703 12.85-28.703 28.703 0 15.852 12.85 28.703 28.703 28.703z" fill="#88929F"/><path d="M63.656 129.844v-11.782a28.581 28.581 0 0018.266 6.563h39.14v10.438h-10.437l-13.047 41.75H61.047l13.047-36.532-10.438-10.437z" fill="#F5B95B"/><path d="M121.062 166.375H100.84l6.523-20.875h13.699l-1.529 1.529a12.602 12.602 0 000 17.817l1.529 1.529z" fill="#88929F"/><path d="M141.938 72.438l15.656 5.218v36.532l-15.656 5.218V72.437z" fill="#F5B95B"/><path d="M168.031 82.875h-10.437v26.094h10.437V82.875z" fill="#88929F"/><path d="M178.469 114.188h-10.438V77.656h10.438l20.875 10.438v15.656l-20.875 10.438z" fill="#F5B95B"/><path d="M212.391 88.094h-13.047v5.219h13.047v-5.22zm0 10.437h-13.047v5.219h13.047v-5.219zm-31.313 14.352l-2.609 1.305h-2.61V77.656h2.61l2.609 1.305v33.922z" fill="#B8BEC5"/><path d="M79.313 67.35v57.145c-14.629-1.32-26.094-13.6-26.094-28.573 0-14.972 11.465-27.252 26.093-28.572z" fill="#666E77"/><path d="M79.313 77.842c-8.852 1.265-15.657 8.88-15.657 18.08 0 9.201 6.806 16.815 15.657 18.081V77.842z" fill="#F5B95B"/><path d="M79.313 98.531H63.86a18.293 18.293 0 01-.204-2.61c0-.886.081-1.755.204-2.609h15.453v5.22zm0-10.437h-13.89a18.237 18.237 0 013.726-5.219h10.163v5.219zm0 20.875H69.148a18.343 18.343 0 01-3.726-5.219h13.89v5.219z" fill="#B8BEC5"/><path d="M131.5 106.359h-15.656v10.438H131.5v-10.438zm0-39.14H89.75v15.656h41.75V67.219z" fill="#F5B95B"/><path d="M105.406 176.812H53.219v15.657h52.187v-15.657z" fill="#88929F"/><path d="M105.406 218.562h46.969v-5.218h-46.969a2.612 2.612 0 01-2.609-2.61 2.612 2.612 0 012.609-2.609h27.399c6.474 0 11.742-5.268 11.742-11.742 0-6.474-5.268-11.742-11.742-11.742h-27.399v5.218h27.399a6.531 6.531 0 016.523 6.524 6.53 6.53 0 01-6.523 6.523h-27.399c-4.316 0-7.828 3.512-7.828 7.828 0 4.316 3.512 7.828 7.828 7.828z" fill="#B8BEC5"/><path d="M157.594 223.781h7.828v-15.656h-7.828a7.827 7.827 0 00-7.828 7.828 7.827 7.827 0 007.828 7.828z" fill="#88929F"/><path d="M173.25 208.125h-7.828v5.219h7.828v-5.219zm0 10.437h-7.828v5.219h7.828v-5.219z" fill="#B8BEC5"/></svg>