<svg width="264" height="264" fill="none" xmlns="http://www.w3.org/2000/svg"><g opacity=".9"><path d="M132 264c72.902 0 132-59.098 132-132S204.902 0 132 0 0 59.098 0 132s59.098 132 132 132z" fill="#F6C863"/><path d="M106.873 149.958c14.466 14.467 30.609 21.877 35.974 16.511l6.773-6.774a13.21 13.21 0 019.346-3.871 13.218 13.218 0 019.346 3.871l14.954 14.954a18.506 18.506 0 010 26.169l-10.519 10.518c-13.031 13.031-52.08-4.89-87.221-40.031-17.562-17.578-30.828-36.124-38.072-51.909-7.243-15.784-8.473-28.803-1.951-35.32l10.519-10.519a18.501 18.501 0 0126.169 0L97.144 88.51a13.21 13.21 0 013.872 9.346 13.207 13.207 0 01-3.872 9.347l-6.773 6.773c-5.373 5.373 2.03 21.514 16.502 35.982z" fill="#575B6D"/><path d="M214.5 63.592v48.153a6.9 6.9 0 01-.526 2.649 6.905 6.905 0 01-3.746 3.746 6.92 6.92 0 01-2.649.527h-51.035l-20.961 18.323v-18.325h-7.219a6.92 6.92 0 01-6.922-6.922V63.592a6.92 6.92 0 016.922-6.922h79.212a6.917 6.917 0 016.924 6.922z" fill="#EEEFEE"/><path d="M147.263 87.667a6.274 6.274 0 01-7.496 6.151 6.269 6.269 0 01-4.928-4.928 6.27 6.27 0 016.152-7.496 6.265 6.265 0 015.795 3.872 6.28 6.28 0 01.477 2.4zm26.983 0a6.274 6.274 0 01-7.495 6.151 6.271 6.271 0 113.624-11.947 6.262 6.262 0 013.395 3.395 6.26 6.26 0 01.476 2.4zm26.982 0a6.274 6.274 0 01-7.496 6.151 6.269 6.269 0 01-4.928-4.928 6.27 6.27 0 016.152-7.496 6.274 6.274 0 014.436 1.836 6.274 6.274 0 011.836 4.437z" fill="#575B6D"/></g></svg>