<svg width="23" height="21" fill="none" xmlns="http://www.w3.org/2000/svg"><path d="M22.473.979a1.55 1.55 0 00-1.542-.255L.96 8.36a1.506 1.506 0 00-.734.597 1.444 1.444 0 00.16 1.76c.218.237.51.4.83.462l5.247 1.02v6.341c0 .292.089.578.255.82.166.243.403.432.68.544a1.552 1.552 0 001.651-.321L12 16.711l4.413 3.78a1.525 1.525 0 001.466.296c.25-.077.475-.217.653-.405a1.45 1.45 0 00.358-.669l4.07-17.288c.062-.262.05-.535-.036-.79a1.47 1.47 0 00-.452-.657zM1.3 9.752a.191.191 0 01.028-.131.2.2 0 01.109-.083l16.71-6.39-11.183 7.861-5.49-1.069a.202.202 0 01-.122-.063.193.193 0 01-.052-.125zm6.833 8.938a.218.218 0 01-.236.046.215.215 0 01-.097-.078.206.206 0 01-.036-.117v-5.46l3.261 2.794-2.892 2.815zm9.494.742a.21.21 0 01-.145.154.223.223 0 01-.21-.043l-9.118-7.811 13.524-9.508-4.051 17.208z" fill="#fff"/></svg>