<svg width="230" height="294" fill="none" xmlns="http://www.w3.org/2000/svg"><path d="M145.586 126.903c-.125-.089-.26-.054-.336.057l-2.415 3.699.031-2.926c.011-.124-.124-.254-.254-.281-.13-.027-.246.088-.257.213l-.006 2.944-1.507-2.738c-.07-.116-.209-.184-.32-.13a.207.207 0 00-.092.298l1.561 2.876-3.896-2.664c-.125-.09-.26-.054-.336.057-.076.111-.022.249.103.339l3.896 2.664-3.297-.445c-.13-.027-.246.088-.256.213-.011.124.123.254.253.281l3.192.436-2.833 1.212c-.111.054-.162.183-.093.299.07.116.209.183.32.13l2.738-1.182-2.294 3.52c-.076.112-.022.25.102.339.1.072.245.076.306-.012l.015-.023 2.415-3.698-.019 3.397c-.011.125.123.254.253.281.065.014.161-.017.191-.061.03-.045.061-.089.051-.129l.02-3.398 1.734 3.166c.07.116.209.183.32.13.04-.004.055-.026.07-.049.046-.066.082-.173.022-.249l-1.675-3.09 4.021 2.753c.1.072.245.077.306-.012l.015-.023c.076-.111.022-.249-.103-.338l-3.971-2.718 3.207.414c.065.013.16-.018.19-.062.031-.045.061-.089.051-.129.011-.125-.123-.254-.253-.282l-3.337-.44 2.833-1.213c.04-.004.055-.026.071-.049.045-.066.081-.173.021-.249-.069-.116-.209-.183-.319-.13l-2.928 1.244 2.536-3.877c.107-.155.052-.293-.047-.365zm-7.807 3.434a.14.14 0 01-.147.056c-.127-.026-2.829-.792-2.981-.835-.088-.03-.106-.108-.101-.169.02-.082.099-.09.162-.077.112.048 2.184.622 2.966.857.087.03.121.086.101.168.015-.021.015-.021 0 0zm1.491-2.468l-.03.043a.136.136 0 01-.19-.04l-2.774-3.635c-.058-.073-.038-.155.016-.181a.136.136 0 01.19.039l2.774 3.636c.049.034.043.095.014.138zm2.685-.772c-.015.022-.03.045-.071.049-.08.009-.17-.023-.189-.103-.079-.156-.757-3.458-.96-4.465-.019-.081.026-.147.107-.156a.162.162 0 01.174.125c.344 1.671.861 4.229.925 4.408.05.035.044.098.014.142zm-3.821 5.772c-.015.022-.045.066-.085.07l-2.651.247a.163.163 0 01-.174-.125c-.02-.08.026-.147.106-.155l2.651-.247a.164.164 0 01.174.125c.009.04-.006.062-.021.085z" fill="#2D2A76"/><path d="M139.193 135.043l-3.121 3.196c-.047.069-.157.06-.219-.019s-.083-.163-.009-.214l3.121-3.196c.048-.069.158-.06.22.019.036.06.056.144.008.214zm1.67 5.794c-.031.045-.071.049-.112.054a.18.18 0 01-.146-.172l.011-4.26c.006-.064.052-.131.158-.122a.18.18 0 01.146.172l-.011 4.26-.046.068zm3.441-1.373c-.015.022-.03.044-.07.048a.163.163 0 01-.174-.124l-.94-3.113c-.019-.08.026-.146.106-.155a.163.163 0 01.174.125l.94 3.112c.009.04-.021.085-.036.107zm4.258-1.522c-.083.068-.146.055-.218.004l-2.493-2.456c-.057-.072-.052-.131-.008-.195.068-.047.131-.034.203.017l2.494 2.456c.072.051.052.132.022.174zm2.096-4.102a.141.141 0 01-.148.056l-3.276-.884a.14.14 0 01-.102-.169c.006-.061.075-.108.163-.078l3.276.884a.141.141 0 01.102.169l-.015.022zm-.821-3.272c-.015.022-.07.049-.109.053l-2.441.06c-.08.009-.139-.067-.158-.146-.02-.08.05-.128.13-.137l2.441-.06c.079-.009.139.067.158.146.025.018.01.04-.021.084zm-1.878-3.664s-.016.023 0 0l-1.334 1.385c-.047.069-.157.06-.218-.019-.078-.055-.082-.162-.009-.212l1.318-1.362c.047-.07.156-.06.218.018.036.061.056.144.025.19zm-3.8-.367a.146.146 0 01-.155.059c-.092-.032-.128-.092-.106-.179l.553-2.428c.021-.087.078-.114.17-.082.092.032.128.092.107.179l-.553 2.428c-.026-.018-.016.023-.016.023zm-7.799 1.787c.084-.122.04-.302-.097-.4-.138-.099-.317-.079-.401.043-.083.123-.04.302.097.401.138.098.317.079.401-.044zm3.323-2.773c.083-.123.04-.303-.098-.401-.137-.099-.317-.08-.401.043-.083.123-.04.302.098.401.137.099.317.079.401-.043zm3.575-1.375c.084-.122.041-.301-.097-.4-.137-.099-.316-.079-.4.043-.084.123-.04.302.097.401.138.098.317.079.4-.044zm5.035 5.063c.083-.123.04-.302-.098-.401-.137-.098-.316-.079-.4.044-.084.122-.04.301.097.4.138.099.317.079.401-.043zm-2.441 8.426c.083-.123.04-.302-.097-.401-.137-.098-.316-.078-.4.044-.084.123-.041.302.097.401.137.098.316.078.4-.044zm-10.354-10.428c.067-.099.032-.242-.077-.321-.11-.079-.253-.063-.32.035s-.033.242.077.321c.11.078.253.063.32-.035zm1.531 7.29c.067-.098.032-.241-.078-.32-.109-.079-.253-.063-.32.035s-.032.241.078.319c.11.079.253.064.32-.034zm12.843-2.271c.067-.098.033-.241-.077-.319-.109-.079-.253-.063-.32.035s-.032.241.077.32c.11.078.253.063.32-.036zm-1.264-3.885c.067-.098.033-.241-.077-.32-.11-.079-.253-.063-.32.035s-.032.241.077.32c.11.079.253.063.32-.035zm.55 7.697c.067-.098.032-.241-.077-.32-.11-.078-.253-.063-.32.035s-.033.242.077.32c.11.079.253.063.32-.035zm-14.416-4.454c.067-.098.032-.242-.078-.321-.109-.079-.253-.063-.32.035s-.032.242.078.321c.11.078.253.063.32-.035zm7.694 7.638c.067-.098.033-.241-.077-.32-.11-.078-.253-.063-.32.035s-.032.241.077.32c.11.079.253.063.32-.035zm-40.971-5.339c-.044-.098.017-.187.112-.218.081-.009 8-1.467 8.874-1.603.096-.031.196.041.241.139.044.099-.017.188-.113.219-.874.136-8.793 1.594-8.874 1.602-.12.013-.22-.058-.24-.139zm.455 1.38s.015-.022 0 0c-.014-.141.071-.211.151-.22l5.757.09c.104.009.203.08.207.181.004.102-.056.19-.16.181l-5.757-.09c-.08.009-.178-.062-.198-.142zm-.632-2.424c-.02-.082.002-.169.058-.196l4.935-2.62c.072-.05.204-.022.25.078.061.078.049.205-.048.237l-4.935 2.62c-.072.05-.204.022-.25-.078 0 0-.025-.018-.01-.041zm-7.862 12.885c.107.01.192.104.196.208.02.081.254 8.267.283 9.16.004.104-.082.176-.189.167a.222.222 0 01-.196-.208c-.029-.893-.263-9.079-.282-9.16a.235.235 0 01.188-.167zm-1.216.123s.025.018.04-.005c.093.032.179.128.142.238l-.981 5.615c-.022.087-.11.16-.227.109-.092-.032-.179-.128-.142-.238l.982-5.615c.021-.086.093-.137.185-.104zm2.528.049a.277.277 0 01.183.164l1.803 5.569c.044.098-.017.186-.111.217-.095.03-.194-.041-.238-.138l-1.803-5.569c-.044-.097.016-.186.111-.216.03-.044.03-.044.055-.027zm4.638-3.573c.068-.047.184-.059.242.013.057.071 6.061 5.843 6.717 6.494.057.072.085.186.017.233-.068.046-.184.059-.241-.013-.657-.651-6.66-6.423-6.694-6.478-.105-.106-.109-.203-.04-.249zm-.881 1.048l.015-.021c.069-.048.196-.022.254.052l3.464 4.806c.058.073.047.194-.022.241-.068.048-.195.021-.253-.052l-3.464-4.806c-.058-.073-.063-.172.006-.22zm1.906-1.896c.044-.063.145-.055.217-.004l5.087 2.885c.072.05.138.159.08.243-.044.064-.151.114-.247.047l-5.086-2.885c-.072-.051-.139-.16-.08-.244l.029-.042zm-7.073-2.617c-.618-.014-2.069.163-3.892-1.275-2.046-1.599-3.11-3.119-3.33-3.77-.22-.651-.858-.582-.774.268.083.85.105 4.058 2.863 6.397 2.758 2.34 5.04 2.89 8.267 1.845 3.24-1.067 3.627-5.629 3.563-6.399-.046-.527-.142-1.089-.32-1.315-.177-.226-.372-.103-.48.215-.106.319-.3 1.792-1.847 2.757-1.522.983-3.512 1.301-4.05 1.277z" fill="#2D2A76"/><path d="M91.147 135.072c.083-.339.462-1.492-.244-2.198-.682-.689-1.892-1.093-1.835-1.284.056-.192 1.405.445 2.139.077.734-.368 1.1-1.067 1.224-1.575.124-.508.397-.146.34.045-.056.192-.547 1.563.07 2.073.619.51 1.713.865 1.752 1.025.04.161.004.268-.387.187-.4-.122-1.62-.566-2.12.003-.44.48-.677 1.536-.714 1.808-.02.084-.281.03-.225-.161zm-3.306 15.177c.057-.192.317-.898-.12-1.344-.437-.446-1.205-.733-1.17-.839.036-.107.899.313 1.365.119.467-.195.715-.613.807-.91.093-.298.256-.049.22.058-.036.107-.372.924.011 1.232.393.348 1.087.581 1.09.684.005.102 0 .164-.245.088-.245-.076-1.023-.403-1.355-.079-.302.279-.462.893-.478 1.08.02.08-.15.057-.125-.089zm-4.128-14.59c-.02.081-.127.133-.215.102-.087-.03-7.893-2.92-8.752-3.242-.087-.03-.154-.142-.134-.223.02-.081.127-.132.215-.102.859.322 8.665 3.212 8.752 3.243.087.03.154.141.134.222zm.281-1.468l-.015.021c-.044.063-.15.113-.246.046l-5.054-2.925c-.072-.05-.138-.159-.08-.243.044-.063.15-.113.246-.046l5.055 2.924c.071.051.114.143.094.223zm-.756 2.587c-.02.083-.09.131-.179.1l-5.758-.531a.216.216 0 01-.192-.202c-.004-.101.08-.171.185-.162l5.758.531a.216.216 0 01.191.202c-.015.022-.015.022-.005.062zm3.354 5.941c.061.078.05.206-.048.238-.072.05-6.87 4.15-7.628 4.592-.072.05-.205.022-.25-.079-.062-.077-.05-.205.047-.237.759-.442 7.556-4.542 7.628-4.592.072-.05.206-.022.251.078zm-.835-1.114s.026.019.01.041c.045.099.009.207-.087.239l-5.325 1.807a.216.216 0 01-.258-.117c-.044-.1-.008-.208.088-.239l5.325-1.808a.22.22 0 01.247.077zm1.42 2.003c.062.079.04.168.008.215l-3.698 4.306c-.048.07-.175.084-.28.009a.204.204 0 01-.044-.275l3.698-4.307c.048-.069.175-.083.28-.009.026.019.01.042.036.061zm2.05-14.536c-.069.048-.196.022-.24-.074-.057-.073-4.786-7.005-5.29-7.748-.057-.074-.047-.195.047-.225.069-.047.196-.021.239.074.528.761 5.256 7.693 5.29 7.749.058.073.047.194-.046.224zm1.015-.812s-.015.022-.04.004a.212.212 0 01-.25-.114l-2.406-5.376c-.044-.096-.008-.202.086-.232a.212.212 0 01.251.115l2.406 5.375c.068.114.023.18-.047.228zm-2.258 1.387c-.068.046-.155.017-.227-.034l-4.428-3.833c-.072-.051-.085-.185-.041-.248.044-.063.183-.059.255-.009l4.429 3.834c.072.05.085.185.04.248.025.017-.014.021-.028.042zm9.161.318c-.092-.032-.179-.128-.158-.215.021-.087 1.32-8.059 1.465-8.94.02-.087.109-.16.2-.128.093.032.18.128.158.215-.145.881-1.459 8.877-1.464 8.941-.021.086-.11.159-.201.127zm1.194.15l-.026-.019c-.094-.033-.15-.176-.103-.246l2.109-5.279c.022-.088.163-.124.241-.069.093.033.149.176.102.246l-2.109 5.279c-.022.088-.12.12-.214.088zm-2.419-.538c-.09-.031-.15-.108-.145-.17l-.773-5.752c-.005-.103.056-.193.162-.183.106.009.206.081.21.184l.774 5.752c.004.103-.057.192-.163.183-.04.004-.04.004-.065-.014zm13.583-5.109a1.478 1.478 0 01-.278.462.975.975 0 01-.337.222c-.166.079-.425.025-.62-.015-.22-.059-.4-.121-.43-.077.01.04.1.071.224.161.189.102.478.277.647.464.328.334.124.849.083 1.018-.031.045-.006.062.019.08.025.018.065.014.055-.026l.015-.022c.006-.063.036-.107.057-.191.056-.192.158-.449.314-.569.116-.115.301-.115.471-.092 0 0 .025.018.04-.004.195.04.399.121.529.148.18.062.21.018.191-.062 0 0-.035-.058-.075-.054-.164-.085-.533-.25-.767-.451-.1-.071-.129-.191-.158-.311a1.058 1.058 0 01.084-.503c.005-.062.036-.106.051-.128.03-.045-.029-.121-.054-.138.03-.045-.025-.018-.061.088zm-1.426 17.749c.055-.185-.068-.397-.274-.473-.207-.075-.418.013-.472.198-.055.185.068.397.274.472.206.076.417-.012.472-.197zM62.662 59.061c-.131.138-.438.315-.784.497-.347.181-1.108.264-1.405.481-.307.177-.85.483-.85.483-.152-.374.018-1.709.18-2.055.148-.325.26-1.303.226-1.361-.035-.058-.089-.196-.2-.143-.11.053-.253.48-.345.777-.093.298-.696.693-.924 1.026-.212.31-.537 1.004-.537 1.004l-.383-1.069c-.383-1.069-.117-1.838-.095-2.087.022-.249-.04-.592-.125-.685-.125-.09-.131.137-.148.324.009.205-.39.68-.493 1.102-.128.405-.228 1.094-.337 1.579-.118.445-.27.667-.27.667-.11-.112-.33-.766-.724-1.546a139.85 139.85 0 00-1.107-2.019c-.104-.174-.299-.214-.2.022.123.254.135.726.155 1.402-.005.659.153 1.731.365 2.181.196.473.03.552.03.552-.164-.085-1.62-1.428-1.809-1.695-.188-.268-1.13-.844-1.41-.978-.278-.135-.48.052-.07.213.408.161.99 1.538 1.182 1.907.192.37.886 1.364.886 1.364s-1.336-.76-1.97-.917c-.635-.157-1.313-.577-1.567-.694-.075-.053-.115-.049-.155-.045-.14-.067-.23-.098-.23-.098s-.175.04.074.218c.25.179.722 1.279 1.169 1.765.487.482 1.807 1.264 1.807 1.264s-1.307.121-1.956-.014c-.415-.099-1.805.36-2.163.07-.358-.29-.41.004-.161.182.248.179 1.19.755 1.52.76.33.006 2.168.63 2.317.736 0 0 .009.205-.472.257-.48.052-1.43.464-1.962.81-.533.345-.95.576-1.19.602-.266.008-.137.2.063.178.2-.022 1.391-.028 2.227-.057.836-.029 1.498-.183 1.613-.133 0 0-.087.235-.395.577-.308.342-.811.808-1.104 1.127-.252.316-.452.933-.633 1.035-.156.12-.312.24-.197.29.115.048.43-.089.642-.235.196-.124.676-.773 1.754-.992l1.062-.198s-.4.64-.538 1.005c-.162.346-.163 1.107-.33 1.351-.166.245-.45.604-.445.707.004.102.15.107.214.12.08-.008.796-.62.968-.927.187-.329 1.174-1.176 1.575-1.22 0 0 .05.632.043 1.024.007.37.312 1.118.344 1.505.017.41.065.774.008.965-.031.21.049.2.144.17.12-.013.233-.395.382-.884.124-.508.635-1.961.746-2.179l.087-.236s.167 1.113.324 1.59c.157.476.71 1.403.84 1.595.128.192.212.285.238.139.027-.147-.17-.62-.152-1.135.004-.494.08-1.366-.178-2.346 0 0 .5.789.893 1.137s.874.892.906 1.28c.048.364.21.779.33.766.11-.053.31-.671.113-1.144-.196-.472-.67-2.004-.624-2.235 0 0 .072-.213.518.273.447.486 1.11.928 1.609 1.12.499.193.648.3.763.35.115.05.216-.044.081-.173-.134-.13-1.32-1.543-1.725-2.199-.39-.677-.245-.837-.175-.721.025.018.09.031.204.08l.274.197c.205.08 1.103.395 1.663.498.57.144 1.139.288 1.464.356.31.09.331-.16.167-.245-.165-.084-.269-.258-.678-.42-.394-.183-.876-.727-1.398-1.102-.548-.393-.704-.274-.819-.323-.105-.009-.058-.24.683-.238.74.002 2.51.344 2.69.407.179.063.205-.084.105-.155-.1-.072-.264-.157-.681-.523-.433-.343-1.141-.72-1.75-.859-.635-.157-.49-.317-.49-.317.187-.164 1.661-.53 2.157-.604.456-.07.885-.59.856-.71-.03-.12-.445-.054-.776.105-.332.16-1.046.01-1.52-.164-.475-.175-1.37-.222-1.37-.222.922-.264 1.592-.81 1.984-1.058.407-.27.879-.362.98-.456.125-.075.01-.124-.24-.138-.235-.036-1.28-.026-1.727.084-.471.092-1.46.508-1.46.508l.137-.2c.136-.2 1.05-1.43 1.374-1.794.323-.364.55-.697.521-.817-.02-.08-.079-.156-.21-.019zM50.914 60.13l-.05-.036.05.036zm86.144 130.652c-.079-.156 6.333-5.415 6.145-5.683-.223-.325-7.087 4.51-7.317 4.412-.214-.121 3.506-7.411 3.051-7.506-.414-.099-4.413 7.057-4.608 7.017-.195-.041-3.632-6.411-3.983-6.332-.366.101 2.473 6.804 2.342 6.941-.131.138-9.153-7.395-8.195-6.245.957 1.151 6.999 7.074 6.877 7.252-.121.177-7.979-1.623-7.905-1.405.089.196 7.391 3.352 7.375 3.539-.017.186-6.169 2.025-5.965 2.106.19.103 6.542-.997 6.68-.766.139.232-5.96 6.444-5.674 6.351.286-.092 7.187-5.199 7.352-5.114.164.085-.42 6.151-.15 6.245.18.063 1.623-5.85 1.747-5.76.1.071 3.153 6.894 3.509 6.753.206-.084-1.998-7.39-1.998-7.39.189.103 6.804 5.676 6.88 5.565.075-.111-5.961-6.692-5.855-6.848.131-.137 6.81 1.975 6.811 1.811-.014-.143-6.443-3.598-6.388-3.625.055-.026 6.608-1.908 6.569-2.069.051-.129-7.221.907-7.3.751zm-73.275-29.09c-.069-.116 4.802-4.098 4.649-4.307-.179-.227-5.378 3.42-5.542 3.335-.165-.085 2.646-5.611 2.322-5.679-.325-.067-3.35 5.338-3.495 5.333-.13-.027-2.762-4.86-3.033-4.789-.27.07 1.89 5.16 1.788 5.253-.075.111-6.928-5.6-6.224-4.731.729.887 5.31 5.365 5.218 5.498-.09.133-6.054-1.235-5.99-1.057.078.156 5.61 2.537 5.623 2.679.015.143-4.683 1.536-4.503 1.599.164.085 4.958-.743 5.062-.57.103.174-4.528 4.89-4.298 4.824.231-.066 5.437-3.94 5.576-3.873.14.067-.328 4.661-.108 4.719.114.049 1.247-4.431 1.322-4.378.074.054 2.399 5.229 2.66 5.118.15-.057-1.506-5.613-1.506-5.613.164.085 5.177 4.311 5.222 4.244.046-.067-4.54-5.078-4.425-5.194.116-.115 5.172 1.495 5.143 1.375-.004-.102-4.893-2.717-4.838-2.744.04-.004 5.033-1.45 5.004-1.57-.054-.138-5.558.644-5.627.528zm90.109 79.074c-.219-.059-7.734-2.179-7.992-2.397-.233-.2-.102-.338.183-.43.31-.075 8.069.767 8.035.545-.033-.222-3.22-4.556-3.079-4.654.141-.097 4.195 3.671 4.346 3.613.175-.039 1.611-7.234 1.82-7.216.195.041.08 7.688.479 7.809.414.098 4.755-2.568 4.954-2.426.198.143-3.994 3.676-3.85 3.845.168.187 7.61 1.925 7.794 2.09.169.187.082.422-.133.466-.231.066-7.718-.846-7.779-.758-.046.067 3.888 4.771 3.887 4.936.023.182-.203.35-.501.136-.298-.214-3.99-3.754-4.169-3.817-.18-.063-1.257 7.258-1.367 7.311-.11.053-.385.021-.452-.423-.066-.445-.484-6.987-.603-7.138-.119-.152-4.368 2.218-4.577 2.199-.235-.036-.439-.116-.157-.475.258-.377 3.444-2.98 3.415-3.1.015-.022-.084-.094-.254-.116zM82.695 85.14c-.159-.146-5.73-5.927-5.822-6.225-.093-.297.107-.32.401-.207.294.112 6.84 5.006 6.921 4.833.082-.173-.257-5.207-.097-5.224.185 0 1.643 5.077 1.822 5.14.18.062 5.645-4.574 5.804-4.427.159.147-4.37 5.852-4.067 6.168.302.316 5.767.668 5.865.904.098.236-5.731.58-5.698.802.034.222 5.767 5.657 5.825 5.897.058.24-.163.346-.382.287-.244-.076-6.481-4.88-6.561-4.872-.096.03.738 5.75.647 5.883-.106.155-.38.123-.513-.17-.143-.334-1.424-5.019-1.567-5.188-.12-.151-5.347 4.788-5.477 4.76-.13-.026-.353-.187-.16-.577.202-.35 3.603-5.543 3.579-5.725-.024-.183-5.207-.73-5.406-.872-.159-.147-.343-.312.118-.444.46-.132 4.84-.36 4.876-.467.06-.088.026-.146-.108-.275zm112.231 93.736c-.085-.093-2.753-3.56-2.792-3.72-.039-.16.081-.173.245-.089.165.085 3.436 3.159 3.496 3.07.061-.089.221-2.816.325-2.806.105.009.545 2.835.659 2.884.09.032 3.458-2.079 3.543-1.985.084.093-2.839 2.853-2.711 3.045.169.187 3.158.745 3.187.865.029.12-3.227-.101-3.213.041-.011.124 2.804 3.432 2.818 3.574.014.142-.122.177-.236.128-.115-.049-3.246-3.056-3.311-3.069-.04.004.002 3.141-.043 3.207-.061.089-.216.044-.279-.134-.064-.178-.43-2.786-.499-2.902-.06-.076-3.299 2.226-3.389 2.194-.065-.013-.174-.124-.053-.302.121-.177 2.394-2.743 2.389-2.845-.004-.102-2.853-.758-2.937-.852-.084-.093-.169-.187.087-.235.255-.048 2.722.136 2.753.091.055-.026.02-.084-.039-.16zm-1.781 39.818c-.23-.098-8.471-3.863-8.699-4.126-.228-.263-.057-.404.288-.421.345-.017 9.121 2.315 9.128 2.089.006-.227-2.798-5.608-2.632-5.687.165-.08 4.082 4.811 4.282 4.789.2-.021 3.272-7.66 3.517-7.584.244.076-1.415 8.465-.957 8.661.458.197 5.955-1.938 6.148-1.733.193.204-5.32 3.285-5.157 3.534.139.232 8.369 3.526 8.572 3.771.163.249.011.471-.244.519-.28.03-8.721-2.359-8.791-2.31-.086.071 3.519 5.96 3.512 6.186-.031.209-.307.341-.584.043-.293-.276-3.852-4.877-4.042-4.98-.189-.102-2.883 7.742-3.018 7.777-.135.035-.444-.054-.441-.547.004-.493.825-7.765.697-7.956-.129-.192-5.453 1.637-5.697 1.561-.244-.076-.473-.174-.096-.564.362-.368 4.551-2.648 4.537-2.79-.045-.098-.119-.152-.323-.232zM40.428 58.013c-2.71-.627-5.052-.823-6.68 1.829.43-2.952-.856-4.96-3.595-6.627 2.785.68 5.212.805 6.835-1.785-.455 2.934.856 4.96 3.44 6.583zm102.078 113.099c.028-.052.004-.122-.054-.156-.059-.034-.129-.019-.157.033-.028.052-.003.123.055.157s.128.019.156-.034zm-12.898-5.35s.024.018 0 0c.166.022.289-.051.3-.172.025-.142-.106-.268-.233-.294l-4.236-.958-.015.021.024.018 4.16 1.385zm.525-.254l.133.129.064.178.116-.115.175-.04-.134-.129-.063-.178-.116.115-.015.022-.16.018zm-.368 2.689s.025.018 0 0c.151-.058.218-.21.148-.326a.317.317 0 00-.356-.19l-4.008 1.222-.015.023.025.018 4.206-.747zm.724-.538l.115-.115-.178-.062-.134-.129-.026.146-.015.022-.101.093.179.063.134.129.026-.147zm.619 2.446c.08-.116.066-.265-.049-.381-.13-.093-.282-.098-.388-.001l-2.686 3.238-.016.023.026.019 3.081-2.851.032-.047zm.136-.95l.054.138.01.04-.026.146.175-.039.179.062-.063-.177.041-.169-.175.039-.195-.04zm1.926 1.952c.027-.15-.11-.283-.244-.311-.158-.046-.277.073-.288.2l-.469 4.25.026.018.015-.023.96-4.134c-.015.023-.015.023 0 0zm-.098-.728l.063.178.116-.115.175-.04-.133-.129-.064-.178-.116.116-.175.039.134.129zm2.458.551a.314.314 0 00-.352-.186c-.134.035-.2.185-.146.322l1.759 4.047.025.018.015-.022-1.301-4.179c-.015.022-.015.022 0 0zm-.443-.686l-.115.115.154.045.025.018.109.111.041-.169.116-.115-.179-.063-.134-.129-.017.187zm2.109-.632c-.074.105-.06.24.045.345l3.397 2.768.024.017.015-.021-3.076-3.075-.024-.017c-.129-.123-.284-.106-.381-.017zm-.46-.5l.064.178-.042.169.136-.036.04-.004.154.045-.063-.178.041-.169-.175.039-.155-.044zm1.943-1.745c-.024-.017-.024-.017 0 0-.166-.022-.289.051-.3.172-.025.142.106.268.233.294l4.236.958.015-.021-.024-.018-4.16-1.385zm-.549.237l-.134-.129-.064-.177-.115.115-.176.04.134.129.064.177.115-.115.016-.022.16-.018zm.392-2.672c-.025-.018-.025-.018 0 0-.152.058-.218.21-.149.327.055.139.221.225.357.189l4.008-1.222.015-.022-.025-.018-4.206.746zm-.748.521l-.116.116.179.062.133.129.026-.147.016-.022.1-.093-.179-.062-.133-.129-.026.146zm2.501-5.304L137.194 163l-.016.024c-.08.116-.065.265.049.381.13.093.282.098.388 0l2.686-3.237s.016-.024-.026-.019c.016-.023.016-.023 0 0zm-3.296 3.645l.042-.169-.175.04-.18-.063.064.178-.042.169.176-.04.179.063-.064-.178zm-1.846-1.796c-.027.151.11.284.243.311.159.046.278-.072.289-.2l.468-4.249-.025-.019-.016.023-.959 4.134c-.026-.018 0 0 0 0zm-.257.704l.134.13.064.178.115-.116.176-.039-.134-.13-.025-.018-.039-.16-.116.116-.175.039zm-2.103-.526a.314.314 0 00.352.186c.134-.035.2-.184.146-.321l-1.759-4.048-.025-.017-.015.022 1.301 4.178c-.024-.017 0 0 0 0zm.425.709l.116-.115-.154-.045-.025-.018-.109-.111-.041.169-.116.115.179.063.134.129.016-.187zm-2.131.616c.073-.105.06-.24-.045-.346l-3.398-2.767-.024-.017-.014.021 3.076 3.075.024.017c.153.139.308.122.381.017zm.483.516l-.064-.178.042-.169-.136.036-.04.004-.155-.045.064.178-.041.169.175-.039.155.044zm5.619 2.746c.04-.004.055-.026.07-.048.015-.022.015-.022.006-.062.005-.063-.045-.098-.11-.112l-.024-.018a3.215 3.215 0 00-.441-1.308l.015-.022.03-.045c.015-.022.006-.062-.004-.102-.035-.058-.099-.072-.13-.027l-.015.022a3.615 3.615 0 00-1.048-1.017l.015-.022c.03-.044-.004-.102-.054-.138-.05-.035-.105-.009-.135.036l-.015.022a3.208 3.208 0 00-1.353-.408l-.01-.041c.006-.062-.044-.097-.109-.111-.065-.013-.095.031-.101.093l.01.04a2.8 2.8 0 00-1.292.264l-.025-.018c-.035-.058-.1-.072-.13-.027-.055.026-.061.089-.011.124l.025.018a2.412 2.412 0 00-.897.878l-.025-.018c-.049-.035-.105-.009-.135.036-.03.044.004.102.054.138l.025.017a2.536 2.536 0 00-.244 1.28l-.04.005c-.065-.014-.096.031-.101.093-.005.062.044.098.109.111l.04-.004c.052.467.199.903.441 1.308l-.015.023c-.055.026-.061.088-.011.124.035.058.1.071.13.027l.015-.022c.257.383.61.735 1.023.999l-.015.022c-.03.044.004.102.054.138.05.035.105.009.135-.035l.016-.023c.428.242.892.376 1.352.409l.01.04c-.006.062.044.098.109.111.04-.004.055-.026.07-.049.016-.022.016-.022.006-.062l-.01-.04c.475.01.906-.078 1.293-.263l.024.017c.035.058.1.072.13.027l.031-.044c.015-.022.005-.062-.005-.102l-.024-.018c.361-.204.678-.505.911-.9l.025.018c.05.035.105.009.135-.036.031-.044-.004-.102-.054-.138l-.024-.018c.222-.27.3-.71.298-1.142zm-4.231 1.959c-1.344-.799-1.928-2.442-1.264-3.685.649-1.221 2.267-1.581 3.637-.764 1.345.799 1.928 2.442 1.264 3.685-.649 1.221-2.267 1.582-3.637.764z" fill="#2D2A76"/><path d="M134.853 165.431c-.076.111-.303.444-.623.479a3.141 3.141 0 01-.22-.819c.006-.062-.139-.067-.12.013.03.12.117.48 0 .76-.424-.139-.832-.464-.877-.398-.046.067.392.348.56.7-.372.163-.837.193-.817.273.019.08.54.024.908.189a1.249 1.249 0 01-.229.662c-.137.199.048.2.119.151.03-.044.242-.355.478-.483.178.227.277.463.3.645.044.263.19.103.17.023.006-.062-.097-.4-.075-.649.329.169.687.459.742.433.055-.027.11-.053-.049-.2-.084-.094-.333-.272-.511-.499.316-.137.846-.154.851-.216.006-.062.011-.124-.199-.143-.144-.005-.505.034-.784-.1a1.98 1.98 0 01.445-.705c.061-.089-.023-.182-.069-.116zm46.171-31.792c.1-.147.048-.362-.117-.48s-.38-.095-.48.052c-.101.147-.049.362.116.481.165.118.38.094.481-.053zm-1.797 4.217c.117-.171.056-.422-.136-.56-.192-.138-.443-.111-.561.06-.117.172-.056.423.137.561.192.138.443.111.56-.061z" fill="#2D2A76"/><path d="M180.041 131.489c-.224-.16-3.572.571-4.015.353-.442-.219.972-4.019.564-4.18-.268-.093-1.321 2.582-1.492 2.887-.172.306-.128.403-.496.238-.368-.165-1.669-3.077-2.105-2.927-.34.119 1.388 3.435.991 3.745-.371.327-3.703-1.996-4.073-1.833-.441.212.559.697 1.632 1.401 1.032.707 2.299 1.451 2.126 1.921-.173.469-2.665.76-3.202 1.166-.341.283-.127.403.172.453.274.032 1.384-.293 2.274-.513.85-.215 1.289-.263 1.154.531-.111.811-.985 2.955-.635 2.876.325-.097 1.28-2.413 1.612-2.736.346-.345.486-.278 1.334 1.023.849 1.301 1.342 2.908 1.747 2.802.349-.079-1.249-3.962-1.157-4.259.092-.297 1.483.536 2.7 1.244 1.202.73 1.235.358 1.152.1-.083-.257-3.487-2.203-3.435-2.496.052-.292 1.691-.634 2.542-1.013.891-.383.783-.659.61-.783zm-11.111.915c.109-.159.052-.392-.126-.52-.179-.129-.412-.103-.521.056-.109.159-.052.392.127.521.178.128.411.102.52-.057zm2.081-4.125c.084-.123.041-.302-.097-.401-.137-.098-.316-.079-.4.044-.084.122-.04.301.097.4.137.099.317.079.4-.043zm3.765-1.138c.092-.135.045-.332-.106-.441-.152-.108-.349-.087-.441.048-.092.135-.044.332.107.44.151.109.348.087.44-.047zm-3.973 10.234c.092-.135.044-.332-.107-.441-.151-.108-.348-.086-.44.048-.093.135-.045.332.106.441.151.108.349.087.441-.048z" fill="#2D2A76"/><path d="M175.054 138.571c.109-.159.053-.392-.126-.52-.178-.129-.411-.103-.52.056-.109.159-.053.392.126.521.179.128.412.102.52-.057zm4.283-9.532c.075-.11.037-.272-.087-.36-.123-.089-.285-.071-.36.039-.075.111-.036.272.087.36.123.089.285.071.36-.039zm-68.942-20.747c-.04-.201-.216-.349-.395-.332-.179.017-.292.194-.253.394.039.201.216.35.395.333.178-.018.292-.194.253-.395zm1.563 4.304c-.046-.234-.252-.408-.461-.388-.208.021-.341.227-.295.461.046.234.252.407.46.387.209-.02.341-.226.296-.46z" fill="#2D2A76"/><path d="M107.727 107.295c-.265.008-1.865 2.89-2.31 3-.445.11-2.255-3.962-2.625-3.799-.246.088.992 2.991 1.104 3.369.112.378.202.409-.138.528-.366.101-3.248-1.371-3.431-.941-.122.342 3.324 1.856 3.305 2.371-.018.515-3.763.9-3.9 1.264-.134.466.867.193 2.042.045 1.175-.148 2.476-.371 2.722.136s-1.176 2.426-1.187 3.146c-.028.475.227.426.428.24.186-.163.673-1.201 1.068-1.942.411-.763.623-1.073 1.127-.348s1.487 3.081 1.634 2.758c.147-.324-.914-2.836-.935-3.347-.021-.51.114-.546 1.604-.071 1.49.474 2.922 1.468 3.1 1.1.147-.324-3.62-2.398-3.768-2.669-.148-.272 1.333-.596 2.594-.815 1.276-.241 1.038-.544.789-.722-.238-.138-3.761.572-3.974.287-.212-.284.622-1.668.898-2.56.316-.896.053-1.052-.147-1.03zm-6.958 8.452c-.042-.217-.233-.378-.427-.36-.194.019-.316.211-.274.428.042.218.234.379.427.36.194-.019.317-.21.274-.428zm-1.302-4.418c-.033-.167-.18-.291-.329-.277-.149.015-.243.162-.21.33.032.167.18.291.328.277.15-.015.243-.162.21-.33z" fill="#2D2A76"/><path d="M101.396 107.912c-.036-.184-.198-.32-.362-.304-.164.016-.268.178-.232.362.036.184.198.32.362.304.164-.016.268-.178.232-.362zm4.153 10.144c-.036-.184-.198-.321-.361-.305-.164.016-.268.178-.232.362.035.184.197.32.361.305.164-.016.268-.178.232-.362zm3.914-2.061c-.042-.218-.234-.379-.427-.361-.194.019-.317.211-.274.428.042.218.233.379.427.36.194-.018.316-.21.274-.427zm-3.474-9.883c-.03-.15-.162-.262-.296-.249-.134.013-.219.146-.19.296.029.151.162.262.296.249.134-.013.219-.145.19-.296zm79.159 82.194c-.18-.063.396-2.102.136-2.156-.235-.036-2.477 1.669-2.621 1.499-.144-.169 2.488-1.793 2.204-2.03-.284-.237-2.235-.643-2.178-.834.016-.187 2.301.491 2.138.077-.162-.415-1.925-2.509-1.769-2.629.181-.102 1.698 2.08 2.099 2.037.241-.026.506-1.99.71-1.909.205.08-.247 1.612.14 2.187.386.576 2.885-1.342 3.029-1.172.144.169-2.507 1.713-2.285 2.203.222.491 2.329.777 2.322 1.004-.007.227-2.326-.509-2.388-.255-.133.467 1.436 2.355 1.295 2.453-.211.147-1.651-2.312-2.033-2.188-.567.123-.619 1.776-.799 1.713zM47.916 61.147c-.162.235-.465.307-.76.161l-2.383-1.147c-.072-.051-.135-.064-.193-.137-.063-.013-.15-.043-.214-.056l-2.382-1.147c-.32-.163-.492-.54-.363-.831.129-.292.5-.411.82-.248l2.382 1.147c.073.051.136.064.194.137.063.013.15.043.213.056l2.382 1.147c.32.163.492.54.363.832l-.059.086zM76.94 78.806c-.014.021-.014.021 0 0-.189.271-.597.296-.869.075l-1.02-.776c-.072-.05-.105-.104-.138-.158a.571.571 0 01-.181-.096l-2.079-1.548c-.286-.2-.364-.597-.189-.847.176-.25.584-.275.87-.075l2.079 1.548c.071.05.105.104.138.158a.56.56 0 01.181.096l1.02.776c.272.221.364.597.189.847zm-5.558-4.139s-.015.021 0 0c-.19.272-.599.296-.87.075l-.343-.27c-.286-.201-.364-.597-.189-.848.175-.25.584-.275.87-.075l.343.271c.272.222.364.597.189.847zm-2.437-1.798c-.19.271-.598.296-.87.075l-2.078-1.548a.466.466 0 01-.138-.158.652.652 0 01-.205-.113l-2.079-1.548c-.286-.2-.364-.596-.189-.847.176-.25.584-.275.87-.075l2.079 1.548c.072.05.105.104.138.159a.644.644 0 01.205.112l2.079 1.548c.271.221.364.597.188.847zm33.095 33.442a.378.378 0 01-.128.133c-.274.189-.654.111-.886-.181l-1.009-1.261c-.034-.055-.092-.129-.11-.206a.83.83 0 01-.18-.159l-1.647-2.065c-.232-.292-.2-.653.075-.842.275-.188.655-.11.887.182l1.647 2.065c.033.056.091.129.11.206a.564.564 0 01.155.142l1.009 1.26c.198.237.211.533.077.726zm-4.607-5.733a.394.394 0 01-.128.133c-.275.189-.655.111-.887-.182l-.265-.348c-.232-.293-.2-.653.075-.842.275-.189.655-.11.887.182l.265.348c.174.219.186.516.053.709zm-1.927-2.392c-.03.043-.074.108-.128.133-.275.19-.655.111-.887-.181l-1.646-2.065c-.034-.056-.092-.129-.11-.206a.569.569 0 01-.156-.142l-1.647-2.065c-.231-.292-.2-.653.076-.842.274-.188.654-.11.886.182l1.647 2.065c.034.056.091.129.11.206a.55.55 0 01.155.142l1.647 2.065c.15.202.186.515.053.709zm38.701 29.627c-.176.251-.522.289-.823.109l-1.554-.933c-.301-.18-.432-.552-.266-.841.151-.268.527-.347.852-.15l1.554.933c.301.18.432.552.266.84l-.029.042zm-3.782-2.276c-.175.251-.522.289-.823.109l-.373-.23c-.301-.18-.432-.552-.28-.82.151-.268.527-.347.828-.167l.373.23c.301.18.432.552.281.82.009.037-.006.058-.006.058zm-2.639-1.569c-.175.251-.522.289-.823.109l-2.227-1.343a.723.723 0 01-.177-.155.6.6 0 01-.196-.075l-2.228-1.343c-.301-.18-.432-.552-.266-.841.152-.268.528-.347.853-.15l2.227 1.343c.072.05.12.083.177.154a.602.602 0 01.196.076l2.228 1.343c.301.18.432.552.266.841l-.03.041zm-7.055-4.259c-.176.251-.522.289-.823.109l-.373-.23c-.301-.18-.433-.552-.266-.841.151-.268.527-.347.852-.151l.373.231c.301.18.432.552.266.84a1.807 1.807 0 00-.029.042zm-2.615-1.552c-.176.251-.522.289-.824.109l-2.227-1.343c-.072-.051-.12-.084-.177-.155a.624.624 0 01-.196-.075l-2.228-1.343c-.301-.18-.432-.553-.266-.841.152-.268.528-.347.853-.151l2.227 1.343c.072.051.12.084.177.155a.624.624 0 01.196.075l2.228 1.343c.301.18.432.553.266.841l-.029.042zm-17.167 5.158c-.173.254-.537.336-.837.156-.341-.176-.51-.606-.346-.901.238-.517.687-1.398 1.094-2.274l.127-.185a.478.478 0 01.058-.198c.571-1.172.977-1.878 1.166-2.154a.738.738 0 01.184-.212c.267-.222.687-.161.949.13.237.273.27.675.045.891-.142.208-.432.688-1.103 2.062l-.126.185a.494.494 0 01-.059.198 64.533 64.533 0 00-1.094 2.275c-.026-.019-.042.004-.058.027zm2.398-4.742l.016-.023-.016.023zm64.223 15.346c-.105.153-.308.236-.531.24l-1.334-.139c-.065-.013-.153-.044-.218-.057-.079.008-.133.034-.222.004l-2.581-.247a.748.748 0 01-.672-.677c-.022-.342.262-.596.613-.573l2.58.247c.064.013.153.044.217.057.079-.008.134-.035.223-.004l1.334.139a.749.749 0 01.673.677.479.479 0 01-.082.333zm-6.925-.646c-.105.153-.309.236-.531.24l-.415-.036a.749.749 0 01-.673-.677c-.022-.342.262-.596.613-.573l.415.036a.75.75 0 01.673.677c.028.118-.007.223-.082.333zm-2.996-.283c-.105.153-.308.236-.531.24l-2.58-.247c-.064-.013-.153-.044-.217-.057-.079.009-.134.035-.223.004l-2.58-.247a.748.748 0 01-.673-.676c-.022-.343.262-.596.613-.574l2.58.247c.065.013.153.044.218.058.079-.009.133-.035.222-.004l2.581.246c.351.023.65.335.672.677.029.118-.022.246-.082.333zm11.714 5.893a.479.479 0 01-.136.143l-2.019 1.496c-.073.051-.13.078-.187.106-.032.046-.079.115-.152.165l-2.019 1.496c-.291.202-.71.142-.956-.171-.245-.314-.211-.7.055-.92l2.019-1.497c.073-.05.13-.078.187-.105a.554.554 0 01.151-.166l2.02-1.496c.291-.202.71-.142.955.172.226.23.239.548.082.777zm-6.365 4.715c-.032.045-.063.091-.12.119l-.323.248c-.291.202-.71.141-.956-.172-.245-.313-.211-.7.054-.92l.323-.248c.292-.202.71-.141.956.172.168.258.207.594.066.801zm-2.368 1.725c-.032.046-.063.092-.136.143l-2.019 1.496c-.073.051-.13.078-.187.106-.048.069-.079.115-.152.165l-2.019 1.496c-.292.202-.71.142-.956-.171-.246-.314-.211-.7.054-.92l2.02-1.497c.073-.05.13-.078.187-.105.047-.069.078-.115.151-.166l2.02-1.496c.291-.202.709-.142.955.172.21.253.223.571.082.777zm-6.366 4.714a.474.474 0 01-.135.143l-.323.248c-.291.202-.694.118-.956-.172-.245-.313-.211-.7.055-.92l.322-.248c.292-.202.694-.118.956.172.21.253.223.571.081.777zm-2.342 1.745a.473.473 0 01-.135.142l-2.02 1.497c-.073.05-.13.078-.187.105-.047.069-.078.115-.151.165l-2.02 1.497c-.291.202-.71.141-.955-.172-.246-.313-.212-.7.054-.92l2.019-1.496c.073-.051.13-.078.187-.106a.53.53 0 01.152-.165l2.019-1.497c.291-.202.71-.141.956.172.184.235.223.571.081.778zm-6.406 4.718c-.032.046-.063.092-.136.143l-.323.248c-.291.202-.694.118-.956-.172-.245-.313-.211-.7.055-.92l.322-.248c.292-.202.695-.119.956.172.226.23.239.548.082.777zm-2.343 1.745a.473.473 0 01-.135.142l-1.244.923c-.292.202-.71.141-.956-.172-.246-.313-.211-.7.054-.92l1.244-.923c.292-.202.71-.141.956.172.225.23.238.548.081.778zm50.899 16.364a.621.621 0 01-.253.21.732.732 0 01-.866-.391l-.365-.749a.802.802 0 01-.072-.214c-.034-.057-.108-.11-.127-.188l-1.162-2.36c-.165-.346-.044-.682.293-.8.321-.095.7.045.866.391l1.161 2.36a.768.768 0 01.073.214c.034.057.108.11.127.189l.364.748a.542.542 0 01-.039.59zm-2.873-5.892a.622.622 0 01-.253.21c-.337.117-.701-.046-.866-.391l-.199-.403c-.165-.346-.044-.682.292-.8.337-.117.701.045.866.391l.2.403a.636.636 0 01-.04.59zm-1.361-2.762a.627.627 0 01-.253.209c-.337.118-.701-.045-.866-.391l-1.162-2.359a.81.81 0 01-.072-.215c-.035-.057-.108-.109-.127-.188l-1.162-2.36c-.166-.345-.045-.682.292-.799a.731.731 0 01.866.391l1.162 2.359a.81.81 0 01.072.215c.035.057.108.109.127.188l1.162 2.36a.542.542 0 01-.039.59zm-3.645-7.486a.64.64 0 01-.254.21c-.336.117-.701-.046-.866-.391l-.199-.403c-.165-.346-.044-.683.292-.8.337-.117.701.045.866.391l.2.403c.072.214.065.437-.039.59zm-1.362-2.762a.627.627 0 01-.253.209.731.731 0 01-.866-.391l-1.162-2.359c-.034-.057-.053-.136-.072-.215-.035-.057-.108-.109-.127-.188l-1.162-2.36c-.166-.345-.044-.682.292-.799a.731.731 0 01.866.391l1.162 2.359a.81.81 0 01.072.215c.035.057.108.109.127.188l1.162 2.36a.633.633 0 01-.039.59zm-3.685-7.482a.621.621 0 01-.253.21c-.337.117-.701-.045-.866-.391l-.2-.403c-.165-.346-.044-.682.293-.8.336-.117.701.046.866.391l.199.403a.597.597 0 01-.039.59zm-1.346-2.784a.632.632 0 01-.254.21.734.734 0 01-.866-.391l-1.162-2.36c-.034-.057-.053-.136-.072-.214-.034-.057-.108-.11-.127-.189l-1.162-2.359c-.14-.328-.044-.683.293-.8.321-.095.7.045.866.391l1.162 2.36a.802.802 0 01.072.214c.034.057.108.11.127.188l1.162 2.36c.097.232.066.437-.039.59zm16.622 67.729a.521.521 0 01-.293.214c-.323.096-.712-.084-.853-.414l-.93-2.068c-.141-.33-.005-.689.318-.785.322-.096.712.085.853.414l.929 2.069a.529.529 0 01-.024.57zm-1.985-4.488a.53.53 0 01-.294.214c-.322.096-.712-.085-.853-.414l-.175-.387c-.141-.329-.005-.689.318-.784.322-.096.712.085.853.414l.175.386c.088.194.081.417-.024.571zm-1.271-2.802a.527.527 0 01-.293.214c-.323.096-.712-.085-.853-.414l-1.071-2.398a.361.361 0 01-.048-.198c-.034-.057-.093-.131-.127-.189l-1.071-2.397c-.141-.33-.004-.689.318-.785.322-.096.712.085.853.414l1.071 2.398a.361.361 0 01.048.198c.034.057.093.131.127.189l1.071 2.397a.534.534 0 01-.025.571zm-3.372-7.602a.527.527 0 01-.293.214c-.323.096-.712-.085-.853-.414l-.176-.387c-.141-.329-.004-.689.318-.784.323-.096.712.084.853.414l.175.386c.088.194.081.417-.024.571zm-1.255-2.824a.53.53 0 01-.294.214c-.322.096-.712-.085-.853-.414l-1.07-2.398a.345.345 0 01-.048-.198c-.035-.057-.093-.131-.128-.188l-1.07-2.398c-.141-.33-.005-.689.317-.785.323-.096.712.085.853.414l1.071 2.398a.361.361 0 01.048.198c.034.057.093.131.127.189l1.071 2.397a.536.536 0 01-.024.571zm-32.581 40.061a.627.627 0 01-.253.209.732.732 0 01-.866-.391l-1.162-2.36c-.034-.056-.053-.135-.073-.214-.034-.057-.107-.11-.126-.188l-1.162-2.36c-.166-.346-.045-.682.292-.799a.731.731 0 01.866.391l1.162 2.359c.034.057.053.136.072.214.034.057.108.11.127.189l1.162 2.359a.6.6 0 01-.039.591zm-3.67-7.503a.627.627 0 01-.253.209.731.731 0 01-.866-.391l-.2-.403c-.165-.346-.044-.682.293-.799.321-.096.7.045.866.391l.199.402a.638.638 0 01-.039.591zm-1.361-2.763a.624.624 0 01-.254.21.733.733 0 01-.866-.391l-1.161-2.36a.768.768 0 01-.073-.214c-.034-.057-.108-.11-.127-.188l-1.162-2.36c-.165-.346-.044-.682.293-.799.321-.096.7.045.866.391l1.161 2.359c.035.057.054.136.073.214.034.057.108.11.127.189l1.162 2.359a.542.542 0 01-.039.59zm-3.646-7.485a.637.637 0 01-.253.21.733.733 0 01-.866-.391l-.199-.403c-.166-.346-.045-.682.292-.8a.732.732 0 01.866.391l.199.403a.633.633 0 01-.039.59zm-1.361-2.762a.63.63 0 01-.254.209.73.73 0 01-.865-.391l-1.162-2.359a.81.81 0 01-.073-.215c-.034-.056-.108-.109-.127-.188l-1.162-2.359c-.165-.346-.044-.683.293-.8a.733.733 0 01.866.391l1.162 2.36a.79.79 0 01.072.214c.034.057.108.11.127.188l1.162 2.36a.636.636 0 01-.039.59zm-3.67-7.503a.63.63 0 01-.254.209.732.732 0 01-.866-.391l-.199-.402c-.141-.329-.044-.683.293-.8.321-.095.7.045.865.391l.2.403c.072.214.066.437-.039.59zm-1.362-2.762a.62.62 0 01-.253.209.731.731 0 01-.866-.391l-1.162-2.359c-.034-.057-.053-.136-.072-.215-.034-.056-.108-.109-.127-.188l-1.162-2.359c-.165-.346-.044-.683.292-.8a.732.732 0 01.866.391l1.162 2.36a.79.79 0 01.073.214c.034.057.107.109.127.188l1.162 2.36a.571.571 0 01-.04.59zm-5.921-18.307c-.107.157-.315.242-.543.246a.767.767 0 01-.688-.695l-.107-2.59c.006-.063.027-.148.032-.211a.301.301 0 01-.033-.225l-.108-2.59c-.022-.351.268-.612.627-.588a.767.767 0 01.688.695l.107 2.589c-.006.063-.027.149-.032.212.035.058.054.14.034.225l.107 2.59c-.011.126-.022.252-.084.342zm-.328-8.143c-.108.158-.316.243-.543.247a.768.768 0 01-.688-.695l-.017-.415c-.023-.351.267-.611.626-.588a.767.767 0 01.688.695l.017.414c-.011.126-.022.253-.083.342zm-.125-3.003c-.107.157-.315.242-.543.246a.765.765 0 01-.687-.695l-.107-2.589c.005-.063.026-.149.031-.212a.301.301 0 01-.033-.225l-.009-.207c-.023-.352.268-.612.627-.589a.766.766 0 01.687.695l.009.207c-.006.063-.027.149-.032.212.035.059.055.14.034.225l.107 2.59a.49.49 0 01-.084.342zm-7.051-12.31l-.015.02c-.199.234-.583.276-.879.038l-2.048-1.588c-.072-.05-.105-.105-.138-.159a.628.628 0 01-.205-.112l-2.049-1.589c-.271-.221-.364-.596-.15-.85.199-.234.584-.275.879-.038l2.048 1.589c.072.05.105.104.138.158a.628.628 0 01.205.112l2.049 1.589c.233.225.325.6.165.83zm-6.498-5.074l-.015.021c-.199.233-.584.275-.879.037l-.343-.271c-.271-.221-.364-.596-.15-.85.199-.234.584-.275.879-.038l.343.271c.233.225.325.601.165.83zm-2.416-1.876l-.014.021c-.2.233-.584.275-.879.037l-2.049-1.588a.472.472 0 01-.138-.158c-.062-.013-.133-.063-.205-.113l-2.049-1.588c-.271-.221-.363-.596-.15-.851.199-.233.584-.275.879-.037l2.049 1.588c.071.05.104.104.138.158.062.013.133.063.205.113l2.048 1.588c.257.242.34.58.165.83zm-6.498-5.074l-.015.021c-.199.234-.583.275-.878.038l-.343-.271c-.272-.221-.364-.596-.151-.851.2-.233.584-.275.879-.037l.343.271c.257.242.326.6.165.829zm-2.392-1.859l-.014.021c-.199.233-.584.275-.879.037l-2.049-1.588c-.071-.05-.104-.104-.137-.158-.063-.013-.134-.063-.206-.113l-.581-.438c-.272-.221-.364-.596-.15-.85.199-.234.583-.275.879-.038l.581.438c.072.05.105.104.138.158a.652.652 0 01.205.113l2.049 1.588c.257.242.34.58.164.83zm-31.827.133a.403.403 0 01-.135.141l-1.248.878c-.29.201-.692.118-.952-.171-.245-.312-.21-.697.054-.917l1.248-.878c.29-.201.692-.118.952.172.21.252.222.569.081.775zm-3.269 2.327a.418.418 0 01-.135.142l-.347.228c-.29.202-.691.118-.952-.171-.244-.312-.21-.697.054-.917l.347-.228c.29-.201.691-.118.952.171.209.253.222.569.081.775zm-2.358 1.719a.398.398 0 01-.135.142l-2.02 1.45c-.057.027-.13.077-.187.105-.047.068-.078.114-.135.141l-2.02 1.45c-.29.201-.692.118-.952-.171-.245-.313-.21-.698.054-.917l2.02-1.45c.057-.027.13-.077.187-.105a.415.415 0 01.135-.142l2.02-1.449c.29-.201.692-.118.952.171.21.253.238.546.081.775z" fill="#2D2A76"/></svg>