<svg width="25" height="25" fill="none" xmlns="http://www.w3.org/2000/svg"><path d="M21.675.657H2.818A2.57 2.57 0 00.247 3.225v18.831a2.57 2.57 0 002.571 2.568h18.857a2.57 2.57 0 002.571-2.568V3.226a2.57 2.57 0 00-2.571-2.57zm-2.62 8.496c.01.15.01.304.01.454 0 4.639-3.535 9.983-9.995 9.983a9.96 9.96 0 01-5.395-1.573c.284.032.557.043.847.043a7.05 7.05 0 004.36-1.498 3.517 3.517 0 01-3.284-2.434c.542.08 1.029.08 1.586-.064a3.51 3.51 0 01-2.812-3.446v-.042a3.515 3.515 0 001.585.444 3.503 3.503 0 01-1.564-2.921c0-.653.172-1.252.477-1.771a9.98 9.98 0 007.243 3.67c-.499-2.38 1.285-4.312 3.428-4.312 1.012 0 1.923.423 2.566 1.107a6.89 6.89 0 002.229-.845 3.5 3.5 0 01-1.543 1.931 7 7 0 002.025-.545 7.39 7.39 0 01-1.763 1.819z" fill="#fff"/></svg>