<svg width="25" height="25" fill="none" xmlns="http://www.w3.org/2000/svg"><path d="M16.432.657H9.065C2.342.657.75 2.251.75 8.974v7.367c0 6.723 1.593 8.316 8.316 8.316h7.367c6.723 0 8.317-1.593 8.317-8.316V8.974c0-6.723-1.61-8.317-8.317-8.317zm3.692 17.12h-1.742c-.66 0-.864-.523-2.051-1.726-1.031-1-1.488-1.132-1.742-1.132-.36 0-.461.101-.461.594v1.574c0 .422-.133.676-1.25.676-1.848 0-3.899-1.118-5.337-3.2-2.168-3.05-2.761-5.336-2.761-5.808 0-.255.101-.492.59-.492h1.745c.442 0 .61.203.782.675.863 2.493 2.3 4.676 2.894 4.676.219 0 .32-.101.32-.66V10.38c-.067-1.187-.691-1.29-.691-1.71 0-.204.168-.407.437-.407h2.746c.37 0 .507.203.507.64v3.473c0 .375.168.507.27.507.219 0 .406-.132.812-.539 1.254-1.406 2.152-3.574 2.152-3.574.117-.255.32-.492.762-.492h1.746c.524 0 .64.269.524.644-.22 1.015-2.356 4.031-2.356 4.031-.184.305-.254.437 0 .777.188.254.797.781 1.203 1.254.746.848 1.32 1.559 1.473 2.05.172.489-.082.743-.575.743h.003z" fill="#fff"/></svg>