<svg width="317" height="438" fill="none" xmlns="http://www.w3.org/2000/svg"><path d="M315.748 260.047c-2.778.744-3.53-1.466-4.284-2.74-1.279-2.16-3.13-2.655-5.23-2.943-5.173-.711-7.569-3.502-7.94-8.489-.191-2.579-.13-5.342-1.062-7.667-1.949-4.861-6.917-5.312-10.589-4.976-2.276.207-4.56.336-6.843.448-2.405.118-4.167-.963-5.586-2.895-.508-.693-1.493-1.035-2.588-1.752-.501 4.332.695 7.645 3.383 10.451 3.322 3.47 7.573 5.476 11.706 7.782 5.192 2.897 9.77 6.645 12.796 12.101 2.509 4.526 4.714 9.074 4.064 14.345-.451 3.655-2 6.952-3.892 10.222-3.139 5.427-4.926 11.225-2.199 17.637 2.069 4.865 5.374 7.767 10.468 9.152 2.288.621 4.221 1.242 6.423-.062.616-.365 1.63-.056 2.461-.056l.164.75c-1.898.658-3.759 1.699-5.703 1.893-3.915.391-7.979.623-11.551-1.469-3.887-2.275-7.594-4.888-9.304-9.359-1.096-2.867-1.851-5.872-3.068-8.68-.836-1.93-2.203-3.628-3.719-6.047-.508 1.55-.833 2.412-1.072 3.297-.647 2.4-.976 4.931-1.942 7.19-1.795 4.199-.394 12.138 3.104 15.016 2.615 2.151 5.119 4.542 6.347 7.611 1.898 4.746 2.791 9.739.81 14.847-.805 2.077-1.325 4.293-1.698 6.493-.118.695.74 1.519.999 2.333.115.361-.148.842-.239 1.269-.328-.136-.837-.181-.955-.42-.979-1.984-2.5-3.949-2.685-6.025-.39-4.35-2.59-7.181-6.038-9.347-.391-.245-.991-.154-1.495-.219.075.513.019 1.095.244 1.529 2.785 5.356 2.521 8.2-.78 12.327-1.5 1.877-3.91 3.563-6.838 3.788-4.61.355-6.901 2.835-7.621 7.375-.298 1.879-.635 4.401-1.901 5.32-1.703 1.238-4.177 2.265-6.632 1.115-.573-.268-1.145-.539-1.742-.821.03-.267-.011-.671.094-.714 3.846-1.555 4.309-4.919 4.453-8.412.082-1.965-.005-3.936.014-5.904.043-4.373-2.122-7.343-5.412-10.1-4.279-3.587-9.232-5.504-14.305-7.377-1.945-.717-3.757-1.792-5.698-2.523-.738-.277-1.667-.045-3.26-.045 2.654 2.263 4.655 4.15 6.841 5.79 3.352 2.516 6.392 5.21 8.155 9.171.842 1.892-.398 3.119-1.351 3.873-2.437 1.927-3.183 3.771-1.615 6.696 1.161 2.164-.271 5.685-2.388 6.754 0-.774-.299-1.763.049-2.121 2.185-2.25.396-4.459-.489-6.106-.867-1.616-2.965-2.708-4.717-3.674a62.362 62.362 0 00-7.872-3.632c-2.369-.902-4.882-1.42-7.318-2.154-3.634-1.095-6.978-2.642-9.179-5.978-.681-1.032-1.485-1.983-2.233-2.971l-.716.179c.101 1.781.092 3.577.334 5.338.227 1.66.721 3.282 1.092 4.922.299 1.323.342 2.775.939 3.942 1.155 2.256-.153 3.704-1.487 4.937-3.721 3.44-7.425 6.948-11.484 9.958-2.744 2.035-6.067 3.29-9.149 4.859-3.483 1.775-6.936 3.621-10.495 5.23-2.968 1.342-6.091 2.336-9.107 3.575-3.229 1.327-6.368 2.885-9.631 4.114-3.261 1.229-6.651 2.112-9.941 3.269-2.115.745-4.136 1.756-6.231 2.565-1.613.622-3.263 1.159-4.919 1.658-3.646 1.1-7.341 2.049-10.952 3.254-3.433 1.145-6.757 2.617-10.179 3.801-3.61 1.25-7.278 2.334-10.922 3.485-1.75.552-3.515 1.056-5.253 1.644-4.203 1.42-8.42 2.801-12.58 4.34-3.357 1.242-6.606 2.779-9.963 4.022-3.183 1.18-6.462 2.096-9.665 3.224-3.26 1.147-6.474 2.424-9.717 3.621-2.138.789-4.294 1.53-6.437 2.308-1.457.529-2.918 1.053-4.356 1.634-4.813 1.945-9.637 3.865-14.416 5.891a455.019 455.019 0 00-13.412 5.926c-5.143 2.378-10.241 4.855-15.335 7.34-1.102.537-2.1 1.289-3.27 2.02 0-3.965-.097-7.618.02-11.264.227-7.13.567-14.257.872-21.384.072-1.68-.013-2.93 2.4-3.683 3.168-.987 5.932-3.271 8.876-4.986 1.192-.694 2.336-1.743 3.614-1.959 2.544-.43 2.871-2.442 3.717-4.208 1.295-2.703 2.598-5.41 4.058-8.025 2.044-3.661 4.053-7.364 6.416-10.816 2.378-3.474 5.117-6.707 7.795-9.966 4.703-5.723 9.436-11.423 14.24-17.062 4.65-5.458 9.566-10.695 14.058-16.277 3.432-4.266 6.287-8.991 9.572-13.382 3.887-5.195 6.75-10.862 8.895-16.982 1.585-4.519 3.707-8.846 5.42-13.323 1.225-3.197 2.167-6.502 3.238-9.758.817-2.484 2.007-4.917 2.36-7.465.394-2.846.076-5.799-.039-8.702-.027-.691-.615-1.348-.706-2.052-.629-4.829-1.079-9.684-1.815-14.496-.584-3.816-1.489-7.582-2.261-11.369-.081-.396-.284-.77-.343-1.168-.6-4.005-.927-8.073-1.836-12.006-1.093-4.73-2.83-9.306-4.005-14.021-1.204-4.836-3.887-8.907-6.18-13.193-2.135-3.991-5.498-6.751-9.574-8.313-2.675-1.026-5.722-1.09-8.608-1.549-6.644-1.055-13.282-2.148-19.939-3.11-4.044-.584-8.582-5.325-8.94-9.424-.472-5.399 1.084-10.156 3.954-14.677.69-1.085 1.425-2.776-.63-4.08-1.93-1.226-.983-5.486 1.809-7.258 1.494-.949 3.154-1.771 1.898-3.864-1.46-.364-3.124-.322-4.103-1.123-1.903-1.556-1.79-3.317.339-4.901 3.897-2.902 3.092-6.853.325-10.157-1.701-2.032-3.65-3.884-5.142-6.056-2.572-3.744-1.452-5.811 2.717-7.75 3.698-1.721 7.218-4.029 10.405-6.592 2.97-2.389 5.486-5.378 8.034-8.252 1.73-1.952 3.863-3.748 4.031-6.683.005-.082-.012-.204.033-.237 2.607-1.938.523-3.408-.47-5.012-.476-.768-.85-1.598-.826-2.619l3.072 2.632.95-.242c-.138-3.09.143-6.273-.515-9.248-.875-3.961.11-6.836 2.83-9.75 2.104-2.254 3.612-5.128 5.098-7.88 1.481-2.744 2.657-5.66 3.87-8.54.765-1.82 1.319-3.729 2.031-5.572.817-2.116 1.631-4.239 2.582-6.295.963-2.08 2.25-4.018 3.116-6.133 1.862-4.548 5.613-6.62 9.93-8.058.217-.072.417-.195.944-.447-.393-1.53-.739-3.093-1.2-4.622-1.238-4.102-1.014-10.193 3.858-13.207.526-.325 1.319-.214 2.022-.057-4.582 2.414-4.802 6.736-3.157 12.961.585-.327 1.272-.496 1.607-.934 2.67-3.501 6.555-5.117 10.435-6.604 2.383-.913 5.017-1.142 7.481-1.87 2.766-.82 5.436-1.969 8.208-2.763 2.463-.706 4.985-1.388 7.522-1.618 7.704-.696 15.446-.779 23.134.034 3.037.321 6.004 1.532 8.941 2.523 4.397 1.485 8.787 3.014 13.087 4.754 2.763 1.117 5.341 2.684 8.036 3.98 2.34 1.126 4.764 2.081 7.083 3.248 2.543 1.28 4.997 2.737 7.512 4.077 3.106 1.656 6.31 3.143 9.329 4.943 2.325 1.387 4.484 3.075 6.619 4.753 4.252 3.344 8.618 6.575 12.59 10.231 2.92 2.688 5.404 5.887 7.875 9.023 2.98 3.782 6.178 7.496 8.495 11.677 3.457 6.236 6.284 12.828 9.266 19.32 1.879 4.09 3.695 8.221 5.274 12.433 1.364 3.642 2.323 7.435 3.518 11.142.803 2.491 1.759 4.932 2.547 7.427.649 2.054 1.154 4.153 1.722 6.232 1.047 3.834 1.725 7.822 3.239 11.46 1.65 3.964 4.002 7.645 6.181 11.372 2.753 4.709 5.674 9.319 8.459 14.01 1.892 3.187 3.789 6.381 5.461 9.685.87 1.72 1.296 3.674 1.853 5.543.611 2.048 1.197 4.107 1.692 6.186.468 1.962 1.02 3.94 1.159 5.938.62 8.877.878 17.786 1.765 26.633.305 3.041 1.053 6.024 5.193 7.541 6.116 2.242 10.505 6.715 12.484 13.571 1.075 3.726.869 7.365 1.43 11.011.787 5.109 1.714 10.22 3.046 15.206.432 1.617 2.331 2.835 3.536 4.255.294.346.495.77.821 1.29zm-93.253 51.834l-.922-.247c-.559 1.24-1.718 2.584-1.529 3.696.257 1.511 1.502 2.876 2.417 4.239.328.488.93.791 1.407 1.179.003-.75.145-1.533-.02-2.244-.324-1.4-.888-2.744-1.216-4.144-.186-.793-.1-1.651-.137-2.479z" fill="url(#a)" fill-opacity=".3"/><defs><linearGradient id="a" x1="158.5" y1="-71.832" x2="208.16" y2="383.91" gradientUnits="userSpaceOnUse"><stop stop-color="#F0C7FF"/><stop offset="1" stop-color="#C4C4C4" stop-opacity="0"/></linearGradient></defs></svg>